G04 EAGLE Gerber RS-274X export*
G75*
%MOMM*%
%FSLAX34Y34*%
%LPD*%
%INCopper Layer 15*%
%IPPOS*%
%AMOC8*
5,1,8,0,0,1.08239X$1,22.5*%
G01*
%ADD10C,1.508000*%
%ADD11C,1.308000*%
%ADD12C,1.408000*%
%ADD13C,0.906400*%
%ADD14C,0.800100*%
%ADD15C,0.203200*%
%ADD16C,0.304800*%
%ADD17C,0.914400*%
%ADD18C,0.254000*%
%ADD19C,0.889000*%

G36*
X46934Y10176D02*
X46934Y10176D01*
X47053Y10183D01*
X47091Y10196D01*
X47132Y10201D01*
X47242Y10244D01*
X47355Y10281D01*
X47390Y10303D01*
X47427Y10318D01*
X47523Y10387D01*
X47624Y10451D01*
X47652Y10481D01*
X47685Y10504D01*
X47761Y10596D01*
X47842Y10683D01*
X47862Y10718D01*
X47887Y10749D01*
X47938Y10857D01*
X47996Y10961D01*
X48006Y11001D01*
X48023Y11037D01*
X48045Y11154D01*
X48075Y11269D01*
X48079Y11329D01*
X48083Y11349D01*
X48081Y11370D01*
X48085Y11430D01*
X48085Y14503D01*
X49465Y17835D01*
X52015Y20385D01*
X55347Y21765D01*
X58953Y21765D01*
X62285Y20385D01*
X64835Y17835D01*
X66215Y14503D01*
X66215Y11430D01*
X66230Y11312D01*
X66237Y11193D01*
X66250Y11155D01*
X66255Y11114D01*
X66298Y11004D01*
X66335Y10891D01*
X66357Y10856D01*
X66372Y10819D01*
X66441Y10723D01*
X66505Y10622D01*
X66535Y10594D01*
X66558Y10561D01*
X66650Y10485D01*
X66737Y10404D01*
X66772Y10384D01*
X66803Y10359D01*
X66911Y10308D01*
X67015Y10250D01*
X67055Y10240D01*
X67091Y10223D01*
X67208Y10201D01*
X67323Y10171D01*
X67383Y10167D01*
X67403Y10163D01*
X67424Y10165D01*
X67484Y10161D01*
X72216Y10161D01*
X72334Y10176D01*
X72453Y10183D01*
X72491Y10196D01*
X72532Y10201D01*
X72642Y10244D01*
X72755Y10281D01*
X72790Y10303D01*
X72827Y10318D01*
X72923Y10387D01*
X73024Y10451D01*
X73052Y10481D01*
X73085Y10504D01*
X73161Y10596D01*
X73242Y10683D01*
X73262Y10718D01*
X73287Y10749D01*
X73338Y10857D01*
X73396Y10961D01*
X73406Y11001D01*
X73423Y11037D01*
X73445Y11154D01*
X73475Y11269D01*
X73479Y11329D01*
X73483Y11349D01*
X73481Y11370D01*
X73485Y11430D01*
X73485Y14503D01*
X74865Y17835D01*
X77415Y20385D01*
X80747Y21765D01*
X84353Y21765D01*
X87685Y20385D01*
X90235Y17835D01*
X91615Y14503D01*
X91615Y11430D01*
X91630Y11312D01*
X91637Y11193D01*
X91650Y11155D01*
X91655Y11114D01*
X91698Y11004D01*
X91735Y10891D01*
X91757Y10856D01*
X91772Y10819D01*
X91841Y10723D01*
X91905Y10622D01*
X91935Y10594D01*
X91958Y10561D01*
X92050Y10485D01*
X92137Y10404D01*
X92172Y10384D01*
X92203Y10359D01*
X92311Y10308D01*
X92415Y10250D01*
X92455Y10240D01*
X92491Y10223D01*
X92608Y10201D01*
X92723Y10171D01*
X92783Y10167D01*
X92803Y10163D01*
X92824Y10165D01*
X92884Y10161D01*
X97108Y10161D01*
X97226Y10176D01*
X97345Y10183D01*
X97383Y10196D01*
X97424Y10201D01*
X97534Y10244D01*
X97647Y10281D01*
X97682Y10303D01*
X97719Y10318D01*
X97815Y10387D01*
X97916Y10451D01*
X97944Y10481D01*
X97977Y10504D01*
X98053Y10596D01*
X98134Y10683D01*
X98154Y10718D01*
X98179Y10749D01*
X98230Y10857D01*
X98288Y10961D01*
X98298Y11001D01*
X98315Y11037D01*
X98337Y11154D01*
X98367Y11269D01*
X98371Y11329D01*
X98375Y11349D01*
X98373Y11370D01*
X98377Y11430D01*
X98377Y14604D01*
X99835Y18122D01*
X102528Y20815D01*
X106046Y22273D01*
X109854Y22273D01*
X113372Y20815D01*
X116065Y18122D01*
X117523Y14604D01*
X117523Y11430D01*
X117538Y11312D01*
X117545Y11193D01*
X117558Y11155D01*
X117563Y11114D01*
X117606Y11004D01*
X117643Y10891D01*
X117665Y10856D01*
X117680Y10819D01*
X117749Y10723D01*
X117813Y10622D01*
X117843Y10594D01*
X117866Y10561D01*
X117958Y10485D01*
X118045Y10404D01*
X118080Y10384D01*
X118111Y10359D01*
X118219Y10308D01*
X118323Y10250D01*
X118363Y10240D01*
X118399Y10223D01*
X118516Y10201D01*
X118631Y10171D01*
X118691Y10167D01*
X118711Y10163D01*
X118732Y10165D01*
X118792Y10161D01*
X122060Y10161D01*
X122119Y10168D01*
X122179Y10166D01*
X122276Y10188D01*
X122375Y10201D01*
X122376Y10201D01*
X132120Y10201D01*
X132238Y10216D01*
X132357Y10223D01*
X132395Y10235D01*
X132435Y10241D01*
X132546Y10284D01*
X132659Y10321D01*
X132693Y10343D01*
X132731Y10358D01*
X132827Y10427D01*
X132928Y10491D01*
X132956Y10521D01*
X132988Y10544D01*
X133064Y10636D01*
X133146Y10723D01*
X133165Y10758D01*
X133191Y10789D01*
X133242Y10897D01*
X133299Y11001D01*
X133309Y11041D01*
X133327Y11077D01*
X133347Y11184D01*
X133351Y11154D01*
X133395Y11044D01*
X133431Y10931D01*
X133453Y10896D01*
X133468Y10859D01*
X133538Y10762D01*
X133601Y10662D01*
X133631Y10634D01*
X133655Y10601D01*
X133746Y10525D01*
X133833Y10444D01*
X133868Y10424D01*
X133900Y10399D01*
X134007Y10348D01*
X134112Y10290D01*
X134151Y10280D01*
X134187Y10263D01*
X134304Y10241D01*
X134420Y10211D01*
X134480Y10207D01*
X134500Y10203D01*
X134520Y10205D01*
X134580Y10201D01*
X144337Y10201D01*
X144362Y10192D01*
X144422Y10186D01*
X144480Y10171D01*
X144640Y10161D01*
X148416Y10161D01*
X148534Y10176D01*
X148653Y10183D01*
X148691Y10196D01*
X148732Y10201D01*
X148842Y10244D01*
X148955Y10281D01*
X148990Y10303D01*
X149027Y10318D01*
X149123Y10387D01*
X149224Y10451D01*
X149252Y10481D01*
X149285Y10504D01*
X149361Y10596D01*
X149442Y10683D01*
X149462Y10718D01*
X149487Y10749D01*
X149538Y10857D01*
X149596Y10961D01*
X149606Y11001D01*
X149623Y11037D01*
X149645Y11154D01*
X149675Y11269D01*
X149679Y11329D01*
X149683Y11349D01*
X149681Y11370D01*
X149685Y11430D01*
X149685Y14503D01*
X151065Y17835D01*
X153615Y20385D01*
X156947Y21765D01*
X160553Y21765D01*
X163885Y20385D01*
X166435Y17835D01*
X167815Y14503D01*
X167815Y11430D01*
X167830Y11312D01*
X167837Y11193D01*
X167850Y11155D01*
X167855Y11114D01*
X167898Y11004D01*
X167935Y10891D01*
X167957Y10856D01*
X167972Y10819D01*
X168041Y10723D01*
X168105Y10622D01*
X168135Y10594D01*
X168158Y10561D01*
X168250Y10485D01*
X168337Y10404D01*
X168372Y10384D01*
X168403Y10359D01*
X168511Y10308D01*
X168615Y10250D01*
X168655Y10240D01*
X168691Y10223D01*
X168808Y10201D01*
X168923Y10171D01*
X168983Y10167D01*
X169003Y10163D01*
X169024Y10165D01*
X169084Y10161D01*
X173816Y10161D01*
X173934Y10176D01*
X174053Y10183D01*
X174091Y10196D01*
X174132Y10201D01*
X174242Y10244D01*
X174355Y10281D01*
X174390Y10303D01*
X174427Y10318D01*
X174523Y10387D01*
X174624Y10451D01*
X174652Y10481D01*
X174685Y10504D01*
X174761Y10596D01*
X174842Y10683D01*
X174862Y10718D01*
X174887Y10749D01*
X174938Y10857D01*
X174996Y10961D01*
X175006Y11001D01*
X175023Y11037D01*
X175045Y11154D01*
X175075Y11269D01*
X175079Y11329D01*
X175083Y11349D01*
X175081Y11370D01*
X175085Y11430D01*
X175085Y14503D01*
X176465Y17835D01*
X179015Y20385D01*
X182347Y21765D01*
X185953Y21765D01*
X189285Y20385D01*
X191835Y17835D01*
X193215Y14503D01*
X193215Y11430D01*
X193230Y11312D01*
X193237Y11193D01*
X193250Y11155D01*
X193255Y11114D01*
X193298Y11004D01*
X193335Y10891D01*
X193357Y10856D01*
X193372Y10819D01*
X193441Y10723D01*
X193505Y10622D01*
X193535Y10594D01*
X193558Y10561D01*
X193650Y10485D01*
X193737Y10404D01*
X193772Y10384D01*
X193803Y10359D01*
X193911Y10308D01*
X194015Y10250D01*
X194055Y10240D01*
X194091Y10223D01*
X194208Y10201D01*
X194323Y10171D01*
X194383Y10167D01*
X194403Y10163D01*
X194424Y10165D01*
X194484Y10161D01*
X199216Y10161D01*
X199334Y10176D01*
X199453Y10183D01*
X199491Y10196D01*
X199532Y10201D01*
X199642Y10244D01*
X199755Y10281D01*
X199790Y10303D01*
X199827Y10318D01*
X199923Y10387D01*
X200024Y10451D01*
X200052Y10481D01*
X200085Y10504D01*
X200161Y10596D01*
X200242Y10683D01*
X200262Y10718D01*
X200287Y10749D01*
X200338Y10857D01*
X200396Y10961D01*
X200406Y11001D01*
X200423Y11037D01*
X200445Y11154D01*
X200475Y11269D01*
X200479Y11329D01*
X200483Y11349D01*
X200481Y11370D01*
X200485Y11430D01*
X200485Y14503D01*
X201865Y17835D01*
X204415Y20385D01*
X207747Y21765D01*
X211353Y21765D01*
X214685Y20385D01*
X217235Y17835D01*
X218615Y14503D01*
X218615Y11430D01*
X218630Y11312D01*
X218637Y11193D01*
X218650Y11155D01*
X218655Y11114D01*
X218698Y11004D01*
X218735Y10891D01*
X218757Y10856D01*
X218772Y10819D01*
X218841Y10723D01*
X218905Y10622D01*
X218935Y10594D01*
X218958Y10561D01*
X219050Y10485D01*
X219137Y10404D01*
X219172Y10384D01*
X219203Y10359D01*
X219311Y10308D01*
X219415Y10250D01*
X219455Y10240D01*
X219491Y10223D01*
X219608Y10201D01*
X219723Y10171D01*
X219783Y10167D01*
X219803Y10163D01*
X219824Y10165D01*
X219884Y10161D01*
X224616Y10161D01*
X224734Y10176D01*
X224853Y10183D01*
X224891Y10196D01*
X224932Y10201D01*
X225042Y10244D01*
X225155Y10281D01*
X225190Y10303D01*
X225227Y10318D01*
X225323Y10387D01*
X225424Y10451D01*
X225452Y10481D01*
X225485Y10504D01*
X225561Y10596D01*
X225642Y10683D01*
X225662Y10718D01*
X225687Y10749D01*
X225738Y10857D01*
X225796Y10961D01*
X225806Y11001D01*
X225823Y11037D01*
X225845Y11154D01*
X225875Y11269D01*
X225879Y11329D01*
X225883Y11349D01*
X225881Y11370D01*
X225885Y11430D01*
X225885Y14503D01*
X227265Y17835D01*
X229815Y20385D01*
X233147Y21765D01*
X236753Y21765D01*
X240085Y20385D01*
X242635Y17835D01*
X244015Y14503D01*
X244015Y11430D01*
X244030Y11312D01*
X244037Y11193D01*
X244050Y11155D01*
X244055Y11114D01*
X244098Y11004D01*
X244135Y10891D01*
X244157Y10856D01*
X244172Y10819D01*
X244241Y10723D01*
X244305Y10622D01*
X244335Y10594D01*
X244358Y10561D01*
X244450Y10485D01*
X244537Y10404D01*
X244572Y10384D01*
X244603Y10359D01*
X244711Y10308D01*
X244815Y10250D01*
X244855Y10240D01*
X244891Y10223D01*
X245008Y10201D01*
X245123Y10171D01*
X245183Y10167D01*
X245203Y10163D01*
X245224Y10165D01*
X245284Y10161D01*
X250016Y10161D01*
X250134Y10176D01*
X250253Y10183D01*
X250291Y10196D01*
X250332Y10201D01*
X250442Y10244D01*
X250555Y10281D01*
X250590Y10303D01*
X250627Y10318D01*
X250723Y10387D01*
X250824Y10451D01*
X250852Y10481D01*
X250885Y10504D01*
X250961Y10596D01*
X251042Y10683D01*
X251062Y10718D01*
X251087Y10749D01*
X251138Y10857D01*
X251196Y10961D01*
X251206Y11001D01*
X251223Y11037D01*
X251245Y11154D01*
X251275Y11269D01*
X251279Y11329D01*
X251283Y11349D01*
X251281Y11370D01*
X251285Y11430D01*
X251285Y14503D01*
X252665Y17835D01*
X255215Y20385D01*
X258547Y21765D01*
X262153Y21765D01*
X265485Y20385D01*
X268035Y17835D01*
X269415Y14503D01*
X269415Y11430D01*
X269430Y11312D01*
X269437Y11193D01*
X269450Y11155D01*
X269455Y11114D01*
X269498Y11004D01*
X269535Y10891D01*
X269557Y10856D01*
X269572Y10819D01*
X269641Y10723D01*
X269705Y10622D01*
X269735Y10594D01*
X269758Y10561D01*
X269850Y10485D01*
X269937Y10404D01*
X269972Y10384D01*
X270003Y10359D01*
X270111Y10308D01*
X270215Y10250D01*
X270255Y10240D01*
X270291Y10223D01*
X270408Y10201D01*
X270523Y10171D01*
X270583Y10167D01*
X270603Y10163D01*
X270624Y10165D01*
X270684Y10161D01*
X275416Y10161D01*
X275534Y10176D01*
X275653Y10183D01*
X275691Y10196D01*
X275732Y10201D01*
X275842Y10244D01*
X275955Y10281D01*
X275990Y10303D01*
X276027Y10318D01*
X276123Y10387D01*
X276224Y10451D01*
X276252Y10481D01*
X276285Y10504D01*
X276361Y10596D01*
X276442Y10683D01*
X276462Y10718D01*
X276487Y10749D01*
X276538Y10857D01*
X276596Y10961D01*
X276606Y11001D01*
X276623Y11037D01*
X276645Y11154D01*
X276675Y11269D01*
X276679Y11329D01*
X276683Y11349D01*
X276681Y11370D01*
X276685Y11430D01*
X276685Y14503D01*
X278065Y17835D01*
X280615Y20385D01*
X283947Y21765D01*
X287553Y21765D01*
X289612Y20912D01*
X289746Y20875D01*
X289879Y20834D01*
X289899Y20833D01*
X289919Y20828D01*
X290058Y20826D01*
X290197Y20819D01*
X290216Y20823D01*
X290237Y20823D01*
X290373Y20856D01*
X290508Y20883D01*
X290526Y20892D01*
X290546Y20897D01*
X290669Y20962D01*
X290794Y21023D01*
X290809Y21036D01*
X290827Y21046D01*
X290930Y21139D01*
X291036Y21230D01*
X291047Y21246D01*
X291062Y21260D01*
X291139Y21376D01*
X291219Y21490D01*
X291226Y21508D01*
X291237Y21525D01*
X291282Y21657D01*
X291332Y21787D01*
X291334Y21807D01*
X291340Y21826D01*
X291351Y21965D01*
X291367Y22103D01*
X291364Y22123D01*
X291366Y22143D01*
X291342Y22280D01*
X291322Y22418D01*
X291313Y22445D01*
X291311Y22457D01*
X291303Y22475D01*
X291270Y22570D01*
X291123Y22925D01*
X291123Y25335D01*
X292045Y27561D01*
X293749Y29265D01*
X295975Y30187D01*
X298385Y30187D01*
X300611Y29265D01*
X302315Y27561D01*
X303090Y25689D01*
X303115Y25646D01*
X303131Y25599D01*
X303193Y25508D01*
X303248Y25413D01*
X303282Y25377D01*
X303310Y25336D01*
X303392Y25263D01*
X303469Y25184D01*
X303511Y25158D01*
X303549Y25125D01*
X303646Y25075D01*
X303740Y25018D01*
X303788Y25003D01*
X303832Y24981D01*
X303939Y24957D01*
X304044Y24924D01*
X304094Y24922D01*
X304142Y24911D01*
X304252Y24914D01*
X304362Y24909D01*
X304410Y24919D01*
X304460Y24921D01*
X304566Y24951D01*
X304673Y24973D01*
X304718Y24995D01*
X304765Y25009D01*
X304860Y25065D01*
X304959Y25113D01*
X304997Y25145D01*
X305039Y25171D01*
X305160Y25277D01*
X305712Y25829D01*
X328092Y25829D01*
X328101Y25830D01*
X328110Y25829D01*
X328259Y25850D01*
X328408Y25869D01*
X328416Y25872D01*
X328425Y25873D01*
X328564Y25930D01*
X328704Y25986D01*
X328711Y25991D01*
X328719Y25994D01*
X328840Y26084D01*
X328961Y26172D01*
X328967Y26179D01*
X328974Y26185D01*
X329068Y26302D01*
X329164Y26417D01*
X329168Y26426D01*
X329173Y26433D01*
X329236Y26571D01*
X329299Y26705D01*
X329301Y26714D01*
X329305Y26722D01*
X329331Y26872D01*
X329359Y27017D01*
X329359Y27026D01*
X329360Y27035D01*
X329358Y27196D01*
X328283Y41016D01*
X328259Y41133D01*
X328242Y41251D01*
X328223Y41308D01*
X328219Y41328D01*
X328210Y41346D01*
X328190Y41403D01*
X327953Y41975D01*
X327953Y44458D01*
X327978Y44548D01*
X327979Y44606D01*
X327989Y44664D01*
X327987Y44825D01*
X327771Y47596D01*
X327757Y47665D01*
X327753Y47735D01*
X327725Y47820D01*
X327707Y47908D01*
X327676Y47971D01*
X327655Y48037D01*
X327607Y48113D01*
X327567Y48194D01*
X327522Y48247D01*
X327484Y48306D01*
X327419Y48368D01*
X327361Y48436D01*
X327304Y48476D01*
X327253Y48524D01*
X327174Y48567D01*
X327101Y48619D01*
X327036Y48644D01*
X326974Y48678D01*
X326888Y48700D01*
X326804Y48732D01*
X326734Y48740D01*
X326666Y48757D01*
X326506Y48767D01*
X312612Y48767D01*
X310604Y50776D01*
X305757Y55623D01*
X305733Y55641D01*
X305714Y55664D01*
X305608Y55738D01*
X305505Y55818D01*
X305478Y55830D01*
X305454Y55847D01*
X305333Y55893D01*
X305213Y55944D01*
X305184Y55949D01*
X305157Y55959D01*
X305028Y55974D01*
X304899Y55994D01*
X304870Y55991D01*
X304841Y55995D01*
X304712Y55977D01*
X304583Y55964D01*
X304569Y55959D01*
X302111Y55959D01*
X299885Y56881D01*
X298181Y58585D01*
X297259Y60811D01*
X297259Y63221D01*
X298181Y65447D01*
X299885Y67151D01*
X302111Y68073D01*
X304521Y68073D01*
X306747Y67151D01*
X308451Y65447D01*
X309373Y63221D01*
X309373Y60736D01*
X309350Y60652D01*
X309349Y60622D01*
X309343Y60594D01*
X309347Y60464D01*
X309345Y60334D01*
X309352Y60305D01*
X309353Y60276D01*
X309389Y60151D01*
X309419Y60025D01*
X309433Y59998D01*
X309441Y59970D01*
X309507Y59858D01*
X309568Y59743D01*
X309588Y59722D01*
X309603Y59696D01*
X309709Y59575D01*
X314556Y54728D01*
X314634Y54668D01*
X314706Y54600D01*
X314759Y54571D01*
X314807Y54534D01*
X314898Y54494D01*
X314985Y54446D01*
X315043Y54431D01*
X315099Y54407D01*
X315197Y54392D01*
X315293Y54367D01*
X315393Y54361D01*
X315413Y54357D01*
X315425Y54359D01*
X315453Y54357D01*
X325874Y54357D01*
X325883Y54358D01*
X325892Y54357D01*
X326040Y54378D01*
X326189Y54397D01*
X326198Y54400D01*
X326206Y54401D01*
X326345Y54458D01*
X326485Y54514D01*
X326492Y54519D01*
X326500Y54522D01*
X326621Y54612D01*
X326742Y54700D01*
X326748Y54707D01*
X326755Y54713D01*
X326849Y54830D01*
X326945Y54945D01*
X326949Y54954D01*
X326954Y54961D01*
X327017Y55099D01*
X327080Y55233D01*
X327082Y55242D01*
X327086Y55250D01*
X327112Y55400D01*
X327140Y55545D01*
X327140Y55554D01*
X327141Y55563D01*
X327139Y55724D01*
X325524Y76493D01*
X325514Y76542D01*
X325512Y76592D01*
X325482Y76697D01*
X325459Y76804D01*
X325437Y76849D01*
X325424Y76897D01*
X325368Y76992D01*
X325320Y77090D01*
X325287Y77128D01*
X325262Y77171D01*
X325156Y77292D01*
X309848Y92599D01*
X309739Y92684D01*
X309632Y92773D01*
X309613Y92782D01*
X309597Y92794D01*
X309469Y92850D01*
X309344Y92909D01*
X309324Y92912D01*
X309305Y92920D01*
X309167Y92942D01*
X309031Y92968D01*
X309011Y92967D01*
X308991Y92970D01*
X308852Y92957D01*
X308714Y92949D01*
X308695Y92942D01*
X308675Y92941D01*
X308543Y92893D01*
X308412Y92851D01*
X308394Y92840D01*
X308375Y92833D01*
X308260Y92755D01*
X308143Y92680D01*
X308129Y92666D01*
X308112Y92654D01*
X308020Y92550D01*
X307925Y92449D01*
X307915Y92431D01*
X307902Y92416D01*
X307838Y92292D01*
X307771Y92170D01*
X307766Y92151D01*
X307757Y92133D01*
X307727Y91997D01*
X307692Y91862D01*
X307690Y91834D01*
X307687Y91822D01*
X307688Y91802D01*
X307682Y91702D01*
X307682Y91505D01*
X306760Y89279D01*
X305056Y87575D01*
X302830Y86653D01*
X300318Y86653D01*
X300269Y86647D01*
X300219Y86649D01*
X300112Y86627D01*
X300003Y86613D01*
X299957Y86595D01*
X299908Y86585D01*
X299809Y86537D01*
X299707Y86496D01*
X299667Y86467D01*
X299622Y86445D01*
X299539Y86374D01*
X299450Y86310D01*
X299418Y86271D01*
X299380Y86239D01*
X299317Y86149D01*
X299247Y86065D01*
X299226Y86020D01*
X299197Y85979D01*
X299158Y85876D01*
X299112Y85777D01*
X299102Y85728D01*
X299085Y85682D01*
X299072Y85572D01*
X299052Y85465D01*
X299055Y85415D01*
X299049Y85366D01*
X299065Y85257D01*
X299071Y85147D01*
X299087Y85100D01*
X299094Y85051D01*
X299146Y84898D01*
X299307Y84510D01*
X299307Y82100D01*
X298385Y79874D01*
X296681Y78170D01*
X294455Y77248D01*
X292045Y77248D01*
X289819Y78170D01*
X288115Y79874D01*
X287193Y82100D01*
X287193Y84510D01*
X288115Y86736D01*
X289819Y88440D01*
X292045Y89362D01*
X294557Y89362D01*
X294606Y89368D01*
X294656Y89366D01*
X294763Y89388D01*
X294872Y89402D01*
X294918Y89420D01*
X294967Y89430D01*
X295066Y89478D01*
X295168Y89519D01*
X295208Y89548D01*
X295253Y89570D01*
X295336Y89641D01*
X295425Y89705D01*
X295457Y89744D01*
X295495Y89776D01*
X295558Y89866D01*
X295628Y89950D01*
X295649Y89995D01*
X295678Y90036D01*
X295717Y90139D01*
X295763Y90238D01*
X295773Y90287D01*
X295790Y90333D01*
X295803Y90443D01*
X295823Y90550D01*
X295820Y90600D01*
X295826Y90649D01*
X295810Y90758D01*
X295804Y90868D01*
X295788Y90915D01*
X295781Y90964D01*
X295729Y91117D01*
X295568Y91505D01*
X295568Y93915D01*
X296490Y96141D01*
X296988Y96638D01*
X297073Y96748D01*
X297162Y96855D01*
X297171Y96874D01*
X297183Y96890D01*
X297238Y97018D01*
X297297Y97143D01*
X297301Y97163D01*
X297309Y97182D01*
X297331Y97320D01*
X297357Y97456D01*
X297356Y97476D01*
X297359Y97496D01*
X297346Y97635D01*
X297337Y97773D01*
X297331Y97792D01*
X297329Y97812D01*
X297282Y97943D01*
X297239Y98075D01*
X297229Y98093D01*
X297222Y98112D01*
X297144Y98226D01*
X297069Y98344D01*
X297055Y98358D01*
X297043Y98375D01*
X296939Y98467D01*
X296838Y98562D01*
X296820Y98572D01*
X296805Y98585D01*
X296681Y98648D01*
X296559Y98716D01*
X296540Y98721D01*
X296522Y98730D01*
X296386Y98760D01*
X296251Y98795D01*
X296223Y98797D01*
X296211Y98800D01*
X296191Y98799D01*
X296091Y98805D01*
X125842Y98805D01*
X123834Y100814D01*
X98805Y125842D01*
X98805Y140858D01*
X100814Y142866D01*
X103973Y146025D01*
X104003Y146064D01*
X104040Y146098D01*
X104100Y146189D01*
X104167Y146276D01*
X104187Y146322D01*
X104214Y146363D01*
X104250Y146467D01*
X104294Y146568D01*
X104302Y146617D01*
X104318Y146664D01*
X104326Y146773D01*
X104344Y146882D01*
X104339Y146932D01*
X104343Y146981D01*
X104324Y147089D01*
X104314Y147199D01*
X104297Y147245D01*
X104289Y147294D01*
X104243Y147395D01*
X104206Y147498D01*
X104178Y147539D01*
X104158Y147584D01*
X104089Y147670D01*
X104028Y147761D01*
X103990Y147794D01*
X103959Y147833D01*
X103872Y147899D01*
X103789Y147972D01*
X103745Y147994D01*
X103705Y148024D01*
X103561Y148095D01*
X101481Y148956D01*
X99777Y150660D01*
X98855Y152886D01*
X98855Y155296D01*
X99777Y157522D01*
X101481Y159226D01*
X103707Y160148D01*
X106117Y160148D01*
X108343Y159226D01*
X109339Y158230D01*
X109448Y158145D01*
X109555Y158056D01*
X109574Y158047D01*
X109590Y158035D01*
X109717Y157980D01*
X109843Y157921D01*
X109863Y157917D01*
X109882Y157909D01*
X110020Y157887D01*
X110156Y157861D01*
X110176Y157862D01*
X110196Y157859D01*
X110335Y157872D01*
X110473Y157881D01*
X110492Y157887D01*
X110512Y157889D01*
X110644Y157936D01*
X110775Y157979D01*
X110793Y157989D01*
X110812Y157996D01*
X110927Y158074D01*
X111044Y158149D01*
X111058Y158163D01*
X111075Y158175D01*
X111167Y158279D01*
X111262Y158380D01*
X111272Y158398D01*
X111285Y158413D01*
X111348Y158537D01*
X111416Y158659D01*
X111421Y158678D01*
X111430Y158696D01*
X111460Y158832D01*
X111495Y158967D01*
X111497Y158995D01*
X111500Y159007D01*
X111499Y159027D01*
X111505Y159127D01*
X111505Y206398D01*
X111502Y206427D01*
X111504Y206457D01*
X111482Y206585D01*
X111465Y206713D01*
X111455Y206741D01*
X111450Y206770D01*
X111396Y206889D01*
X111348Y207009D01*
X111331Y207033D01*
X111319Y207060D01*
X111238Y207161D01*
X111162Y207266D01*
X111139Y207285D01*
X111120Y207308D01*
X111017Y207386D01*
X110917Y207469D01*
X110890Y207482D01*
X110866Y207500D01*
X110722Y207571D01*
X109165Y208215D01*
X106615Y210765D01*
X105235Y214097D01*
X105235Y217170D01*
X105220Y217288D01*
X105213Y217407D01*
X105200Y217445D01*
X105195Y217486D01*
X105152Y217596D01*
X105115Y217709D01*
X105093Y217744D01*
X105078Y217781D01*
X105009Y217877D01*
X104945Y217978D01*
X104915Y218006D01*
X104892Y218039D01*
X104800Y218115D01*
X104713Y218196D01*
X104678Y218216D01*
X104647Y218241D01*
X104539Y218292D01*
X104435Y218350D01*
X104395Y218360D01*
X104359Y218377D01*
X104242Y218399D01*
X104127Y218429D01*
X104067Y218433D01*
X104047Y218437D01*
X104026Y218435D01*
X103966Y218439D01*
X103044Y218439D01*
X102926Y218424D01*
X102807Y218417D01*
X102769Y218404D01*
X102728Y218399D01*
X102618Y218356D01*
X102505Y218319D01*
X102470Y218297D01*
X102433Y218282D01*
X102337Y218213D01*
X102236Y218149D01*
X102208Y218119D01*
X102175Y218096D01*
X102099Y218004D01*
X102018Y217917D01*
X101998Y217882D01*
X101973Y217851D01*
X101922Y217743D01*
X101864Y217639D01*
X101854Y217599D01*
X101837Y217563D01*
X101815Y217446D01*
X101785Y217331D01*
X101781Y217271D01*
X101777Y217251D01*
X101779Y217230D01*
X101775Y217170D01*
X101775Y214097D01*
X100395Y210765D01*
X97845Y208215D01*
X94513Y206835D01*
X90907Y206835D01*
X87575Y208215D01*
X85025Y210765D01*
X83645Y214097D01*
X83645Y217170D01*
X83630Y217288D01*
X83623Y217407D01*
X83610Y217445D01*
X83605Y217486D01*
X83562Y217596D01*
X83525Y217709D01*
X83503Y217744D01*
X83488Y217781D01*
X83419Y217877D01*
X83355Y217978D01*
X83325Y218006D01*
X83302Y218039D01*
X83210Y218115D01*
X83123Y218196D01*
X83088Y218216D01*
X83057Y218241D01*
X82949Y218292D01*
X82845Y218350D01*
X82805Y218360D01*
X82769Y218377D01*
X82652Y218399D01*
X82537Y218429D01*
X82477Y218433D01*
X82457Y218437D01*
X82436Y218435D01*
X82376Y218439D01*
X40172Y218439D01*
X40122Y218433D01*
X40073Y218435D01*
X39965Y218413D01*
X39856Y218399D01*
X39810Y218381D01*
X39761Y218371D01*
X39663Y218323D01*
X39560Y218282D01*
X39520Y218253D01*
X39476Y218231D01*
X39392Y218160D01*
X39303Y218096D01*
X39271Y218057D01*
X39234Y218025D01*
X39170Y217935D01*
X39100Y217851D01*
X39079Y217806D01*
X39051Y217765D01*
X39012Y217662D01*
X38965Y217563D01*
X38955Y217514D01*
X38938Y217468D01*
X38926Y217358D01*
X38905Y217251D01*
X38908Y217201D01*
X38903Y217152D01*
X38918Y217043D01*
X38925Y216933D01*
X38940Y216886D01*
X38947Y216837D01*
X38999Y216684D01*
X40211Y213759D01*
X40211Y205341D01*
X36989Y197563D01*
X31037Y191611D01*
X23259Y188389D01*
X14841Y188389D01*
X11916Y189601D01*
X11868Y189614D01*
X11823Y189635D01*
X11715Y189656D01*
X11609Y189685D01*
X11559Y189686D01*
X11510Y189695D01*
X11401Y189688D01*
X11291Y189690D01*
X11243Y189678D01*
X11193Y189675D01*
X11089Y189641D01*
X10982Y189616D01*
X10938Y189593D01*
X10891Y189577D01*
X10798Y189518D01*
X10701Y189467D01*
X10664Y189434D01*
X10622Y189407D01*
X10547Y189327D01*
X10465Y189253D01*
X10438Y189212D01*
X10404Y189175D01*
X10351Y189079D01*
X10291Y188987D01*
X10274Y188940D01*
X10250Y188897D01*
X10223Y188791D01*
X10187Y188687D01*
X10183Y188637D01*
X10171Y188589D01*
X10161Y188428D01*
X10161Y164990D01*
X10162Y164983D01*
X10161Y164975D01*
X10178Y164849D01*
X10183Y164772D01*
X10192Y164746D01*
X10201Y164674D01*
X10203Y164668D01*
X10204Y164660D01*
X10262Y164519D01*
X10279Y164476D01*
X10281Y164470D01*
X10282Y164468D01*
X10318Y164379D01*
X10322Y164373D01*
X10325Y164366D01*
X10416Y164243D01*
X10504Y164121D01*
X10510Y164117D01*
X10514Y164111D01*
X10632Y164016D01*
X10749Y163919D01*
X10756Y163915D01*
X10762Y163911D01*
X10901Y163847D01*
X11037Y163783D01*
X11044Y163782D01*
X11051Y163779D01*
X11202Y163752D01*
X11349Y163723D01*
X11357Y163724D01*
X11364Y163722D01*
X11516Y163734D01*
X11667Y163743D01*
X11674Y163745D01*
X11681Y163746D01*
X11837Y163788D01*
X15783Y165122D01*
X18166Y164964D01*
X18187Y164965D01*
X18251Y164961D01*
X26087Y164961D01*
X31108Y162881D01*
X34951Y159038D01*
X37031Y154017D01*
X37031Y149801D01*
X37046Y149682D01*
X37053Y149563D01*
X37066Y149525D01*
X37071Y149485D01*
X37114Y149374D01*
X37151Y149261D01*
X37173Y149227D01*
X37188Y149190D01*
X37258Y149093D01*
X37322Y148992D01*
X37351Y148965D01*
X37374Y148932D01*
X37467Y148856D01*
X37553Y148774D01*
X37588Y148755D01*
X37619Y148730D01*
X37727Y148679D01*
X37832Y148621D01*
X37871Y148611D01*
X37907Y148594D01*
X38024Y148572D01*
X38140Y148542D01*
X38180Y148542D01*
X38219Y148534D01*
X38339Y148542D01*
X38458Y148542D01*
X38497Y148551D01*
X38537Y148554D01*
X38650Y148591D01*
X38766Y148620D01*
X38801Y148640D01*
X38839Y148652D01*
X38940Y148716D01*
X39045Y148773D01*
X39074Y148801D01*
X39108Y148822D01*
X39190Y148909D01*
X39277Y148991D01*
X39299Y149025D01*
X39326Y149054D01*
X39384Y149158D01*
X39448Y149259D01*
X39470Y149314D01*
X39480Y149332D01*
X39485Y149352D01*
X39507Y149409D01*
X39955Y150786D01*
X40603Y152059D01*
X41444Y153216D01*
X42454Y154226D01*
X43611Y155067D01*
X44884Y155715D01*
X46244Y156157D01*
X46371Y156177D01*
X46371Y148030D01*
X46386Y147912D01*
X46393Y147793D01*
X46405Y147755D01*
X46411Y147715D01*
X46454Y147604D01*
X46491Y147491D01*
X46513Y147457D01*
X46528Y147419D01*
X46597Y147323D01*
X46661Y147222D01*
X46691Y147194D01*
X46714Y147162D01*
X46806Y147086D01*
X46893Y147004D01*
X46928Y146985D01*
X46959Y146959D01*
X47067Y146908D01*
X47171Y146851D01*
X47211Y146841D01*
X47247Y146823D01*
X47364Y146801D01*
X47479Y146771D01*
X47539Y146767D01*
X47559Y146764D01*
X47580Y146765D01*
X47640Y146761D01*
X47831Y146761D01*
X47831Y146570D01*
X47846Y146452D01*
X47853Y146333D01*
X47866Y146295D01*
X47871Y146254D01*
X47915Y146144D01*
X47951Y146031D01*
X47973Y145996D01*
X47988Y145959D01*
X48058Y145862D01*
X48121Y145762D01*
X48151Y145734D01*
X48175Y145701D01*
X48266Y145625D01*
X48353Y145544D01*
X48388Y145524D01*
X48420Y145499D01*
X48527Y145448D01*
X48632Y145390D01*
X48671Y145380D01*
X48707Y145363D01*
X48824Y145341D01*
X48940Y145311D01*
X49000Y145307D01*
X49020Y145303D01*
X49040Y145305D01*
X49100Y145301D01*
X57247Y145301D01*
X57227Y145174D01*
X56785Y143814D01*
X56137Y142541D01*
X55296Y141384D01*
X54286Y140374D01*
X53129Y139533D01*
X53062Y139499D01*
X53004Y139460D01*
X52942Y139429D01*
X52873Y139371D01*
X52799Y139320D01*
X52753Y139268D01*
X52700Y139223D01*
X52648Y139149D01*
X52588Y139082D01*
X52557Y139020D01*
X52517Y138963D01*
X52485Y138879D01*
X52444Y138798D01*
X52429Y138731D01*
X52404Y138666D01*
X52394Y138576D01*
X52374Y138488D01*
X52377Y138419D01*
X52369Y138350D01*
X52381Y138260D01*
X52384Y138170D01*
X52396Y138131D01*
X52396Y138118D01*
X52405Y138090D01*
X52413Y138035D01*
X52465Y137882D01*
X53031Y136517D01*
X53031Y131083D01*
X50951Y126062D01*
X47108Y122219D01*
X42087Y120139D01*
X36653Y120139D01*
X31632Y122219D01*
X27789Y126062D01*
X25709Y131083D01*
X25709Y134370D01*
X25694Y134488D01*
X25687Y134607D01*
X25674Y134645D01*
X25669Y134686D01*
X25626Y134796D01*
X25589Y134909D01*
X25567Y134944D01*
X25552Y134981D01*
X25483Y135077D01*
X25419Y135178D01*
X25389Y135206D01*
X25366Y135239D01*
X25274Y135315D01*
X25187Y135396D01*
X25152Y135416D01*
X25121Y135441D01*
X25013Y135492D01*
X24909Y135550D01*
X24869Y135560D01*
X24833Y135577D01*
X24716Y135599D01*
X24601Y135629D01*
X24541Y135633D01*
X24521Y135637D01*
X24500Y135635D01*
X24440Y135639D01*
X18251Y135639D01*
X18230Y135637D01*
X18166Y135636D01*
X15783Y135478D01*
X11837Y136812D01*
X11829Y136814D01*
X11823Y136817D01*
X11675Y136845D01*
X11525Y136876D01*
X11518Y136875D01*
X11510Y136877D01*
X11359Y136867D01*
X11207Y136860D01*
X11200Y136857D01*
X11193Y136857D01*
X11048Y136810D01*
X10904Y136765D01*
X10898Y136761D01*
X10891Y136759D01*
X10762Y136678D01*
X10633Y136598D01*
X10628Y136593D01*
X10622Y136589D01*
X10518Y136479D01*
X10413Y136369D01*
X10409Y136363D01*
X10404Y136357D01*
X10331Y136225D01*
X10256Y136092D01*
X10254Y136085D01*
X10250Y136079D01*
X10213Y135933D01*
X10173Y135785D01*
X10173Y135778D01*
X10171Y135771D01*
X10161Y135610D01*
X10161Y92924D01*
X10177Y92797D01*
X10187Y92669D01*
X10197Y92639D01*
X10201Y92608D01*
X10248Y92489D01*
X10289Y92368D01*
X10306Y92342D01*
X10318Y92313D01*
X10393Y92209D01*
X10463Y92102D01*
X10486Y92081D01*
X10504Y92055D01*
X10603Y91973D01*
X10698Y91887D01*
X10725Y91872D01*
X10749Y91853D01*
X10865Y91798D01*
X10979Y91738D01*
X11009Y91730D01*
X11037Y91717D01*
X11163Y91693D01*
X11288Y91663D01*
X11319Y91663D01*
X11349Y91657D01*
X11477Y91665D01*
X11606Y91667D01*
X11636Y91675D01*
X11667Y91677D01*
X11789Y91716D01*
X11913Y91750D01*
X11953Y91770D01*
X11969Y91775D01*
X11988Y91787D01*
X12057Y91821D01*
X13309Y92532D01*
X14579Y92691D01*
X14666Y92713D01*
X14755Y92726D01*
X14872Y92766D01*
X14887Y92770D01*
X14893Y92773D01*
X14907Y92778D01*
X15349Y92961D01*
X16658Y92961D01*
X16661Y92961D01*
X16816Y92971D01*
X18115Y93133D01*
X18576Y93006D01*
X18665Y92993D01*
X18752Y92971D01*
X18876Y92963D01*
X18891Y92961D01*
X18898Y92962D01*
X18913Y92961D01*
X21827Y92961D01*
X21916Y92972D01*
X22006Y92973D01*
X22128Y92999D01*
X22143Y93001D01*
X22149Y93003D01*
X22164Y93006D01*
X22625Y93133D01*
X23924Y92971D01*
X23927Y92971D01*
X24082Y92961D01*
X24440Y92961D01*
X24558Y92976D01*
X24677Y92983D01*
X24715Y92996D01*
X24756Y93001D01*
X24866Y93044D01*
X24979Y93081D01*
X25014Y93103D01*
X25051Y93118D01*
X25147Y93187D01*
X25248Y93251D01*
X25276Y93281D01*
X25309Y93304D01*
X25385Y93396D01*
X25466Y93483D01*
X25486Y93518D01*
X25511Y93549D01*
X25562Y93657D01*
X25620Y93761D01*
X25630Y93801D01*
X25647Y93837D01*
X25669Y93954D01*
X25699Y94069D01*
X25703Y94129D01*
X25707Y94149D01*
X25705Y94170D01*
X25709Y94230D01*
X25709Y97517D01*
X27789Y102538D01*
X31632Y106381D01*
X36653Y108461D01*
X42087Y108461D01*
X47108Y106381D01*
X50951Y102538D01*
X53031Y97517D01*
X53031Y92083D01*
X52465Y90718D01*
X52447Y90651D01*
X52419Y90587D01*
X52405Y90498D01*
X52381Y90411D01*
X52380Y90341D01*
X52369Y90273D01*
X52378Y90183D01*
X52376Y90093D01*
X52393Y90025D01*
X52399Y89956D01*
X52429Y89871D01*
X52450Y89784D01*
X52483Y89722D01*
X52506Y89657D01*
X52557Y89582D01*
X52599Y89503D01*
X52646Y89451D01*
X52685Y89394D01*
X52753Y89334D01*
X52813Y89267D01*
X52871Y89229D01*
X52923Y89183D01*
X53062Y89101D01*
X53129Y89067D01*
X54286Y88226D01*
X55296Y87216D01*
X56137Y86059D01*
X56785Y84786D01*
X57227Y83426D01*
X57247Y83299D01*
X49100Y83299D01*
X48982Y83284D01*
X48863Y83277D01*
X48825Y83264D01*
X48785Y83259D01*
X48674Y83216D01*
X48561Y83179D01*
X48527Y83157D01*
X48489Y83142D01*
X48393Y83073D01*
X48292Y83009D01*
X48264Y82979D01*
X48232Y82956D01*
X48156Y82864D01*
X48074Y82777D01*
X48055Y82742D01*
X48029Y82711D01*
X47978Y82603D01*
X47921Y82499D01*
X47911Y82459D01*
X47893Y82423D01*
X47871Y82306D01*
X47841Y82191D01*
X47837Y82131D01*
X47834Y82111D01*
X47835Y82090D01*
X47831Y82030D01*
X47831Y81839D01*
X47640Y81839D01*
X47522Y81824D01*
X47403Y81817D01*
X47365Y81804D01*
X47324Y81799D01*
X47214Y81755D01*
X47101Y81719D01*
X47066Y81697D01*
X47029Y81682D01*
X46932Y81612D01*
X46832Y81549D01*
X46804Y81519D01*
X46771Y81495D01*
X46695Y81404D01*
X46614Y81317D01*
X46594Y81282D01*
X46569Y81250D01*
X46518Y81143D01*
X46460Y81038D01*
X46450Y80999D01*
X46433Y80963D01*
X46411Y80846D01*
X46381Y80730D01*
X46377Y80670D01*
X46373Y80650D01*
X46375Y80630D01*
X46371Y80570D01*
X46371Y72423D01*
X46244Y72443D01*
X44884Y72885D01*
X43611Y73533D01*
X42454Y74374D01*
X41444Y75384D01*
X40603Y76541D01*
X39955Y77814D01*
X39616Y78855D01*
X39599Y78892D01*
X39589Y78931D01*
X39532Y79035D01*
X39481Y79143D01*
X39455Y79174D01*
X39435Y79210D01*
X39354Y79296D01*
X39278Y79388D01*
X39245Y79412D01*
X39217Y79441D01*
X39117Y79505D01*
X39021Y79575D01*
X38983Y79590D01*
X38949Y79612D01*
X38836Y79648D01*
X38725Y79692D01*
X38685Y79697D01*
X38646Y79710D01*
X38528Y79717D01*
X38410Y79732D01*
X38369Y79727D01*
X38329Y79729D01*
X38212Y79707D01*
X38094Y79692D01*
X38057Y79677D01*
X38016Y79670D01*
X37909Y79619D01*
X37799Y79575D01*
X37766Y79551D01*
X37729Y79534D01*
X37637Y79459D01*
X37541Y79389D01*
X37515Y79357D01*
X37484Y79331D01*
X37414Y79235D01*
X37338Y79144D01*
X37321Y79107D01*
X37297Y79074D01*
X37253Y78964D01*
X37203Y78856D01*
X37195Y78816D01*
X37180Y78778D01*
X37150Y78620D01*
X37129Y78457D01*
X37130Y78380D01*
X37120Y78303D01*
X37129Y78143D01*
X37130Y78140D01*
X37130Y78139D01*
X37302Y76759D01*
X35806Y71315D01*
X32339Y66859D01*
X27431Y64068D01*
X26161Y63909D01*
X26074Y63887D01*
X25985Y63874D01*
X25868Y63834D01*
X25853Y63830D01*
X25847Y63827D01*
X25833Y63822D01*
X25391Y63639D01*
X24082Y63639D01*
X24079Y63639D01*
X23924Y63629D01*
X22625Y63467D01*
X22164Y63594D01*
X22075Y63607D01*
X21988Y63629D01*
X21864Y63637D01*
X21849Y63639D01*
X21842Y63638D01*
X21827Y63639D01*
X18913Y63639D01*
X18824Y63628D01*
X18734Y63627D01*
X18612Y63601D01*
X18597Y63599D01*
X18591Y63597D01*
X18576Y63594D01*
X18115Y63467D01*
X16816Y63629D01*
X16813Y63629D01*
X16658Y63639D01*
X15349Y63639D01*
X14907Y63822D01*
X14820Y63846D01*
X14737Y63879D01*
X14615Y63902D01*
X14600Y63906D01*
X14593Y63906D01*
X14579Y63909D01*
X13309Y64068D01*
X12057Y64779D01*
X11939Y64828D01*
X11823Y64883D01*
X11792Y64889D01*
X11763Y64901D01*
X11636Y64919D01*
X11510Y64943D01*
X11479Y64941D01*
X11449Y64945D01*
X11321Y64931D01*
X11193Y64923D01*
X11163Y64913D01*
X11132Y64910D01*
X11013Y64865D01*
X10891Y64825D01*
X10864Y64808D01*
X10835Y64797D01*
X10730Y64723D01*
X10622Y64655D01*
X10600Y64632D01*
X10575Y64614D01*
X10492Y64517D01*
X10404Y64423D01*
X10389Y64396D01*
X10369Y64372D01*
X10312Y64257D01*
X10250Y64145D01*
X10243Y64115D01*
X10229Y64087D01*
X10203Y63961D01*
X10171Y63837D01*
X10168Y63792D01*
X10165Y63775D01*
X10166Y63753D01*
X10161Y63676D01*
X10161Y40172D01*
X10167Y40122D01*
X10165Y40073D01*
X10187Y39965D01*
X10201Y39856D01*
X10219Y39810D01*
X10229Y39761D01*
X10277Y39663D01*
X10318Y39560D01*
X10347Y39520D01*
X10369Y39476D01*
X10440Y39392D01*
X10504Y39303D01*
X10543Y39271D01*
X10575Y39234D01*
X10665Y39170D01*
X10749Y39100D01*
X10794Y39079D01*
X10835Y39051D01*
X10938Y39012D01*
X11037Y38965D01*
X11086Y38955D01*
X11132Y38938D01*
X11242Y38926D01*
X11349Y38905D01*
X11399Y38908D01*
X11448Y38903D01*
X11557Y38918D01*
X11667Y38925D01*
X11714Y38940D01*
X11763Y38947D01*
X11916Y38999D01*
X14841Y40211D01*
X23259Y40211D01*
X31037Y36989D01*
X36989Y31037D01*
X40211Y23259D01*
X40211Y14841D01*
X38999Y11916D01*
X38986Y11868D01*
X38965Y11823D01*
X38944Y11715D01*
X38915Y11609D01*
X38914Y11559D01*
X38905Y11510D01*
X38912Y11401D01*
X38910Y11291D01*
X38922Y11243D01*
X38925Y11193D01*
X38959Y11089D01*
X38984Y10982D01*
X39007Y10938D01*
X39023Y10891D01*
X39082Y10798D01*
X39133Y10701D01*
X39166Y10664D01*
X39193Y10622D01*
X39273Y10547D01*
X39347Y10465D01*
X39388Y10438D01*
X39425Y10404D01*
X39521Y10351D01*
X39613Y10291D01*
X39660Y10274D01*
X39703Y10250D01*
X39809Y10223D01*
X39913Y10187D01*
X39963Y10183D01*
X40011Y10171D01*
X40172Y10161D01*
X46816Y10161D01*
X46934Y10176D01*
G37*
G36*
X441149Y21395D02*
X441149Y21395D01*
X441259Y21394D01*
X441307Y21405D01*
X441357Y21408D01*
X441461Y21442D01*
X441568Y21468D01*
X441612Y21491D01*
X441659Y21506D01*
X441752Y21565D01*
X441849Y21616D01*
X441886Y21650D01*
X441928Y21676D01*
X442003Y21757D01*
X442085Y21830D01*
X442112Y21872D01*
X442146Y21908D01*
X442199Y22004D01*
X442259Y22096D01*
X442276Y22143D01*
X442300Y22187D01*
X442327Y22293D01*
X442363Y22397D01*
X442367Y22446D01*
X442379Y22495D01*
X442389Y22655D01*
X442389Y23259D01*
X445611Y31037D01*
X451563Y36989D01*
X459341Y40211D01*
X467759Y40211D01*
X470684Y38999D01*
X470732Y38986D01*
X470777Y38965D01*
X470885Y38944D01*
X470991Y38915D01*
X471041Y38914D01*
X471090Y38905D01*
X471199Y38912D01*
X471309Y38910D01*
X471357Y38922D01*
X471407Y38925D01*
X471511Y38959D01*
X471618Y38984D01*
X471662Y39008D01*
X471709Y39023D01*
X471802Y39082D01*
X471899Y39133D01*
X471936Y39166D01*
X471978Y39193D01*
X472053Y39273D01*
X472135Y39347D01*
X472162Y39388D01*
X472196Y39425D01*
X472249Y39521D01*
X472309Y39613D01*
X472326Y39660D01*
X472350Y39703D01*
X472377Y39809D01*
X472413Y39913D01*
X472417Y39963D01*
X472429Y40011D01*
X472439Y40172D01*
X472439Y52194D01*
X472433Y52243D01*
X472435Y52293D01*
X472413Y52400D01*
X472399Y52509D01*
X472381Y52555D01*
X472371Y52604D01*
X472323Y52703D01*
X472282Y52805D01*
X472253Y52845D01*
X472231Y52890D01*
X472160Y52974D01*
X472096Y53062D01*
X472057Y53094D01*
X472025Y53132D01*
X471935Y53195D01*
X471851Y53265D01*
X471806Y53286D01*
X471765Y53315D01*
X471662Y53354D01*
X471563Y53401D01*
X471514Y53410D01*
X471468Y53428D01*
X471358Y53440D01*
X471251Y53461D01*
X471201Y53457D01*
X471152Y53463D01*
X471043Y53448D01*
X470933Y53441D01*
X470886Y53425D01*
X470837Y53419D01*
X470684Y53366D01*
X466466Y51619D01*
X460634Y51619D01*
X455245Y53851D01*
X451121Y57975D01*
X448889Y63364D01*
X448889Y69196D01*
X451121Y74585D01*
X455245Y78709D01*
X458622Y80107D01*
X458743Y80176D01*
X458866Y80241D01*
X458881Y80255D01*
X458898Y80265D01*
X458998Y80362D01*
X459101Y80455D01*
X459112Y80472D01*
X459127Y80486D01*
X459199Y80605D01*
X459276Y80721D01*
X459282Y80740D01*
X459293Y80757D01*
X459334Y80890D01*
X459379Y81022D01*
X459380Y81042D01*
X459386Y81061D01*
X459393Y81200D01*
X459404Y81339D01*
X459401Y81359D01*
X459402Y81379D01*
X459374Y81515D01*
X459350Y81652D01*
X459341Y81671D01*
X459337Y81690D01*
X459276Y81816D01*
X459219Y81942D01*
X459206Y81958D01*
X459198Y81976D01*
X459107Y82082D01*
X459021Y82190D01*
X459004Y82203D01*
X458991Y82218D01*
X458877Y82298D01*
X458766Y82382D01*
X458741Y82394D01*
X458731Y82401D01*
X458712Y82408D01*
X458622Y82453D01*
X455245Y83851D01*
X451121Y87975D01*
X448889Y93364D01*
X448889Y99196D01*
X451121Y104585D01*
X455245Y108709D01*
X460634Y110941D01*
X466466Y110941D01*
X470684Y109194D01*
X470732Y109180D01*
X470777Y109159D01*
X470885Y109139D01*
X470991Y109110D01*
X471041Y109109D01*
X471090Y109099D01*
X471199Y109106D01*
X471309Y109105D01*
X471357Y109116D01*
X471407Y109119D01*
X471511Y109153D01*
X471618Y109179D01*
X471662Y109202D01*
X471709Y109217D01*
X471802Y109276D01*
X471899Y109327D01*
X471936Y109361D01*
X471978Y109387D01*
X472053Y109468D01*
X472135Y109541D01*
X472162Y109583D01*
X472196Y109619D01*
X472249Y109715D01*
X472309Y109807D01*
X472326Y109854D01*
X472350Y109898D01*
X472377Y110004D01*
X472413Y110108D01*
X472417Y110157D01*
X472429Y110205D01*
X472439Y110366D01*
X472439Y188428D01*
X472433Y188478D01*
X472435Y188527D01*
X472413Y188635D01*
X472399Y188744D01*
X472381Y188790D01*
X472371Y188839D01*
X472323Y188937D01*
X472282Y189040D01*
X472253Y189080D01*
X472231Y189124D01*
X472160Y189208D01*
X472096Y189297D01*
X472057Y189329D01*
X472025Y189366D01*
X471935Y189430D01*
X471851Y189500D01*
X471806Y189521D01*
X471765Y189549D01*
X471662Y189588D01*
X471563Y189635D01*
X471514Y189645D01*
X471468Y189662D01*
X471358Y189674D01*
X471251Y189695D01*
X471201Y189692D01*
X471152Y189697D01*
X471043Y189682D01*
X470933Y189675D01*
X470886Y189660D01*
X470837Y189653D01*
X470684Y189601D01*
X467759Y188389D01*
X459341Y188389D01*
X451563Y191611D01*
X445611Y197563D01*
X442389Y205341D01*
X442389Y205945D01*
X442383Y205994D01*
X442385Y206044D01*
X442363Y206151D01*
X442349Y206260D01*
X442331Y206307D01*
X442321Y206355D01*
X442273Y206454D01*
X442232Y206556D01*
X442203Y206596D01*
X442181Y206641D01*
X442110Y206724D01*
X442046Y206813D01*
X442007Y206845D01*
X441975Y206883D01*
X441885Y206946D01*
X441801Y207016D01*
X441756Y207037D01*
X441715Y207066D01*
X441612Y207105D01*
X441513Y207152D01*
X441464Y207161D01*
X441418Y207179D01*
X441308Y207191D01*
X441201Y207211D01*
X441151Y207208D01*
X441102Y207214D01*
X440993Y207199D01*
X440883Y207192D01*
X440836Y207176D01*
X440787Y207169D01*
X440634Y207117D01*
X439953Y206835D01*
X436347Y206835D01*
X433015Y208215D01*
X430465Y210765D01*
X429085Y214097D01*
X429085Y217170D01*
X429070Y217288D01*
X429063Y217407D01*
X429050Y217445D01*
X429045Y217486D01*
X429002Y217596D01*
X428965Y217709D01*
X428943Y217744D01*
X428928Y217781D01*
X428859Y217877D01*
X428795Y217978D01*
X428765Y218006D01*
X428742Y218039D01*
X428650Y218115D01*
X428563Y218196D01*
X428528Y218216D01*
X428497Y218241D01*
X428389Y218292D01*
X428285Y218350D01*
X428245Y218360D01*
X428209Y218377D01*
X428092Y218399D01*
X427977Y218429D01*
X427917Y218433D01*
X427897Y218437D01*
X427876Y218435D01*
X427816Y218439D01*
X423084Y218439D01*
X422966Y218424D01*
X422847Y218417D01*
X422809Y218404D01*
X422768Y218399D01*
X422658Y218356D01*
X422545Y218319D01*
X422510Y218297D01*
X422473Y218282D01*
X422377Y218213D01*
X422276Y218149D01*
X422248Y218119D01*
X422215Y218096D01*
X422139Y218004D01*
X422058Y217917D01*
X422038Y217882D01*
X422013Y217851D01*
X421962Y217743D01*
X421904Y217639D01*
X421894Y217599D01*
X421877Y217563D01*
X421855Y217446D01*
X421825Y217331D01*
X421821Y217271D01*
X421817Y217251D01*
X421819Y217230D01*
X421815Y217170D01*
X421815Y214097D01*
X420435Y210765D01*
X417885Y208215D01*
X414553Y206835D01*
X410947Y206835D01*
X407615Y208215D01*
X405065Y210765D01*
X403685Y214097D01*
X403685Y217170D01*
X403670Y217288D01*
X403663Y217407D01*
X403650Y217445D01*
X403645Y217486D01*
X403602Y217596D01*
X403565Y217709D01*
X403543Y217744D01*
X403528Y217781D01*
X403459Y217877D01*
X403395Y217978D01*
X403365Y218006D01*
X403342Y218039D01*
X403250Y218115D01*
X403163Y218196D01*
X403128Y218216D01*
X403097Y218241D01*
X402989Y218292D01*
X402885Y218350D01*
X402845Y218360D01*
X402809Y218377D01*
X402692Y218399D01*
X402577Y218429D01*
X402517Y218433D01*
X402497Y218437D01*
X402476Y218435D01*
X402416Y218439D01*
X397684Y218439D01*
X397566Y218424D01*
X397447Y218417D01*
X397409Y218404D01*
X397368Y218399D01*
X397258Y218356D01*
X397145Y218319D01*
X397110Y218297D01*
X397073Y218282D01*
X396977Y218213D01*
X396876Y218149D01*
X396848Y218119D01*
X396815Y218096D01*
X396739Y218004D01*
X396658Y217917D01*
X396638Y217882D01*
X396613Y217851D01*
X396562Y217743D01*
X396504Y217639D01*
X396494Y217599D01*
X396477Y217563D01*
X396455Y217446D01*
X396425Y217331D01*
X396421Y217271D01*
X396417Y217251D01*
X396419Y217230D01*
X396415Y217170D01*
X396415Y214097D01*
X395035Y210765D01*
X392485Y208215D01*
X389153Y206835D01*
X385547Y206835D01*
X382215Y208215D01*
X379665Y210765D01*
X378285Y214097D01*
X378285Y217170D01*
X378270Y217288D01*
X378263Y217407D01*
X378250Y217445D01*
X378245Y217486D01*
X378202Y217596D01*
X378165Y217709D01*
X378143Y217744D01*
X378128Y217781D01*
X378059Y217877D01*
X377995Y217978D01*
X377965Y218006D01*
X377942Y218039D01*
X377850Y218115D01*
X377763Y218196D01*
X377728Y218216D01*
X377697Y218241D01*
X377589Y218292D01*
X377485Y218350D01*
X377445Y218360D01*
X377409Y218377D01*
X377292Y218399D01*
X377177Y218429D01*
X377117Y218433D01*
X377097Y218437D01*
X377076Y218435D01*
X377016Y218439D01*
X372284Y218439D01*
X372166Y218424D01*
X372047Y218417D01*
X372009Y218404D01*
X371968Y218399D01*
X371858Y218356D01*
X371745Y218319D01*
X371710Y218297D01*
X371673Y218282D01*
X371577Y218213D01*
X371476Y218149D01*
X371448Y218119D01*
X371415Y218096D01*
X371339Y218004D01*
X371258Y217917D01*
X371238Y217882D01*
X371213Y217851D01*
X371162Y217743D01*
X371104Y217639D01*
X371094Y217599D01*
X371077Y217563D01*
X371055Y217446D01*
X371025Y217331D01*
X371021Y217271D01*
X371017Y217251D01*
X371019Y217230D01*
X371015Y217170D01*
X371015Y214097D01*
X369635Y210765D01*
X367085Y208215D01*
X363753Y206835D01*
X360147Y206835D01*
X356815Y208215D01*
X354265Y210765D01*
X352885Y214097D01*
X352885Y217170D01*
X352870Y217288D01*
X352863Y217407D01*
X352850Y217445D01*
X352845Y217486D01*
X352802Y217596D01*
X352765Y217709D01*
X352743Y217744D01*
X352728Y217781D01*
X352659Y217877D01*
X352595Y217978D01*
X352565Y218006D01*
X352542Y218039D01*
X352450Y218115D01*
X352363Y218196D01*
X352328Y218216D01*
X352297Y218241D01*
X352189Y218292D01*
X352085Y218350D01*
X352045Y218360D01*
X352009Y218377D01*
X351892Y218399D01*
X351777Y218429D01*
X351717Y218433D01*
X351697Y218437D01*
X351676Y218435D01*
X351616Y218439D01*
X346884Y218439D01*
X346766Y218424D01*
X346647Y218417D01*
X346609Y218404D01*
X346568Y218399D01*
X346458Y218356D01*
X346345Y218319D01*
X346310Y218297D01*
X346273Y218282D01*
X346177Y218213D01*
X346076Y218149D01*
X346048Y218119D01*
X346015Y218096D01*
X345939Y218004D01*
X345858Y217917D01*
X345838Y217882D01*
X345813Y217851D01*
X345762Y217743D01*
X345704Y217639D01*
X345694Y217599D01*
X345677Y217563D01*
X345655Y217446D01*
X345625Y217331D01*
X345621Y217271D01*
X345617Y217251D01*
X345619Y217230D01*
X345615Y217170D01*
X345615Y214097D01*
X344235Y210765D01*
X341685Y208215D01*
X338353Y206835D01*
X334747Y206835D01*
X331415Y208215D01*
X328865Y210765D01*
X327452Y214177D01*
X327393Y214280D01*
X327341Y214387D01*
X327315Y214418D01*
X327295Y214453D01*
X327212Y214538D01*
X327135Y214629D01*
X327102Y214652D01*
X327073Y214681D01*
X326972Y214744D01*
X326875Y214812D01*
X326837Y214826D01*
X326802Y214848D01*
X326689Y214883D01*
X326578Y214925D01*
X326537Y214929D01*
X326498Y214941D01*
X326380Y214947D01*
X326262Y214960D01*
X326221Y214954D01*
X326181Y214956D01*
X326064Y214932D01*
X325947Y214916D01*
X325909Y214900D01*
X325869Y214892D01*
X325762Y214840D01*
X325653Y214795D01*
X325620Y214770D01*
X325584Y214752D01*
X325493Y214675D01*
X325398Y214604D01*
X325372Y214572D01*
X325342Y214546D01*
X325273Y214449D01*
X325199Y214356D01*
X325182Y214319D01*
X325158Y214286D01*
X325116Y214175D01*
X325067Y214067D01*
X325060Y214027D01*
X325046Y213989D01*
X325033Y213871D01*
X325012Y213754D01*
X325013Y213693D01*
X325010Y213672D01*
X325013Y213652D01*
X325014Y213593D01*
X326057Y200181D01*
X326070Y200119D01*
X326070Y200113D01*
X326072Y200109D01*
X326076Y200042D01*
X326103Y199957D01*
X326121Y199869D01*
X326152Y199806D01*
X326174Y199740D01*
X326222Y199664D01*
X326261Y199583D01*
X326306Y199530D01*
X326344Y199471D01*
X326409Y199409D01*
X326467Y199341D01*
X326525Y199301D01*
X326576Y199253D01*
X326654Y199210D01*
X326727Y199158D01*
X326793Y199133D01*
X326854Y199099D01*
X326941Y199077D01*
X327025Y199045D01*
X327094Y199037D01*
X327162Y199020D01*
X327323Y199010D01*
X329453Y199010D01*
X359651Y168811D01*
X359675Y168793D01*
X359694Y168770D01*
X359800Y168695D01*
X359903Y168616D01*
X359930Y168604D01*
X359954Y168587D01*
X360076Y168541D01*
X360195Y168490D01*
X360224Y168485D01*
X360252Y168474D01*
X360380Y168460D01*
X360509Y168440D01*
X360538Y168443D01*
X360568Y168439D01*
X360696Y168457D01*
X360825Y168470D01*
X360840Y168475D01*
X363297Y168475D01*
X365523Y167553D01*
X367227Y165849D01*
X368149Y163623D01*
X368149Y161213D01*
X367227Y158987D01*
X365523Y157283D01*
X363297Y156361D01*
X360887Y156361D01*
X358661Y157283D01*
X356957Y158987D01*
X356035Y161213D01*
X356035Y163698D01*
X356058Y163782D01*
X356059Y163811D01*
X356065Y163840D01*
X356061Y163970D01*
X356063Y164100D01*
X356056Y164128D01*
X356055Y164158D01*
X356019Y164283D01*
X355989Y164409D01*
X355975Y164435D01*
X355967Y164464D01*
X355901Y164576D01*
X355841Y164690D01*
X355821Y164712D01*
X355806Y164738D01*
X355699Y164859D01*
X328966Y191592D01*
X328943Y191610D01*
X328924Y191632D01*
X328817Y191707D01*
X328714Y191787D01*
X328688Y191799D01*
X328664Y191815D01*
X328542Y191862D01*
X328423Y191913D01*
X328394Y191918D01*
X328366Y191928D01*
X328237Y191943D01*
X328108Y191963D01*
X328079Y191960D01*
X328050Y191964D01*
X327922Y191946D01*
X327792Y191933D01*
X327764Y191923D01*
X327735Y191919D01*
X327615Y191870D01*
X327493Y191826D01*
X327468Y191809D01*
X327441Y191798D01*
X327337Y191720D01*
X327229Y191647D01*
X327210Y191625D01*
X327187Y191608D01*
X327105Y191506D01*
X327019Y191409D01*
X327006Y191383D01*
X326987Y191360D01*
X326933Y191241D01*
X326874Y191125D01*
X326868Y191097D01*
X326856Y191070D01*
X326833Y190942D01*
X326805Y190815D01*
X326806Y190786D01*
X326800Y190757D01*
X326803Y190596D01*
X327921Y176218D01*
X327935Y176149D01*
X327940Y176079D01*
X327967Y175994D01*
X327985Y175906D01*
X328016Y175843D01*
X328038Y175777D01*
X328086Y175701D01*
X328125Y175620D01*
X328170Y175567D01*
X328208Y175508D01*
X328273Y175446D01*
X328331Y175378D01*
X328388Y175338D01*
X328439Y175290D01*
X328518Y175247D01*
X328591Y175195D01*
X328657Y175170D01*
X328718Y175136D01*
X328805Y175114D01*
X328888Y175082D01*
X328958Y175074D01*
X329026Y175057D01*
X329187Y175047D01*
X330556Y175047D01*
X332564Y173038D01*
X384879Y120724D01*
X384902Y120705D01*
X384921Y120683D01*
X384987Y120636D01*
X384994Y120631D01*
X385003Y120625D01*
X385027Y120608D01*
X385130Y120529D01*
X385157Y120517D01*
X385182Y120500D01*
X385303Y120454D01*
X385422Y120402D01*
X385451Y120398D01*
X385479Y120387D01*
X385608Y120373D01*
X385736Y120352D01*
X385766Y120355D01*
X385795Y120352D01*
X385923Y120370D01*
X386053Y120382D01*
X386081Y120392D01*
X386110Y120396D01*
X386111Y120397D01*
X388563Y120397D01*
X390804Y119469D01*
X392519Y117754D01*
X393447Y115513D01*
X393447Y113087D01*
X392519Y110846D01*
X390804Y109131D01*
X388563Y108203D01*
X386137Y108203D01*
X384026Y109078D01*
X383978Y109091D01*
X383933Y109112D01*
X383825Y109133D01*
X383719Y109162D01*
X383669Y109163D01*
X383620Y109172D01*
X383511Y109165D01*
X383401Y109167D01*
X383353Y109155D01*
X383303Y109152D01*
X383199Y109118D01*
X383092Y109093D01*
X383048Y109070D01*
X383001Y109054D01*
X382908Y108995D01*
X382811Y108944D01*
X382774Y108911D01*
X382732Y108884D01*
X382657Y108804D01*
X382575Y108730D01*
X382548Y108689D01*
X382514Y108652D01*
X382461Y108556D01*
X382401Y108464D01*
X382384Y108417D01*
X382360Y108374D01*
X382333Y108268D01*
X382297Y108164D01*
X382293Y108114D01*
X382281Y108066D01*
X382271Y107905D01*
X382271Y93672D01*
X382283Y93574D01*
X382286Y93475D01*
X382303Y93416D01*
X382311Y93356D01*
X382347Y93264D01*
X382375Y93169D01*
X382405Y93117D01*
X382428Y93061D01*
X382486Y92981D01*
X382536Y92895D01*
X382602Y92820D01*
X382614Y92803D01*
X382624Y92795D01*
X382642Y92774D01*
X411183Y64233D01*
X411183Y58334D01*
X411196Y58235D01*
X411199Y58136D01*
X411216Y58078D01*
X411223Y58018D01*
X411260Y57926D01*
X411287Y57831D01*
X411318Y57779D01*
X411340Y57722D01*
X411398Y57642D01*
X411449Y57557D01*
X411515Y57481D01*
X411527Y57465D01*
X411537Y57457D01*
X411555Y57436D01*
X413073Y55918D01*
X413914Y53888D01*
X413914Y51690D01*
X413073Y49659D01*
X411518Y48105D01*
X409488Y47263D01*
X407290Y47263D01*
X405259Y48105D01*
X403705Y49659D01*
X402863Y51690D01*
X402863Y53888D01*
X403705Y55918D01*
X405222Y57436D01*
X405283Y57514D01*
X405351Y57586D01*
X405380Y57639D01*
X405417Y57687D01*
X405456Y57778D01*
X405504Y57865D01*
X405519Y57923D01*
X405543Y57979D01*
X405559Y58077D01*
X405584Y58173D01*
X405590Y58273D01*
X405593Y58293D01*
X405592Y58306D01*
X405594Y58334D01*
X405594Y61392D01*
X405582Y61491D01*
X405579Y61590D01*
X405562Y61648D01*
X405554Y61708D01*
X405518Y61800D01*
X405490Y61895D01*
X405459Y61947D01*
X405437Y62004D01*
X405379Y62084D01*
X405329Y62169D01*
X405262Y62244D01*
X405250Y62261D01*
X405241Y62269D01*
X405222Y62290D01*
X376681Y90831D01*
X376681Y114025D01*
X376669Y114123D01*
X376666Y114222D01*
X376649Y114280D01*
X376641Y114340D01*
X376605Y114432D01*
X376577Y114528D01*
X376547Y114580D01*
X376524Y114636D01*
X376466Y114716D01*
X376416Y114801D01*
X376376Y114847D01*
X376374Y114849D01*
X376371Y114853D01*
X376350Y114877D01*
X376338Y114893D01*
X376328Y114901D01*
X376310Y114922D01*
X331439Y159793D01*
X331416Y159811D01*
X331397Y159833D01*
X331291Y159908D01*
X331188Y159988D01*
X331161Y159999D01*
X331137Y160016D01*
X331016Y160062D01*
X330896Y160114D01*
X330867Y160119D01*
X330840Y160129D01*
X330710Y160144D01*
X330582Y160164D01*
X330553Y160161D01*
X330524Y160165D01*
X330395Y160146D01*
X330265Y160134D01*
X330238Y160124D01*
X330209Y160120D01*
X330089Y160071D01*
X329966Y160027D01*
X329942Y160010D01*
X329915Y159999D01*
X329810Y159921D01*
X329703Y159848D01*
X329683Y159826D01*
X329660Y159809D01*
X329578Y159707D01*
X329492Y159610D01*
X329479Y159584D01*
X329461Y159561D01*
X329407Y159442D01*
X329348Y159326D01*
X329341Y159298D01*
X329329Y159271D01*
X329306Y159143D01*
X329278Y159016D01*
X329279Y158987D01*
X329274Y158958D01*
X329276Y158797D01*
X333409Y105653D01*
X333424Y105584D01*
X333428Y105514D01*
X333456Y105429D01*
X333474Y105341D01*
X333504Y105278D01*
X333526Y105212D01*
X333574Y105136D01*
X333613Y105055D01*
X333659Y105002D01*
X333696Y104943D01*
X333761Y104881D01*
X333820Y104813D01*
X333877Y104773D01*
X333928Y104725D01*
X334006Y104682D01*
X334079Y104630D01*
X334145Y104605D01*
X334206Y104571D01*
X334293Y104549D01*
X334377Y104517D01*
X334446Y104509D01*
X334514Y104492D01*
X334675Y104482D01*
X336485Y104482D01*
X338711Y103560D01*
X340415Y101856D01*
X341337Y99630D01*
X341337Y97220D01*
X340415Y94994D01*
X339082Y93661D01*
X339051Y93622D01*
X339015Y93589D01*
X338954Y93497D01*
X338887Y93410D01*
X338867Y93365D01*
X338840Y93323D01*
X338804Y93219D01*
X338761Y93118D01*
X338753Y93069D01*
X338737Y93022D01*
X338728Y92913D01*
X338711Y92804D01*
X338715Y92755D01*
X338711Y92705D01*
X338730Y92597D01*
X338741Y92488D01*
X338757Y92441D01*
X338766Y92392D01*
X338811Y92292D01*
X338848Y92188D01*
X338876Y92147D01*
X338896Y92102D01*
X338965Y92016D01*
X339027Y91925D01*
X339064Y91892D01*
X339095Y91853D01*
X339183Y91788D01*
X339265Y91715D01*
X339309Y91692D01*
X339349Y91662D01*
X339494Y91591D01*
X339727Y91495D01*
X341431Y89791D01*
X342353Y87565D01*
X342353Y85155D01*
X341431Y82929D01*
X339727Y81225D01*
X337501Y80303D01*
X336753Y80303D01*
X336744Y80302D01*
X336735Y80303D01*
X336586Y80282D01*
X336437Y80263D01*
X336429Y80260D01*
X336420Y80259D01*
X336281Y80202D01*
X336142Y80146D01*
X336134Y80141D01*
X336126Y80138D01*
X336006Y80048D01*
X335884Y79960D01*
X335879Y79953D01*
X335871Y79947D01*
X335778Y79831D01*
X335682Y79715D01*
X335678Y79706D01*
X335672Y79699D01*
X335610Y79562D01*
X335546Y79427D01*
X335544Y79418D01*
X335541Y79410D01*
X335514Y79261D01*
X335486Y79115D01*
X335487Y79106D01*
X335485Y79097D01*
X335487Y78936D01*
X335794Y74989D01*
X335804Y74940D01*
X335806Y74890D01*
X335836Y74785D01*
X335859Y74678D01*
X335881Y74633D01*
X335894Y74585D01*
X335950Y74490D01*
X335998Y74392D01*
X336031Y74354D01*
X336056Y74311D01*
X336162Y74190D01*
X346226Y64126D01*
X346304Y64066D01*
X346376Y63998D01*
X346429Y63969D01*
X346477Y63932D01*
X346568Y63892D01*
X346655Y63844D01*
X346713Y63829D01*
X346769Y63805D01*
X346867Y63790D01*
X346963Y63765D01*
X347063Y63759D01*
X347083Y63755D01*
X347095Y63757D01*
X347123Y63755D01*
X382323Y63755D01*
X382422Y63767D01*
X382521Y63770D01*
X382579Y63787D01*
X382639Y63795D01*
X382731Y63831D01*
X382826Y63859D01*
X382878Y63889D01*
X382935Y63912D01*
X383015Y63970D01*
X383100Y64020D01*
X383176Y64086D01*
X383192Y64098D01*
X383200Y64108D01*
X383221Y64126D01*
X385014Y65919D01*
X387240Y66841D01*
X389649Y66841D01*
X391875Y65919D01*
X393579Y64215D01*
X394501Y61989D01*
X394501Y59580D01*
X393579Y57354D01*
X391875Y55650D01*
X389649Y54728D01*
X387240Y54728D01*
X385014Y55650D01*
X383310Y57354D01*
X383298Y57382D01*
X383284Y57407D01*
X383274Y57435D01*
X383205Y57545D01*
X383141Y57658D01*
X383120Y57679D01*
X383104Y57704D01*
X383010Y57793D01*
X382919Y57886D01*
X382894Y57902D01*
X382873Y57922D01*
X382759Y57985D01*
X382648Y58053D01*
X382620Y58061D01*
X382594Y58076D01*
X382468Y58108D01*
X382344Y58146D01*
X382315Y58148D01*
X382286Y58155D01*
X382126Y58165D01*
X372900Y58165D01*
X372831Y58157D01*
X372761Y58158D01*
X372674Y58137D01*
X372585Y58125D01*
X372520Y58100D01*
X372452Y58083D01*
X372373Y58041D01*
X372289Y58008D01*
X372233Y57967D01*
X372171Y57935D01*
X372104Y57874D01*
X372032Y57822D01*
X371987Y57768D01*
X371936Y57721D01*
X371886Y57646D01*
X371829Y57577D01*
X371799Y57513D01*
X371761Y57455D01*
X371732Y57370D01*
X371693Y57289D01*
X371680Y57220D01*
X371658Y57154D01*
X371650Y57065D01*
X371634Y56977D01*
X371638Y56907D01*
X371632Y56837D01*
X371648Y56749D01*
X371653Y56659D01*
X371675Y56593D01*
X371687Y56524D01*
X371724Y56442D01*
X371751Y56357D01*
X371789Y56298D01*
X371817Y56234D01*
X371874Y56164D01*
X371922Y56088D01*
X371972Y56040D01*
X372016Y55986D01*
X372088Y55931D01*
X372153Y55870D01*
X372214Y55836D01*
X372270Y55794D01*
X372415Y55723D01*
X374261Y54959D01*
X375965Y53255D01*
X376887Y51029D01*
X376887Y48619D01*
X375965Y46393D01*
X374261Y44689D01*
X372035Y43767D01*
X369625Y43767D01*
X367399Y44689D01*
X365642Y46447D01*
X365599Y46522D01*
X365578Y46543D01*
X365563Y46568D01*
X365468Y46657D01*
X365378Y46750D01*
X365352Y46766D01*
X365331Y46786D01*
X365217Y46849D01*
X365106Y46917D01*
X365078Y46925D01*
X365052Y46940D01*
X364927Y46972D01*
X364802Y47010D01*
X364773Y47012D01*
X364744Y47019D01*
X364584Y47029D01*
X352470Y47029D01*
X352420Y47023D01*
X352371Y47025D01*
X352263Y47003D01*
X352154Y46989D01*
X352108Y46971D01*
X352059Y46961D01*
X351961Y46913D01*
X351859Y46872D01*
X351818Y46843D01*
X351774Y46821D01*
X351690Y46750D01*
X351601Y46686D01*
X351569Y46647D01*
X351532Y46615D01*
X351468Y46525D01*
X351398Y46441D01*
X351377Y46396D01*
X351349Y46355D01*
X351310Y46252D01*
X351263Y46153D01*
X351253Y46104D01*
X351236Y46058D01*
X351224Y45948D01*
X351203Y45841D01*
X351206Y45791D01*
X351201Y45741D01*
X351216Y45633D01*
X351223Y45523D01*
X351238Y45476D01*
X351245Y45427D01*
X351297Y45274D01*
X351410Y45002D01*
X351410Y42628D01*
X350501Y40433D01*
X348822Y38754D01*
X346627Y37845D01*
X344253Y37845D01*
X342058Y38754D01*
X341002Y39811D01*
X340908Y39884D01*
X340818Y39963D01*
X340782Y39981D01*
X340750Y40006D01*
X340641Y40053D01*
X340535Y40107D01*
X340495Y40116D01*
X340458Y40132D01*
X340341Y40151D01*
X340225Y40177D01*
X340184Y40176D01*
X340144Y40182D01*
X340025Y40171D01*
X339907Y40167D01*
X339868Y40156D01*
X339828Y40152D01*
X339715Y40112D01*
X339601Y40079D01*
X339566Y40058D01*
X339528Y40045D01*
X339430Y39978D01*
X339327Y39917D01*
X339282Y39878D01*
X339265Y39866D01*
X339252Y39851D01*
X339206Y39811D01*
X338992Y39597D01*
X338902Y39480D01*
X338809Y39365D01*
X338804Y39355D01*
X338798Y39346D01*
X338739Y39211D01*
X338678Y39075D01*
X338676Y39064D01*
X338671Y39054D01*
X338648Y38908D01*
X338622Y38762D01*
X338623Y38747D01*
X338621Y38740D01*
X338623Y38724D01*
X338625Y38601D01*
X339527Y27000D01*
X339541Y26931D01*
X339545Y26861D01*
X339573Y26776D01*
X339591Y26688D01*
X339622Y26625D01*
X339643Y26559D01*
X339691Y26483D01*
X339731Y26402D01*
X339776Y26349D01*
X339814Y26290D01*
X339879Y26228D01*
X339937Y26160D01*
X339994Y26120D01*
X340045Y26072D01*
X340124Y26029D01*
X340197Y25977D01*
X340262Y25952D01*
X340324Y25918D01*
X340410Y25896D01*
X340494Y25864D01*
X340564Y25856D01*
X340632Y25839D01*
X340792Y25829D01*
X426974Y25829D01*
X427092Y25844D01*
X427211Y25851D01*
X427249Y25864D01*
X427290Y25869D01*
X427400Y25912D01*
X427513Y25949D01*
X427548Y25971D01*
X427585Y25986D01*
X427681Y26055D01*
X427782Y26119D01*
X427810Y26149D01*
X427843Y26172D01*
X427919Y26264D01*
X428000Y26351D01*
X428020Y26386D01*
X428045Y26417D01*
X428096Y26525D01*
X428154Y26629D01*
X428164Y26669D01*
X428181Y26705D01*
X428203Y26822D01*
X428233Y26937D01*
X428237Y26997D01*
X428241Y27017D01*
X428239Y27038D01*
X428243Y27098D01*
X428243Y29661D01*
X429171Y31902D01*
X430886Y33617D01*
X433127Y34545D01*
X435553Y34545D01*
X437794Y33617D01*
X439509Y31902D01*
X440437Y29661D01*
X440437Y27235D01*
X439509Y24994D01*
X438446Y23931D01*
X438361Y23822D01*
X438272Y23715D01*
X438263Y23696D01*
X438251Y23680D01*
X438195Y23553D01*
X438136Y23427D01*
X438132Y23407D01*
X438124Y23388D01*
X438102Y23250D01*
X438076Y23114D01*
X438078Y23094D01*
X438074Y23074D01*
X438088Y22935D01*
X438096Y22797D01*
X438102Y22778D01*
X438104Y22758D01*
X438151Y22626D01*
X438194Y22495D01*
X438205Y22477D01*
X438212Y22458D01*
X438290Y22343D01*
X438364Y22226D01*
X438379Y22212D01*
X438390Y22195D01*
X438494Y22103D01*
X438596Y22008D01*
X438614Y21998D01*
X438629Y21985D01*
X438753Y21922D01*
X438874Y21854D01*
X438894Y21849D01*
X438912Y21840D01*
X439048Y21810D01*
X439182Y21775D01*
X439210Y21773D01*
X439222Y21770D01*
X439243Y21771D01*
X439343Y21765D01*
X439953Y21765D01*
X440634Y21483D01*
X440682Y21469D01*
X440727Y21448D01*
X440835Y21428D01*
X440941Y21399D01*
X440991Y21398D01*
X441040Y21389D01*
X441149Y21395D01*
G37*
G36*
X323435Y87608D02*
X323435Y87608D01*
X323565Y87620D01*
X323593Y87630D01*
X323622Y87634D01*
X323742Y87683D01*
X323864Y87727D01*
X323889Y87744D01*
X323916Y87755D01*
X324020Y87833D01*
X324128Y87906D01*
X324147Y87928D01*
X324170Y87945D01*
X324252Y88047D01*
X324338Y88144D01*
X324351Y88170D01*
X324370Y88193D01*
X324424Y88312D01*
X324483Y88428D01*
X324489Y88456D01*
X324501Y88483D01*
X324524Y88611D01*
X324552Y88738D01*
X324551Y88767D01*
X324556Y88796D01*
X324554Y88957D01*
X323610Y101098D01*
X323600Y101147D01*
X323598Y101197D01*
X323568Y101303D01*
X323546Y101410D01*
X323524Y101455D01*
X323510Y101503D01*
X323454Y101597D01*
X323406Y101696D01*
X323374Y101734D01*
X323348Y101777D01*
X323242Y101898D01*
X321890Y103249D01*
X320968Y105475D01*
X320968Y107885D01*
X321442Y109028D01*
X321455Y109076D01*
X321476Y109121D01*
X321497Y109229D01*
X321526Y109335D01*
X321527Y109385D01*
X321536Y109434D01*
X321529Y109543D01*
X321531Y109653D01*
X321519Y109701D01*
X321516Y109751D01*
X321482Y109855D01*
X321457Y109962D01*
X321433Y110006D01*
X321418Y110053D01*
X321359Y110146D01*
X321308Y110243D01*
X321275Y110280D01*
X321248Y110322D01*
X321168Y110397D01*
X321094Y110479D01*
X321053Y110506D01*
X321016Y110540D01*
X320920Y110593D01*
X320828Y110653D01*
X320781Y110670D01*
X320738Y110694D01*
X320632Y110721D01*
X320528Y110757D01*
X320478Y110761D01*
X320430Y110773D01*
X320376Y110777D01*
X318133Y111705D01*
X316429Y113409D01*
X315507Y115635D01*
X315507Y118045D01*
X316429Y120271D01*
X318133Y121975D01*
X320359Y122897D01*
X320543Y122897D01*
X320552Y122898D01*
X320561Y122897D01*
X320709Y122918D01*
X320858Y122937D01*
X320867Y122940D01*
X320876Y122941D01*
X321014Y122998D01*
X321154Y123054D01*
X321161Y123059D01*
X321170Y123062D01*
X321290Y123152D01*
X321411Y123240D01*
X321417Y123247D01*
X321424Y123253D01*
X321518Y123370D01*
X321614Y123485D01*
X321618Y123494D01*
X321624Y123501D01*
X321686Y123639D01*
X321750Y123773D01*
X321751Y123782D01*
X321755Y123790D01*
X321781Y123940D01*
X321809Y124085D01*
X321809Y124094D01*
X321810Y124103D01*
X321808Y124264D01*
X318740Y163714D01*
X318726Y163783D01*
X318721Y163853D01*
X318694Y163938D01*
X318676Y164026D01*
X318645Y164089D01*
X318623Y164155D01*
X318575Y164231D01*
X318536Y164312D01*
X318491Y164365D01*
X318453Y164424D01*
X318388Y164486D01*
X318330Y164554D01*
X318272Y164594D01*
X318221Y164642D01*
X318143Y164685D01*
X318070Y164737D01*
X318004Y164762D01*
X317943Y164796D01*
X317856Y164818D01*
X317772Y164850D01*
X317703Y164858D01*
X317635Y164875D01*
X317474Y164885D01*
X302568Y164885D01*
X277365Y190088D01*
X277287Y190148D01*
X277215Y190216D01*
X277162Y190245D01*
X277114Y190282D01*
X277023Y190322D01*
X276936Y190370D01*
X276878Y190385D01*
X276822Y190409D01*
X276724Y190424D01*
X276629Y190449D01*
X276528Y190455D01*
X276508Y190459D01*
X276496Y190457D01*
X276468Y190459D01*
X260368Y190459D01*
X260319Y190453D01*
X260269Y190455D01*
X260162Y190433D01*
X260052Y190419D01*
X260006Y190401D01*
X259958Y190391D01*
X259859Y190343D01*
X259757Y190302D01*
X259717Y190273D01*
X259672Y190251D01*
X259588Y190180D01*
X259499Y190116D01*
X259468Y190077D01*
X259430Y190045D01*
X259367Y189955D01*
X259297Y189871D01*
X259275Y189826D01*
X259247Y189785D01*
X259208Y189682D01*
X259161Y189583D01*
X259152Y189534D01*
X259134Y189488D01*
X259122Y189378D01*
X259101Y189271D01*
X259104Y189221D01*
X259099Y189172D01*
X259114Y189063D01*
X259121Y188953D01*
X259136Y188906D01*
X259143Y188857D01*
X259195Y188704D01*
X260057Y186625D01*
X260057Y184215D01*
X259135Y181989D01*
X257431Y180285D01*
X255205Y179363D01*
X252795Y179363D01*
X250569Y180285D01*
X248865Y181989D01*
X247943Y184215D01*
X247943Y186625D01*
X248805Y188704D01*
X248818Y188752D01*
X248839Y188797D01*
X248859Y188905D01*
X248889Y189011D01*
X248889Y189061D01*
X248899Y189110D01*
X248892Y189219D01*
X248894Y189329D01*
X248882Y189377D01*
X248879Y189427D01*
X248845Y189531D01*
X248819Y189638D01*
X248796Y189682D01*
X248781Y189729D01*
X248722Y189822D01*
X248671Y189919D01*
X248637Y189956D01*
X248611Y189998D01*
X248531Y190073D01*
X248457Y190155D01*
X248415Y190182D01*
X248379Y190216D01*
X248283Y190269D01*
X248191Y190329D01*
X248144Y190346D01*
X248101Y190370D01*
X247994Y190397D01*
X247890Y190433D01*
X247841Y190437D01*
X247793Y190449D01*
X247632Y190459D01*
X228790Y190459D01*
X228692Y190447D01*
X228593Y190444D01*
X228535Y190427D01*
X228475Y190419D01*
X228383Y190383D01*
X228288Y190355D01*
X228235Y190325D01*
X228179Y190302D01*
X228099Y190244D01*
X228014Y190194D01*
X227938Y190128D01*
X227922Y190116D01*
X227914Y190106D01*
X227893Y190088D01*
X179946Y142141D01*
X179928Y142117D01*
X179905Y142098D01*
X179831Y141992D01*
X179751Y141889D01*
X179739Y141862D01*
X179722Y141838D01*
X179676Y141717D01*
X179625Y141597D01*
X179620Y141568D01*
X179610Y141541D01*
X179595Y141412D01*
X179575Y141283D01*
X179578Y141254D01*
X179574Y141225D01*
X179592Y141096D01*
X179605Y140967D01*
X179610Y140952D01*
X179610Y138495D01*
X178688Y136269D01*
X176984Y134565D01*
X174758Y133643D01*
X172348Y133643D01*
X170122Y134565D01*
X168418Y136269D01*
X167496Y138495D01*
X167496Y140905D01*
X168418Y143131D01*
X170122Y144835D01*
X172348Y145757D01*
X174833Y145757D01*
X174917Y145734D01*
X174947Y145733D01*
X174975Y145727D01*
X175105Y145731D01*
X175235Y145729D01*
X175264Y145736D01*
X175293Y145737D01*
X175418Y145773D01*
X175544Y145803D01*
X175570Y145817D01*
X175599Y145825D01*
X175711Y145891D01*
X175825Y145952D01*
X175847Y145971D01*
X175873Y145987D01*
X175994Y146093D01*
X223099Y193199D01*
X223184Y193308D01*
X223273Y193415D01*
X223282Y193434D01*
X223294Y193450D01*
X223350Y193578D01*
X223409Y193703D01*
X223412Y193723D01*
X223420Y193742D01*
X223442Y193880D01*
X223468Y194016D01*
X223467Y194036D01*
X223470Y194056D01*
X223457Y194195D01*
X223449Y194333D01*
X223442Y194352D01*
X223441Y194372D01*
X223393Y194504D01*
X223351Y194635D01*
X223340Y194653D01*
X223333Y194672D01*
X223255Y194787D01*
X223180Y194904D01*
X223166Y194918D01*
X223154Y194935D01*
X223050Y195027D01*
X222949Y195122D01*
X222931Y195132D01*
X222916Y195145D01*
X222792Y195208D01*
X222670Y195276D01*
X222651Y195281D01*
X222633Y195290D01*
X222497Y195320D01*
X222362Y195355D01*
X222334Y195357D01*
X222322Y195360D01*
X222302Y195359D01*
X222202Y195365D01*
X200732Y195365D01*
X198724Y197374D01*
X189365Y206732D01*
X189256Y206817D01*
X189149Y206906D01*
X189130Y206915D01*
X189114Y206927D01*
X188986Y206983D01*
X188861Y207042D01*
X188841Y207045D01*
X188822Y207053D01*
X188684Y207075D01*
X188548Y207101D01*
X188528Y207100D01*
X188508Y207103D01*
X188369Y207090D01*
X188231Y207082D01*
X188212Y207075D01*
X188192Y207074D01*
X188060Y207026D01*
X187929Y206984D01*
X187911Y206973D01*
X187892Y206966D01*
X187777Y206888D01*
X187660Y206813D01*
X187646Y206799D01*
X187629Y206787D01*
X187537Y206683D01*
X187442Y206582D01*
X187432Y206564D01*
X187419Y206549D01*
X187355Y206425D01*
X187288Y206303D01*
X187283Y206284D01*
X187274Y206266D01*
X187244Y206130D01*
X187209Y205995D01*
X187207Y205967D01*
X187204Y205955D01*
X187205Y205935D01*
X187199Y205835D01*
X187199Y180033D01*
X187211Y179934D01*
X187214Y179835D01*
X187231Y179777D01*
X187239Y179717D01*
X187275Y179625D01*
X187303Y179530D01*
X187333Y179478D01*
X187356Y179421D01*
X187414Y179341D01*
X187464Y179256D01*
X187530Y179180D01*
X187542Y179164D01*
X187552Y179156D01*
X187570Y179135D01*
X189285Y177421D01*
X190207Y175195D01*
X190207Y172785D01*
X189285Y170559D01*
X187581Y168855D01*
X185355Y167933D01*
X182945Y167933D01*
X180719Y168855D01*
X179015Y170559D01*
X178093Y172785D01*
X178093Y175195D01*
X179015Y177421D01*
X180730Y179135D01*
X180790Y179213D01*
X180858Y179285D01*
X180887Y179338D01*
X180924Y179386D01*
X180964Y179477D01*
X181012Y179564D01*
X181027Y179622D01*
X181051Y179678D01*
X181066Y179776D01*
X181091Y179872D01*
X181097Y179972D01*
X181101Y179992D01*
X181099Y180005D01*
X181101Y180033D01*
X181101Y206503D01*
X181098Y206532D01*
X181100Y206562D01*
X181078Y206690D01*
X181061Y206819D01*
X181051Y206846D01*
X181046Y206875D01*
X180992Y206994D01*
X180944Y207114D01*
X180927Y207138D01*
X180915Y207165D01*
X180834Y207266D01*
X180758Y207372D01*
X180735Y207391D01*
X180716Y207414D01*
X180613Y207492D01*
X180513Y207575D01*
X180486Y207587D01*
X180462Y207605D01*
X180318Y207676D01*
X179015Y208215D01*
X176465Y210765D01*
X175085Y214097D01*
X175085Y217170D01*
X175070Y217288D01*
X175063Y217407D01*
X175050Y217445D01*
X175045Y217486D01*
X175002Y217596D01*
X174965Y217709D01*
X174943Y217744D01*
X174928Y217781D01*
X174859Y217877D01*
X174795Y217978D01*
X174765Y218006D01*
X174742Y218039D01*
X174650Y218115D01*
X174563Y218196D01*
X174528Y218216D01*
X174497Y218241D01*
X174389Y218292D01*
X174285Y218350D01*
X174245Y218360D01*
X174209Y218377D01*
X174092Y218399D01*
X173977Y218429D01*
X173917Y218433D01*
X173897Y218437D01*
X173876Y218435D01*
X173816Y218439D01*
X169084Y218439D01*
X168966Y218424D01*
X168847Y218417D01*
X168809Y218404D01*
X168768Y218399D01*
X168658Y218356D01*
X168545Y218319D01*
X168510Y218297D01*
X168473Y218282D01*
X168377Y218213D01*
X168276Y218149D01*
X168248Y218119D01*
X168215Y218096D01*
X168139Y218004D01*
X168058Y217917D01*
X168038Y217882D01*
X168013Y217851D01*
X167962Y217743D01*
X167904Y217639D01*
X167894Y217599D01*
X167877Y217563D01*
X167855Y217446D01*
X167825Y217331D01*
X167821Y217271D01*
X167817Y217251D01*
X167819Y217230D01*
X167815Y217170D01*
X167815Y214097D01*
X166435Y210765D01*
X163885Y208215D01*
X160553Y206835D01*
X156947Y206835D01*
X153615Y208215D01*
X151065Y210765D01*
X149685Y214097D01*
X149685Y217170D01*
X149670Y217288D01*
X149663Y217407D01*
X149650Y217445D01*
X149645Y217486D01*
X149602Y217596D01*
X149565Y217709D01*
X149543Y217744D01*
X149528Y217781D01*
X149459Y217877D01*
X149395Y217978D01*
X149365Y218006D01*
X149342Y218039D01*
X149250Y218115D01*
X149163Y218196D01*
X149128Y218216D01*
X149097Y218241D01*
X148989Y218292D01*
X148885Y218350D01*
X148845Y218360D01*
X148809Y218377D01*
X148692Y218399D01*
X148577Y218429D01*
X148517Y218433D01*
X148497Y218437D01*
X148476Y218435D01*
X148416Y218439D01*
X124634Y218439D01*
X124516Y218424D01*
X124397Y218417D01*
X124359Y218404D01*
X124318Y218399D01*
X124208Y218356D01*
X124095Y218319D01*
X124060Y218297D01*
X124023Y218282D01*
X123927Y218213D01*
X123826Y218149D01*
X123798Y218119D01*
X123765Y218096D01*
X123689Y218004D01*
X123608Y217917D01*
X123588Y217882D01*
X123563Y217851D01*
X123512Y217743D01*
X123454Y217639D01*
X123444Y217599D01*
X123427Y217563D01*
X123405Y217446D01*
X123375Y217331D01*
X123371Y217271D01*
X123367Y217251D01*
X123369Y217230D01*
X123365Y217170D01*
X123365Y214097D01*
X121985Y210765D01*
X119435Y208215D01*
X117878Y207571D01*
X117853Y207556D01*
X117825Y207547D01*
X117715Y207477D01*
X117602Y207413D01*
X117581Y207392D01*
X117556Y207377D01*
X117467Y207282D01*
X117374Y207192D01*
X117358Y207167D01*
X117338Y207145D01*
X117275Y207031D01*
X117207Y206921D01*
X117199Y206892D01*
X117184Y206867D01*
X117152Y206741D01*
X117114Y206617D01*
X117112Y206587D01*
X117105Y206559D01*
X117095Y206398D01*
X117095Y159109D01*
X117101Y159060D01*
X117099Y159010D01*
X117121Y158903D01*
X117135Y158793D01*
X117153Y158747D01*
X117163Y158699D01*
X117211Y158600D01*
X117252Y158498D01*
X117281Y158458D01*
X117303Y158413D01*
X117374Y158329D01*
X117438Y158240D01*
X117477Y158209D01*
X117509Y158171D01*
X117599Y158108D01*
X117683Y158038D01*
X117728Y158016D01*
X117769Y157988D01*
X117872Y157949D01*
X117971Y157902D01*
X118020Y157893D01*
X118066Y157875D01*
X118176Y157863D01*
X118283Y157842D01*
X118333Y157845D01*
X118382Y157840D01*
X118491Y157855D01*
X118601Y157862D01*
X118648Y157877D01*
X118697Y157884D01*
X118850Y157936D01*
X120929Y158798D01*
X121745Y158798D01*
X121794Y158804D01*
X121844Y158802D01*
X121952Y158824D01*
X122061Y158838D01*
X122107Y158856D01*
X122155Y158866D01*
X122254Y158914D01*
X122356Y158955D01*
X122396Y158984D01*
X122441Y159006D01*
X122525Y159077D01*
X122614Y159141D01*
X122645Y159180D01*
X122683Y159212D01*
X122746Y159302D01*
X122816Y159386D01*
X122838Y159431D01*
X122866Y159472D01*
X122905Y159575D01*
X122952Y159674D01*
X122961Y159723D01*
X122979Y159769D01*
X122991Y159879D01*
X123012Y159986D01*
X123009Y160036D01*
X123014Y160086D01*
X122999Y160195D01*
X122992Y160304D01*
X122977Y160351D01*
X122970Y160400D01*
X122918Y160553D01*
X122848Y160720D01*
X122848Y163130D01*
X123770Y165356D01*
X125474Y167060D01*
X127700Y167982D01*
X130110Y167982D01*
X132336Y167060D01*
X134040Y165356D01*
X134962Y163130D01*
X134962Y160720D01*
X134040Y158494D01*
X132336Y156790D01*
X130110Y155868D01*
X129294Y155868D01*
X129245Y155862D01*
X129195Y155864D01*
X129087Y155842D01*
X128978Y155828D01*
X128932Y155810D01*
X128884Y155800D01*
X128785Y155752D01*
X128683Y155711D01*
X128643Y155682D01*
X128598Y155660D01*
X128514Y155589D01*
X128425Y155525D01*
X128394Y155486D01*
X128356Y155454D01*
X128293Y155364D01*
X128223Y155280D01*
X128201Y155235D01*
X128173Y155194D01*
X128134Y155091D01*
X128087Y154992D01*
X128078Y154943D01*
X128060Y154897D01*
X128048Y154787D01*
X128027Y154680D01*
X128030Y154630D01*
X128025Y154580D01*
X128040Y154471D01*
X128047Y154362D01*
X128062Y154315D01*
X128069Y154266D01*
X128121Y154113D01*
X128191Y153946D01*
X128191Y151536D01*
X127269Y149310D01*
X125565Y147606D01*
X123339Y146684D01*
X120929Y146684D01*
X118703Y147606D01*
X116978Y149331D01*
X116884Y149404D01*
X116795Y149483D01*
X116759Y149501D01*
X116727Y149526D01*
X116618Y149573D01*
X116512Y149627D01*
X116472Y149636D01*
X116435Y149652D01*
X116318Y149671D01*
X116202Y149697D01*
X116161Y149696D01*
X116121Y149702D01*
X116003Y149691D01*
X115884Y149687D01*
X115845Y149676D01*
X115805Y149672D01*
X115692Y149632D01*
X115578Y149599D01*
X115543Y149579D01*
X115505Y149565D01*
X115407Y149498D01*
X115304Y149437D01*
X115259Y149398D01*
X115242Y149386D01*
X115229Y149371D01*
X115183Y149331D01*
X104766Y138914D01*
X104706Y138836D01*
X104638Y138764D01*
X104609Y138711D01*
X104572Y138663D01*
X104532Y138572D01*
X104484Y138485D01*
X104469Y138427D01*
X104445Y138371D01*
X104430Y138273D01*
X104405Y138177D01*
X104399Y138077D01*
X104395Y138057D01*
X104397Y138045D01*
X104395Y138017D01*
X104395Y128683D01*
X104407Y128585D01*
X104410Y128486D01*
X104427Y128428D01*
X104435Y128368D01*
X104471Y128276D01*
X104499Y128181D01*
X104529Y128128D01*
X104552Y128072D01*
X104610Y127992D01*
X104660Y127907D01*
X104726Y127831D01*
X104738Y127815D01*
X104748Y127807D01*
X104766Y127786D01*
X127786Y104766D01*
X127864Y104706D01*
X127936Y104638D01*
X127989Y104609D01*
X128037Y104572D01*
X128128Y104532D01*
X128215Y104484D01*
X128273Y104469D01*
X128329Y104445D01*
X128427Y104430D01*
X128523Y104405D01*
X128623Y104399D01*
X128643Y104395D01*
X128655Y104397D01*
X128683Y104395D01*
X305958Y104395D01*
X307966Y102386D01*
X322391Y87961D01*
X322414Y87943D01*
X322433Y87921D01*
X322540Y87846D01*
X322643Y87766D01*
X322669Y87754D01*
X322693Y87738D01*
X322815Y87692D01*
X322934Y87640D01*
X322963Y87635D01*
X322991Y87625D01*
X323120Y87610D01*
X323248Y87590D01*
X323278Y87593D01*
X323307Y87589D01*
X323435Y87608D01*
G37*
G36*
X316496Y175048D02*
X316496Y175048D01*
X316505Y175047D01*
X316653Y175068D01*
X316802Y175087D01*
X316811Y175090D01*
X316819Y175091D01*
X316958Y175148D01*
X317098Y175204D01*
X317105Y175209D01*
X317113Y175212D01*
X317234Y175302D01*
X317355Y175390D01*
X317361Y175397D01*
X317368Y175403D01*
X317462Y175520D01*
X317558Y175635D01*
X317562Y175644D01*
X317567Y175651D01*
X317630Y175789D01*
X317693Y175923D01*
X317695Y175932D01*
X317699Y175940D01*
X317725Y176090D01*
X317753Y176235D01*
X317753Y176244D01*
X317754Y176253D01*
X317752Y176414D01*
X316714Y189760D01*
X316686Y189896D01*
X316662Y190033D01*
X316654Y190051D01*
X316650Y190071D01*
X316589Y190196D01*
X316531Y190323D01*
X316519Y190339D01*
X316510Y190357D01*
X316420Y190463D01*
X316333Y190572D01*
X316317Y190584D01*
X316304Y190599D01*
X316190Y190679D01*
X316079Y190763D01*
X316054Y190775D01*
X316044Y190782D01*
X316025Y190789D01*
X315934Y190834D01*
X315339Y191080D01*
X313635Y192784D01*
X312713Y195010D01*
X312713Y197420D01*
X313635Y199646D01*
X315365Y201376D01*
X315456Y201493D01*
X315549Y201608D01*
X315553Y201618D01*
X315560Y201627D01*
X315619Y201763D01*
X315680Y201897D01*
X315682Y201908D01*
X315686Y201919D01*
X315710Y202065D01*
X315735Y202211D01*
X315735Y202226D01*
X315736Y202233D01*
X315735Y202248D01*
X315733Y202372D01*
X315446Y206068D01*
X315446Y206069D01*
X315426Y206165D01*
X315381Y206380D01*
X315344Y206457D01*
X315242Y206665D01*
X315242Y206666D01*
X315241Y206666D01*
X315173Y206746D01*
X315036Y206907D01*
X315035Y206908D01*
X314906Y206999D01*
X314776Y207091D01*
X314775Y207091D01*
X314632Y207145D01*
X314478Y207203D01*
X314478Y207204D01*
X314303Y207223D01*
X314162Y207239D01*
X313984Y207214D01*
X313847Y207195D01*
X313847Y207194D01*
X313694Y207142D01*
X312953Y206835D01*
X309347Y206835D01*
X306015Y208215D01*
X303465Y210765D01*
X302085Y214097D01*
X302085Y217170D01*
X302070Y217288D01*
X302063Y217407D01*
X302050Y217445D01*
X302045Y217486D01*
X302002Y217596D01*
X301965Y217709D01*
X301943Y217744D01*
X301928Y217781D01*
X301859Y217877D01*
X301795Y217978D01*
X301765Y218006D01*
X301742Y218039D01*
X301650Y218115D01*
X301563Y218196D01*
X301528Y218216D01*
X301497Y218241D01*
X301389Y218292D01*
X301285Y218350D01*
X301245Y218360D01*
X301209Y218377D01*
X301092Y218399D01*
X300977Y218429D01*
X300917Y218433D01*
X300897Y218437D01*
X300876Y218435D01*
X300816Y218439D01*
X296084Y218439D01*
X295966Y218424D01*
X295847Y218417D01*
X295809Y218404D01*
X295768Y218399D01*
X295658Y218356D01*
X295545Y218319D01*
X295510Y218297D01*
X295473Y218282D01*
X295377Y218213D01*
X295276Y218149D01*
X295248Y218119D01*
X295215Y218096D01*
X295139Y218004D01*
X295058Y217917D01*
X295038Y217882D01*
X295013Y217851D01*
X294962Y217743D01*
X294904Y217639D01*
X294894Y217599D01*
X294877Y217563D01*
X294855Y217446D01*
X294825Y217331D01*
X294821Y217271D01*
X294817Y217251D01*
X294819Y217230D01*
X294815Y217170D01*
X294815Y214097D01*
X293435Y210765D01*
X290885Y208215D01*
X287553Y206835D01*
X283947Y206835D01*
X280615Y208215D01*
X278065Y210765D01*
X276685Y214097D01*
X276685Y217170D01*
X276670Y217288D01*
X276663Y217407D01*
X276650Y217445D01*
X276645Y217486D01*
X276602Y217596D01*
X276565Y217709D01*
X276543Y217744D01*
X276528Y217781D01*
X276459Y217877D01*
X276395Y217978D01*
X276365Y218006D01*
X276342Y218039D01*
X276250Y218115D01*
X276163Y218196D01*
X276128Y218216D01*
X276097Y218241D01*
X275989Y218292D01*
X275885Y218350D01*
X275845Y218360D01*
X275809Y218377D01*
X275692Y218399D01*
X275577Y218429D01*
X275517Y218433D01*
X275497Y218437D01*
X275476Y218435D01*
X275416Y218439D01*
X270684Y218439D01*
X270566Y218424D01*
X270447Y218417D01*
X270409Y218404D01*
X270368Y218399D01*
X270258Y218356D01*
X270145Y218319D01*
X270110Y218297D01*
X270073Y218282D01*
X269977Y218213D01*
X269876Y218149D01*
X269848Y218119D01*
X269815Y218096D01*
X269739Y218004D01*
X269658Y217917D01*
X269638Y217882D01*
X269613Y217851D01*
X269562Y217743D01*
X269504Y217639D01*
X269494Y217599D01*
X269477Y217563D01*
X269455Y217446D01*
X269425Y217331D01*
X269421Y217271D01*
X269417Y217251D01*
X269419Y217230D01*
X269415Y217170D01*
X269415Y214097D01*
X268035Y210765D01*
X265485Y208215D01*
X262153Y206835D01*
X258547Y206835D01*
X255215Y208215D01*
X252665Y210765D01*
X251285Y214097D01*
X251285Y217170D01*
X251270Y217288D01*
X251263Y217407D01*
X251250Y217445D01*
X251245Y217486D01*
X251202Y217596D01*
X251165Y217709D01*
X251143Y217744D01*
X251128Y217781D01*
X251059Y217877D01*
X250995Y217978D01*
X250965Y218006D01*
X250942Y218039D01*
X250850Y218115D01*
X250763Y218196D01*
X250728Y218216D01*
X250697Y218241D01*
X250589Y218292D01*
X250485Y218350D01*
X250445Y218360D01*
X250409Y218377D01*
X250292Y218399D01*
X250177Y218429D01*
X250117Y218433D01*
X250097Y218437D01*
X250076Y218435D01*
X250016Y218439D01*
X245284Y218439D01*
X245166Y218424D01*
X245047Y218417D01*
X245009Y218404D01*
X244968Y218399D01*
X244858Y218356D01*
X244745Y218319D01*
X244710Y218297D01*
X244673Y218282D01*
X244577Y218213D01*
X244476Y218149D01*
X244448Y218119D01*
X244415Y218096D01*
X244339Y218004D01*
X244258Y217917D01*
X244238Y217882D01*
X244213Y217851D01*
X244162Y217743D01*
X244104Y217639D01*
X244094Y217599D01*
X244077Y217563D01*
X244055Y217446D01*
X244025Y217331D01*
X244021Y217271D01*
X244017Y217251D01*
X244019Y217230D01*
X244015Y217170D01*
X244015Y214097D01*
X242635Y210765D01*
X240085Y208215D01*
X236753Y206835D01*
X233147Y206835D01*
X229815Y208215D01*
X227265Y210765D01*
X225885Y214097D01*
X225885Y217170D01*
X225870Y217288D01*
X225863Y217407D01*
X225850Y217445D01*
X225845Y217486D01*
X225802Y217596D01*
X225765Y217709D01*
X225743Y217744D01*
X225728Y217781D01*
X225659Y217877D01*
X225595Y217978D01*
X225565Y218006D01*
X225542Y218039D01*
X225450Y218115D01*
X225363Y218196D01*
X225328Y218216D01*
X225297Y218241D01*
X225189Y218292D01*
X225085Y218350D01*
X225045Y218360D01*
X225009Y218377D01*
X224892Y218399D01*
X224777Y218429D01*
X224717Y218433D01*
X224697Y218437D01*
X224676Y218435D01*
X224616Y218439D01*
X219884Y218439D01*
X219766Y218424D01*
X219647Y218417D01*
X219609Y218404D01*
X219568Y218399D01*
X219458Y218356D01*
X219345Y218319D01*
X219310Y218297D01*
X219273Y218282D01*
X219177Y218213D01*
X219076Y218149D01*
X219048Y218119D01*
X219015Y218096D01*
X218939Y218004D01*
X218858Y217917D01*
X218838Y217882D01*
X218813Y217851D01*
X218762Y217743D01*
X218704Y217639D01*
X218694Y217599D01*
X218677Y217563D01*
X218655Y217446D01*
X218625Y217331D01*
X218621Y217271D01*
X218617Y217251D01*
X218619Y217230D01*
X218615Y217170D01*
X218615Y214097D01*
X217235Y210765D01*
X214685Y208215D01*
X211353Y206835D01*
X207747Y206835D01*
X204415Y208215D01*
X201865Y210765D01*
X200485Y214097D01*
X200485Y217170D01*
X200470Y217288D01*
X200463Y217407D01*
X200450Y217445D01*
X200445Y217486D01*
X200402Y217596D01*
X200365Y217709D01*
X200343Y217744D01*
X200328Y217781D01*
X200259Y217877D01*
X200195Y217978D01*
X200165Y218006D01*
X200142Y218039D01*
X200050Y218115D01*
X199963Y218196D01*
X199928Y218216D01*
X199897Y218241D01*
X199789Y218292D01*
X199685Y218350D01*
X199645Y218360D01*
X199609Y218377D01*
X199492Y218399D01*
X199377Y218429D01*
X199317Y218433D01*
X199297Y218437D01*
X199276Y218435D01*
X199216Y218439D01*
X194484Y218439D01*
X194366Y218424D01*
X194247Y218417D01*
X194209Y218404D01*
X194168Y218399D01*
X194058Y218356D01*
X193945Y218319D01*
X193910Y218297D01*
X193873Y218282D01*
X193777Y218213D01*
X193676Y218149D01*
X193648Y218119D01*
X193615Y218096D01*
X193539Y218004D01*
X193458Y217917D01*
X193438Y217882D01*
X193413Y217851D01*
X193362Y217743D01*
X193304Y217639D01*
X193294Y217599D01*
X193277Y217563D01*
X193255Y217446D01*
X193225Y217331D01*
X193221Y217271D01*
X193217Y217251D01*
X193219Y217230D01*
X193215Y217170D01*
X193215Y214097D01*
X192570Y212540D01*
X192562Y212512D01*
X192549Y212486D01*
X192520Y212359D01*
X192486Y212234D01*
X192486Y212204D01*
X192479Y212175D01*
X192483Y212046D01*
X192481Y211916D01*
X192488Y211887D01*
X192489Y211857D01*
X192525Y211733D01*
X192555Y211606D01*
X192569Y211580D01*
X192577Y211552D01*
X192643Y211440D01*
X192704Y211325D01*
X192724Y211303D01*
X192739Y211278D01*
X192845Y211157D01*
X202676Y201326D01*
X202754Y201266D01*
X202826Y201198D01*
X202879Y201169D01*
X202927Y201132D01*
X203018Y201092D01*
X203105Y201044D01*
X203163Y201029D01*
X203219Y201005D01*
X203317Y200990D01*
X203413Y200965D01*
X203513Y200959D01*
X203533Y200955D01*
X203545Y200957D01*
X203573Y200955D01*
X280869Y200955D01*
X282877Y198946D01*
X282878Y198946D01*
X284034Y197790D01*
X284073Y197759D01*
X284107Y197722D01*
X284199Y197662D01*
X284285Y197595D01*
X284331Y197575D01*
X284372Y197548D01*
X284476Y197512D01*
X284577Y197468D01*
X284626Y197460D01*
X284673Y197444D01*
X284782Y197436D01*
X284891Y197418D01*
X284941Y197423D01*
X284990Y197419D01*
X285098Y197438D01*
X285208Y197448D01*
X285254Y197465D01*
X285303Y197473D01*
X285404Y197519D01*
X285507Y197556D01*
X285548Y197584D01*
X285593Y197604D01*
X285679Y197673D01*
X285770Y197734D01*
X285803Y197772D01*
X285842Y197803D01*
X285908Y197891D01*
X285981Y197973D01*
X286003Y198017D01*
X286033Y198057D01*
X286104Y198201D01*
X286965Y200281D01*
X288669Y201985D01*
X290895Y202907D01*
X293305Y202907D01*
X295531Y201985D01*
X297235Y200281D01*
X298157Y198055D01*
X298157Y195645D01*
X297235Y193419D01*
X295531Y191715D01*
X293451Y190854D01*
X293408Y190829D01*
X293361Y190813D01*
X293270Y190751D01*
X293175Y190696D01*
X293139Y190662D01*
X293098Y190634D01*
X293025Y190551D01*
X292947Y190475D01*
X292921Y190433D01*
X292888Y190396D01*
X292838Y190298D01*
X292780Y190204D01*
X292766Y190157D01*
X292743Y190112D01*
X292719Y190005D01*
X292687Y189900D01*
X292684Y189850D01*
X292673Y189802D01*
X292677Y189692D01*
X292672Y189582D01*
X292682Y189534D01*
X292683Y189484D01*
X292714Y189379D01*
X292736Y189271D01*
X292758Y189226D01*
X292772Y189179D01*
X292827Y189084D01*
X292876Y188985D01*
X292908Y188947D01*
X292933Y188905D01*
X293039Y188784D01*
X306405Y175418D01*
X306483Y175358D01*
X306555Y175290D01*
X306608Y175261D01*
X306656Y175224D01*
X306747Y175184D01*
X306834Y175136D01*
X306892Y175121D01*
X306948Y175097D01*
X307046Y175082D01*
X307142Y175057D01*
X307242Y175051D01*
X307262Y175047D01*
X307274Y175049D01*
X307302Y175047D01*
X316487Y175047D01*
X316496Y175048D01*
G37*
%LPC*%
G36*
X211520Y127928D02*
X211520Y127928D01*
X209294Y128850D01*
X207590Y130554D01*
X206668Y132780D01*
X206668Y135190D01*
X207590Y137416D01*
X209294Y139120D01*
X211520Y140042D01*
X213930Y140042D01*
X215042Y139581D01*
X215176Y139544D01*
X215309Y139503D01*
X215329Y139502D01*
X215349Y139497D01*
X215488Y139495D01*
X215627Y139488D01*
X215647Y139492D01*
X215667Y139492D01*
X215802Y139524D01*
X215938Y139553D01*
X215956Y139561D01*
X215976Y139566D01*
X216099Y139631D01*
X216224Y139692D01*
X216239Y139705D01*
X216257Y139715D01*
X216360Y139809D01*
X216466Y139899D01*
X216478Y139915D01*
X216492Y139929D01*
X216569Y140045D01*
X216649Y140159D01*
X216656Y140178D01*
X216667Y140194D01*
X216712Y140326D01*
X216762Y140456D01*
X216764Y140476D01*
X216770Y140495D01*
X216782Y140634D01*
X216797Y140772D01*
X216794Y140792D01*
X216796Y140812D01*
X216788Y140855D01*
X216788Y143453D01*
X217716Y145694D01*
X219431Y147409D01*
X221672Y148337D01*
X224098Y148337D01*
X226339Y147409D01*
X227731Y146016D01*
X227825Y145943D01*
X227914Y145865D01*
X227950Y145846D01*
X227982Y145821D01*
X228092Y145774D01*
X228197Y145720D01*
X228237Y145711D01*
X228274Y145695D01*
X228392Y145676D01*
X228508Y145650D01*
X228548Y145651D01*
X228588Y145645D01*
X228707Y145656D01*
X228826Y145660D01*
X228864Y145671D01*
X228905Y145675D01*
X229017Y145715D01*
X229131Y145748D01*
X229166Y145769D01*
X229204Y145783D01*
X229303Y145849D01*
X229405Y145910D01*
X229450Y145950D01*
X229467Y145961D01*
X229481Y145976D01*
X229526Y146016D01*
X230884Y147375D01*
X233110Y148297D01*
X235520Y148297D01*
X237746Y147375D01*
X239450Y145671D01*
X240372Y143445D01*
X240372Y141035D01*
X239450Y138809D01*
X237746Y137105D01*
X235520Y136183D01*
X233110Y136183D01*
X230884Y137105D01*
X229526Y138464D01*
X229432Y138537D01*
X229342Y138615D01*
X229306Y138634D01*
X229275Y138659D01*
X229165Y138706D01*
X229059Y138760D01*
X229020Y138769D01*
X228983Y138785D01*
X228865Y138804D01*
X228749Y138830D01*
X228709Y138829D01*
X228669Y138835D01*
X228550Y138824D01*
X228431Y138820D01*
X228392Y138809D01*
X228352Y138805D01*
X228240Y138765D01*
X228126Y138732D01*
X228091Y138711D01*
X228053Y138697D01*
X227954Y138631D01*
X227852Y138570D01*
X227806Y138530D01*
X227790Y138519D01*
X227776Y138504D01*
X227731Y138464D01*
X226339Y137071D01*
X224098Y136143D01*
X221672Y136143D01*
X220537Y136614D01*
X220489Y136627D01*
X220444Y136648D01*
X220336Y136669D01*
X220230Y136698D01*
X220180Y136698D01*
X220131Y136708D01*
X220022Y136701D01*
X219912Y136703D01*
X219864Y136691D01*
X219814Y136688D01*
X219710Y136654D01*
X219603Y136628D01*
X219559Y136605D01*
X219512Y136590D01*
X219419Y136531D01*
X219322Y136480D01*
X219285Y136446D01*
X219243Y136420D01*
X219168Y136340D01*
X219086Y136266D01*
X219059Y136224D01*
X219025Y136188D01*
X218972Y136092D01*
X218912Y136000D01*
X218895Y135953D01*
X218871Y135910D01*
X218844Y135803D01*
X218808Y135699D01*
X218804Y135650D01*
X218792Y135602D01*
X218782Y135441D01*
X218782Y132780D01*
X217860Y130554D01*
X216156Y128850D01*
X213930Y127928D01*
X211520Y127928D01*
G37*
%LPD*%
%LPC*%
G36*
X252795Y155233D02*
X252795Y155233D01*
X250569Y156155D01*
X248865Y157859D01*
X247943Y160085D01*
X247943Y162495D01*
X248865Y164721D01*
X250569Y166425D01*
X252795Y167347D01*
X254338Y167347D01*
X254388Y167353D01*
X254437Y167351D01*
X254545Y167373D01*
X254654Y167387D01*
X254700Y167405D01*
X254749Y167415D01*
X254847Y167463D01*
X254949Y167504D01*
X254990Y167533D01*
X255034Y167555D01*
X255118Y167626D01*
X255207Y167690D01*
X255239Y167729D01*
X255276Y167761D01*
X255340Y167851D01*
X255410Y167935D01*
X255431Y167980D01*
X255460Y168021D01*
X255498Y168124D01*
X255545Y168223D01*
X255555Y168272D01*
X255572Y168319D01*
X255584Y168428D01*
X255605Y168535D01*
X255602Y168585D01*
X255607Y168635D01*
X255592Y168743D01*
X255585Y168853D01*
X255570Y168900D01*
X255563Y168947D01*
X255563Y171385D01*
X256485Y173611D01*
X258189Y175315D01*
X260415Y176237D01*
X262825Y176237D01*
X265051Y175315D01*
X266438Y173928D01*
X266532Y173855D01*
X266621Y173776D01*
X266657Y173758D01*
X266689Y173733D01*
X266798Y173686D01*
X266904Y173632D01*
X266943Y173623D01*
X266981Y173607D01*
X267098Y173588D01*
X267214Y173562D01*
X267255Y173563D01*
X267295Y173557D01*
X267413Y173568D01*
X267532Y173572D01*
X267571Y173583D01*
X267611Y173587D01*
X267723Y173627D01*
X267838Y173660D01*
X267873Y173681D01*
X267911Y173694D01*
X268009Y173761D01*
X268112Y173822D01*
X268157Y173861D01*
X268174Y173873D01*
X268187Y173888D01*
X268233Y173928D01*
X269619Y175315D01*
X271845Y176237D01*
X274255Y176237D01*
X276481Y175315D01*
X278185Y173611D01*
X279107Y171385D01*
X279107Y168975D01*
X278185Y166749D01*
X276481Y165045D01*
X274255Y164123D01*
X271845Y164123D01*
X269619Y165045D01*
X268233Y166432D01*
X268138Y166505D01*
X268049Y166584D01*
X268013Y166602D01*
X267981Y166627D01*
X267872Y166674D01*
X267766Y166728D01*
X267727Y166737D01*
X267689Y166753D01*
X267572Y166772D01*
X267456Y166798D01*
X267415Y166797D01*
X267375Y166803D01*
X267257Y166792D01*
X267138Y166788D01*
X267099Y166777D01*
X267059Y166773D01*
X266946Y166733D01*
X266832Y166700D01*
X266798Y166679D01*
X266759Y166666D01*
X266661Y166599D01*
X266558Y166538D01*
X266513Y166499D01*
X266496Y166487D01*
X266483Y166472D01*
X266438Y166432D01*
X265051Y165045D01*
X262825Y164123D01*
X261282Y164123D01*
X261232Y164117D01*
X261183Y164119D01*
X261075Y164097D01*
X260966Y164083D01*
X260920Y164065D01*
X260871Y164055D01*
X260773Y164007D01*
X260671Y163966D01*
X260630Y163937D01*
X260586Y163915D01*
X260502Y163844D01*
X260413Y163780D01*
X260381Y163741D01*
X260344Y163709D01*
X260280Y163619D01*
X260210Y163535D01*
X260189Y163490D01*
X260160Y163449D01*
X260122Y163346D01*
X260075Y163247D01*
X260065Y163198D01*
X260048Y163151D01*
X260036Y163042D01*
X260015Y162935D01*
X260018Y162885D01*
X260013Y162835D01*
X260028Y162727D01*
X260035Y162617D01*
X260050Y162570D01*
X260057Y162523D01*
X260057Y160085D01*
X259135Y157859D01*
X257431Y156155D01*
X255205Y155233D01*
X252795Y155233D01*
G37*
%LPD*%
%LPC*%
G36*
X65470Y48553D02*
X65470Y48553D01*
X63244Y49475D01*
X61540Y51179D01*
X60618Y53405D01*
X60618Y55815D01*
X61540Y58041D01*
X63244Y59745D01*
X65470Y60667D01*
X67880Y60667D01*
X70106Y59745D01*
X70992Y58858D01*
X71032Y58828D01*
X71065Y58791D01*
X71157Y58731D01*
X71244Y58663D01*
X71289Y58644D01*
X71331Y58616D01*
X71434Y58581D01*
X71535Y58537D01*
X71585Y58529D01*
X71631Y58513D01*
X71741Y58504D01*
X71849Y58487D01*
X71899Y58492D01*
X71948Y58488D01*
X72056Y58507D01*
X72166Y58517D01*
X72213Y58534D01*
X72262Y58542D01*
X72362Y58587D01*
X72465Y58625D01*
X72506Y58652D01*
X72552Y58673D01*
X72638Y58741D01*
X72729Y58803D01*
X72761Y58840D01*
X72800Y58871D01*
X72866Y58959D01*
X72939Y59042D01*
X72962Y59086D01*
X72991Y59125D01*
X73062Y59270D01*
X73605Y60581D01*
X75309Y62285D01*
X77535Y63207D01*
X79945Y63207D01*
X82171Y62285D01*
X83875Y60581D01*
X84797Y58355D01*
X84797Y55945D01*
X83875Y53719D01*
X82171Y52015D01*
X79945Y51093D01*
X77535Y51093D01*
X75309Y52015D01*
X74423Y52902D01*
X74383Y52932D01*
X74350Y52969D01*
X74258Y53029D01*
X74171Y53097D01*
X74126Y53116D01*
X74084Y53144D01*
X73981Y53179D01*
X73880Y53223D01*
X73830Y53231D01*
X73784Y53247D01*
X73674Y53256D01*
X73566Y53273D01*
X73516Y53268D01*
X73467Y53272D01*
X73359Y53253D01*
X73249Y53243D01*
X73202Y53226D01*
X73153Y53218D01*
X73053Y53173D01*
X72950Y53135D01*
X72909Y53108D01*
X72863Y53087D01*
X72777Y53019D01*
X72686Y52957D01*
X72654Y52920D01*
X72615Y52889D01*
X72549Y52801D01*
X72476Y52718D01*
X72453Y52674D01*
X72424Y52635D01*
X72353Y52490D01*
X71810Y51179D01*
X70106Y49475D01*
X67880Y48553D01*
X65470Y48553D01*
G37*
%LPD*%
%LPC*%
G36*
X228665Y160567D02*
X228665Y160567D01*
X226439Y161489D01*
X224735Y163193D01*
X223813Y165419D01*
X223813Y167829D01*
X224735Y170055D01*
X225677Y170997D01*
X225750Y171091D01*
X225829Y171180D01*
X225848Y171216D01*
X225872Y171248D01*
X225920Y171357D01*
X225974Y171464D01*
X225983Y171503D01*
X225999Y171540D01*
X226017Y171658D01*
X226044Y171774D01*
X226042Y171814D01*
X226049Y171854D01*
X226037Y171973D01*
X226034Y172092D01*
X226023Y172131D01*
X226019Y172171D01*
X225979Y172283D01*
X225945Y172397D01*
X225925Y172432D01*
X225911Y172470D01*
X225844Y172569D01*
X225784Y172671D01*
X225744Y172716D01*
X225733Y172733D01*
X225717Y172747D01*
X225678Y172792D01*
X224735Y173734D01*
X223813Y175960D01*
X223813Y178370D01*
X224735Y180596D01*
X226439Y182300D01*
X228665Y183222D01*
X231075Y183222D01*
X233301Y182300D01*
X235005Y180596D01*
X235927Y178370D01*
X235927Y175960D01*
X235005Y173734D01*
X234062Y172792D01*
X233989Y172698D01*
X233911Y172609D01*
X233892Y172573D01*
X233868Y172541D01*
X233820Y172431D01*
X233766Y172325D01*
X233757Y172286D01*
X233741Y172249D01*
X233723Y172131D01*
X233696Y172015D01*
X233698Y171975D01*
X233691Y171935D01*
X233703Y171816D01*
X233706Y171697D01*
X233717Y171658D01*
X233721Y171618D01*
X233761Y171506D01*
X233795Y171392D01*
X233815Y171357D01*
X233829Y171319D01*
X233896Y171220D01*
X233956Y171118D01*
X233996Y171073D01*
X234007Y171056D01*
X234023Y171042D01*
X234063Y170997D01*
X235005Y170055D01*
X235927Y167829D01*
X235927Y165419D01*
X235005Y163193D01*
X233301Y161489D01*
X231075Y160567D01*
X228665Y160567D01*
G37*
%LPD*%
%LPC*%
G36*
X379533Y169417D02*
X379533Y169417D01*
X377292Y170345D01*
X375577Y172060D01*
X374649Y174301D01*
X374649Y176727D01*
X375577Y178968D01*
X377292Y180683D01*
X379533Y181611D01*
X381959Y181611D01*
X384200Y180683D01*
X385915Y178968D01*
X386843Y176727D01*
X386843Y174301D01*
X385915Y172060D01*
X384200Y170345D01*
X381959Y169417D01*
X379533Y169417D01*
G37*
%LPD*%
%LPC*%
G36*
X157545Y145073D02*
X157545Y145073D01*
X155319Y145995D01*
X153615Y147699D01*
X152693Y149925D01*
X152693Y152335D01*
X153615Y154561D01*
X155319Y156265D01*
X157545Y157187D01*
X159955Y157187D01*
X162181Y156265D01*
X163885Y154561D01*
X164807Y152335D01*
X164807Y149925D01*
X163885Y147699D01*
X162181Y145995D01*
X159955Y145073D01*
X157545Y145073D01*
G37*
%LPD*%
%LPC*%
G36*
X146750Y28995D02*
X146750Y28995D01*
X144524Y29917D01*
X142820Y31621D01*
X141898Y33847D01*
X141898Y36257D01*
X142820Y38483D01*
X144524Y40187D01*
X146750Y41109D01*
X149160Y41109D01*
X151386Y40187D01*
X153090Y38483D01*
X154012Y36257D01*
X154012Y33847D01*
X153090Y31621D01*
X151386Y29917D01*
X149160Y28995D01*
X146750Y28995D01*
G37*
%LPD*%
%LPC*%
G36*
X94045Y25058D02*
X94045Y25058D01*
X91819Y25980D01*
X90115Y27684D01*
X89193Y29910D01*
X89193Y32320D01*
X90115Y34546D01*
X91819Y36250D01*
X94045Y37172D01*
X96455Y37172D01*
X98681Y36250D01*
X100385Y34546D01*
X101307Y32320D01*
X101307Y29910D01*
X100385Y27684D01*
X98681Y25980D01*
X96455Y25058D01*
X94045Y25058D01*
G37*
%LPD*%
%LPC*%
G36*
X249366Y133237D02*
X249366Y133237D01*
X247140Y134159D01*
X245436Y135863D01*
X244514Y138089D01*
X244514Y140498D01*
X245436Y142724D01*
X247140Y144428D01*
X249366Y145350D01*
X251776Y145350D01*
X254002Y144428D01*
X255706Y142724D01*
X256628Y140498D01*
X256628Y138089D01*
X255706Y135863D01*
X254002Y134159D01*
X251776Y133237D01*
X249366Y133237D01*
G37*
%LPD*%
%LPC*%
G36*
X142305Y120943D02*
X142305Y120943D01*
X140079Y121865D01*
X138375Y123569D01*
X137453Y125795D01*
X137453Y128205D01*
X138375Y130431D01*
X140079Y132135D01*
X142305Y133057D01*
X144715Y133057D01*
X146941Y132135D01*
X148645Y130431D01*
X149567Y128205D01*
X149567Y125795D01*
X148645Y123569D01*
X146941Y121865D01*
X144715Y120943D01*
X142305Y120943D01*
G37*
%LPD*%
%LPC*%
G36*
X86425Y190793D02*
X86425Y190793D01*
X84199Y191715D01*
X82495Y193419D01*
X81573Y195645D01*
X81573Y198055D01*
X82495Y200281D01*
X84199Y201985D01*
X86425Y202907D01*
X88835Y202907D01*
X91061Y201985D01*
X92765Y200281D01*
X93687Y198055D01*
X93687Y195645D01*
X92765Y193419D01*
X91061Y191715D01*
X88835Y190793D01*
X86425Y190793D01*
G37*
%LPD*%
%LPC*%
G36*
X246445Y116244D02*
X246445Y116244D01*
X244219Y117166D01*
X242515Y118870D01*
X241593Y121096D01*
X241593Y123506D01*
X242515Y125732D01*
X244219Y127436D01*
X246445Y128358D01*
X248855Y128358D01*
X251081Y127436D01*
X252785Y125732D01*
X253707Y123506D01*
X253707Y121096D01*
X252785Y118870D01*
X251081Y117166D01*
X248855Y116244D01*
X246445Y116244D01*
G37*
%LPD*%
%LPC*%
G36*
X185485Y110220D02*
X185485Y110220D01*
X183259Y111142D01*
X181555Y112846D01*
X180633Y115072D01*
X180633Y117482D01*
X181555Y119708D01*
X183259Y121412D01*
X185485Y122334D01*
X187895Y122334D01*
X190121Y121412D01*
X191825Y119708D01*
X192747Y117482D01*
X192747Y115072D01*
X191825Y112846D01*
X190121Y111142D01*
X187895Y110220D01*
X185485Y110220D01*
G37*
%LPD*%
%LPC*%
G36*
X76265Y100623D02*
X76265Y100623D01*
X74039Y101545D01*
X72335Y103249D01*
X71413Y105475D01*
X71413Y107885D01*
X72335Y110111D01*
X74039Y111815D01*
X76265Y112737D01*
X78675Y112737D01*
X80901Y111815D01*
X82605Y110111D01*
X83527Y107885D01*
X83527Y105475D01*
X82605Y103249D01*
X80901Y101545D01*
X78675Y100623D01*
X76265Y100623D01*
G37*
%LPD*%
%LPC*%
G36*
X104840Y92368D02*
X104840Y92368D01*
X102614Y93290D01*
X100910Y94994D01*
X99988Y97220D01*
X99988Y99630D01*
X100910Y101856D01*
X102614Y103560D01*
X104840Y104482D01*
X107250Y104482D01*
X109476Y103560D01*
X111180Y101856D01*
X112102Y99630D01*
X112102Y97220D01*
X111180Y94994D01*
X109476Y93290D01*
X107250Y92368D01*
X104840Y92368D01*
G37*
%LPD*%
%LPC*%
G36*
X270575Y77128D02*
X270575Y77128D01*
X268349Y78050D01*
X266645Y79754D01*
X265723Y81980D01*
X265723Y84390D01*
X266645Y86616D01*
X268349Y88320D01*
X270575Y89242D01*
X272985Y89242D01*
X275211Y88320D01*
X276915Y86616D01*
X277837Y84390D01*
X277837Y81980D01*
X276915Y79754D01*
X275211Y78050D01*
X272985Y77128D01*
X270575Y77128D01*
G37*
%LPD*%
%LPC*%
G36*
X360745Y70143D02*
X360745Y70143D01*
X358519Y71065D01*
X356815Y72769D01*
X355893Y74995D01*
X355893Y77405D01*
X356815Y79631D01*
X358519Y81335D01*
X360745Y82257D01*
X363155Y82257D01*
X365381Y81335D01*
X367085Y79631D01*
X368007Y77405D01*
X368007Y74995D01*
X367085Y72769D01*
X365381Y71065D01*
X363155Y70143D01*
X360745Y70143D01*
G37*
%LPD*%
%LPC*%
G36*
X94045Y59983D02*
X94045Y59983D01*
X91819Y60905D01*
X90115Y62609D01*
X89193Y64835D01*
X89193Y67245D01*
X90115Y69471D01*
X91819Y71175D01*
X94045Y72097D01*
X96455Y72097D01*
X98681Y71175D01*
X100385Y69471D01*
X101307Y67245D01*
X101307Y64835D01*
X100385Y62609D01*
X98681Y60905D01*
X96455Y59983D01*
X94045Y59983D01*
G37*
%LPD*%
%LPC*%
G36*
X135955Y66333D02*
X135955Y66333D01*
X133729Y67255D01*
X132025Y68959D01*
X131103Y71185D01*
X131103Y73595D01*
X132025Y75821D01*
X133729Y77525D01*
X135955Y78447D01*
X138365Y78447D01*
X140591Y77525D01*
X142295Y75821D01*
X143217Y73595D01*
X143217Y71185D01*
X142295Y68959D01*
X140591Y67255D01*
X138365Y66333D01*
X135955Y66333D01*
G37*
%LPD*%
%LPC*%
G36*
X124730Y120304D02*
X124730Y120304D01*
X122700Y121145D01*
X121145Y122700D01*
X120304Y124730D01*
X120304Y126928D01*
X121145Y128959D01*
X122700Y130513D01*
X124730Y131355D01*
X126928Y131355D01*
X128959Y130513D01*
X130513Y128959D01*
X131355Y126928D01*
X131355Y124730D01*
X130513Y122700D01*
X128959Y121145D01*
X126928Y120304D01*
X124730Y120304D01*
G37*
%LPD*%
%LPC*%
G36*
X56051Y192595D02*
X56051Y192595D01*
X54020Y193436D01*
X52466Y194990D01*
X51625Y197021D01*
X51625Y199219D01*
X52466Y201250D01*
X54020Y202804D01*
X56051Y203645D01*
X58249Y203645D01*
X60280Y202804D01*
X61834Y201250D01*
X62675Y199219D01*
X62675Y197021D01*
X61834Y194990D01*
X60280Y193436D01*
X58249Y192595D01*
X56051Y192595D01*
G37*
%LPD*%
%LPC*%
G36*
X135849Y15199D02*
X135849Y15199D01*
X135849Y22487D01*
X137220Y22042D01*
X138633Y21322D01*
X139917Y20389D01*
X141039Y19267D01*
X141972Y17983D01*
X142692Y16570D01*
X143137Y15199D01*
X135849Y15199D01*
G37*
%LPD*%
%LPC*%
G36*
X123563Y15199D02*
X123563Y15199D01*
X124008Y16570D01*
X124728Y17983D01*
X125661Y19267D01*
X126783Y20389D01*
X128067Y21322D01*
X129480Y22042D01*
X130851Y22487D01*
X130851Y15199D01*
X123563Y15199D01*
G37*
%LPD*%
%LPC*%
G36*
X50369Y149299D02*
X50369Y149299D01*
X50369Y156177D01*
X50496Y156157D01*
X51856Y155715D01*
X53129Y155067D01*
X54286Y154226D01*
X55296Y153216D01*
X56137Y152059D01*
X56785Y150786D01*
X57227Y149426D01*
X57247Y149299D01*
X50369Y149299D01*
G37*
%LPD*%
%LPC*%
G36*
X50369Y79301D02*
X50369Y79301D01*
X57247Y79301D01*
X57227Y79174D01*
X56785Y77814D01*
X56137Y76541D01*
X55296Y75384D01*
X54286Y74374D01*
X53129Y73533D01*
X51856Y72885D01*
X50496Y72443D01*
X50369Y72423D01*
X50369Y79301D01*
G37*
%LPD*%
D10*
X438150Y12700D03*
X412750Y12700D03*
X387350Y12700D03*
X361950Y12700D03*
X336550Y12700D03*
X311150Y12700D03*
X285750Y12700D03*
X260350Y12700D03*
X234950Y12700D03*
X209550Y12700D03*
X184150Y12700D03*
X158750Y12700D03*
X133350Y12700D03*
X107950Y12700D03*
X82550Y12700D03*
X57150Y12700D03*
X158750Y215900D03*
X184150Y215900D03*
X209550Y215900D03*
X234950Y215900D03*
X260350Y215900D03*
X285750Y215900D03*
X311150Y215900D03*
X336550Y215900D03*
X361950Y215900D03*
X387350Y215900D03*
X412750Y215900D03*
X438150Y215900D03*
D11*
X48370Y147300D03*
X48370Y81300D03*
D12*
X20370Y150300D03*
X20370Y78300D03*
D10*
X92710Y215900D03*
X114300Y215900D03*
D13*
X17780Y114300D03*
X109220Y83820D03*
X67310Y161290D03*
X139065Y168275D03*
X98425Y116840D03*
X173355Y165100D03*
D14*
X95250Y19685D03*
D13*
X180340Y62230D03*
X283210Y121920D03*
X221996Y205994D03*
X298450Y207010D03*
X336296Y86360D03*
X96520Y53975D03*
X361950Y76200D03*
X172283Y127482D03*
X147955Y35052D03*
X87630Y196850D03*
X186690Y116277D03*
X106045Y98425D03*
X122134Y152741D03*
X104912Y154091D03*
X128905Y161925D03*
X66675Y54610D03*
X78740Y57150D03*
X158750Y151130D03*
X229870Y166624D03*
X292100Y196850D03*
X229870Y177165D03*
X332359Y180086D03*
X436886Y137154D03*
D15*
X375291Y137154D01*
X332359Y180086D01*
D13*
X369926Y114179D03*
X95250Y31115D03*
X271780Y83185D03*
X212725Y133985D03*
X254000Y185420D03*
X95250Y66040D03*
X77470Y106680D03*
X184150Y173990D03*
D16*
X184150Y215900D01*
D17*
X387350Y114300D03*
D18*
X329398Y172252D01*
X305619Y172252D01*
X279711Y198160D01*
X201890Y198160D02*
X184150Y215900D01*
X201890Y198160D02*
X279711Y198160D01*
D13*
X273050Y170180D03*
X247650Y122301D03*
D18*
X285750Y12700D02*
X296536Y12700D01*
X306870Y23034D01*
X428926Y23034D01*
D17*
X380746Y175514D03*
X434340Y28448D03*
D18*
X428926Y23034D01*
D13*
X261620Y170180D03*
D14*
X57150Y198120D03*
D13*
X254000Y161290D03*
X250571Y139294D03*
X137160Y72390D03*
X334010Y43180D03*
D19*
X345440Y43815D03*
D13*
X335280Y98425D03*
X297180Y24130D03*
X293250Y83305D03*
D17*
X222885Y142240D03*
D13*
X327025Y106680D03*
X321564Y116840D03*
X370830Y49824D03*
X303316Y62016D03*
D18*
X350387Y49824D02*
X370830Y49824D01*
X350387Y49824D02*
X348649Y51562D01*
X313770Y51562D02*
X303316Y62016D01*
X313770Y51562D02*
X348649Y51562D01*
D13*
X301625Y92710D03*
X234315Y142240D03*
X318770Y196215D03*
D18*
X114300Y215900D02*
X114300Y152400D01*
X101600Y139700D01*
X101600Y127000D01*
X127000Y101600D01*
X368300Y60960D02*
X369570Y60960D01*
X368300Y60960D02*
X345440Y60960D01*
X304800Y101600D01*
X127000Y101600D01*
X318770Y196215D02*
X328295Y196215D01*
X362092Y162418D01*
D13*
X362092Y162418D03*
D18*
X369570Y60960D02*
X388269Y60960D01*
X388445Y60785D01*
D13*
X388445Y60785D03*
X173553Y139700D03*
X143510Y127000D03*
D14*
X125829Y125829D03*
D18*
X173553Y139700D02*
X227107Y193254D01*
X278151Y193254D02*
X303725Y167680D01*
X327504Y167680D01*
D14*
X408389Y52789D03*
D18*
X408389Y63076D01*
X379476Y91988D02*
X379476Y115708D01*
X379476Y91988D02*
X408389Y63076D01*
X278151Y193254D02*
X227107Y193254D01*
X327504Y167680D02*
X379476Y115708D01*
M02*
