G04 EAGLE Gerber RS-274X export*
G75*
%MOMM*%
%FSLAX34Y34*%
%LPD*%
%IN*%
%IPPOS*%
%AMOC8*
5,1,8,0,0,1.08239X$1,22.5*%
G01*
%ADD10C,0.254000*%


D10*
X0Y12700D02*
X48Y11593D01*
X193Y10495D01*
X433Y9413D01*
X766Y8356D01*
X1190Y7333D01*
X1701Y6350D01*
X2297Y5416D01*
X2971Y4537D01*
X3720Y3720D01*
X4537Y2971D01*
X5416Y2297D01*
X6350Y1701D01*
X7333Y1190D01*
X8356Y766D01*
X9413Y433D01*
X10495Y193D01*
X11593Y48D01*
X12700Y0D01*
X471170Y0D01*
X472219Y101D01*
X473255Y294D01*
X474271Y575D01*
X475258Y945D01*
X476209Y1399D01*
X477117Y1934D01*
X477975Y2546D01*
X478777Y3231D01*
X479515Y3983D01*
X480186Y4796D01*
X480782Y5665D01*
X481301Y6582D01*
X481738Y7542D01*
X482090Y8535D01*
X482353Y9556D01*
X482527Y10595D01*
X482609Y11646D01*
X482600Y12700D01*
X482600Y215900D01*
X482609Y216954D01*
X482527Y218005D01*
X482353Y219044D01*
X482090Y220065D01*
X481738Y221058D01*
X481301Y222018D01*
X480782Y222935D01*
X480186Y223804D01*
X479515Y224617D01*
X478777Y225369D01*
X477975Y226054D01*
X477117Y226666D01*
X476209Y227201D01*
X475258Y227655D01*
X474271Y228025D01*
X473255Y228306D01*
X472219Y228499D01*
X471170Y228600D01*
X12700Y228600D01*
X11593Y228552D01*
X10495Y228407D01*
X9413Y228167D01*
X8356Y227834D01*
X7333Y227410D01*
X6350Y226899D01*
X5416Y226303D01*
X4537Y225629D01*
X3720Y224880D01*
X2971Y224063D01*
X2297Y223184D01*
X1701Y222250D01*
X1190Y221267D01*
X766Y220244D01*
X433Y219187D01*
X193Y218105D01*
X48Y217007D01*
X0Y215900D01*
X0Y12700D01*
X13870Y78300D02*
X13842Y77949D01*
X13844Y77598D01*
X13877Y77248D01*
X13940Y76902D01*
X14033Y76563D01*
X14156Y76233D01*
X14307Y75915D01*
X14484Y75612D01*
X14688Y75325D01*
X14916Y75057D01*
X15166Y74810D01*
X15437Y74586D01*
X15726Y74386D01*
X16032Y74212D01*
X16352Y74066D01*
X16683Y73948D01*
X17023Y73859D01*
X17370Y73800D01*
X23370Y73800D01*
X23717Y73859D01*
X24057Y73948D01*
X24388Y74066D01*
X24708Y74212D01*
X25014Y74386D01*
X25303Y74586D01*
X25574Y74810D01*
X25824Y75057D01*
X26052Y75325D01*
X26256Y75612D01*
X26433Y75915D01*
X26584Y76233D01*
X26707Y76563D01*
X26800Y76902D01*
X26863Y77248D01*
X26896Y77598D01*
X26898Y77949D01*
X26870Y78300D01*
X26898Y78651D01*
X26896Y79002D01*
X26863Y79352D01*
X26800Y79698D01*
X26707Y80037D01*
X26584Y80367D01*
X26433Y80685D01*
X26256Y80988D01*
X26052Y81275D01*
X25824Y81543D01*
X25574Y81790D01*
X25303Y82014D01*
X25014Y82214D01*
X24708Y82388D01*
X24388Y82534D01*
X24057Y82652D01*
X23717Y82741D01*
X23370Y82800D01*
X17370Y82800D01*
X17023Y82741D01*
X16683Y82652D01*
X16352Y82534D01*
X16032Y82388D01*
X15726Y82214D01*
X15437Y82014D01*
X15166Y81790D01*
X14916Y81543D01*
X14688Y81275D01*
X14484Y80988D01*
X14307Y80685D01*
X14156Y80367D01*
X14033Y80037D01*
X13940Y79698D01*
X13877Y79352D01*
X13844Y79002D01*
X13842Y78651D01*
X13870Y78300D01*
X13870Y149300D02*
X13906Y148974D01*
X13970Y148653D01*
X14062Y148338D01*
X14182Y148033D01*
X14327Y147739D01*
X14497Y147459D01*
X14692Y147194D01*
X14908Y146948D01*
X15145Y146722D01*
X15401Y146517D01*
X15674Y146335D01*
X15962Y146177D01*
X16262Y146046D01*
X16572Y145941D01*
X16891Y145863D01*
X17215Y145814D01*
X17542Y145792D01*
X17870Y145800D01*
X23370Y145800D01*
X23675Y145813D01*
X23978Y145853D01*
X24276Y145919D01*
X24567Y146011D01*
X24849Y146128D01*
X25120Y146269D01*
X25378Y146433D01*
X25620Y146619D01*
X25845Y146825D01*
X26051Y147050D01*
X26237Y147292D01*
X26401Y147550D01*
X26542Y147821D01*
X26659Y148103D01*
X26751Y148394D01*
X26817Y148692D01*
X26857Y148995D01*
X26870Y149300D01*
X26870Y151300D01*
X26857Y151605D01*
X26817Y151908D01*
X26751Y152206D01*
X26659Y152497D01*
X26542Y152779D01*
X26401Y153050D01*
X26237Y153308D01*
X26051Y153550D01*
X25845Y153775D01*
X25620Y153981D01*
X25378Y154167D01*
X25120Y154331D01*
X24849Y154472D01*
X24567Y154589D01*
X24276Y154681D01*
X23978Y154747D01*
X23675Y154787D01*
X23370Y154800D01*
X17870Y154800D01*
X17542Y154808D01*
X17215Y154786D01*
X16891Y154737D01*
X16572Y154659D01*
X16262Y154554D01*
X15962Y154423D01*
X15674Y154265D01*
X15401Y154083D01*
X15145Y153878D01*
X14908Y153652D01*
X14692Y153406D01*
X14497Y153142D01*
X14327Y152861D01*
X14182Y152568D01*
X14062Y152262D01*
X13970Y151947D01*
X13906Y151626D01*
X13870Y151300D01*
X13870Y149300D01*
X474550Y18618D02*
X474482Y17756D01*
X474347Y16902D01*
X474145Y16062D01*
X473878Y15240D01*
X473547Y14441D01*
X473155Y13671D01*
X472703Y12934D01*
X472195Y12235D01*
X471634Y11577D01*
X471023Y10966D01*
X470365Y10405D01*
X469666Y9897D01*
X468929Y9445D01*
X468159Y9053D01*
X467360Y8722D01*
X466538Y8455D01*
X465698Y8253D01*
X464844Y8118D01*
X463982Y8050D01*
X463118Y8050D01*
X462256Y8118D01*
X461402Y8253D01*
X460562Y8455D01*
X459740Y8722D01*
X458941Y9053D01*
X458171Y9445D01*
X457434Y9897D01*
X456735Y10405D01*
X456077Y10966D01*
X455466Y11577D01*
X454905Y12235D01*
X454397Y12934D01*
X453945Y13671D01*
X453553Y14441D01*
X453222Y15240D01*
X452955Y16062D01*
X452753Y16902D01*
X452618Y17756D01*
X452550Y18618D01*
X452550Y19482D01*
X452618Y20344D01*
X452753Y21198D01*
X452955Y22038D01*
X453222Y22860D01*
X453553Y23659D01*
X453945Y24429D01*
X454397Y25166D01*
X454905Y25865D01*
X455466Y26523D01*
X456077Y27134D01*
X456735Y27695D01*
X457434Y28203D01*
X458171Y28655D01*
X458941Y29047D01*
X459740Y29378D01*
X460562Y29645D01*
X461402Y29847D01*
X462256Y29982D01*
X463118Y30050D01*
X463982Y30050D01*
X464844Y29982D01*
X465698Y29847D01*
X466538Y29645D01*
X467360Y29378D01*
X468159Y29047D01*
X468929Y28655D01*
X469666Y28203D01*
X470365Y27695D01*
X471023Y27134D01*
X471634Y26523D01*
X472195Y25865D01*
X472703Y25166D01*
X473155Y24429D01*
X473547Y23659D01*
X473878Y22860D01*
X474145Y22038D01*
X474347Y21198D01*
X474482Y20344D01*
X474550Y19482D01*
X474550Y18618D01*
X474550Y209118D02*
X474482Y208256D01*
X474347Y207402D01*
X474145Y206562D01*
X473878Y205740D01*
X473547Y204941D01*
X473155Y204171D01*
X472703Y203434D01*
X472195Y202735D01*
X471634Y202077D01*
X471023Y201466D01*
X470365Y200905D01*
X469666Y200397D01*
X468929Y199945D01*
X468159Y199553D01*
X467360Y199222D01*
X466538Y198955D01*
X465698Y198753D01*
X464844Y198618D01*
X463982Y198550D01*
X463118Y198550D01*
X462256Y198618D01*
X461402Y198753D01*
X460562Y198955D01*
X459740Y199222D01*
X458941Y199553D01*
X458171Y199945D01*
X457434Y200397D01*
X456735Y200905D01*
X456077Y201466D01*
X455466Y202077D01*
X454905Y202735D01*
X454397Y203434D01*
X453945Y204171D01*
X453553Y204941D01*
X453222Y205740D01*
X452955Y206562D01*
X452753Y207402D01*
X452618Y208256D01*
X452550Y209118D01*
X452550Y209982D01*
X452618Y210844D01*
X452753Y211698D01*
X452955Y212538D01*
X453222Y213360D01*
X453553Y214159D01*
X453945Y214929D01*
X454397Y215666D01*
X454905Y216365D01*
X455466Y217023D01*
X456077Y217634D01*
X456735Y218195D01*
X457434Y218703D01*
X458171Y219155D01*
X458941Y219547D01*
X459740Y219878D01*
X460562Y220145D01*
X461402Y220347D01*
X462256Y220482D01*
X463118Y220550D01*
X463982Y220550D01*
X464844Y220482D01*
X465698Y220347D01*
X466538Y220145D01*
X467360Y219878D01*
X468159Y219547D01*
X468929Y219155D01*
X469666Y218703D01*
X470365Y218195D01*
X471023Y217634D01*
X471634Y217023D01*
X472195Y216365D01*
X472703Y215666D01*
X473155Y214929D01*
X473547Y214159D01*
X473878Y213360D01*
X474145Y212538D01*
X474347Y211698D01*
X474482Y210844D01*
X474550Y209982D01*
X474550Y209118D01*
X30050Y18618D02*
X29982Y17756D01*
X29847Y16902D01*
X29645Y16062D01*
X29378Y15240D01*
X29047Y14441D01*
X28655Y13671D01*
X28203Y12934D01*
X27695Y12235D01*
X27134Y11577D01*
X26523Y10966D01*
X25865Y10405D01*
X25166Y9897D01*
X24429Y9445D01*
X23659Y9053D01*
X22860Y8722D01*
X22038Y8455D01*
X21198Y8253D01*
X20344Y8118D01*
X19482Y8050D01*
X18618Y8050D01*
X17756Y8118D01*
X16902Y8253D01*
X16062Y8455D01*
X15240Y8722D01*
X14441Y9053D01*
X13671Y9445D01*
X12934Y9897D01*
X12235Y10405D01*
X11577Y10966D01*
X10966Y11577D01*
X10405Y12235D01*
X9897Y12934D01*
X9445Y13671D01*
X9053Y14441D01*
X8722Y15240D01*
X8455Y16062D01*
X8253Y16902D01*
X8118Y17756D01*
X8050Y18618D01*
X8050Y19482D01*
X8118Y20344D01*
X8253Y21198D01*
X8455Y22038D01*
X8722Y22860D01*
X9053Y23659D01*
X9445Y24429D01*
X9897Y25166D01*
X10405Y25865D01*
X10966Y26523D01*
X11577Y27134D01*
X12235Y27695D01*
X12934Y28203D01*
X13671Y28655D01*
X14441Y29047D01*
X15240Y29378D01*
X16062Y29645D01*
X16902Y29847D01*
X17756Y29982D01*
X18618Y30050D01*
X19482Y30050D01*
X20344Y29982D01*
X21198Y29847D01*
X22038Y29645D01*
X22860Y29378D01*
X23659Y29047D01*
X24429Y28655D01*
X25166Y28203D01*
X25865Y27695D01*
X26523Y27134D01*
X27134Y26523D01*
X27695Y25865D01*
X28203Y25166D01*
X28655Y24429D01*
X29047Y23659D01*
X29378Y22860D01*
X29645Y22038D01*
X29847Y21198D01*
X29982Y20344D01*
X30050Y19482D01*
X30050Y18618D01*
X30050Y209118D02*
X29982Y208256D01*
X29847Y207402D01*
X29645Y206562D01*
X29378Y205740D01*
X29047Y204941D01*
X28655Y204171D01*
X28203Y203434D01*
X27695Y202735D01*
X27134Y202077D01*
X26523Y201466D01*
X25865Y200905D01*
X25166Y200397D01*
X24429Y199945D01*
X23659Y199553D01*
X22860Y199222D01*
X22038Y198955D01*
X21198Y198753D01*
X20344Y198618D01*
X19482Y198550D01*
X18618Y198550D01*
X17756Y198618D01*
X16902Y198753D01*
X16062Y198955D01*
X15240Y199222D01*
X14441Y199553D01*
X13671Y199945D01*
X12934Y200397D01*
X12235Y200905D01*
X11577Y201466D01*
X10966Y202077D01*
X10405Y202735D01*
X9897Y203434D01*
X9445Y204171D01*
X9053Y204941D01*
X8722Y205740D01*
X8455Y206562D01*
X8253Y207402D01*
X8118Y208256D01*
X8050Y209118D01*
X8050Y209982D01*
X8118Y210844D01*
X8253Y211698D01*
X8455Y212538D01*
X8722Y213360D01*
X9053Y214159D01*
X9445Y214929D01*
X9897Y215666D01*
X10405Y216365D01*
X10966Y217023D01*
X11577Y217634D01*
X12235Y218195D01*
X12934Y218703D01*
X13671Y219155D01*
X14441Y219547D01*
X15240Y219878D01*
X16062Y220145D01*
X16902Y220347D01*
X17756Y220482D01*
X18618Y220550D01*
X19482Y220550D01*
X20344Y220482D01*
X21198Y220347D01*
X22038Y220145D01*
X22860Y219878D01*
X23659Y219547D01*
X24429Y219155D01*
X25166Y218703D01*
X25865Y218195D01*
X26523Y217634D01*
X27134Y217023D01*
X27695Y216365D01*
X28203Y215666D01*
X28655Y214929D01*
X29047Y214159D01*
X29378Y213360D01*
X29645Y212538D01*
X29847Y211698D01*
X29982Y210844D01*
X30050Y209982D01*
X30050Y209118D01*
X39141Y130300D02*
X38686Y130360D01*
X38243Y130479D01*
X37819Y130654D01*
X37421Y130884D01*
X37057Y131163D01*
X36733Y131487D01*
X36454Y131851D01*
X36224Y132249D01*
X36049Y132673D01*
X35930Y133116D01*
X35870Y133571D01*
X35870Y134029D01*
X35930Y134484D01*
X36049Y134927D01*
X36224Y135351D01*
X36454Y135749D01*
X36733Y136113D01*
X37057Y136437D01*
X37421Y136716D01*
X37819Y136946D01*
X38243Y137121D01*
X38686Y137240D01*
X39141Y137300D01*
X39599Y137300D01*
X40054Y137240D01*
X40497Y137121D01*
X40921Y136946D01*
X41319Y136716D01*
X41683Y136437D01*
X42007Y136113D01*
X42286Y135749D01*
X42516Y135351D01*
X42691Y134927D01*
X42810Y134484D01*
X42870Y134029D01*
X42870Y133571D01*
X42810Y133116D01*
X42691Y132673D01*
X42516Y132249D01*
X42286Y131851D01*
X42007Y131487D01*
X41683Y131163D01*
X41319Y130884D01*
X40921Y130654D01*
X40497Y130479D01*
X40054Y130360D01*
X39599Y130300D01*
X39141Y130300D01*
X39141Y91300D02*
X38686Y91360D01*
X38243Y91479D01*
X37819Y91654D01*
X37421Y91884D01*
X37057Y92163D01*
X36733Y92487D01*
X36454Y92851D01*
X36224Y93249D01*
X36049Y93673D01*
X35930Y94116D01*
X35870Y94571D01*
X35870Y95029D01*
X35930Y95484D01*
X36049Y95927D01*
X36224Y96351D01*
X36454Y96749D01*
X36733Y97113D01*
X37057Y97437D01*
X37421Y97716D01*
X37819Y97946D01*
X38243Y98121D01*
X38686Y98240D01*
X39141Y98300D01*
X39599Y98300D01*
X40054Y98240D01*
X40497Y98121D01*
X40921Y97946D01*
X41319Y97716D01*
X41683Y97437D01*
X42007Y97113D01*
X42286Y96749D01*
X42516Y96351D01*
X42691Y95927D01*
X42810Y95484D01*
X42870Y95029D01*
X42870Y94571D01*
X42810Y94116D01*
X42691Y93673D01*
X42516Y93249D01*
X42286Y92851D01*
X42007Y92487D01*
X41683Y92163D01*
X41319Y91884D01*
X40921Y91654D01*
X40497Y91479D01*
X40054Y91360D01*
X39599Y91300D01*
X39141Y91300D01*
X463255Y91780D02*
X462670Y91857D01*
X462100Y92010D01*
X461555Y92235D01*
X461045Y92530D01*
X460577Y92889D01*
X460159Y93307D01*
X459800Y93775D01*
X459505Y94285D01*
X459280Y94830D01*
X459127Y95400D01*
X459050Y95985D01*
X459050Y96575D01*
X459127Y97160D01*
X459280Y97730D01*
X459505Y98275D01*
X459800Y98785D01*
X460159Y99253D01*
X460577Y99671D01*
X461045Y100030D01*
X461555Y100325D01*
X462100Y100550D01*
X462670Y100703D01*
X463255Y100780D01*
X463845Y100780D01*
X464430Y100703D01*
X465000Y100550D01*
X465545Y100325D01*
X466055Y100030D01*
X466523Y99671D01*
X466941Y99253D01*
X467300Y98785D01*
X467595Y98275D01*
X467820Y97730D01*
X467973Y97160D01*
X468050Y96575D01*
X468050Y95985D01*
X467973Y95400D01*
X467820Y94830D01*
X467595Y94285D01*
X467300Y93775D01*
X466941Y93307D01*
X466523Y92889D01*
X466055Y92530D01*
X465545Y92235D01*
X465000Y92010D01*
X464430Y91857D01*
X463845Y91780D01*
X463255Y91780D01*
X463255Y61780D02*
X462670Y61857D01*
X462100Y62010D01*
X461555Y62235D01*
X461045Y62530D01*
X460577Y62889D01*
X460159Y63307D01*
X459800Y63775D01*
X459505Y64285D01*
X459280Y64830D01*
X459127Y65400D01*
X459050Y65985D01*
X459050Y66575D01*
X459127Y67160D01*
X459280Y67730D01*
X459505Y68275D01*
X459800Y68785D01*
X460159Y69253D01*
X460577Y69671D01*
X461045Y70030D01*
X461555Y70325D01*
X462100Y70550D01*
X462670Y70703D01*
X463255Y70780D01*
X463845Y70780D01*
X464430Y70703D01*
X465000Y70550D01*
X465545Y70325D01*
X466055Y70030D01*
X466523Y69671D01*
X466941Y69253D01*
X467300Y68785D01*
X467595Y68275D01*
X467820Y67730D01*
X467973Y67160D01*
X468050Y66575D01*
X468050Y65985D01*
X467973Y65400D01*
X467820Y64830D01*
X467595Y64285D01*
X467300Y63775D01*
X466941Y63307D01*
X466523Y62889D01*
X466055Y62530D01*
X465545Y62235D01*
X465000Y62010D01*
X464430Y61857D01*
X463845Y61780D01*
X463255Y61780D01*
M02*
