G04 EAGLE Gerber RS-274X export*
G75*
%MOMM*%
%FSLAX34Y34*%
%LPD*%
%INSilkscreen Bottom*%
%IPPOS*%
%AMOC8*
5,1,8,0,0,1.08239X$1,22.5*%
G01*
%ADD10C,0.127000*%
%ADD11C,0.152400*%
%ADD12C,0.101600*%


D10*
X431334Y143510D02*
X431334Y152408D01*
X425403Y143510D01*
X425403Y152408D01*
X421979Y152408D02*
X421979Y144993D01*
X420496Y143510D01*
X417530Y143510D01*
X416047Y144993D01*
X416047Y152408D01*
X398820Y152408D02*
X397337Y150925D01*
X398820Y152408D02*
X401786Y152408D01*
X403269Y150925D01*
X403269Y149442D01*
X401786Y147959D01*
X398820Y147959D01*
X397337Y146476D01*
X397337Y144993D01*
X398820Y143510D01*
X401786Y143510D01*
X403269Y144993D01*
X393914Y143510D02*
X393914Y149442D01*
X392431Y149442D01*
X390948Y147959D01*
X390948Y143510D01*
X390948Y147959D02*
X389465Y149442D01*
X387982Y147959D01*
X387982Y143510D01*
X383076Y149442D02*
X380110Y149442D01*
X378627Y147959D01*
X378627Y143510D01*
X383076Y143510D01*
X384558Y144993D01*
X383076Y146476D01*
X378627Y146476D01*
X375203Y143510D02*
X375203Y149442D01*
X375203Y146476D02*
X372237Y149442D01*
X370754Y149442D01*
X365924Y150925D02*
X365924Y144993D01*
X364441Y143510D01*
X364441Y149442D02*
X367407Y149442D01*
X361170Y149442D02*
X359688Y149442D01*
X359688Y143510D01*
X361170Y143510D02*
X358205Y143510D01*
X359688Y152408D02*
X359688Y153891D01*
X353451Y149442D02*
X349002Y149442D01*
X353451Y149442D02*
X354934Y147959D01*
X354934Y144993D01*
X353451Y143510D01*
X349002Y143510D01*
X345579Y152408D02*
X344096Y152408D01*
X344096Y143510D01*
X345579Y143510D02*
X342613Y143510D01*
X337859Y143510D02*
X334893Y143510D01*
X337859Y143510D02*
X339342Y144993D01*
X339342Y147959D01*
X337859Y149442D01*
X334893Y149442D01*
X333410Y147959D01*
X333410Y146476D01*
X339342Y146476D01*
X311276Y149442D02*
X308310Y143510D01*
X305344Y149442D01*
X301921Y143510D02*
X295989Y143510D01*
X301921Y143510D02*
X295989Y149442D01*
X295989Y150925D01*
X297472Y152408D01*
X300438Y152408D01*
X301921Y150925D01*
X413404Y134202D02*
X413404Y128270D01*
X413404Y134202D02*
X410438Y137168D01*
X407472Y134202D01*
X407472Y128270D01*
X407472Y132719D02*
X413404Y132719D01*
X401083Y128270D02*
X401083Y137168D01*
X404048Y137168D02*
X398117Y137168D01*
X394693Y134202D02*
X394693Y128270D01*
X394693Y134202D02*
X393210Y134202D01*
X391727Y132719D01*
X391727Y128270D01*
X391727Y132719D02*
X390244Y134202D01*
X388761Y132719D01*
X388761Y128270D01*
X383855Y128270D02*
X380889Y128270D01*
X383855Y128270D02*
X385338Y129753D01*
X385338Y132719D01*
X383855Y134202D01*
X380889Y134202D01*
X379406Y132719D01*
X379406Y131236D01*
X385338Y131236D01*
X373017Y125304D02*
X371534Y125304D01*
X370051Y126787D01*
X370051Y134202D01*
X374500Y134202D01*
X375983Y132719D01*
X375983Y129753D01*
X374500Y128270D01*
X370051Y128270D01*
X365145Y134202D02*
X362179Y134202D01*
X360696Y132719D01*
X360696Y128270D01*
X365145Y128270D01*
X366628Y129753D01*
X365145Y131236D01*
X360696Y131236D01*
X357272Y135685D02*
X355790Y137168D01*
X352824Y137168D01*
X351341Y135685D01*
X351341Y134202D01*
X352824Y132719D01*
X354307Y132719D01*
X352824Y132719D02*
X351341Y131236D01*
X351341Y129753D01*
X352824Y128270D01*
X355790Y128270D01*
X357272Y129753D01*
X347917Y128270D02*
X341986Y128270D01*
X347917Y128270D02*
X341986Y134202D01*
X341986Y135685D01*
X343468Y137168D01*
X346434Y137168D01*
X347917Y135685D01*
X338562Y135685D02*
X337079Y137168D01*
X334113Y137168D01*
X332630Y135685D01*
X332630Y134202D01*
X334113Y132719D01*
X332630Y131236D01*
X332630Y129753D01*
X334113Y128270D01*
X337079Y128270D01*
X338562Y129753D01*
X338562Y131236D01*
X337079Y132719D01*
X338562Y134202D01*
X338562Y135685D01*
X337079Y132719D02*
X334113Y132719D01*
X329207Y134202D02*
X329207Y125304D01*
X329207Y134202D02*
X324758Y134202D01*
X323275Y132719D01*
X323275Y129753D01*
X324758Y128270D01*
X329207Y128270D01*
X319852Y128270D02*
X319852Y137168D01*
X319852Y128270D02*
X315403Y128270D01*
X313920Y129753D01*
X313920Y132719D01*
X315403Y134202D01*
X319852Y134202D01*
D11*
X83686Y161443D02*
X82034Y159790D01*
X82034Y156485D01*
X83686Y154833D01*
X85338Y154833D01*
X86991Y156485D01*
X88643Y154833D01*
X90296Y154833D01*
X91948Y156485D01*
X91948Y159790D01*
X90296Y161443D01*
X88643Y161443D01*
X86991Y159790D01*
X85338Y161443D01*
X83686Y161443D01*
X86991Y159790D02*
X86991Y156485D01*
X91948Y150918D02*
X82034Y150918D01*
X85338Y147613D01*
X82034Y144308D01*
X91948Y144308D01*
X91948Y140393D02*
X82034Y140393D01*
X86991Y140393D02*
X86991Y133784D01*
X82034Y133784D02*
X91948Y133784D01*
X85338Y129869D02*
X85338Y123259D01*
X91948Y129869D01*
X91948Y123259D01*
X91948Y119344D02*
X82034Y112735D01*
X83686Y108820D02*
X82034Y107167D01*
X82034Y103862D01*
X83686Y102210D01*
X85338Y102210D01*
X86991Y103862D01*
X86991Y105515D01*
X86991Y103862D02*
X88643Y102210D01*
X90296Y102210D01*
X91948Y103862D01*
X91948Y107167D01*
X90296Y108820D01*
X90296Y98295D02*
X91948Y98295D01*
X90296Y98295D02*
X90296Y96643D01*
X91948Y96643D01*
X91948Y98295D01*
X83686Y93033D02*
X82034Y91380D01*
X82034Y88075D01*
X83686Y86423D01*
X85338Y86423D01*
X86991Y88075D01*
X86991Y89728D01*
X86991Y88075D02*
X88643Y86423D01*
X90296Y86423D01*
X91948Y88075D01*
X91948Y91380D01*
X90296Y93033D01*
X88643Y82508D02*
X82034Y82508D01*
X88643Y82508D02*
X91948Y79203D01*
X88643Y75898D01*
X82034Y75898D01*
D12*
X212338Y202692D02*
X218270Y202692D01*
X219456Y201506D01*
X219456Y199133D01*
X218270Y197947D01*
X212338Y197947D01*
X212338Y191649D02*
X213524Y190462D01*
X212338Y191649D02*
X212338Y194022D01*
X213524Y195208D01*
X214711Y195208D01*
X215897Y194022D01*
X215897Y191649D01*
X217083Y190462D01*
X218270Y190462D01*
X219456Y191649D01*
X219456Y194022D01*
X218270Y195208D01*
X219456Y187724D02*
X212338Y187724D01*
X212338Y184165D01*
X213524Y182978D01*
X214711Y182978D01*
X215897Y184165D01*
X217083Y182978D01*
X218270Y182978D01*
X219456Y184165D01*
X219456Y187724D01*
X215897Y187724D02*
X215897Y184165D01*
X237738Y199133D02*
X244856Y199133D01*
X241297Y202692D02*
X237738Y199133D01*
X241297Y197947D02*
X241297Y202692D01*
X390138Y202692D02*
X390138Y197947D01*
X390138Y202692D02*
X393697Y202692D01*
X392511Y200319D01*
X392511Y199133D01*
X393697Y197947D01*
X396070Y197947D01*
X397256Y199133D01*
X397256Y201506D01*
X396070Y202692D01*
X295656Y202692D02*
X295656Y197947D01*
X295656Y202692D02*
X290911Y197947D01*
X289724Y197947D01*
X288538Y199133D01*
X288538Y201506D01*
X289724Y202692D01*
X313938Y200319D02*
X316311Y202692D01*
X313938Y200319D02*
X321056Y200319D01*
X321056Y197947D02*
X321056Y202692D01*
X319870Y195208D02*
X315124Y195208D01*
X313938Y194022D01*
X313938Y191649D01*
X315124Y190462D01*
X319870Y190462D01*
X321056Y191649D01*
X321056Y194022D01*
X319870Y195208D01*
X315124Y190462D01*
X313938Y187724D02*
X312752Y186537D01*
X315124Y184165D01*
X313938Y182978D01*
X345270Y202692D02*
X346456Y201506D01*
X346456Y199133D01*
X345270Y197947D01*
X340524Y197947D01*
X339338Y199133D01*
X339338Y201506D01*
X340524Y202692D01*
X341711Y202692D01*
X342897Y201506D01*
X342897Y197947D01*
X339338Y195208D02*
X338152Y194022D01*
X340524Y191649D01*
X339338Y190462D01*
X168656Y202692D02*
X161538Y202692D01*
X161538Y199133D01*
X162724Y197947D01*
X163911Y197947D01*
X165097Y199133D01*
X166283Y197947D01*
X167470Y197947D01*
X168656Y199133D01*
X168656Y202692D01*
X165097Y202692D02*
X165097Y199133D01*
X163911Y195208D02*
X168656Y195208D01*
X163911Y195208D02*
X161538Y192835D01*
X163911Y190462D01*
X168656Y190462D01*
X165097Y190462D02*
X165097Y195208D01*
X168656Y185351D02*
X161538Y185351D01*
X161538Y187724D02*
X161538Y182978D01*
X263138Y201506D02*
X264324Y202692D01*
X263138Y201506D02*
X263138Y199133D01*
X264324Y197947D01*
X265511Y197947D01*
X266697Y199133D01*
X266697Y200319D01*
X266697Y199133D02*
X267883Y197947D01*
X269070Y197947D01*
X270256Y199133D01*
X270256Y201506D01*
X269070Y202692D01*
X263138Y195208D02*
X261952Y194022D01*
X264324Y191649D01*
X263138Y190462D01*
X364738Y197947D02*
X365924Y200319D01*
X368297Y202692D01*
X370670Y202692D01*
X371856Y201506D01*
X371856Y199133D01*
X370670Y197947D01*
X369483Y197947D01*
X368297Y199133D01*
X368297Y202692D01*
X364738Y195208D02*
X363552Y194022D01*
X365924Y191649D01*
X364738Y190462D01*
X186938Y197947D02*
X186938Y202692D01*
X194056Y202692D01*
X194056Y197947D01*
X190497Y200319D02*
X190497Y202692D01*
X189311Y195208D02*
X194056Y195208D01*
X189311Y195208D02*
X189311Y191649D01*
X190497Y190462D01*
X194056Y190462D01*
X67056Y44804D02*
X59938Y44804D01*
X59938Y41245D01*
X61124Y40059D01*
X63497Y40059D01*
X64683Y41245D01*
X64683Y44804D01*
X64683Y42432D02*
X67056Y40059D01*
X59938Y33761D02*
X61124Y32575D01*
X59938Y33761D02*
X59938Y36134D01*
X61124Y37320D01*
X62311Y37320D01*
X63497Y36134D01*
X63497Y33761D01*
X64683Y32575D01*
X65870Y32575D01*
X67056Y33761D01*
X67056Y36134D01*
X65870Y37320D01*
X67056Y27463D02*
X59938Y27463D01*
X59938Y25091D02*
X59938Y29836D01*
X113111Y48547D02*
X117856Y48547D01*
X113111Y48547D02*
X110738Y46174D01*
X113111Y43801D01*
X117856Y43801D01*
X114297Y43801D02*
X114297Y48547D01*
X113111Y41062D02*
X117856Y41062D01*
X115483Y41062D02*
X113111Y38690D01*
X113111Y37503D01*
X117856Y33639D02*
X117856Y31267D01*
X117856Y33639D02*
X116670Y34826D01*
X114297Y34826D01*
X113111Y33639D01*
X113111Y31267D01*
X114297Y30080D01*
X115483Y30080D01*
X115483Y34826D01*
X117856Y26155D02*
X111924Y26155D01*
X110738Y24969D01*
X114297Y24969D02*
X114297Y27341D01*
X86524Y37320D02*
X85338Y36134D01*
X85338Y33761D01*
X86524Y32575D01*
X87711Y32575D01*
X88897Y33761D01*
X88897Y34948D01*
X88897Y33761D02*
X90083Y32575D01*
X91270Y32575D01*
X92456Y33761D01*
X92456Y36134D01*
X91270Y37320D01*
X90083Y29836D02*
X85338Y29836D01*
X90083Y29836D02*
X92456Y27463D01*
X90083Y25091D01*
X85338Y25091D01*
X290911Y37320D02*
X295656Y37320D01*
X290911Y37320D02*
X288538Y34948D01*
X290911Y32575D01*
X295656Y32575D01*
X292097Y32575D02*
X292097Y37320D01*
X288538Y29836D02*
X288538Y25091D01*
X289724Y25091D01*
X294470Y29836D01*
X295656Y29836D01*
X270256Y37320D02*
X265511Y37320D01*
X263138Y34948D01*
X265511Y32575D01*
X270256Y32575D01*
X266697Y32575D02*
X266697Y37320D01*
X264324Y27463D02*
X263138Y25091D01*
X264324Y27463D02*
X266697Y29836D01*
X269070Y29836D01*
X270256Y28650D01*
X270256Y26277D01*
X269070Y25091D01*
X267883Y25091D01*
X266697Y26277D01*
X266697Y29836D01*
X244856Y37320D02*
X240111Y37320D01*
X237738Y34948D01*
X240111Y32575D01*
X244856Y32575D01*
X241297Y32575D02*
X241297Y37320D01*
X238924Y29836D02*
X237738Y28650D01*
X237738Y26277D01*
X238924Y25091D01*
X240111Y25091D01*
X241297Y26277D01*
X241297Y27463D01*
X241297Y26277D02*
X242483Y25091D01*
X243670Y25091D01*
X244856Y26277D01*
X244856Y28650D01*
X243670Y29836D01*
X219456Y37320D02*
X214711Y37320D01*
X212338Y34948D01*
X214711Y32575D01*
X219456Y32575D01*
X215897Y32575D02*
X215897Y37320D01*
X219456Y29836D02*
X219456Y25091D01*
X219456Y29836D02*
X214711Y25091D01*
X213524Y25091D01*
X212338Y26277D01*
X212338Y28650D01*
X213524Y29836D01*
X194056Y37320D02*
X189311Y37320D01*
X186938Y34948D01*
X189311Y32575D01*
X194056Y32575D01*
X190497Y32575D02*
X190497Y37320D01*
X189311Y29836D02*
X186938Y27463D01*
X194056Y27463D01*
X194056Y25091D02*
X194056Y29836D01*
X168656Y37320D02*
X163911Y37320D01*
X161538Y34948D01*
X163911Y32575D01*
X168656Y32575D01*
X165097Y32575D02*
X165097Y37320D01*
X167470Y29836D02*
X162724Y29836D01*
X161538Y28650D01*
X161538Y26277D01*
X162724Y25091D01*
X167470Y25091D01*
X168656Y26277D01*
X168656Y28650D01*
X167470Y29836D01*
X162724Y25091D01*
X313938Y41245D02*
X315124Y40059D01*
X313938Y41245D02*
X313938Y43618D01*
X315124Y44804D01*
X316311Y44804D01*
X317497Y43618D01*
X317497Y41245D01*
X318683Y40059D01*
X319870Y40059D01*
X321056Y41245D01*
X321056Y43618D01*
X319870Y44804D01*
X313938Y33761D02*
X315124Y32575D01*
X313938Y33761D02*
X313938Y36134D01*
X315124Y37320D01*
X319870Y37320D01*
X321056Y36134D01*
X321056Y33761D01*
X319870Y32575D01*
X321056Y29836D02*
X313938Y29836D01*
X318683Y29836D02*
X313938Y25091D01*
X317497Y28650D02*
X321056Y25091D01*
X339338Y49794D02*
X346456Y49794D01*
X341711Y47421D02*
X339338Y49794D01*
X341711Y47421D02*
X339338Y45049D01*
X346456Y45049D01*
X339338Y41123D02*
X339338Y38751D01*
X339338Y41123D02*
X340524Y42310D01*
X345270Y42310D01*
X346456Y41123D01*
X346456Y38751D01*
X345270Y37564D01*
X340524Y37564D01*
X339338Y38751D01*
X339338Y31267D02*
X340524Y30080D01*
X339338Y31267D02*
X339338Y33639D01*
X340524Y34826D01*
X341711Y34826D01*
X342897Y33639D01*
X342897Y31267D01*
X344083Y30080D01*
X345270Y30080D01*
X346456Y31267D01*
X346456Y33639D01*
X345270Y34826D01*
X346456Y27341D02*
X346456Y24969D01*
X346456Y26155D02*
X339338Y26155D01*
X339338Y27341D02*
X339338Y24969D01*
X360928Y47254D02*
X368046Y47254D01*
X363301Y44881D02*
X360928Y47254D01*
X363301Y44881D02*
X360928Y42509D01*
X368046Y42509D01*
X368046Y39770D02*
X368046Y37397D01*
X368046Y38583D02*
X360928Y38583D01*
X360928Y37397D02*
X360928Y39770D01*
X360928Y31221D02*
X362114Y30035D01*
X360928Y31221D02*
X360928Y33594D01*
X362114Y34780D01*
X363301Y34780D01*
X364487Y33594D01*
X364487Y31221D01*
X365673Y30035D01*
X366860Y30035D01*
X368046Y31221D01*
X368046Y33594D01*
X366860Y34780D01*
X360928Y26110D02*
X360928Y23737D01*
X360928Y26110D02*
X362114Y27296D01*
X366860Y27296D01*
X368046Y26110D01*
X368046Y23737D01*
X366860Y22551D01*
X362114Y22551D01*
X360928Y23737D01*
X390138Y33510D02*
X397256Y33510D01*
X390138Y33510D02*
X390138Y29951D01*
X391324Y28765D01*
X393697Y28765D01*
X394883Y29951D01*
X394883Y33510D01*
X394883Y31138D02*
X397256Y28765D01*
X397256Y21281D02*
X390138Y26026D01*
X390138Y21281D02*
X397256Y26026D01*
X415538Y31138D02*
X422656Y31138D01*
X415538Y33510D02*
X415538Y28765D01*
X415538Y26026D02*
X422656Y21281D01*
X422656Y26026D02*
X415538Y21281D01*
X137324Y40059D02*
X136138Y41245D01*
X136138Y43618D01*
X137324Y44804D01*
X142070Y44804D01*
X143256Y43618D01*
X143256Y41245D01*
X142070Y40059D01*
X139697Y40059D01*
X139697Y42432D01*
X143256Y37320D02*
X136138Y37320D01*
X143256Y32575D01*
X136138Y32575D01*
X136138Y29836D02*
X143256Y29836D01*
X143256Y26277D01*
X142070Y25091D01*
X137324Y25091D01*
X136138Y26277D01*
X136138Y29836D01*
X440938Y29836D02*
X440938Y25091D01*
X442124Y25091D01*
X446870Y29836D01*
X448056Y29836D01*
X448137Y190336D02*
X449323Y191522D01*
X451696Y191522D01*
X452882Y190336D01*
X452882Y189149D01*
X451696Y187963D01*
X449323Y187963D01*
X448137Y186777D01*
X448137Y185590D01*
X449323Y184404D01*
X451696Y184404D01*
X452882Y185590D01*
X445398Y184404D02*
X445398Y191522D01*
X445398Y184404D02*
X441839Y184404D01*
X440652Y185590D01*
X440652Y190336D01*
X441839Y191522D01*
X445398Y191522D01*
X437914Y189149D02*
X437914Y184404D01*
X437914Y189149D02*
X435541Y191522D01*
X433168Y189149D01*
X433168Y184404D01*
X433168Y187963D02*
X437914Y187963D01*
X424007Y203036D02*
X425193Y204222D01*
X427566Y204222D01*
X428752Y203036D01*
X428752Y201849D01*
X427566Y200663D01*
X425193Y200663D01*
X424007Y199477D01*
X424007Y198290D01*
X425193Y197104D01*
X427566Y197104D01*
X428752Y198290D01*
X417709Y204222D02*
X416522Y203036D01*
X417709Y204222D02*
X420082Y204222D01*
X421268Y203036D01*
X421268Y198290D01*
X420082Y197104D01*
X417709Y197104D01*
X416522Y198290D01*
X413784Y197104D02*
X413784Y204222D01*
X413784Y197104D02*
X409038Y197104D01*
D10*
X399128Y189359D02*
X397645Y187876D01*
X399128Y189359D02*
X396162Y192325D01*
X397645Y193808D01*
M02*
