M48
;GenerationSoftware,Autodesk,EAGLE,9.5.1*%
;CreationDate,2019-10-09T18:50:36Z*%
FMAT,2
ICI,OFF
METRIC,TZ,000.000
T5C0.508
T4C0.700
T3C0.750
T2C0.900
T1C1.016
%
G90
M71
T1
X36418Y2166
X33878Y2166
T2
X44807Y20018
X41807Y20018
T3
X5686Y4229
X7718Y4229
X9750Y4229
X42434Y4184
X40402Y4184
X38370Y4184
T4
X7623Y2438
X5718Y2438
X9652Y17447
X11557Y17447
X45291Y2286
X45291Y4191
T5
X15240Y14303
X15367Y5588
X19431Y13970
X19685Y15240
X32766Y16081
X29210Y8461
X24330Y16002
X19431Y8890
X14097Y13589
X33782Y4521
X15367Y4191
X34925Y15367
X44069Y17399
X22352Y10414
X23622Y9144
X20406Y3896
X36322Y4953
M30