G04 EAGLE Gerber RS-274X export*
G75*
%MOMM*%
%FSLAX34Y34*%
%LPD*%
%INBottom Copper*%
%IPPOS*%
%AMOC8*
5,1,8,0,0,1.08239X$1,22.5*%
G01*
%ADD10C,1.359600*%
%ADD11C,1.879600*%
%ADD12R,0.550000X1.200000*%
%ADD13R,0.800000X0.800000*%
%ADD14R,0.350000X0.800000*%
%ADD15R,0.600000X2.600000*%
%ADD16C,1.309600*%
%ADD17C,1.016000*%
%ADD18C,0.254000*%
%ADD19C,0.406400*%
%ADD20C,0.203200*%
%ADD21C,0.304800*%
%ADD22C,0.508000*%

G36*
X330933Y10432D02*
X330933Y10432D01*
X331072Y10445D01*
X331091Y10452D01*
X331111Y10455D01*
X331240Y10506D01*
X331371Y10553D01*
X331388Y10564D01*
X331407Y10572D01*
X331519Y10653D01*
X331634Y10731D01*
X331648Y10747D01*
X331664Y10758D01*
X331753Y10866D01*
X331845Y10970D01*
X331854Y10988D01*
X331867Y11003D01*
X331926Y11129D01*
X331989Y11253D01*
X331994Y11273D01*
X332002Y11291D01*
X332029Y11427D01*
X332059Y11563D01*
X332058Y11584D01*
X332062Y11603D01*
X332054Y11742D01*
X332049Y11881D01*
X332044Y11901D01*
X332042Y11921D01*
X332000Y12053D01*
X331961Y12187D01*
X331951Y12204D01*
X331944Y12223D01*
X331870Y12341D01*
X331799Y12461D01*
X331781Y12482D01*
X331774Y12492D01*
X331759Y12506D01*
X331693Y12581D01*
X329089Y15185D01*
X327349Y19386D01*
X327349Y23934D01*
X329089Y28135D01*
X332305Y31351D01*
X336506Y33091D01*
X341054Y33091D01*
X345255Y31351D01*
X348471Y28135D01*
X350211Y23934D01*
X350211Y19386D01*
X348471Y15185D01*
X345867Y12581D01*
X345782Y12472D01*
X345693Y12365D01*
X345684Y12346D01*
X345672Y12330D01*
X345616Y12202D01*
X345558Y12077D01*
X345554Y12057D01*
X345546Y12038D01*
X345524Y11900D01*
X345498Y11764D01*
X345499Y11744D01*
X345496Y11724D01*
X345509Y11585D01*
X345518Y11447D01*
X345524Y11428D01*
X345526Y11408D01*
X345573Y11276D01*
X345616Y11145D01*
X345626Y11127D01*
X345633Y11108D01*
X345711Y10993D01*
X345786Y10876D01*
X345800Y10862D01*
X345812Y10845D01*
X345916Y10753D01*
X346017Y10658D01*
X346035Y10648D01*
X346050Y10635D01*
X346174Y10571D01*
X346296Y10504D01*
X346315Y10499D01*
X346333Y10490D01*
X346469Y10460D01*
X346604Y10425D01*
X346632Y10423D01*
X346644Y10420D01*
X346664Y10421D01*
X346764Y10415D01*
X356196Y10415D01*
X356333Y10432D01*
X356472Y10445D01*
X356491Y10452D01*
X356511Y10455D01*
X356640Y10506D01*
X356771Y10553D01*
X356788Y10564D01*
X356807Y10572D01*
X356919Y10653D01*
X357034Y10731D01*
X357048Y10747D01*
X357064Y10758D01*
X357153Y10866D01*
X357245Y10970D01*
X357254Y10988D01*
X357267Y11003D01*
X357326Y11129D01*
X357389Y11253D01*
X357394Y11273D01*
X357402Y11291D01*
X357429Y11427D01*
X357459Y11563D01*
X357458Y11584D01*
X357462Y11603D01*
X357454Y11742D01*
X357449Y11881D01*
X357444Y11901D01*
X357442Y11921D01*
X357400Y12053D01*
X357361Y12187D01*
X357351Y12204D01*
X357344Y12223D01*
X357270Y12341D01*
X357199Y12461D01*
X357181Y12482D01*
X357174Y12492D01*
X357159Y12506D01*
X357093Y12581D01*
X354489Y15185D01*
X352749Y19386D01*
X352749Y23934D01*
X354489Y28135D01*
X357705Y31351D01*
X361906Y33091D01*
X366454Y33091D01*
X370655Y31351D01*
X373871Y28135D01*
X375611Y23934D01*
X375611Y19386D01*
X373871Y15185D01*
X371267Y12581D01*
X371182Y12472D01*
X371093Y12365D01*
X371084Y12346D01*
X371072Y12330D01*
X371016Y12202D01*
X370958Y12077D01*
X370954Y12057D01*
X370946Y12038D01*
X370924Y11900D01*
X370898Y11764D01*
X370899Y11744D01*
X370896Y11724D01*
X370909Y11585D01*
X370918Y11447D01*
X370924Y11428D01*
X370926Y11408D01*
X370973Y11276D01*
X371016Y11145D01*
X371026Y11127D01*
X371033Y11108D01*
X371111Y10993D01*
X371186Y10876D01*
X371200Y10862D01*
X371212Y10845D01*
X371316Y10753D01*
X371417Y10658D01*
X371435Y10648D01*
X371450Y10635D01*
X371574Y10571D01*
X371696Y10504D01*
X371715Y10499D01*
X371733Y10490D01*
X371869Y10460D01*
X372004Y10425D01*
X372032Y10423D01*
X372044Y10420D01*
X372064Y10421D01*
X372164Y10415D01*
X462400Y10415D01*
X462498Y10427D01*
X462597Y10430D01*
X462656Y10447D01*
X462716Y10455D01*
X462808Y10491D01*
X462903Y10519D01*
X462955Y10549D01*
X463011Y10572D01*
X463092Y10630D01*
X463177Y10680D01*
X463252Y10746D01*
X463269Y10758D01*
X463277Y10768D01*
X463298Y10786D01*
X469214Y16702D01*
X469274Y16781D01*
X469342Y16853D01*
X469371Y16906D01*
X469408Y16954D01*
X469448Y17045D01*
X469496Y17131D01*
X469511Y17190D01*
X469535Y17245D01*
X469550Y17343D01*
X469575Y17439D01*
X469581Y17539D01*
X469585Y17560D01*
X469583Y17572D01*
X469585Y17600D01*
X469585Y42400D01*
X469573Y42498D01*
X469570Y42597D01*
X469553Y42656D01*
X469545Y42716D01*
X469509Y42808D01*
X469481Y42903D01*
X469451Y42955D01*
X469428Y43011D01*
X469370Y43091D01*
X469320Y43177D01*
X469254Y43252D01*
X469242Y43269D01*
X469232Y43277D01*
X469214Y43298D01*
X463298Y49214D01*
X463219Y49274D01*
X463147Y49342D01*
X463094Y49371D01*
X463046Y49408D01*
X462955Y49448D01*
X462869Y49496D01*
X462810Y49511D01*
X462755Y49535D01*
X462657Y49550D01*
X462561Y49575D01*
X462461Y49581D01*
X462440Y49585D01*
X462428Y49583D01*
X462400Y49585D01*
X461059Y49585D01*
X461019Y49580D01*
X460980Y49583D01*
X460862Y49560D01*
X460743Y49545D01*
X460706Y49531D01*
X460667Y49523D01*
X460559Y49472D01*
X460448Y49428D01*
X460416Y49405D01*
X460379Y49388D01*
X460287Y49312D01*
X460190Y49242D01*
X460165Y49211D01*
X460134Y49186D01*
X460064Y49089D01*
X459988Y48997D01*
X459971Y48961D01*
X459947Y48928D01*
X459903Y48817D01*
X459852Y48709D01*
X459845Y48670D01*
X459830Y48633D01*
X459815Y48514D01*
X459792Y48397D01*
X459795Y48357D01*
X459790Y48317D01*
X459805Y48198D01*
X459812Y48079D01*
X459824Y48041D01*
X459829Y48002D01*
X459873Y47890D01*
X459910Y47777D01*
X459931Y47743D01*
X459946Y47706D01*
X460032Y47570D01*
X460683Y46673D01*
X461333Y45399D01*
X461775Y44038D01*
X461835Y43659D01*
X453390Y43659D01*
X453272Y43644D01*
X453153Y43637D01*
X453115Y43624D01*
X453075Y43619D01*
X452964Y43576D01*
X452916Y43560D01*
X452898Y43570D01*
X452859Y43580D01*
X452823Y43597D01*
X452706Y43619D01*
X452590Y43649D01*
X452530Y43653D01*
X452510Y43657D01*
X452490Y43655D01*
X452430Y43659D01*
X443985Y43659D01*
X444045Y44038D01*
X444487Y45399D01*
X445137Y46673D01*
X445788Y47570D01*
X445807Y47605D01*
X445832Y47635D01*
X445883Y47744D01*
X445941Y47849D01*
X445951Y47887D01*
X445968Y47923D01*
X445990Y48040D01*
X446020Y48157D01*
X446020Y48197D01*
X446028Y48236D01*
X446020Y48355D01*
X446020Y48475D01*
X446010Y48513D01*
X446008Y48553D01*
X445971Y48667D01*
X445941Y48783D01*
X445922Y48818D01*
X445910Y48855D01*
X445846Y48957D01*
X445788Y49062D01*
X445761Y49091D01*
X445740Y49124D01*
X445653Y49206D01*
X445571Y49293D01*
X445537Y49315D01*
X445508Y49342D01*
X445403Y49400D01*
X445302Y49464D01*
X445265Y49476D01*
X445230Y49496D01*
X445114Y49525D01*
X445000Y49563D01*
X444960Y49565D01*
X444922Y49575D01*
X444761Y49585D01*
X432148Y49585D01*
X432010Y49568D01*
X431871Y49555D01*
X431852Y49548D01*
X431832Y49545D01*
X431702Y49494D01*
X431572Y49447D01*
X431555Y49436D01*
X431536Y49428D01*
X431424Y49347D01*
X431309Y49269D01*
X431295Y49253D01*
X431279Y49242D01*
X431190Y49134D01*
X431098Y49030D01*
X431089Y49012D01*
X431076Y48997D01*
X431017Y48871D01*
X430954Y48747D01*
X430949Y48727D01*
X430941Y48709D01*
X430915Y48572D01*
X430884Y48437D01*
X430885Y48416D01*
X430881Y48397D01*
X430889Y48258D01*
X430894Y48119D01*
X430899Y48099D01*
X430901Y48079D01*
X430943Y47947D01*
X430982Y47813D01*
X430992Y47796D01*
X430999Y47777D01*
X431073Y47659D01*
X431144Y47539D01*
X431162Y47518D01*
X431169Y47508D01*
X431184Y47494D01*
X431250Y47419D01*
X431826Y46842D01*
X433171Y43597D01*
X433171Y40083D01*
X431826Y36838D01*
X429342Y34354D01*
X426097Y33009D01*
X422583Y33009D01*
X419338Y34354D01*
X416854Y36838D01*
X415509Y40083D01*
X415509Y43798D01*
X415492Y43936D01*
X415479Y44075D01*
X415472Y44094D01*
X415469Y44114D01*
X415418Y44243D01*
X415371Y44374D01*
X415360Y44391D01*
X415352Y44409D01*
X415271Y44522D01*
X415193Y44637D01*
X415177Y44650D01*
X415166Y44667D01*
X415058Y44756D01*
X414954Y44847D01*
X414936Y44857D01*
X414921Y44870D01*
X414795Y44929D01*
X414671Y44992D01*
X414651Y44997D01*
X414633Y45005D01*
X414497Y45031D01*
X414361Y45062D01*
X414340Y45061D01*
X414321Y45065D01*
X414182Y45056D01*
X414043Y45052D01*
X414023Y45046D01*
X414003Y45045D01*
X413871Y45002D01*
X413737Y44964D01*
X413720Y44953D01*
X413701Y44947D01*
X413583Y44873D01*
X413463Y44802D01*
X413442Y44784D01*
X413432Y44777D01*
X413418Y44762D01*
X413343Y44696D01*
X413222Y44576D01*
X413162Y44497D01*
X413094Y44425D01*
X413065Y44372D01*
X413028Y44324D01*
X412988Y44233D01*
X412940Y44147D01*
X412925Y44088D01*
X412901Y44033D01*
X412886Y43935D01*
X412861Y43839D01*
X412855Y43739D01*
X412851Y43718D01*
X412853Y43706D01*
X412851Y43678D01*
X412851Y40083D01*
X411506Y36838D01*
X409022Y34354D01*
X405777Y33009D01*
X402263Y33009D01*
X399018Y34354D01*
X396534Y36838D01*
X395189Y40083D01*
X395189Y43597D01*
X396534Y46842D01*
X399018Y49326D01*
X402263Y50671D01*
X405858Y50671D01*
X405956Y50683D01*
X406055Y50686D01*
X406114Y50703D01*
X406174Y50711D01*
X406266Y50747D01*
X406361Y50775D01*
X406413Y50805D01*
X406469Y50828D01*
X406550Y50886D01*
X406635Y50936D01*
X406710Y51002D01*
X406727Y51014D01*
X406735Y51024D01*
X406756Y51042D01*
X411393Y55680D01*
X414444Y58731D01*
X466714Y58731D01*
X469764Y55681D01*
X469764Y55680D01*
X474531Y50914D01*
X474640Y50829D01*
X474747Y50740D01*
X474766Y50732D01*
X474782Y50719D01*
X474910Y50664D01*
X475035Y50605D01*
X475055Y50601D01*
X475074Y50593D01*
X475212Y50571D01*
X475348Y50545D01*
X475368Y50546D01*
X475388Y50543D01*
X475527Y50556D01*
X475665Y50565D01*
X475684Y50571D01*
X475704Y50573D01*
X475836Y50620D01*
X475967Y50663D01*
X475985Y50674D01*
X476004Y50681D01*
X476119Y50759D01*
X476236Y50833D01*
X476250Y50848D01*
X476267Y50859D01*
X476359Y50963D01*
X476454Y51065D01*
X476464Y51082D01*
X476477Y51098D01*
X476541Y51221D01*
X476608Y51343D01*
X476613Y51363D01*
X476622Y51381D01*
X476652Y51517D01*
X476687Y51651D01*
X476689Y51679D01*
X476692Y51691D01*
X476691Y51711D01*
X476697Y51812D01*
X476697Y62300D01*
X476695Y62320D01*
X476691Y62424D01*
X476535Y64010D01*
X476511Y64114D01*
X476497Y64219D01*
X476469Y64299D01*
X476464Y64320D01*
X476457Y64334D01*
X476444Y64371D01*
X475231Y67301D01*
X475226Y67309D01*
X475224Y67318D01*
X475148Y67447D01*
X475073Y67578D01*
X475067Y67584D01*
X475062Y67592D01*
X474956Y67713D01*
X472713Y69956D01*
X472706Y69961D01*
X472700Y69969D01*
X472580Y70059D01*
X472462Y70151D01*
X472453Y70154D01*
X472446Y70160D01*
X472301Y70231D01*
X469371Y71444D01*
X469269Y71472D01*
X469169Y71509D01*
X469086Y71523D01*
X469065Y71528D01*
X469049Y71529D01*
X469010Y71535D01*
X467424Y71691D01*
X467405Y71691D01*
X467300Y71697D01*
X383199Y71697D01*
X370148Y75529D01*
X358705Y82883D01*
X349797Y93163D01*
X344147Y105536D01*
X342211Y119000D01*
X344147Y132464D01*
X349763Y144761D01*
X349784Y144830D01*
X349815Y144895D01*
X349831Y144981D01*
X349857Y145064D01*
X349861Y145137D01*
X349875Y145208D01*
X349869Y145295D01*
X349874Y145382D01*
X349859Y145453D01*
X349855Y145525D01*
X349828Y145608D01*
X349811Y145694D01*
X349779Y145759D01*
X349757Y145827D01*
X349710Y145901D01*
X349672Y145980D01*
X349625Y146035D01*
X349587Y146096D01*
X349523Y146156D01*
X349467Y146223D01*
X349408Y146265D01*
X349355Y146314D01*
X349279Y146356D01*
X349207Y146407D01*
X349140Y146433D01*
X349077Y146468D01*
X348992Y146489D01*
X348910Y146521D01*
X348839Y146529D01*
X348769Y146547D01*
X348608Y146557D01*
X347835Y146557D01*
X345221Y147640D01*
X343220Y149641D01*
X342137Y152255D01*
X342137Y155085D01*
X343220Y157699D01*
X345221Y159700D01*
X347835Y160783D01*
X350089Y160783D01*
X350187Y160795D01*
X350286Y160798D01*
X350344Y160815D01*
X350404Y160823D01*
X350496Y160859D01*
X350591Y160887D01*
X350643Y160917D01*
X350700Y160940D01*
X350780Y160998D01*
X350865Y161048D01*
X350941Y161114D01*
X350957Y161126D01*
X350965Y161136D01*
X350986Y161154D01*
X367886Y178055D01*
X434170Y178055D01*
X434268Y178067D01*
X434367Y178070D01*
X434426Y178087D01*
X434486Y178095D01*
X434578Y178131D01*
X434673Y178159D01*
X434725Y178189D01*
X434781Y178212D01*
X434861Y178270D01*
X434947Y178320D01*
X435022Y178386D01*
X435039Y178398D01*
X435046Y178408D01*
X435068Y178426D01*
X435444Y178803D01*
X435529Y178912D01*
X435617Y179019D01*
X435626Y179038D01*
X435639Y179054D01*
X435694Y179182D01*
X435753Y179307D01*
X435757Y179327D01*
X435765Y179346D01*
X435787Y179484D01*
X435813Y179620D01*
X435812Y179640D01*
X435815Y179660D01*
X435802Y179799D01*
X435793Y179937D01*
X435787Y179956D01*
X435785Y179976D01*
X435738Y180108D01*
X435695Y180239D01*
X435684Y180257D01*
X435677Y180276D01*
X435599Y180391D01*
X435525Y180508D01*
X435510Y180522D01*
X435499Y180539D01*
X435395Y180631D01*
X435293Y180726D01*
X435275Y180736D01*
X435260Y180749D01*
X435137Y180812D01*
X435015Y180880D01*
X434995Y180885D01*
X434977Y180894D01*
X434841Y180924D01*
X434707Y180959D01*
X434679Y180961D01*
X434667Y180964D01*
X434646Y180963D01*
X434546Y180969D01*
X124530Y180969D01*
X124432Y180957D01*
X124332Y180954D01*
X124274Y180937D01*
X124215Y180929D01*
X124122Y180893D01*
X124027Y180865D01*
X123975Y180835D01*
X123919Y180812D01*
X123839Y180754D01*
X123753Y180703D01*
X123710Y180661D01*
X123662Y180626D01*
X123598Y180549D01*
X123528Y180479D01*
X123497Y180427D01*
X123459Y180381D01*
X123416Y180291D01*
X123366Y180205D01*
X123349Y180147D01*
X123323Y180093D01*
X123305Y179995D01*
X123277Y179900D01*
X123275Y179840D01*
X123264Y179781D01*
X123270Y179681D01*
X123266Y179582D01*
X123280Y179523D01*
X123283Y179463D01*
X123314Y179369D01*
X123335Y179272D01*
X123375Y179180D01*
X123381Y179161D01*
X123388Y179150D01*
X123399Y179124D01*
X123993Y177959D01*
X124435Y176598D01*
X124495Y176219D01*
X116050Y176219D01*
X115932Y176204D01*
X115813Y176197D01*
X115775Y176184D01*
X115735Y176179D01*
X115624Y176136D01*
X115511Y176099D01*
X115477Y176077D01*
X115439Y176062D01*
X115343Y175993D01*
X115242Y175929D01*
X115214Y175899D01*
X115182Y175876D01*
X115106Y175784D01*
X115024Y175697D01*
X115005Y175662D01*
X114979Y175631D01*
X114928Y175523D01*
X114871Y175419D01*
X114861Y175379D01*
X114843Y175343D01*
X114821Y175226D01*
X114815Y175224D01*
X114774Y175219D01*
X114664Y175175D01*
X114551Y175139D01*
X114516Y175117D01*
X114479Y175102D01*
X114382Y175032D01*
X114282Y174969D01*
X114254Y174939D01*
X114221Y174915D01*
X114145Y174824D01*
X114064Y174737D01*
X114044Y174702D01*
X114019Y174670D01*
X113968Y174563D01*
X113910Y174458D01*
X113900Y174419D01*
X113883Y174383D01*
X113861Y174266D01*
X113831Y174150D01*
X113827Y174090D01*
X113823Y174070D01*
X113825Y174050D01*
X113821Y173990D01*
X113821Y165545D01*
X113442Y165605D01*
X112081Y166047D01*
X110807Y166697D01*
X109649Y167538D01*
X108638Y168549D01*
X107797Y169707D01*
X107147Y170981D01*
X106986Y171476D01*
X106974Y171503D01*
X106967Y171532D01*
X106906Y171647D01*
X106851Y171764D01*
X106832Y171787D01*
X106818Y171814D01*
X106731Y171909D01*
X106648Y172009D01*
X106624Y172027D01*
X106604Y172049D01*
X106496Y172120D01*
X106391Y172196D01*
X106363Y172207D01*
X106338Y172224D01*
X106215Y172266D01*
X106095Y172313D01*
X106066Y172317D01*
X106037Y172327D01*
X105908Y172337D01*
X105780Y172353D01*
X105750Y172350D01*
X105720Y172352D01*
X105593Y172330D01*
X105464Y172314D01*
X105437Y172303D01*
X105407Y172298D01*
X105289Y172244D01*
X105169Y172197D01*
X105144Y172179D01*
X105117Y172167D01*
X105016Y172086D01*
X104911Y172010D01*
X104892Y171987D01*
X104869Y171969D01*
X104791Y171865D01*
X104708Y171765D01*
X104695Y171738D01*
X104677Y171714D01*
X104606Y171570D01*
X103794Y169609D01*
X101321Y167136D01*
X101267Y167106D01*
X101233Y167072D01*
X101193Y167045D01*
X101119Y166962D01*
X101039Y166884D01*
X101014Y166843D01*
X100982Y166807D01*
X100931Y166708D01*
X100873Y166613D01*
X100859Y166567D01*
X100837Y166525D01*
X100812Y166416D01*
X100779Y166309D01*
X100777Y166261D01*
X100766Y166214D01*
X100769Y166103D01*
X100764Y165992D01*
X100774Y165945D01*
X100775Y165897D01*
X100806Y165790D01*
X100828Y165680D01*
X100849Y165637D01*
X100862Y165591D01*
X100919Y165495D01*
X100968Y165395D01*
X100999Y165358D01*
X101023Y165316D01*
X101102Y165237D01*
X101174Y165153D01*
X101213Y165125D01*
X101247Y165091D01*
X101343Y165033D01*
X101434Y164969D01*
X101479Y164952D01*
X101520Y164928D01*
X101672Y164873D01*
X109852Y162471D01*
X121295Y155117D01*
X130203Y144837D01*
X132544Y139711D01*
X132605Y139611D01*
X132660Y139508D01*
X132689Y139477D01*
X132711Y139440D01*
X132795Y139359D01*
X132874Y139273D01*
X132910Y139250D01*
X132940Y139220D01*
X133042Y139162D01*
X133139Y139098D01*
X133180Y139084D01*
X133217Y139063D01*
X133330Y139033D01*
X133440Y138995D01*
X133483Y138992D01*
X133524Y138981D01*
X133641Y138979D01*
X133757Y138970D01*
X133799Y138977D01*
X133842Y138977D01*
X133956Y139005D01*
X134070Y139024D01*
X134110Y139042D01*
X134151Y139052D01*
X134254Y139107D01*
X134360Y139155D01*
X134394Y139182D01*
X134432Y139202D01*
X134518Y139281D01*
X134609Y139354D01*
X134635Y139388D01*
X134666Y139417D01*
X134730Y139514D01*
X134800Y139608D01*
X134829Y139666D01*
X134840Y139683D01*
X134846Y139702D01*
X134871Y139752D01*
X134940Y139919D01*
X136947Y141926D01*
X137047Y141989D01*
X137160Y142054D01*
X137181Y142074D01*
X137206Y142090D01*
X137295Y142184D01*
X137388Y142275D01*
X137404Y142300D01*
X137424Y142322D01*
X137487Y142435D01*
X137555Y142546D01*
X137563Y142574D01*
X137578Y142600D01*
X137610Y142726D01*
X137648Y142850D01*
X137650Y142880D01*
X137657Y142908D01*
X137667Y143069D01*
X137667Y155038D01*
X158652Y176023D01*
X231965Y176023D01*
X240556Y167432D01*
X240580Y167413D01*
X240599Y167391D01*
X240705Y167316D01*
X240807Y167237D01*
X240835Y167225D01*
X240859Y167208D01*
X240980Y167162D01*
X241099Y167110D01*
X241129Y167106D01*
X241156Y167095D01*
X241285Y167081D01*
X241413Y167060D01*
X241443Y167063D01*
X241472Y167060D01*
X241601Y167078D01*
X241730Y167090D01*
X241758Y167100D01*
X241787Y167104D01*
X241870Y167133D01*
X244712Y167133D01*
X247326Y166050D01*
X249327Y164049D01*
X250410Y161435D01*
X250410Y158605D01*
X249327Y155991D01*
X247326Y153990D01*
X244712Y152907D01*
X241882Y152907D01*
X239268Y153990D01*
X237267Y155991D01*
X236184Y158605D01*
X236184Y161443D01*
X236210Y161559D01*
X236244Y161684D01*
X236245Y161714D01*
X236251Y161743D01*
X236247Y161872D01*
X236250Y162002D01*
X236243Y162031D01*
X236242Y162061D01*
X236206Y162185D01*
X236175Y162312D01*
X236162Y162338D01*
X236153Y162366D01*
X236087Y162478D01*
X236027Y162593D01*
X236007Y162614D01*
X235992Y162640D01*
X235885Y162761D01*
X229601Y169046D01*
X229522Y169106D01*
X229450Y169174D01*
X229397Y169203D01*
X229349Y169240D01*
X229258Y169280D01*
X229172Y169328D01*
X229113Y169343D01*
X229058Y169367D01*
X228960Y169382D01*
X228864Y169407D01*
X228764Y169413D01*
X228743Y169417D01*
X228731Y169415D01*
X228703Y169417D01*
X161914Y169417D01*
X161816Y169405D01*
X161717Y169402D01*
X161658Y169385D01*
X161598Y169377D01*
X161506Y169341D01*
X161411Y169313D01*
X161359Y169283D01*
X161303Y169260D01*
X161223Y169202D01*
X161137Y169152D01*
X161062Y169086D01*
X161045Y169074D01*
X161037Y169064D01*
X161016Y169046D01*
X144644Y152674D01*
X144584Y152595D01*
X144516Y152523D01*
X144487Y152470D01*
X144450Y152422D01*
X144410Y152331D01*
X144362Y152245D01*
X144347Y152186D01*
X144323Y152131D01*
X144308Y152033D01*
X144283Y151937D01*
X144277Y151837D01*
X144273Y151816D01*
X144275Y151804D01*
X144273Y151776D01*
X144273Y143069D01*
X144276Y143039D01*
X144274Y143010D01*
X144296Y142882D01*
X144313Y142753D01*
X144323Y142726D01*
X144329Y142697D01*
X144382Y142578D01*
X144430Y142458D01*
X144447Y142434D01*
X144459Y142407D01*
X144540Y142305D01*
X144616Y142200D01*
X144639Y142181D01*
X144658Y142158D01*
X144762Y142080D01*
X144861Y141997D01*
X144888Y141985D01*
X144912Y141967D01*
X144990Y141928D01*
X147000Y139919D01*
X148083Y137305D01*
X148083Y134475D01*
X147000Y131861D01*
X144999Y129860D01*
X142385Y128777D01*
X139555Y128777D01*
X138242Y129321D01*
X138107Y129358D01*
X137973Y129399D01*
X137954Y129400D01*
X137935Y129405D01*
X137795Y129407D01*
X137655Y129414D01*
X137637Y129410D01*
X137617Y129410D01*
X137481Y129378D01*
X137344Y129349D01*
X137327Y129341D01*
X137308Y129336D01*
X137184Y129271D01*
X137059Y129209D01*
X137044Y129196D01*
X137027Y129187D01*
X136923Y129093D01*
X136817Y129002D01*
X136806Y128987D01*
X136791Y128974D01*
X136715Y128857D01*
X136634Y128742D01*
X136627Y128724D01*
X136617Y128708D01*
X136571Y128575D01*
X136522Y128445D01*
X136520Y128425D01*
X136513Y128407D01*
X136502Y128267D01*
X136487Y128129D01*
X136489Y128102D01*
X136488Y128090D01*
X136492Y128070D01*
X136500Y127968D01*
X137789Y119000D01*
X135853Y105536D01*
X130203Y93163D01*
X121295Y82883D01*
X109852Y75529D01*
X96801Y71697D01*
X12700Y71697D01*
X12680Y71695D01*
X12576Y71691D01*
X10990Y71535D01*
X10886Y71511D01*
X10781Y71497D01*
X10701Y71469D01*
X10680Y71464D01*
X10666Y71457D01*
X10629Y71444D01*
X7699Y70231D01*
X7691Y70226D01*
X7682Y70224D01*
X7553Y70148D01*
X7422Y70073D01*
X7416Y70067D01*
X7408Y70062D01*
X7287Y69956D01*
X5044Y67713D01*
X5039Y67706D01*
X5031Y67700D01*
X4941Y67580D01*
X4849Y67462D01*
X4846Y67453D01*
X4840Y67446D01*
X4769Y67301D01*
X3556Y64371D01*
X3528Y64269D01*
X3491Y64169D01*
X3477Y64086D01*
X3472Y64065D01*
X3471Y64049D01*
X3465Y64010D01*
X3309Y62424D01*
X3309Y62405D01*
X3303Y62300D01*
X3303Y51724D01*
X3320Y51586D01*
X3333Y51447D01*
X3340Y51428D01*
X3343Y51408D01*
X3394Y51279D01*
X3441Y51148D01*
X3452Y51131D01*
X3460Y51113D01*
X3541Y51000D01*
X3619Y50885D01*
X3635Y50872D01*
X3646Y50855D01*
X3754Y50766D01*
X3858Y50675D01*
X3876Y50665D01*
X3891Y50652D01*
X4017Y50593D01*
X4141Y50530D01*
X4161Y50525D01*
X4179Y50517D01*
X4315Y50491D01*
X4451Y50460D01*
X4472Y50461D01*
X4491Y50457D01*
X4630Y50466D01*
X4769Y50470D01*
X4789Y50476D01*
X4809Y50477D01*
X4941Y50520D01*
X5075Y50558D01*
X5092Y50569D01*
X5111Y50575D01*
X5229Y50649D01*
X5349Y50720D01*
X5370Y50738D01*
X5380Y50745D01*
X5394Y50760D01*
X5469Y50826D01*
X10324Y55680D01*
X13374Y58731D01*
X67206Y58731D01*
X70257Y55680D01*
X74444Y51492D01*
X74523Y51432D01*
X74595Y51364D01*
X74648Y51335D01*
X74696Y51298D01*
X74787Y51258D01*
X74873Y51210D01*
X74932Y51195D01*
X74987Y51171D01*
X75085Y51156D01*
X75181Y51131D01*
X75281Y51125D01*
X75302Y51121D01*
X75314Y51123D01*
X75342Y51121D01*
X78937Y51121D01*
X82182Y49776D01*
X84666Y47292D01*
X86011Y44047D01*
X86011Y40533D01*
X84666Y37288D01*
X82182Y34804D01*
X80670Y34177D01*
X80549Y34108D01*
X80426Y34043D01*
X80411Y34030D01*
X80393Y34020D01*
X80294Y33923D01*
X80191Y33829D01*
X80180Y33812D01*
X80165Y33798D01*
X80092Y33679D01*
X80016Y33564D01*
X80009Y33545D01*
X79999Y33527D01*
X79958Y33394D01*
X79913Y33263D01*
X79911Y33243D01*
X79905Y33223D01*
X79899Y33084D01*
X79888Y32946D01*
X79891Y32926D01*
X79890Y32906D01*
X79918Y32769D01*
X79942Y32632D01*
X79950Y32614D01*
X79954Y32594D01*
X80015Y32469D01*
X80073Y32343D01*
X80085Y32327D01*
X80094Y32309D01*
X80184Y32203D01*
X80271Y32094D01*
X80287Y32082D01*
X80300Y32067D01*
X80414Y31987D01*
X80525Y31903D01*
X80550Y31890D01*
X80560Y31883D01*
X80580Y31876D01*
X80670Y31832D01*
X81089Y31658D01*
X83502Y29245D01*
X84809Y26091D01*
X84809Y22677D01*
X83502Y19523D01*
X81089Y17110D01*
X77935Y15803D01*
X74521Y15803D01*
X71367Y17110D01*
X68954Y19523D01*
X68142Y21484D01*
X68127Y21510D01*
X68117Y21538D01*
X68048Y21648D01*
X67984Y21760D01*
X67963Y21782D01*
X67947Y21807D01*
X67853Y21896D01*
X67763Y21989D01*
X67737Y22004D01*
X67715Y22025D01*
X67602Y22087D01*
X67492Y22155D01*
X67463Y22164D01*
X67437Y22178D01*
X67311Y22210D01*
X67188Y22248D01*
X67158Y22250D01*
X67129Y22257D01*
X66999Y22257D01*
X66870Y22264D01*
X66841Y22258D01*
X66811Y22258D01*
X66685Y22226D01*
X66559Y22199D01*
X66532Y22186D01*
X66503Y22179D01*
X66389Y22117D01*
X66273Y22060D01*
X66250Y22040D01*
X66224Y22026D01*
X66130Y21937D01*
X66031Y21853D01*
X66014Y21829D01*
X65992Y21808D01*
X65923Y21699D01*
X65848Y21593D01*
X65837Y21565D01*
X65821Y21540D01*
X65762Y21390D01*
X65601Y20895D01*
X64951Y19621D01*
X64110Y18463D01*
X63099Y17452D01*
X61941Y16611D01*
X60667Y15961D01*
X59306Y15519D01*
X58927Y15459D01*
X58927Y23904D01*
X58912Y24022D01*
X58905Y24141D01*
X58892Y24179D01*
X58887Y24219D01*
X58844Y24330D01*
X58807Y24443D01*
X58785Y24477D01*
X58770Y24515D01*
X58701Y24611D01*
X58637Y24712D01*
X58607Y24740D01*
X58584Y24772D01*
X58492Y24848D01*
X58405Y24930D01*
X58370Y24949D01*
X58339Y24975D01*
X58231Y25026D01*
X58127Y25083D01*
X58087Y25093D01*
X58051Y25111D01*
X57934Y25133D01*
X57932Y25139D01*
X57927Y25180D01*
X57883Y25290D01*
X57847Y25403D01*
X57825Y25438D01*
X57810Y25475D01*
X57740Y25571D01*
X57677Y25672D01*
X57647Y25700D01*
X57623Y25733D01*
X57532Y25809D01*
X57445Y25890D01*
X57410Y25910D01*
X57378Y25935D01*
X57271Y25986D01*
X57166Y26044D01*
X57127Y26054D01*
X57091Y26071D01*
X56974Y26093D01*
X56858Y26123D01*
X56798Y26127D01*
X56778Y26131D01*
X56758Y26129D01*
X56698Y26133D01*
X48253Y26133D01*
X48313Y26512D01*
X48755Y27873D01*
X49405Y29147D01*
X50246Y30305D01*
X51257Y31316D01*
X52415Y32157D01*
X52576Y32240D01*
X52650Y32290D01*
X52730Y32332D01*
X52782Y32379D01*
X52839Y32419D01*
X52899Y32486D01*
X52965Y32546D01*
X53003Y32605D01*
X53050Y32657D01*
X53091Y32737D01*
X53140Y32812D01*
X53162Y32878D01*
X53194Y32940D01*
X53214Y33028D01*
X53243Y33113D01*
X53248Y33182D01*
X53264Y33251D01*
X53261Y33340D01*
X53268Y33430D01*
X53256Y33499D01*
X53254Y33569D01*
X53229Y33655D01*
X53214Y33743D01*
X53185Y33807D01*
X53165Y33874D01*
X53120Y33951D01*
X53083Y34033D01*
X53039Y34088D01*
X53004Y34148D01*
X52940Y34211D01*
X52885Y34281D01*
X52829Y34323D01*
X52779Y34373D01*
X52702Y34419D01*
X52630Y34473D01*
X52518Y34528D01*
X52505Y34535D01*
X52499Y34537D01*
X52486Y34543D01*
X51858Y34804D01*
X49374Y37288D01*
X48029Y40533D01*
X48029Y44047D01*
X49374Y47292D01*
X49500Y47418D01*
X49585Y47528D01*
X49674Y47635D01*
X49682Y47654D01*
X49695Y47670D01*
X49750Y47798D01*
X49809Y47923D01*
X49813Y47943D01*
X49821Y47962D01*
X49843Y48099D01*
X49869Y48236D01*
X49868Y48256D01*
X49871Y48276D01*
X49858Y48414D01*
X49849Y48553D01*
X49843Y48572D01*
X49841Y48592D01*
X49794Y48723D01*
X49751Y48855D01*
X49741Y48873D01*
X49734Y48892D01*
X49656Y49007D01*
X49581Y49124D01*
X49566Y49138D01*
X49555Y49155D01*
X49451Y49247D01*
X49350Y49342D01*
X49332Y49352D01*
X49317Y49365D01*
X49193Y49428D01*
X49071Y49496D01*
X49051Y49501D01*
X49033Y49510D01*
X48898Y49540D01*
X48763Y49575D01*
X48735Y49577D01*
X48723Y49580D01*
X48703Y49579D01*
X48602Y49585D01*
X17688Y49585D01*
X17590Y49573D01*
X17491Y49570D01*
X17432Y49553D01*
X17372Y49545D01*
X17280Y49509D01*
X17185Y49481D01*
X17133Y49451D01*
X17077Y49428D01*
X16997Y49370D01*
X16911Y49320D01*
X16836Y49254D01*
X16819Y49242D01*
X16811Y49232D01*
X16790Y49214D01*
X10786Y43210D01*
X10726Y43131D01*
X10658Y43059D01*
X10629Y43006D01*
X10592Y42958D01*
X10552Y42867D01*
X10504Y42781D01*
X10489Y42722D01*
X10465Y42667D01*
X10450Y42569D01*
X10425Y42473D01*
X10419Y42373D01*
X10415Y42352D01*
X10417Y42340D01*
X10415Y42312D01*
X10415Y15148D01*
X10427Y15050D01*
X10430Y14951D01*
X10447Y14892D01*
X10455Y14832D01*
X10491Y14740D01*
X10519Y14645D01*
X10549Y14593D01*
X10572Y14537D01*
X10630Y14457D01*
X10680Y14371D01*
X10746Y14296D01*
X10758Y14279D01*
X10768Y14271D01*
X10786Y14250D01*
X14222Y10814D01*
X14301Y10754D01*
X14373Y10686D01*
X14426Y10657D01*
X14474Y10620D01*
X14565Y10580D01*
X14651Y10532D01*
X14710Y10517D01*
X14765Y10493D01*
X14863Y10478D01*
X14959Y10453D01*
X15059Y10447D01*
X15080Y10443D01*
X15092Y10445D01*
X15120Y10443D01*
X221369Y10443D01*
X221407Y10448D01*
X221446Y10445D01*
X221565Y10467D01*
X221685Y10483D01*
X221720Y10497D01*
X221758Y10504D01*
X221868Y10555D01*
X221980Y10600D01*
X222011Y10622D01*
X222046Y10638D01*
X222140Y10715D01*
X222238Y10786D01*
X222262Y10816D01*
X222292Y10841D01*
X222395Y10964D01*
X224894Y14393D01*
X224960Y14513D01*
X225047Y14671D01*
X225048Y14672D01*
X225072Y14768D01*
X225127Y14979D01*
X225127Y14980D01*
X225137Y15140D01*
X225137Y20082D01*
X225405Y20350D01*
X225466Y20428D01*
X225534Y20501D01*
X225563Y20554D01*
X225600Y20601D01*
X225640Y20692D01*
X225688Y20779D01*
X225703Y20838D01*
X225727Y20893D01*
X225742Y20991D01*
X225767Y21087D01*
X225773Y21187D01*
X225777Y21207D01*
X225775Y21220D01*
X225777Y21248D01*
X225777Y33159D01*
X225762Y33277D01*
X225755Y33396D01*
X225742Y33434D01*
X225737Y33475D01*
X225694Y33585D01*
X225657Y33698D01*
X225635Y33733D01*
X225620Y33770D01*
X225551Y33866D01*
X225487Y33967D01*
X225457Y33995D01*
X225434Y34028D01*
X225342Y34104D01*
X225255Y34185D01*
X225220Y34205D01*
X225189Y34230D01*
X225081Y34281D01*
X224977Y34339D01*
X224937Y34349D01*
X224901Y34366D01*
X224784Y34388D01*
X224669Y34418D01*
X224609Y34422D01*
X224589Y34426D01*
X224568Y34424D01*
X224508Y34428D01*
X210113Y34428D01*
X210015Y34416D01*
X209916Y34413D01*
X209857Y34396D01*
X209797Y34388D01*
X209705Y34352D01*
X209610Y34324D01*
X209558Y34294D01*
X209502Y34271D01*
X209422Y34213D01*
X209336Y34163D01*
X209261Y34097D01*
X209244Y34085D01*
X209237Y34075D01*
X209215Y34057D01*
X208085Y32926D01*
X205471Y31843D01*
X202641Y31843D01*
X200027Y32926D01*
X198026Y34927D01*
X196943Y37541D01*
X196943Y40371D01*
X198026Y42985D01*
X200027Y44986D01*
X202641Y46069D01*
X205471Y46069D01*
X208085Y44986D01*
X210086Y42985D01*
X210570Y41817D01*
X210584Y41792D01*
X210593Y41764D01*
X210663Y41654D01*
X210727Y41541D01*
X210748Y41520D01*
X210763Y41495D01*
X210858Y41406D01*
X210948Y41313D01*
X210974Y41297D01*
X210995Y41277D01*
X211109Y41214D01*
X211219Y41146D01*
X211248Y41138D01*
X211274Y41123D01*
X211399Y41091D01*
X211523Y41053D01*
X211553Y41051D01*
X211581Y41044D01*
X211742Y41034D01*
X236046Y41034D01*
X238352Y38727D01*
X240246Y36833D01*
X240324Y36773D01*
X240396Y36705D01*
X240449Y36676D01*
X240497Y36639D01*
X240588Y36599D01*
X240675Y36551D01*
X240733Y36536D01*
X240789Y36512D01*
X240887Y36497D01*
X240983Y36472D01*
X241083Y36466D01*
X241103Y36462D01*
X241116Y36464D01*
X241144Y36462D01*
X243652Y36462D01*
X243913Y36201D01*
X244007Y36128D01*
X244096Y36049D01*
X244132Y36031D01*
X244164Y36006D01*
X244273Y35959D01*
X244379Y35905D01*
X244418Y35896D01*
X244456Y35880D01*
X244573Y35861D01*
X244689Y35835D01*
X244730Y35836D01*
X244770Y35830D01*
X244889Y35841D01*
X245007Y35845D01*
X245046Y35856D01*
X245086Y35860D01*
X245199Y35900D01*
X245313Y35933D01*
X245348Y35954D01*
X245386Y35967D01*
X245484Y36034D01*
X245587Y36095D01*
X245632Y36135D01*
X245649Y36146D01*
X245662Y36161D01*
X245708Y36201D01*
X245968Y36462D01*
X250600Y36462D01*
X250698Y36474D01*
X250797Y36477D01*
X250856Y36494D01*
X250916Y36502D01*
X251008Y36538D01*
X251103Y36566D01*
X251155Y36596D01*
X251211Y36619D01*
X251292Y36677D01*
X251377Y36727D01*
X251452Y36793D01*
X251469Y36805D01*
X251477Y36815D01*
X251498Y36833D01*
X261427Y46763D01*
X261432Y46769D01*
X263159Y48495D01*
X263755Y49091D01*
X263828Y49185D01*
X263906Y49274D01*
X263925Y49310D01*
X263950Y49342D01*
X263997Y49451D01*
X264051Y49557D01*
X264060Y49596D01*
X264076Y49634D01*
X264095Y49751D01*
X264121Y49867D01*
X264120Y49908D01*
X264126Y49948D01*
X264115Y50066D01*
X264111Y50185D01*
X264100Y50224D01*
X264096Y50264D01*
X264056Y50376D01*
X264023Y50491D01*
X264002Y50526D01*
X263988Y50564D01*
X263921Y50662D01*
X263861Y50765D01*
X263821Y50810D01*
X263810Y50827D01*
X263795Y50840D01*
X263755Y50886D01*
X262043Y52598D01*
X257017Y57623D01*
X256908Y57708D01*
X256801Y57797D01*
X256782Y57805D01*
X256766Y57818D01*
X256638Y57873D01*
X256513Y57932D01*
X256493Y57936D01*
X256474Y57944D01*
X256336Y57966D01*
X256200Y57992D01*
X256180Y57991D01*
X256160Y57994D01*
X256021Y57981D01*
X255883Y57972D01*
X255864Y57966D01*
X255844Y57964D01*
X255712Y57917D01*
X255581Y57874D01*
X255563Y57863D01*
X255544Y57856D01*
X255429Y57778D01*
X255312Y57704D01*
X255298Y57689D01*
X255281Y57678D01*
X255189Y57574D01*
X255094Y57472D01*
X255084Y57455D01*
X255071Y57439D01*
X255007Y57315D01*
X254940Y57194D01*
X254935Y57174D01*
X254926Y57156D01*
X254896Y57020D01*
X254861Y56886D01*
X254859Y56858D01*
X254856Y56846D01*
X254857Y56825D01*
X254851Y56725D01*
X254851Y55805D01*
X249665Y55805D01*
X249595Y55796D01*
X249555Y55799D01*
X249535Y55803D01*
X249515Y55801D01*
X249455Y55805D01*
X244269Y55805D01*
X244269Y60765D01*
X244369Y61139D01*
X244387Y61264D01*
X244410Y61388D01*
X244408Y61421D01*
X244413Y61455D01*
X244398Y61580D01*
X244390Y61705D01*
X244380Y61737D01*
X244376Y61770D01*
X244331Y61888D01*
X244292Y62007D01*
X244274Y62036D01*
X244262Y62067D01*
X244190Y62170D01*
X244122Y62276D01*
X244098Y62299D01*
X244078Y62327D01*
X243982Y62408D01*
X243891Y62494D01*
X243861Y62510D01*
X243835Y62532D01*
X243722Y62587D01*
X243612Y62648D01*
X243579Y62656D01*
X243549Y62671D01*
X243426Y62696D01*
X243304Y62727D01*
X243255Y62730D01*
X243237Y62734D01*
X243216Y62733D01*
X243143Y62737D01*
X242472Y62737D01*
X241969Y63240D01*
X241860Y63325D01*
X241753Y63414D01*
X241734Y63422D01*
X241718Y63435D01*
X241590Y63490D01*
X241465Y63549D01*
X241445Y63553D01*
X241426Y63561D01*
X241288Y63583D01*
X241152Y63609D01*
X241132Y63608D01*
X241112Y63611D01*
X240973Y63598D01*
X240835Y63589D01*
X240816Y63583D01*
X240796Y63581D01*
X240665Y63534D01*
X240533Y63491D01*
X240515Y63480D01*
X240496Y63473D01*
X240382Y63396D01*
X240264Y63321D01*
X240250Y63306D01*
X240233Y63295D01*
X240141Y63191D01*
X240046Y63089D01*
X240036Y63072D01*
X240023Y63056D01*
X239959Y62933D01*
X239892Y62811D01*
X239887Y62791D01*
X239878Y62773D01*
X239848Y62637D01*
X239813Y62503D01*
X239811Y62475D01*
X239808Y62463D01*
X239809Y62442D01*
X239803Y62342D01*
X239803Y58602D01*
X235714Y54514D01*
X235654Y54435D01*
X235586Y54363D01*
X235557Y54310D01*
X235520Y54262D01*
X235480Y54171D01*
X235432Y54085D01*
X235417Y54026D01*
X235393Y53971D01*
X235378Y53873D01*
X235353Y53777D01*
X235347Y53677D01*
X235343Y53656D01*
X235345Y53644D01*
X235343Y53616D01*
X235343Y47589D01*
X234152Y46398D01*
X226968Y46398D01*
X225777Y47589D01*
X225777Y61273D01*
X226968Y62464D01*
X231928Y62464D01*
X232046Y62479D01*
X232165Y62486D01*
X232203Y62499D01*
X232244Y62504D01*
X232354Y62547D01*
X232467Y62584D01*
X232502Y62606D01*
X232539Y62621D01*
X232635Y62690D01*
X232736Y62754D01*
X232764Y62784D01*
X232797Y62807D01*
X232873Y62899D01*
X232954Y62986D01*
X232974Y63021D01*
X232999Y63052D01*
X233050Y63160D01*
X233108Y63264D01*
X233118Y63304D01*
X233135Y63340D01*
X233157Y63457D01*
X233187Y63572D01*
X233191Y63632D01*
X233195Y63652D01*
X233193Y63673D01*
X233197Y63733D01*
X233197Y65543D01*
X233180Y65680D01*
X233167Y65819D01*
X233160Y65838D01*
X233157Y65858D01*
X233106Y65987D01*
X233059Y66118D01*
X233048Y66135D01*
X233040Y66154D01*
X232959Y66266D01*
X232881Y66381D01*
X232865Y66395D01*
X232854Y66411D01*
X232747Y66500D01*
X232642Y66592D01*
X232624Y66601D01*
X232609Y66614D01*
X232483Y66673D01*
X232359Y66736D01*
X232339Y66741D01*
X232321Y66749D01*
X232185Y66775D01*
X232049Y66806D01*
X232028Y66805D01*
X232009Y66809D01*
X231870Y66801D01*
X231731Y66796D01*
X231711Y66791D01*
X231691Y66789D01*
X231559Y66747D01*
X231425Y66708D01*
X231408Y66698D01*
X231389Y66691D01*
X231271Y66617D01*
X231151Y66546D01*
X231130Y66528D01*
X231120Y66521D01*
X231106Y66506D01*
X231030Y66440D01*
X230986Y66395D01*
X212014Y66395D01*
X209656Y68754D01*
X209578Y68814D01*
X209506Y68882D01*
X209453Y68911D01*
X209405Y68948D01*
X209314Y68988D01*
X209227Y69036D01*
X209169Y69051D01*
X209113Y69075D01*
X209015Y69090D01*
X208919Y69115D01*
X208819Y69121D01*
X208799Y69125D01*
X208786Y69123D01*
X208758Y69125D01*
X178578Y69125D01*
X178479Y69113D01*
X178380Y69110D01*
X178322Y69093D01*
X178262Y69085D01*
X178170Y69049D01*
X178075Y69021D01*
X178023Y68991D01*
X177966Y68968D01*
X177886Y68910D01*
X177801Y68860D01*
X177726Y68794D01*
X177709Y68782D01*
X177701Y68772D01*
X177680Y68754D01*
X165726Y56800D01*
X165666Y56722D01*
X165598Y56650D01*
X165569Y56597D01*
X165532Y56549D01*
X165492Y56458D01*
X165444Y56371D01*
X165429Y56312D01*
X165405Y56257D01*
X165390Y56159D01*
X165365Y56063D01*
X165359Y55963D01*
X165355Y55943D01*
X165357Y55930D01*
X165355Y55902D01*
X165355Y51040D01*
X160462Y46147D01*
X160444Y46124D01*
X160421Y46105D01*
X160347Y45999D01*
X160267Y45896D01*
X160255Y45869D01*
X160238Y45845D01*
X160192Y45723D01*
X160141Y45604D01*
X160136Y45575D01*
X160125Y45547D01*
X160111Y45418D01*
X160091Y45290D01*
X160093Y45260D01*
X160090Y45231D01*
X160108Y45103D01*
X160120Y44973D01*
X160130Y44945D01*
X160135Y44916D01*
X160187Y44764D01*
X160783Y43325D01*
X160783Y40495D01*
X159700Y37881D01*
X157699Y35880D01*
X155085Y34797D01*
X152255Y34797D01*
X149641Y35880D01*
X147640Y37881D01*
X146557Y40495D01*
X146557Y43325D01*
X147640Y45939D01*
X149699Y47997D01*
X149772Y48092D01*
X149850Y48181D01*
X149869Y48217D01*
X149894Y48249D01*
X149941Y48358D01*
X149995Y48464D01*
X150004Y48503D01*
X150020Y48541D01*
X150039Y48658D01*
X150065Y48774D01*
X150063Y48815D01*
X150070Y48855D01*
X150059Y48973D01*
X150055Y49092D01*
X150044Y49131D01*
X150040Y49171D01*
X150000Y49284D01*
X149967Y49398D01*
X149946Y49432D01*
X149932Y49471D01*
X149865Y49569D01*
X149805Y49672D01*
X149765Y49717D01*
X149754Y49734D01*
X149739Y49747D01*
X149699Y49792D01*
X147640Y51851D01*
X146557Y54465D01*
X146557Y57295D01*
X147640Y59909D01*
X149641Y61910D01*
X152255Y62993D01*
X155093Y62993D01*
X155209Y62967D01*
X155334Y62933D01*
X155364Y62932D01*
X155393Y62926D01*
X155522Y62930D01*
X155652Y62927D01*
X155681Y62934D01*
X155711Y62935D01*
X155835Y62971D01*
X155962Y63002D01*
X155988Y63015D01*
X156016Y63024D01*
X156128Y63090D01*
X156243Y63150D01*
X156264Y63170D01*
X156290Y63185D01*
X156411Y63292D01*
X173422Y80303D01*
X190098Y80303D01*
X190168Y80311D01*
X190237Y80310D01*
X190325Y80331D01*
X190414Y80343D01*
X190479Y80368D01*
X190547Y80385D01*
X190626Y80427D01*
X190710Y80460D01*
X190766Y80501D01*
X190828Y80533D01*
X190894Y80594D01*
X190967Y80646D01*
X191011Y80700D01*
X191063Y80747D01*
X191112Y80822D01*
X191170Y80891D01*
X191199Y80955D01*
X191238Y81013D01*
X191267Y81098D01*
X191305Y81179D01*
X191318Y81248D01*
X191341Y81314D01*
X191348Y81403D01*
X191365Y81491D01*
X191361Y81561D01*
X191366Y81631D01*
X191351Y81719D01*
X191345Y81809D01*
X191324Y81875D01*
X191312Y81944D01*
X191275Y82026D01*
X191247Y82111D01*
X191210Y82170D01*
X191181Y82234D01*
X191125Y82304D01*
X191077Y82380D01*
X191026Y82428D01*
X190983Y82482D01*
X190911Y82536D01*
X190845Y82598D01*
X190784Y82632D01*
X190729Y82674D01*
X190584Y82745D01*
X190281Y82870D01*
X188280Y84871D01*
X187197Y87485D01*
X187197Y90315D01*
X188280Y92929D01*
X190281Y94930D01*
X192895Y96013D01*
X195725Y96013D01*
X198339Y94930D01*
X200301Y92968D01*
X200410Y92883D01*
X200517Y92794D01*
X200536Y92786D01*
X200552Y92773D01*
X200680Y92718D01*
X200805Y92659D01*
X200825Y92655D01*
X200844Y92647D01*
X200982Y92625D01*
X201118Y92599D01*
X201138Y92600D01*
X201158Y92597D01*
X201297Y92610D01*
X201435Y92619D01*
X201454Y92625D01*
X201474Y92627D01*
X201606Y92674D01*
X201737Y92717D01*
X201755Y92728D01*
X201774Y92735D01*
X201889Y92813D01*
X202006Y92887D01*
X202020Y92902D01*
X202037Y92913D01*
X202129Y93018D01*
X202224Y93119D01*
X202234Y93136D01*
X202247Y93152D01*
X202311Y93276D01*
X202378Y93397D01*
X202383Y93417D01*
X202392Y93435D01*
X202422Y93571D01*
X202457Y93705D01*
X202459Y93733D01*
X202462Y93745D01*
X202461Y93766D01*
X202467Y93866D01*
X202467Y113842D01*
X203658Y115033D01*
X211342Y115033D01*
X212533Y113842D01*
X212533Y89222D01*
X212548Y89104D01*
X212555Y88985D01*
X212568Y88947D01*
X212573Y88906D01*
X212616Y88796D01*
X212653Y88683D01*
X212675Y88648D01*
X212690Y88611D01*
X212759Y88515D01*
X212823Y88414D01*
X212853Y88386D01*
X212876Y88353D01*
X212968Y88277D01*
X213055Y88196D01*
X213090Y88176D01*
X213121Y88151D01*
X213229Y88100D01*
X213333Y88042D01*
X213373Y88032D01*
X213409Y88015D01*
X213526Y87993D01*
X213641Y87963D01*
X213701Y87959D01*
X213721Y87955D01*
X213742Y87957D01*
X213802Y87953D01*
X228066Y87953D01*
X228116Y87959D01*
X228165Y87957D01*
X228273Y87979D01*
X228382Y87993D01*
X228428Y88011D01*
X228477Y88021D01*
X228575Y88069D01*
X228677Y88110D01*
X228718Y88139D01*
X228762Y88161D01*
X228846Y88232D01*
X228935Y88296D01*
X228966Y88335D01*
X229004Y88367D01*
X229067Y88457D01*
X229138Y88541D01*
X229159Y88586D01*
X229187Y88627D01*
X229226Y88730D01*
X229273Y88829D01*
X229282Y88878D01*
X229300Y88924D01*
X229312Y89034D01*
X229333Y89141D01*
X229330Y89191D01*
X229335Y89240D01*
X229320Y89349D01*
X229313Y89459D01*
X229298Y89506D01*
X229291Y89555D01*
X229239Y89708D01*
X229107Y90025D01*
X229107Y92863D01*
X229133Y92979D01*
X229167Y93104D01*
X229168Y93134D01*
X229174Y93163D01*
X229171Y93293D01*
X229173Y93422D01*
X229166Y93451D01*
X229165Y93481D01*
X229129Y93605D01*
X229098Y93731D01*
X229085Y93758D01*
X229076Y93786D01*
X229011Y93897D01*
X228950Y94013D01*
X228930Y94035D01*
X228915Y94060D01*
X228808Y94181D01*
X226261Y96728D01*
X226237Y96747D01*
X226218Y96769D01*
X226112Y96844D01*
X226010Y96923D01*
X225982Y96935D01*
X225958Y96952D01*
X225837Y96998D01*
X225718Y97050D01*
X225688Y97054D01*
X225661Y97065D01*
X225532Y97079D01*
X225404Y97100D01*
X225374Y97097D01*
X225345Y97100D01*
X225216Y97082D01*
X225087Y97070D01*
X225059Y97060D01*
X225030Y97056D01*
X224947Y97027D01*
X222105Y97027D01*
X219491Y98110D01*
X217490Y100111D01*
X216407Y102725D01*
X216407Y105555D01*
X217490Y108169D01*
X219491Y110170D01*
X222105Y111253D01*
X222642Y111253D01*
X222780Y111270D01*
X222919Y111283D01*
X222938Y111290D01*
X222958Y111293D01*
X223087Y111344D01*
X223218Y111391D01*
X223235Y111402D01*
X223253Y111410D01*
X223366Y111491D01*
X223481Y111569D01*
X223494Y111585D01*
X223511Y111596D01*
X223600Y111704D01*
X223692Y111808D01*
X223701Y111826D01*
X223714Y111841D01*
X223773Y111967D01*
X223836Y112091D01*
X223841Y112111D01*
X223849Y112129D01*
X223875Y112265D01*
X223906Y112401D01*
X223905Y112422D01*
X223909Y112441D01*
X223900Y112580D01*
X223896Y112719D01*
X223890Y112739D01*
X223889Y112759D01*
X223846Y112891D01*
X223808Y113025D01*
X223797Y113042D01*
X223791Y113061D01*
X223717Y113179D01*
X223646Y113299D01*
X223628Y113320D01*
X223621Y113330D01*
X223606Y113344D01*
X223540Y113419D01*
X201712Y135248D01*
X201617Y135321D01*
X201528Y135399D01*
X201492Y135418D01*
X201460Y135443D01*
X201351Y135490D01*
X201245Y135544D01*
X201206Y135553D01*
X201168Y135569D01*
X201051Y135588D01*
X200935Y135614D01*
X200894Y135612D01*
X200854Y135619D01*
X200736Y135608D01*
X200617Y135604D01*
X200578Y135593D01*
X200538Y135589D01*
X200426Y135549D01*
X200311Y135516D01*
X200277Y135495D01*
X200238Y135481D01*
X200140Y135415D01*
X200037Y135354D01*
X199992Y135314D01*
X199975Y135303D01*
X199962Y135288D01*
X199917Y135248D01*
X198339Y133670D01*
X195725Y132587D01*
X192895Y132587D01*
X190281Y133670D01*
X188280Y135671D01*
X187197Y138285D01*
X187197Y141115D01*
X188280Y143729D01*
X190281Y145730D01*
X190775Y145934D01*
X190818Y145959D01*
X190865Y145976D01*
X190955Y146037D01*
X191051Y146092D01*
X191087Y146127D01*
X191128Y146154D01*
X191200Y146237D01*
X191279Y146313D01*
X191305Y146356D01*
X191338Y146393D01*
X191388Y146491D01*
X191446Y146584D01*
X191460Y146632D01*
X191483Y146676D01*
X191507Y146783D01*
X191539Y146888D01*
X191542Y146938D01*
X191553Y146986D01*
X191549Y147096D01*
X191554Y147206D01*
X191544Y147255D01*
X191543Y147304D01*
X191512Y147410D01*
X191490Y147517D01*
X191468Y147562D01*
X191455Y147610D01*
X191399Y147704D01*
X191350Y147803D01*
X191318Y147841D01*
X191293Y147884D01*
X191187Y148005D01*
X190820Y148371D01*
X189737Y150985D01*
X189737Y153815D01*
X190820Y156429D01*
X192821Y158430D01*
X195435Y159513D01*
X198265Y159513D01*
X200879Y158430D01*
X202880Y156429D01*
X203963Y153815D01*
X203963Y150977D01*
X203937Y150861D01*
X203903Y150736D01*
X203902Y150706D01*
X203896Y150677D01*
X203900Y150548D01*
X203897Y150418D01*
X203904Y150389D01*
X203905Y150359D01*
X203941Y150235D01*
X203972Y150108D01*
X203985Y150082D01*
X203994Y150054D01*
X204060Y149942D01*
X204120Y149827D01*
X204140Y149806D01*
X204155Y149780D01*
X204262Y149659D01*
X259843Y94078D01*
X259843Y84302D01*
X259858Y84184D01*
X259865Y84065D01*
X259878Y84027D01*
X259883Y83986D01*
X259926Y83876D01*
X259963Y83763D01*
X259985Y83728D01*
X260000Y83691D01*
X260069Y83595D01*
X260133Y83494D01*
X260163Y83466D01*
X260186Y83433D01*
X260278Y83357D01*
X260365Y83276D01*
X260400Y83256D01*
X260431Y83231D01*
X260539Y83180D01*
X260643Y83122D01*
X260683Y83112D01*
X260719Y83095D01*
X260836Y83073D01*
X260951Y83043D01*
X261011Y83039D01*
X261031Y83035D01*
X261052Y83037D01*
X261112Y83033D01*
X262849Y83033D01*
X262941Y83044D01*
X263033Y83046D01*
X263098Y83064D01*
X263165Y83073D01*
X263251Y83107D01*
X263340Y83131D01*
X263445Y83183D01*
X263460Y83190D01*
X263467Y83195D01*
X263484Y83203D01*
X263769Y83368D01*
X264416Y83541D01*
X265231Y83541D01*
X265231Y82420D01*
X265237Y82369D01*
X265235Y82320D01*
X265244Y82273D01*
X265246Y82223D01*
X265263Y82164D01*
X265270Y82104D01*
X265289Y82057D01*
X265299Y82008D01*
X265321Y81965D01*
X265334Y81917D01*
X265365Y81865D01*
X265387Y81809D01*
X265417Y81768D01*
X265439Y81723D01*
X265471Y81686D01*
X265496Y81643D01*
X265562Y81568D01*
X265574Y81551D01*
X265584Y81544D01*
X265602Y81522D01*
X265603Y81522D01*
X265626Y81504D01*
X265646Y81481D01*
X265736Y81418D01*
X265819Y81349D01*
X265837Y81340D01*
X265854Y81327D01*
X265881Y81315D01*
X265906Y81298D01*
X266009Y81259D01*
X266107Y81213D01*
X266126Y81209D01*
X266146Y81201D01*
X266175Y81196D01*
X266204Y81186D01*
X266314Y81173D01*
X266419Y81153D01*
X266420Y81153D01*
X266439Y81154D01*
X266460Y81151D01*
X266490Y81154D01*
X266520Y81151D01*
X266630Y81166D01*
X266737Y81173D01*
X266756Y81179D01*
X266776Y81181D01*
X266805Y81191D01*
X266834Y81195D01*
X266937Y81238D01*
X267040Y81271D01*
X267056Y81282D01*
X267076Y81288D01*
X267101Y81305D01*
X267128Y81317D01*
X267216Y81383D01*
X267308Y81441D01*
X267322Y81456D01*
X267339Y81467D01*
X267359Y81490D01*
X267383Y81508D01*
X267491Y81627D01*
X267506Y81652D01*
X267526Y81673D01*
X267536Y81690D01*
X267549Y81706D01*
X267599Y81803D01*
X267657Y81898D01*
X267666Y81926D01*
X267680Y81951D01*
X267685Y81971D01*
X267694Y81989D01*
X267718Y82095D01*
X267751Y82202D01*
X267752Y82231D01*
X267759Y82259D01*
X267761Y82288D01*
X267764Y82299D01*
X267763Y82318D01*
X267769Y82420D01*
X267769Y83541D01*
X268584Y83541D01*
X269231Y83368D01*
X269516Y83203D01*
X269601Y83167D01*
X269682Y83122D01*
X269747Y83106D01*
X269809Y83080D01*
X269901Y83066D01*
X269990Y83043D01*
X270107Y83036D01*
X270124Y83033D01*
X270132Y83034D01*
X270151Y83033D01*
X274092Y83033D01*
X275180Y81944D01*
X275258Y81884D01*
X275331Y81816D01*
X275384Y81787D01*
X275431Y81750D01*
X275522Y81710D01*
X275609Y81662D01*
X275668Y81647D01*
X275723Y81623D01*
X275821Y81608D01*
X275917Y81583D01*
X276017Y81577D01*
X276037Y81573D01*
X276050Y81575D01*
X276078Y81573D01*
X281590Y81573D01*
X281688Y81585D01*
X281787Y81588D01*
X281846Y81605D01*
X281906Y81613D01*
X281998Y81649D01*
X282093Y81677D01*
X282145Y81707D01*
X282201Y81730D01*
X282281Y81788D01*
X282367Y81838D01*
X282442Y81904D01*
X282459Y81916D01*
X282467Y81926D01*
X282488Y81944D01*
X283344Y82801D01*
X283429Y82910D01*
X283518Y83017D01*
X283526Y83036D01*
X283539Y83052D01*
X283594Y83180D01*
X283653Y83305D01*
X283657Y83325D01*
X283665Y83344D01*
X283687Y83482D01*
X283713Y83618D01*
X283712Y83638D01*
X283715Y83658D01*
X283702Y83797D01*
X283693Y83935D01*
X283687Y83954D01*
X283685Y83974D01*
X283638Y84105D01*
X283595Y84237D01*
X283584Y84255D01*
X283577Y84274D01*
X283500Y84388D01*
X283425Y84506D01*
X283410Y84520D01*
X283399Y84537D01*
X283295Y84629D01*
X283193Y84724D01*
X283176Y84734D01*
X283160Y84747D01*
X283037Y84810D01*
X282915Y84878D01*
X282895Y84883D01*
X282877Y84892D01*
X282741Y84922D01*
X282607Y84957D01*
X282579Y84959D01*
X282567Y84962D01*
X282546Y84961D01*
X282446Y84967D01*
X276658Y84967D01*
X275467Y86158D01*
X275467Y113842D01*
X276658Y115033D01*
X284342Y115033D01*
X285361Y114014D01*
X285470Y113929D01*
X285577Y113840D01*
X285596Y113832D01*
X285612Y113819D01*
X285739Y113764D01*
X285865Y113705D01*
X285885Y113701D01*
X285904Y113693D01*
X286042Y113671D01*
X286178Y113645D01*
X286198Y113646D01*
X286218Y113643D01*
X286357Y113656D01*
X286495Y113665D01*
X286514Y113671D01*
X286534Y113673D01*
X286666Y113720D01*
X286797Y113763D01*
X286815Y113774D01*
X286834Y113780D01*
X286949Y113859D01*
X287066Y113933D01*
X287080Y113948D01*
X287097Y113959D01*
X287189Y114063D01*
X287284Y114165D01*
X287294Y114182D01*
X287307Y114197D01*
X287371Y114322D01*
X287438Y114443D01*
X287443Y114463D01*
X287452Y114481D01*
X287482Y114617D01*
X287517Y114751D01*
X287519Y114779D01*
X287522Y114791D01*
X287521Y114811D01*
X287527Y114912D01*
X287527Y127144D01*
X320176Y159792D01*
X320236Y159871D01*
X320304Y159943D01*
X320333Y159996D01*
X320370Y160044D01*
X320410Y160135D01*
X320458Y160221D01*
X320473Y160280D01*
X320497Y160335D01*
X320512Y160433D01*
X320537Y160529D01*
X320543Y160629D01*
X320547Y160650D01*
X320545Y160662D01*
X320547Y160690D01*
X320547Y162225D01*
X321630Y164839D01*
X323631Y166840D01*
X326245Y167923D01*
X329075Y167923D01*
X331689Y166840D01*
X333690Y164839D01*
X334773Y162225D01*
X334773Y159395D01*
X333690Y156781D01*
X331689Y154780D01*
X329075Y153697D01*
X327540Y153697D01*
X327442Y153685D01*
X327343Y153682D01*
X327284Y153665D01*
X327224Y153657D01*
X327132Y153621D01*
X327037Y153593D01*
X326985Y153563D01*
X326929Y153540D01*
X326849Y153482D01*
X326763Y153432D01*
X326688Y153366D01*
X326671Y153354D01*
X326663Y153344D01*
X326642Y153326D01*
X297044Y123728D01*
X296984Y123649D01*
X296916Y123577D01*
X296887Y123524D01*
X296850Y123476D01*
X296810Y123385D01*
X296762Y123299D01*
X296747Y123240D01*
X296723Y123185D01*
X296708Y123087D01*
X296683Y122991D01*
X296677Y122891D01*
X296673Y122870D01*
X296675Y122858D01*
X296673Y122830D01*
X296673Y90622D01*
X296685Y90524D01*
X296688Y90425D01*
X296705Y90366D01*
X296713Y90306D01*
X296749Y90214D01*
X296777Y90119D01*
X296807Y90067D01*
X296830Y90011D01*
X296888Y89931D01*
X296938Y89845D01*
X297004Y89770D01*
X297016Y89753D01*
X297026Y89746D01*
X297044Y89724D01*
X298130Y88639D01*
X299213Y86025D01*
X299213Y83195D01*
X298130Y80581D01*
X296129Y78580D01*
X293515Y77497D01*
X291500Y77497D01*
X291402Y77485D01*
X291303Y77482D01*
X291244Y77465D01*
X291184Y77457D01*
X291092Y77421D01*
X290997Y77393D01*
X290945Y77363D01*
X290889Y77340D01*
X290809Y77282D01*
X290723Y77232D01*
X290648Y77166D01*
X290631Y77154D01*
X290623Y77144D01*
X290602Y77126D01*
X285904Y72427D01*
X276078Y72427D01*
X275980Y72415D01*
X275880Y72412D01*
X275822Y72395D01*
X275762Y72387D01*
X275670Y72351D01*
X275575Y72323D01*
X275523Y72293D01*
X275466Y72270D01*
X275386Y72212D01*
X275301Y72162D01*
X275226Y72096D01*
X275209Y72084D01*
X275201Y72074D01*
X275180Y72056D01*
X274092Y70967D01*
X270151Y70967D01*
X270059Y70956D01*
X269967Y70954D01*
X269902Y70936D01*
X269835Y70927D01*
X269749Y70893D01*
X269660Y70869D01*
X269555Y70817D01*
X269540Y70810D01*
X269533Y70805D01*
X269516Y70797D01*
X269231Y70632D01*
X268584Y70459D01*
X266954Y70459D01*
X266836Y70444D01*
X266717Y70437D01*
X266679Y70424D01*
X266638Y70419D01*
X266528Y70376D01*
X266415Y70339D01*
X266380Y70317D01*
X266343Y70302D01*
X266246Y70232D01*
X266146Y70169D01*
X266118Y70139D01*
X266085Y70116D01*
X266009Y70024D01*
X265928Y69937D01*
X265908Y69902D01*
X265883Y69871D01*
X265832Y69763D01*
X265774Y69659D01*
X265764Y69619D01*
X265747Y69583D01*
X265725Y69466D01*
X265695Y69351D01*
X265691Y69291D01*
X265687Y69271D01*
X265689Y69250D01*
X265685Y69190D01*
X265685Y66007D01*
X265697Y65909D01*
X265700Y65810D01*
X265717Y65752D01*
X265725Y65691D01*
X265761Y65599D01*
X265789Y65504D01*
X265819Y65452D01*
X265842Y65396D01*
X265900Y65316D01*
X265950Y65230D01*
X266016Y65155D01*
X266028Y65138D01*
X266038Y65131D01*
X266056Y65109D01*
X268817Y62348D01*
X268896Y62288D01*
X268968Y62220D01*
X269021Y62191D01*
X269069Y62154D01*
X269160Y62114D01*
X269246Y62066D01*
X269305Y62051D01*
X269361Y62027D01*
X269459Y62012D01*
X269554Y61987D01*
X269654Y61981D01*
X269675Y61977D01*
X269687Y61979D01*
X269715Y61977D01*
X368593Y61977D01*
X371048Y59521D01*
X379898Y50672D01*
X379922Y50654D01*
X379941Y50631D01*
X380047Y50556D01*
X380150Y50477D01*
X380177Y50465D01*
X380201Y50448D01*
X380322Y50402D01*
X380441Y50350D01*
X380471Y50346D01*
X380498Y50335D01*
X380627Y50321D01*
X380755Y50301D01*
X380785Y50303D01*
X380814Y50300D01*
X380943Y50318D01*
X381072Y50330D01*
X381100Y50340D01*
X381129Y50344D01*
X381281Y50397D01*
X381943Y50671D01*
X385457Y50671D01*
X388702Y49326D01*
X391186Y46842D01*
X392531Y43597D01*
X392531Y40083D01*
X391186Y36838D01*
X388702Y34354D01*
X385457Y33009D01*
X381943Y33009D01*
X378698Y34354D01*
X376214Y36838D01*
X374869Y40083D01*
X374869Y43597D01*
X375143Y44259D01*
X375151Y44287D01*
X375165Y44313D01*
X375193Y44440D01*
X375227Y44565D01*
X375228Y44595D01*
X375234Y44624D01*
X375230Y44753D01*
X375232Y44883D01*
X375226Y44912D01*
X375225Y44941D01*
X375189Y45066D01*
X375158Y45193D01*
X375144Y45219D01*
X375136Y45247D01*
X375070Y45359D01*
X375010Y45474D01*
X374990Y45495D01*
X374975Y45521D01*
X374868Y45642D01*
X372280Y48230D01*
X372241Y48261D01*
X372207Y48297D01*
X372115Y48358D01*
X372029Y48425D01*
X371983Y48445D01*
X371942Y48472D01*
X371838Y48508D01*
X371737Y48551D01*
X371688Y48559D01*
X371641Y48575D01*
X371531Y48584D01*
X371423Y48601D01*
X371373Y48597D01*
X371324Y48601D01*
X371215Y48582D01*
X371106Y48571D01*
X371059Y48555D01*
X371010Y48546D01*
X370910Y48501D01*
X370807Y48464D01*
X370766Y48436D01*
X370720Y48416D01*
X370635Y48347D01*
X370544Y48285D01*
X370511Y48248D01*
X370472Y48217D01*
X370406Y48129D01*
X370333Y48047D01*
X370311Y48003D01*
X370281Y47963D01*
X370210Y47818D01*
X369250Y45501D01*
X367249Y43500D01*
X364635Y42417D01*
X361805Y42417D01*
X359191Y43500D01*
X357190Y45501D01*
X356171Y47962D01*
X356166Y47970D01*
X356164Y47979D01*
X356087Y48109D01*
X356013Y48238D01*
X356007Y48245D01*
X356002Y48253D01*
X355896Y48374D01*
X354350Y49920D01*
X354271Y49980D01*
X354199Y50048D01*
X354146Y50077D01*
X354098Y50114D01*
X354007Y50154D01*
X353921Y50202D01*
X353862Y50217D01*
X353807Y50241D01*
X353709Y50256D01*
X353613Y50281D01*
X353513Y50287D01*
X353492Y50291D01*
X353480Y50289D01*
X353452Y50291D01*
X345314Y50291D01*
X345265Y50285D01*
X345215Y50287D01*
X345108Y50265D01*
X344999Y50251D01*
X344953Y50233D01*
X344904Y50223D01*
X344805Y50175D01*
X344703Y50134D01*
X344663Y50105D01*
X344618Y50083D01*
X344535Y50012D01*
X344446Y49948D01*
X344414Y49909D01*
X344376Y49877D01*
X344313Y49787D01*
X344243Y49703D01*
X344222Y49658D01*
X344193Y49617D01*
X344154Y49514D01*
X344108Y49415D01*
X344098Y49366D01*
X344081Y49320D01*
X344068Y49210D01*
X344048Y49103D01*
X344051Y49053D01*
X344045Y49004D01*
X344061Y48895D01*
X344067Y48785D01*
X344083Y48738D01*
X344090Y48689D01*
X344142Y48536D01*
X344933Y46627D01*
X344933Y43797D01*
X343850Y41183D01*
X341849Y39182D01*
X339235Y38099D01*
X336405Y38099D01*
X333791Y39182D01*
X332703Y40270D01*
X332625Y40330D01*
X332553Y40398D01*
X332500Y40428D01*
X332452Y40465D01*
X332361Y40504D01*
X332275Y40552D01*
X332216Y40567D01*
X332160Y40591D01*
X332062Y40607D01*
X331967Y40631D01*
X331866Y40638D01*
X331846Y40641D01*
X331834Y40640D01*
X331806Y40642D01*
X268790Y40666D01*
X268692Y40654D01*
X268593Y40651D01*
X268535Y40634D01*
X268475Y40627D01*
X268382Y40590D01*
X268287Y40563D01*
X268235Y40532D01*
X268179Y40510D01*
X268099Y40451D01*
X268013Y40401D01*
X267938Y40335D01*
X267922Y40323D01*
X267914Y40313D01*
X267892Y40295D01*
X254714Y27117D01*
X254654Y27038D01*
X254586Y26966D01*
X254557Y26913D01*
X254520Y26865D01*
X254480Y26774D01*
X254432Y26688D01*
X254417Y26629D01*
X254393Y26574D01*
X254378Y26476D01*
X254353Y26380D01*
X254347Y26280D01*
X254343Y26259D01*
X254345Y26247D01*
X254343Y26219D01*
X254343Y21189D01*
X254340Y21177D01*
X254341Y21136D01*
X254335Y21095D01*
X254345Y20977D01*
X254349Y20859D01*
X254362Y20799D01*
X254364Y20778D01*
X254371Y20759D01*
X254383Y20702D01*
X254478Y20372D01*
X254292Y20036D01*
X254262Y19960D01*
X254222Y19889D01*
X254203Y19813D01*
X254174Y19740D01*
X254163Y19660D01*
X254143Y19582D01*
X254133Y19429D01*
X254133Y19425D01*
X254133Y19424D01*
X254133Y19421D01*
X254133Y19036D01*
X253375Y18278D01*
X253316Y18202D01*
X253249Y18131D01*
X253192Y18043D01*
X253180Y18027D01*
X253176Y18017D01*
X253162Y17996D01*
X252602Y16983D01*
X252572Y16908D01*
X252532Y16837D01*
X252513Y16761D01*
X252484Y16687D01*
X252473Y16607D01*
X252453Y16529D01*
X252443Y16376D01*
X252443Y16372D01*
X252443Y16371D01*
X252443Y16368D01*
X252443Y11684D01*
X252458Y11566D01*
X252465Y11447D01*
X252478Y11409D01*
X252483Y11368D01*
X252526Y11258D01*
X252563Y11145D01*
X252585Y11110D01*
X252600Y11073D01*
X252669Y10977D01*
X252733Y10876D01*
X252763Y10848D01*
X252786Y10815D01*
X252878Y10739D01*
X252965Y10658D01*
X253000Y10638D01*
X253031Y10613D01*
X253139Y10562D01*
X253243Y10504D01*
X253283Y10494D01*
X253319Y10477D01*
X253436Y10455D01*
X253551Y10425D01*
X253611Y10421D01*
X253631Y10417D01*
X253652Y10419D01*
X253712Y10415D01*
X330796Y10415D01*
X330933Y10432D01*
G37*
%LPC*%
G36*
X451203Y14279D02*
X451203Y14279D01*
X448049Y15586D01*
X445636Y17999D01*
X444329Y21153D01*
X444329Y24567D01*
X445636Y27721D01*
X448049Y30134D01*
X450010Y30946D01*
X450036Y30961D01*
X450064Y30971D01*
X450173Y31040D01*
X450286Y31104D01*
X450308Y31125D01*
X450333Y31141D01*
X450421Y31235D01*
X450515Y31325D01*
X450530Y31351D01*
X450551Y31373D01*
X450613Y31486D01*
X450681Y31596D01*
X450690Y31625D01*
X450704Y31651D01*
X450736Y31777D01*
X450774Y31900D01*
X450776Y31930D01*
X450783Y31959D01*
X450783Y32089D01*
X450790Y32218D01*
X450784Y32247D01*
X450784Y32277D01*
X450751Y32403D01*
X450725Y32529D01*
X450712Y32556D01*
X450705Y32585D01*
X450643Y32699D01*
X450586Y32815D01*
X450566Y32838D01*
X450552Y32864D01*
X450463Y32958D01*
X450379Y33057D01*
X450355Y33074D01*
X450334Y33096D01*
X450225Y33166D01*
X450119Y33240D01*
X450091Y33251D01*
X450066Y33267D01*
X449916Y33326D01*
X449421Y33487D01*
X448147Y34137D01*
X446989Y34978D01*
X445978Y35989D01*
X445137Y37147D01*
X444487Y38421D01*
X444045Y39782D01*
X443985Y40161D01*
X452430Y40161D01*
X452548Y40176D01*
X452667Y40183D01*
X452705Y40195D01*
X452745Y40201D01*
X452856Y40244D01*
X452904Y40260D01*
X452922Y40250D01*
X452961Y40240D01*
X452997Y40223D01*
X453114Y40201D01*
X453230Y40171D01*
X453290Y40167D01*
X453310Y40163D01*
X453330Y40165D01*
X453390Y40161D01*
X461835Y40161D01*
X461775Y39782D01*
X461333Y38421D01*
X460683Y37147D01*
X459842Y35989D01*
X458831Y34978D01*
X457673Y34137D01*
X456399Y33487D01*
X455904Y33326D01*
X455877Y33314D01*
X455848Y33307D01*
X455733Y33246D01*
X455616Y33191D01*
X455593Y33172D01*
X455566Y33158D01*
X455471Y33071D01*
X455371Y32988D01*
X455353Y32964D01*
X455331Y32944D01*
X455260Y32836D01*
X455184Y32731D01*
X455173Y32703D01*
X455156Y32678D01*
X455114Y32555D01*
X455067Y32435D01*
X455063Y32406D01*
X455053Y32377D01*
X455043Y32248D01*
X455027Y32120D01*
X455030Y32090D01*
X455028Y32060D01*
X455050Y31933D01*
X455066Y31804D01*
X455077Y31777D01*
X455082Y31747D01*
X455136Y31629D01*
X455183Y31509D01*
X455201Y31484D01*
X455213Y31457D01*
X455294Y31356D01*
X455370Y31251D01*
X455393Y31232D01*
X455411Y31209D01*
X455515Y31131D01*
X455615Y31048D01*
X455642Y31035D01*
X455666Y31017D01*
X455810Y30946D01*
X457771Y30134D01*
X460184Y27721D01*
X461491Y24567D01*
X461491Y21153D01*
X460184Y17999D01*
X457771Y15586D01*
X454617Y14279D01*
X451203Y14279D01*
G37*
%LPD*%
%LPC*%
G36*
X95743Y33459D02*
X95743Y33459D01*
X92498Y34804D01*
X90014Y37288D01*
X88669Y40533D01*
X88669Y44047D01*
X90014Y47292D01*
X92498Y49776D01*
X95743Y51121D01*
X99257Y51121D01*
X102502Y49776D01*
X104986Y47292D01*
X106331Y44047D01*
X106331Y40533D01*
X104986Y37288D01*
X102502Y34804D01*
X99257Y33459D01*
X95743Y33459D01*
G37*
%LPD*%
%LPC*%
G36*
X117319Y172721D02*
X117319Y172721D01*
X124495Y172721D01*
X124435Y172342D01*
X123993Y170981D01*
X123343Y169707D01*
X122502Y168549D01*
X121491Y167538D01*
X120333Y166697D01*
X119059Y166047D01*
X117698Y165605D01*
X117319Y165545D01*
X117319Y172721D01*
G37*
%LPD*%
%LPC*%
G36*
X55050Y15519D02*
X55050Y15519D01*
X53689Y15961D01*
X52415Y16611D01*
X51257Y17452D01*
X50246Y18463D01*
X49405Y19621D01*
X48755Y20895D01*
X48313Y22256D01*
X48253Y22635D01*
X55429Y22635D01*
X55429Y15459D01*
X55050Y15519D01*
G37*
%LPD*%
%LPC*%
G36*
X250934Y45890D02*
X250934Y45890D01*
X250934Y53057D01*
X254851Y53057D01*
X254851Y48096D01*
X254678Y47450D01*
X254343Y46871D01*
X253870Y46398D01*
X253291Y46063D01*
X252644Y45890D01*
X250934Y45890D01*
G37*
%LPD*%
%LPC*%
G36*
X246476Y45890D02*
X246476Y45890D01*
X245829Y46063D01*
X245250Y46398D01*
X244777Y46871D01*
X244442Y47450D01*
X244269Y48096D01*
X244269Y53057D01*
X248186Y53057D01*
X248186Y45890D01*
X246476Y45890D01*
G37*
%LPD*%
D10*
X383700Y41840D03*
X404020Y41840D03*
X424340Y41840D03*
X97500Y42290D03*
X77180Y42290D03*
X56860Y42290D03*
D11*
X338780Y21660D03*
X364180Y21660D03*
D12*
X249560Y28429D03*
X240060Y28429D03*
X230560Y28429D03*
X230560Y54431D03*
X249560Y54431D03*
D13*
X246410Y15240D03*
X231170Y15240D03*
D14*
X271500Y77000D03*
X266500Y77000D03*
X261500Y77000D03*
X256500Y77000D03*
X251500Y77000D03*
X246500Y77000D03*
X241500Y77000D03*
X236500Y77000D03*
X231500Y77000D03*
X226500Y77000D03*
X221500Y77000D03*
X216500Y77000D03*
D15*
X280500Y100000D03*
X207500Y100000D03*
D16*
X452910Y41910D03*
X452910Y22860D03*
X115570Y174470D03*
X96520Y174470D03*
X57178Y24384D03*
X76228Y24384D03*
D17*
X152400Y143030D03*
D18*
X266500Y88700D02*
X266500Y77000D01*
X266700Y76800D01*
X266700Y68580D01*
D17*
X204056Y38956D03*
D18*
X234678Y37731D02*
X236612Y35797D01*
X236612Y31877D02*
X240060Y28429D01*
X236612Y31877D02*
X236612Y35797D01*
X205281Y37731D02*
X204056Y38956D01*
X205281Y37731D02*
X234678Y37731D01*
X246500Y77000D02*
X246500Y84970D01*
X240030Y91440D02*
X236220Y91440D01*
D17*
X236220Y91440D03*
D18*
X240030Y91440D02*
X246500Y84970D01*
X236220Y91440D02*
X223520Y104140D01*
D17*
X223520Y104140D03*
X440690Y173990D03*
D19*
X369570Y173990D01*
X349250Y153670D01*
D17*
X349250Y153670D03*
X153670Y41910D03*
D18*
X231500Y71480D02*
X231500Y77000D01*
X162052Y57796D02*
X162052Y52408D01*
X153670Y44026D02*
X153670Y41910D01*
X153670Y44026D02*
X162052Y52408D01*
X213382Y69698D02*
X229618Y69698D01*
X231400Y71480D01*
X231500Y71480D01*
X213382Y69698D02*
X210652Y72428D01*
X176684Y72428D02*
X162052Y57796D01*
X176684Y72428D02*
X210652Y72428D01*
D20*
X261500Y77000D02*
X261702Y76798D01*
X261702Y71738D01*
X262636Y70804D01*
X262636Y63500D01*
D21*
X267716Y58420D01*
X367120Y58420D02*
X383700Y41840D01*
X367120Y58420D02*
X267716Y58420D01*
D22*
X249560Y20930D02*
X246410Y15240D01*
X249560Y20930D02*
X249560Y28429D01*
D17*
X337820Y45212D03*
D22*
X266371Y45240D02*
X249560Y28429D01*
X266371Y45240D02*
X337820Y45212D01*
D18*
X226500Y77000D02*
X226500Y84650D01*
D17*
X140970Y135890D03*
X194310Y88900D03*
D18*
X203132Y83698D02*
X211868Y83698D01*
X197930Y88900D02*
X194310Y88900D01*
X197930Y88900D02*
X203132Y83698D01*
X212820Y84650D02*
X226500Y84650D01*
X212820Y84650D02*
X211868Y83698D01*
D17*
X243297Y160020D03*
D18*
X230597Y172720D01*
X160020Y172720D01*
X140970Y153670D01*
X140970Y135890D01*
D17*
X292100Y84610D03*
X327660Y160810D03*
D22*
X292100Y125250D02*
X292100Y84610D01*
X292100Y125250D02*
X327660Y160810D01*
X292100Y84610D02*
X291620Y84610D01*
X284010Y77000D01*
X279400Y77000D01*
X272822Y77000D01*
D18*
X271552Y77000D01*
X271500Y77000D01*
D22*
X230560Y28429D02*
X230560Y18390D01*
X231170Y15240D01*
X241300Y5842D02*
X464820Y5842D01*
X241300Y5842D02*
X233710Y13432D01*
X231170Y15240D01*
X224340Y5870D01*
X12700Y5870D02*
X5842Y12728D01*
X5842Y44732D02*
X15268Y54158D01*
X12700Y5870D02*
X224340Y5870D01*
X5842Y12728D02*
X5842Y44732D01*
X464820Y54158D02*
X474158Y44820D01*
X474158Y15180D02*
X464820Y5842D01*
X474158Y15180D02*
X474158Y44820D01*
X77180Y42290D02*
X65312Y54158D01*
X15268Y54158D01*
X404020Y41840D02*
X416338Y54158D01*
X464820Y54158D01*
D18*
X256500Y77000D02*
X256500Y85050D01*
X256540Y85090D01*
X256540Y92710D01*
X196850Y152400D01*
D17*
X196850Y152400D03*
D18*
X251500Y90130D02*
X251500Y77000D01*
X201930Y139700D02*
X194310Y139700D01*
D17*
X194310Y139700D03*
D18*
X201930Y139700D02*
X251500Y90130D01*
X230961Y54431D02*
X230560Y54431D01*
X236500Y59970D02*
X236500Y77000D01*
X236500Y59970D02*
X230961Y54431D01*
X216500Y77000D02*
X174790Y77000D01*
X153670Y55880D01*
D17*
X153670Y55880D03*
D20*
X241300Y68580D02*
X241500Y68780D01*
D18*
X241300Y68580D02*
X243840Y66040D01*
X253271Y66040D02*
X265717Y53594D01*
X253271Y66040D02*
X243840Y66040D01*
X265717Y53594D02*
X355346Y53594D01*
X359410Y49530D01*
X363220Y49530D01*
D17*
X363220Y49530D03*
D20*
X241500Y68780D02*
X241500Y77000D01*
M02*
