G04 EAGLE Gerber RS-274X export*
G75*
%MOMM*%
%FSLAX34Y34*%
%LPD*%
%INTop Copper*%
%IPPOS*%
%AMOC8*
5,1,8,0,0,1.08239X$1,22.5*%
G01*
%ADD10C,0.863600*%
%ADD11C,1.359600*%
%ADD12R,0.800000X0.800000*%
%ADD13C,1.879600*%
%ADD14C,1.309600*%
%ADD15R,0.700000X1.500000*%
%ADD16R,1.000000X0.600000*%
%ADD17R,1.000000X0.800000*%
%ADD18C,0.254000*%
%ADD19C,1.016000*%
%ADD20C,0.406400*%
%ADD21C,0.508000*%

G36*
X410755Y3314D02*
X410755Y3314D01*
X410827Y3316D01*
X410876Y3334D01*
X410927Y3342D01*
X410991Y3376D01*
X411058Y3401D01*
X411099Y3433D01*
X411145Y3458D01*
X411194Y3509D01*
X411250Y3554D01*
X411278Y3598D01*
X411314Y3636D01*
X411344Y3701D01*
X411383Y3761D01*
X411396Y3812D01*
X411418Y3859D01*
X411426Y3930D01*
X411443Y4000D01*
X411439Y4052D01*
X411445Y4103D01*
X411430Y4174D01*
X411424Y4245D01*
X411404Y4293D01*
X411393Y4344D01*
X411356Y4405D01*
X411328Y4471D01*
X411283Y4527D01*
X411267Y4555D01*
X411249Y4570D01*
X411223Y4602D01*
X411077Y4748D01*
X411077Y5526D01*
X411074Y5546D01*
X411076Y5565D01*
X411054Y5667D01*
X411038Y5769D01*
X411028Y5786D01*
X411024Y5806D01*
X410971Y5895D01*
X410922Y5986D01*
X410908Y6000D01*
X410898Y6017D01*
X410819Y6084D01*
X410744Y6156D01*
X410726Y6164D01*
X410711Y6177D01*
X410615Y6216D01*
X410521Y6259D01*
X410501Y6261D01*
X410483Y6269D01*
X410316Y6287D01*
X405032Y6287D01*
X383105Y28214D01*
X383031Y28267D01*
X382962Y28327D01*
X382931Y28339D01*
X382905Y28358D01*
X382818Y28385D01*
X382733Y28419D01*
X382692Y28423D01*
X382670Y28430D01*
X382638Y28429D01*
X382567Y28437D01*
X378148Y28437D01*
X364391Y42194D01*
X364317Y42247D01*
X364248Y42307D01*
X364218Y42319D01*
X364192Y42338D01*
X364105Y42365D01*
X364020Y42399D01*
X363979Y42403D01*
X363957Y42410D01*
X363924Y42409D01*
X363853Y42417D01*
X361805Y42417D01*
X359191Y43500D01*
X357190Y45501D01*
X356107Y48115D01*
X356107Y50945D01*
X357190Y53559D01*
X359191Y55560D01*
X361805Y56643D01*
X364635Y56643D01*
X367249Y55560D01*
X369250Y53559D01*
X370333Y50945D01*
X370333Y48115D01*
X369789Y46803D01*
X369762Y46689D01*
X369734Y46576D01*
X369734Y46569D01*
X369733Y46563D01*
X369744Y46447D01*
X369753Y46330D01*
X369755Y46325D01*
X369756Y46318D01*
X369804Y46211D01*
X369849Y46104D01*
X369854Y46098D01*
X369856Y46094D01*
X369869Y46080D01*
X369954Y45973D01*
X373570Y42357D01*
X373628Y42316D01*
X373680Y42266D01*
X373727Y42244D01*
X373769Y42214D01*
X373838Y42193D01*
X373903Y42163D01*
X373955Y42157D01*
X374005Y42142D01*
X374076Y42143D01*
X374147Y42136D01*
X374198Y42147D01*
X374250Y42148D01*
X374318Y42173D01*
X374388Y42188D01*
X374432Y42214D01*
X374481Y42232D01*
X374537Y42277D01*
X374599Y42314D01*
X374633Y42354D01*
X374673Y42386D01*
X374712Y42446D01*
X374759Y42501D01*
X374778Y42549D01*
X374806Y42593D01*
X374824Y42662D01*
X374851Y42729D01*
X374859Y42800D01*
X374867Y42832D01*
X374865Y42855D01*
X374869Y42896D01*
X374869Y43597D01*
X376214Y46842D01*
X378698Y49326D01*
X381943Y50671D01*
X385457Y50671D01*
X388702Y49326D01*
X391186Y46842D01*
X392531Y43597D01*
X392531Y40083D01*
X391186Y36838D01*
X388702Y34354D01*
X388061Y34088D01*
X388022Y34064D01*
X387979Y34048D01*
X387918Y34000D01*
X387852Y33959D01*
X387823Y33923D01*
X387787Y33894D01*
X387745Y33829D01*
X387695Y33769D01*
X387679Y33726D01*
X387654Y33688D01*
X387635Y33612D01*
X387607Y33539D01*
X387605Y33494D01*
X387594Y33449D01*
X387600Y33372D01*
X387597Y33294D01*
X387610Y33250D01*
X387613Y33204D01*
X387644Y33132D01*
X387665Y33057D01*
X387691Y33020D01*
X387709Y32978D01*
X387795Y32871D01*
X387805Y32855D01*
X387810Y32852D01*
X387814Y32847D01*
X407545Y13116D01*
X407619Y13063D01*
X407688Y13003D01*
X407719Y12991D01*
X407745Y12972D01*
X407832Y12945D01*
X407917Y12911D01*
X407958Y12907D01*
X407980Y12900D01*
X408012Y12901D01*
X408083Y12893D01*
X410316Y12893D01*
X410336Y12896D01*
X410355Y12894D01*
X410457Y12916D01*
X410559Y12932D01*
X410576Y12942D01*
X410596Y12946D01*
X410685Y12999D01*
X410776Y13048D01*
X410790Y13062D01*
X410807Y13072D01*
X410874Y13151D01*
X410946Y13226D01*
X410954Y13244D01*
X410967Y13259D01*
X411006Y13355D01*
X411049Y13449D01*
X411051Y13469D01*
X411059Y13487D01*
X411077Y13654D01*
X411077Y14432D01*
X412268Y15623D01*
X421952Y15623D01*
X423143Y14432D01*
X423143Y13654D01*
X423146Y13634D01*
X423144Y13615D01*
X423166Y13513D01*
X423182Y13411D01*
X423192Y13394D01*
X423196Y13374D01*
X423249Y13285D01*
X423298Y13194D01*
X423312Y13180D01*
X423322Y13163D01*
X423401Y13096D01*
X423476Y13024D01*
X423494Y13016D01*
X423509Y13003D01*
X423605Y12964D01*
X423699Y12921D01*
X423719Y12919D01*
X423737Y12911D01*
X423904Y12893D01*
X440881Y12893D01*
X440901Y12896D01*
X440922Y12894D01*
X441022Y12916D01*
X441123Y12932D01*
X441142Y12942D01*
X441163Y12947D01*
X441250Y13000D01*
X441341Y13048D01*
X441355Y13063D01*
X441373Y13074D01*
X441488Y13196D01*
X445187Y18102D01*
X445217Y18159D01*
X445255Y18211D01*
X445274Y18267D01*
X445302Y18320D01*
X445312Y18383D01*
X445332Y18445D01*
X445331Y18504D01*
X445341Y18563D01*
X445330Y18626D01*
X445329Y18691D01*
X445305Y18773D01*
X445300Y18805D01*
X445291Y18822D01*
X445283Y18852D01*
X444329Y21153D01*
X444329Y24567D01*
X445636Y27721D01*
X448049Y30134D01*
X451203Y31441D01*
X454617Y31441D01*
X457771Y30134D01*
X460184Y27721D01*
X461491Y24567D01*
X461491Y21153D01*
X460184Y17999D01*
X457771Y15586D01*
X454617Y14279D01*
X451187Y14279D01*
X451182Y14282D01*
X451106Y14290D01*
X451031Y14307D01*
X450984Y14303D01*
X450938Y14308D01*
X450863Y14292D01*
X450786Y14284D01*
X450743Y14265D01*
X450697Y14255D01*
X450632Y14216D01*
X450562Y14184D01*
X450527Y14153D01*
X450487Y14128D01*
X450396Y14032D01*
X450381Y14018D01*
X450378Y14013D01*
X450372Y14006D01*
X446362Y8688D01*
X446344Y8654D01*
X446319Y8625D01*
X446287Y8545D01*
X446248Y8470D01*
X446242Y8432D01*
X446227Y8396D01*
X446209Y8230D01*
X446209Y8222D01*
X445442Y7455D01*
X445423Y7429D01*
X445373Y7375D01*
X444720Y6509D01*
X444712Y6508D01*
X444675Y6497D01*
X444637Y6494D01*
X444559Y6461D01*
X444477Y6435D01*
X444446Y6413D01*
X444411Y6398D01*
X444280Y6293D01*
X444274Y6287D01*
X443190Y6287D01*
X443158Y6282D01*
X443084Y6280D01*
X442010Y6129D01*
X442004Y6134D01*
X441970Y6152D01*
X441941Y6177D01*
X441862Y6209D01*
X441787Y6248D01*
X441749Y6254D01*
X441713Y6269D01*
X441546Y6287D01*
X423904Y6287D01*
X423884Y6284D01*
X423865Y6286D01*
X423763Y6264D01*
X423661Y6248D01*
X423644Y6238D01*
X423624Y6234D01*
X423535Y6181D01*
X423444Y6132D01*
X423430Y6118D01*
X423413Y6108D01*
X423346Y6029D01*
X423274Y5954D01*
X423266Y5936D01*
X423253Y5921D01*
X423214Y5825D01*
X423171Y5731D01*
X423169Y5711D01*
X423161Y5693D01*
X423143Y5526D01*
X423143Y4748D01*
X422997Y4602D01*
X422955Y4544D01*
X422906Y4492D01*
X422884Y4445D01*
X422853Y4403D01*
X422832Y4334D01*
X422802Y4269D01*
X422796Y4217D01*
X422781Y4167D01*
X422783Y4096D01*
X422775Y4025D01*
X422786Y3974D01*
X422787Y3922D01*
X422812Y3854D01*
X422827Y3784D01*
X422854Y3739D01*
X422872Y3691D01*
X422917Y3635D01*
X422953Y3573D01*
X422993Y3539D01*
X423026Y3499D01*
X423086Y3460D01*
X423140Y3413D01*
X423189Y3394D01*
X423232Y3366D01*
X423302Y3348D01*
X423369Y3321D01*
X423440Y3313D01*
X423471Y3305D01*
X423494Y3307D01*
X423535Y3303D01*
X467300Y3303D01*
X467326Y3307D01*
X467375Y3306D01*
X469059Y3472D01*
X469087Y3480D01*
X469115Y3480D01*
X469276Y3527D01*
X472389Y4816D01*
X472445Y4851D01*
X472505Y4876D01*
X472570Y4928D01*
X472598Y4946D01*
X472611Y4961D01*
X472636Y4981D01*
X475019Y7364D01*
X475057Y7417D01*
X475103Y7464D01*
X475143Y7537D01*
X475162Y7564D01*
X475168Y7582D01*
X475184Y7611D01*
X476473Y10724D01*
X476480Y10751D01*
X476493Y10776D01*
X476528Y10941D01*
X476694Y12625D01*
X476692Y12652D01*
X476697Y12700D01*
X476697Y62300D01*
X476693Y62326D01*
X476694Y62375D01*
X476528Y64059D01*
X476520Y64087D01*
X476520Y64115D01*
X476473Y64276D01*
X475184Y67389D01*
X475149Y67445D01*
X475124Y67505D01*
X475072Y67570D01*
X475054Y67598D01*
X475039Y67611D01*
X475019Y67636D01*
X472636Y70019D01*
X472583Y70057D01*
X472536Y70103D01*
X472463Y70143D01*
X472436Y70162D01*
X472418Y70168D01*
X472389Y70184D01*
X469276Y71473D01*
X469249Y71480D01*
X469224Y71493D01*
X469059Y71528D01*
X467375Y71694D01*
X467348Y71692D01*
X467300Y71697D01*
X383199Y71697D01*
X370148Y75529D01*
X358705Y82883D01*
X349797Y93163D01*
X344147Y105536D01*
X342211Y119000D01*
X344147Y132464D01*
X349797Y144837D01*
X358705Y155117D01*
X370148Y162471D01*
X374116Y163636D01*
X374129Y163642D01*
X374144Y163645D01*
X374239Y163695D01*
X374337Y163742D01*
X374348Y163753D01*
X374361Y163760D01*
X374436Y163838D01*
X374513Y163914D01*
X374520Y163927D01*
X374531Y163938D01*
X374576Y164036D01*
X374626Y164133D01*
X374628Y164147D01*
X374634Y164161D01*
X374646Y164269D01*
X374662Y164376D01*
X374660Y164391D01*
X374661Y164405D01*
X374638Y164511D01*
X374619Y164618D01*
X374612Y164631D01*
X374609Y164646D01*
X374553Y164739D01*
X374501Y164834D01*
X374491Y164844D01*
X374483Y164857D01*
X374400Y164927D01*
X374321Y165001D01*
X374307Y165007D01*
X374296Y165017D01*
X374195Y165057D01*
X374097Y165102D01*
X374082Y165103D01*
X374068Y165109D01*
X373901Y165127D01*
X352729Y165127D01*
X352639Y165113D01*
X352548Y165105D01*
X352519Y165093D01*
X352487Y165088D01*
X352406Y165045D01*
X352322Y165009D01*
X352290Y164983D01*
X352269Y164972D01*
X352247Y164949D01*
X352191Y164904D01*
X329916Y142629D01*
X329863Y142555D01*
X329803Y142485D01*
X329791Y142455D01*
X329772Y142429D01*
X329745Y142342D01*
X329711Y142257D01*
X329707Y142216D01*
X329700Y142194D01*
X329701Y142162D01*
X329693Y142091D01*
X329693Y60146D01*
X329707Y60056D01*
X329714Y59966D01*
X329727Y59936D01*
X329732Y59903D01*
X329775Y59823D01*
X329810Y59739D01*
X329837Y59707D01*
X329848Y59686D01*
X329871Y59664D01*
X329915Y59608D01*
X336960Y52548D01*
X337034Y52495D01*
X337104Y52435D01*
X337133Y52423D01*
X337159Y52405D01*
X337247Y52378D01*
X337332Y52343D01*
X337372Y52339D01*
X337394Y52332D01*
X337426Y52333D01*
X337498Y52325D01*
X339235Y52325D01*
X341849Y51242D01*
X343850Y49241D01*
X344933Y46627D01*
X344933Y43797D01*
X343850Y41183D01*
X341849Y39182D01*
X339235Y38099D01*
X336405Y38099D01*
X333791Y39182D01*
X331790Y41183D01*
X330707Y43797D01*
X330707Y45552D01*
X330693Y45641D01*
X330686Y45732D01*
X330673Y45762D01*
X330668Y45794D01*
X330625Y45874D01*
X330590Y45958D01*
X330563Y45991D01*
X330552Y46012D01*
X330529Y46034D01*
X330485Y46089D01*
X322576Y54016D01*
X322517Y54058D01*
X322465Y54108D01*
X322418Y54129D01*
X322376Y54160D01*
X322307Y54181D01*
X322242Y54211D01*
X322191Y54217D01*
X322141Y54232D01*
X322069Y54230D01*
X321998Y54238D01*
X321947Y54227D01*
X321895Y54226D01*
X321828Y54201D01*
X321757Y54186D01*
X321713Y54160D01*
X321664Y54142D01*
X321608Y54097D01*
X321546Y54060D01*
X321512Y54021D01*
X321472Y53988D01*
X321433Y53928D01*
X321386Y53873D01*
X321367Y53825D01*
X321339Y53782D01*
X321321Y53712D01*
X321294Y53645D01*
X321286Y53574D01*
X321279Y53543D01*
X321280Y53520D01*
X321276Y53478D01*
X321276Y51680D01*
X320309Y49346D01*
X318418Y47455D01*
X318363Y47379D01*
X318303Y47307D01*
X318292Y47279D01*
X318275Y47256D01*
X318247Y47166D01*
X318213Y47078D01*
X318211Y47049D01*
X318202Y47021D01*
X318205Y46926D01*
X318200Y46832D01*
X318208Y46804D01*
X318209Y46775D01*
X318241Y46686D01*
X318267Y46595D01*
X318283Y46571D01*
X318293Y46544D01*
X318352Y46470D01*
X318405Y46392D01*
X318434Y46368D01*
X318447Y46352D01*
X318475Y46334D01*
X318534Y46284D01*
X319297Y45774D01*
X320252Y44819D01*
X321003Y43695D01*
X321520Y42447D01*
X321615Y41970D01*
X310480Y41970D01*
X310460Y41966D01*
X310441Y41969D01*
X310339Y41947D01*
X310237Y41930D01*
X310220Y41921D01*
X310200Y41916D01*
X310111Y41863D01*
X310020Y41815D01*
X310006Y41800D01*
X309989Y41790D01*
X309922Y41711D01*
X309851Y41636D01*
X309842Y41618D01*
X309829Y41603D01*
X309790Y41507D01*
X309747Y41413D01*
X309745Y41394D01*
X309737Y41375D01*
X309719Y41208D01*
X309719Y39685D01*
X309722Y39665D01*
X309720Y39645D01*
X309742Y39544D01*
X309759Y39442D01*
X309768Y39424D01*
X309772Y39405D01*
X309825Y39316D01*
X309874Y39224D01*
X309888Y39211D01*
X309898Y39194D01*
X309977Y39126D01*
X310052Y39055D01*
X310070Y39047D01*
X310085Y39034D01*
X310181Y38995D01*
X310275Y38951D01*
X310295Y38949D01*
X310313Y38942D01*
X310480Y38923D01*
X321615Y38923D01*
X321520Y38446D01*
X320997Y37182D01*
X320986Y37137D01*
X320967Y37095D01*
X320958Y37018D01*
X320940Y36942D01*
X320945Y36897D01*
X320940Y36851D01*
X320956Y36775D01*
X320963Y36697D01*
X320982Y36656D01*
X320992Y36611D01*
X321032Y36544D01*
X321063Y36473D01*
X321095Y36439D01*
X321118Y36400D01*
X321177Y36349D01*
X321230Y36292D01*
X321270Y36269D01*
X321305Y36240D01*
X321377Y36211D01*
X321445Y36173D01*
X321491Y36165D01*
X321533Y36148D01*
X321669Y36133D01*
X321687Y36129D01*
X321692Y36130D01*
X321700Y36129D01*
X330778Y36129D01*
X333679Y33228D01*
X334244Y32662D01*
X334340Y32594D01*
X334433Y32525D01*
X334439Y32523D01*
X334444Y32519D01*
X334555Y32485D01*
X334667Y32448D01*
X334673Y32448D01*
X334679Y32447D01*
X334796Y32450D01*
X334913Y32451D01*
X334920Y32453D01*
X334925Y32453D01*
X334942Y32459D01*
X335074Y32497D01*
X336506Y33091D01*
X341054Y33091D01*
X345255Y31350D01*
X348470Y28135D01*
X350211Y23934D01*
X350211Y19386D01*
X348470Y15185D01*
X345255Y11970D01*
X341054Y10229D01*
X336506Y10229D01*
X332305Y11970D01*
X329090Y15185D01*
X327349Y19386D01*
X327349Y23934D01*
X327943Y25366D01*
X327969Y25480D01*
X327998Y25593D01*
X327997Y25599D01*
X327999Y25606D01*
X327988Y25722D01*
X327979Y25838D01*
X327976Y25844D01*
X327976Y25850D01*
X327928Y25957D01*
X327882Y26065D01*
X327878Y26071D01*
X327876Y26075D01*
X327863Y26089D01*
X327778Y26196D01*
X327212Y26761D01*
X327138Y26814D01*
X327069Y26873D01*
X327039Y26885D01*
X327013Y26904D01*
X326926Y26931D01*
X326841Y26965D01*
X326800Y26970D01*
X326778Y26977D01*
X326745Y26976D01*
X326674Y26984D01*
X298935Y26984D01*
X291048Y34870D01*
X291048Y76838D01*
X291029Y76953D01*
X291012Y77069D01*
X291010Y77075D01*
X291009Y77081D01*
X290954Y77183D01*
X290901Y77288D01*
X290896Y77293D01*
X290893Y77298D01*
X290809Y77378D01*
X290725Y77461D01*
X290719Y77464D01*
X290715Y77468D01*
X290698Y77476D01*
X290578Y77542D01*
X288071Y78580D01*
X286070Y80581D01*
X284987Y83195D01*
X284987Y86025D01*
X286070Y88639D01*
X288071Y90640D01*
X290685Y91723D01*
X293515Y91723D01*
X296129Y90640D01*
X296861Y89908D01*
X296919Y89866D01*
X296971Y89817D01*
X297018Y89795D01*
X297060Y89765D01*
X297129Y89744D01*
X297194Y89713D01*
X297246Y89708D01*
X297296Y89692D01*
X297367Y89694D01*
X297438Y89686D01*
X297489Y89697D01*
X297541Y89699D01*
X297609Y89723D01*
X297679Y89738D01*
X297724Y89765D01*
X297772Y89783D01*
X297828Y89828D01*
X297890Y89865D01*
X297924Y89904D01*
X297964Y89937D01*
X298003Y89997D01*
X298050Y90052D01*
X298069Y90100D01*
X298097Y90144D01*
X298115Y90213D01*
X298142Y90280D01*
X298150Y90351D01*
X298158Y90382D01*
X298156Y90406D01*
X298160Y90446D01*
X298160Y91697D01*
X299127Y94031D01*
X300914Y95818D01*
X301303Y95979D01*
X301364Y96016D01*
X301429Y96046D01*
X301468Y96081D01*
X301512Y96108D01*
X301557Y96164D01*
X301610Y96212D01*
X301635Y96258D01*
X301669Y96298D01*
X301694Y96365D01*
X301729Y96428D01*
X301738Y96479D01*
X301757Y96527D01*
X301760Y96599D01*
X301773Y96670D01*
X301765Y96721D01*
X301767Y96773D01*
X301747Y96842D01*
X301737Y96913D01*
X301713Y96959D01*
X301699Y97009D01*
X301658Y97068D01*
X301625Y97132D01*
X301588Y97169D01*
X301558Y97211D01*
X301501Y97254D01*
X301450Y97304D01*
X301387Y97339D01*
X301361Y97358D01*
X301339Y97366D01*
X301303Y97385D01*
X300914Y97547D01*
X299127Y99333D01*
X298160Y101667D01*
X298160Y104194D01*
X299127Y106528D01*
X300914Y108314D01*
X301303Y108475D01*
X301364Y108513D01*
X301429Y108542D01*
X301468Y108578D01*
X301512Y108605D01*
X301557Y108660D01*
X301610Y108709D01*
X301635Y108755D01*
X301669Y108795D01*
X301694Y108861D01*
X301729Y108924D01*
X301738Y108976D01*
X301757Y109024D01*
X301760Y109096D01*
X301773Y109166D01*
X301765Y109218D01*
X301767Y109270D01*
X301747Y109339D01*
X301737Y109410D01*
X301713Y109456D01*
X301699Y109506D01*
X301658Y109565D01*
X301625Y109629D01*
X301588Y109665D01*
X301558Y109708D01*
X301501Y109751D01*
X301450Y109801D01*
X301387Y109836D01*
X301361Y109855D01*
X301339Y109862D01*
X301303Y109882D01*
X300914Y110043D01*
X299127Y111830D01*
X298160Y114164D01*
X298160Y116690D01*
X299127Y119025D01*
X300914Y120811D01*
X301303Y120972D01*
X301364Y121010D01*
X301429Y121039D01*
X301468Y121074D01*
X301512Y121102D01*
X301557Y121157D01*
X301610Y121206D01*
X301635Y121251D01*
X301669Y121291D01*
X301694Y121358D01*
X301729Y121421D01*
X301738Y121472D01*
X301757Y121521D01*
X301760Y121593D01*
X301773Y121663D01*
X301765Y121715D01*
X301767Y121767D01*
X301747Y121836D01*
X301737Y121907D01*
X301713Y121953D01*
X301699Y122003D01*
X301658Y122062D01*
X301625Y122126D01*
X301588Y122162D01*
X301558Y122205D01*
X301501Y122248D01*
X301450Y122298D01*
X301387Y122333D01*
X301361Y122352D01*
X301339Y122359D01*
X301303Y122379D01*
X300914Y122540D01*
X299127Y124327D01*
X298160Y126661D01*
X298160Y129187D01*
X299127Y131521D01*
X300914Y133308D01*
X301303Y133469D01*
X301364Y133507D01*
X301429Y133536D01*
X301467Y133571D01*
X301512Y133599D01*
X301558Y133654D01*
X301610Y133702D01*
X301635Y133748D01*
X301669Y133788D01*
X301694Y133855D01*
X301729Y133918D01*
X301738Y133969D01*
X301757Y134018D01*
X301760Y134089D01*
X301773Y134160D01*
X301765Y134211D01*
X301767Y134264D01*
X301747Y134332D01*
X301737Y134403D01*
X301713Y134450D01*
X301699Y134500D01*
X301658Y134559D01*
X301625Y134623D01*
X301588Y134659D01*
X301558Y134702D01*
X301501Y134745D01*
X301450Y134795D01*
X301387Y134829D01*
X301361Y134849D01*
X301339Y134856D01*
X301303Y134876D01*
X300914Y135037D01*
X299127Y136823D01*
X298160Y139158D01*
X298160Y141684D01*
X299127Y144018D01*
X300914Y145805D01*
X301303Y145966D01*
X301364Y146004D01*
X301429Y146033D01*
X301467Y146068D01*
X301512Y146095D01*
X301558Y146151D01*
X301610Y146199D01*
X301635Y146245D01*
X301669Y146285D01*
X301694Y146352D01*
X301729Y146415D01*
X301738Y146466D01*
X301757Y146515D01*
X301760Y146586D01*
X301773Y146657D01*
X301765Y146708D01*
X301767Y146760D01*
X301747Y146829D01*
X301737Y146900D01*
X301713Y146947D01*
X301699Y146997D01*
X301658Y147055D01*
X301625Y147119D01*
X301588Y147156D01*
X301558Y147199D01*
X301501Y147241D01*
X301450Y147292D01*
X301387Y147326D01*
X301361Y147345D01*
X301339Y147353D01*
X301303Y147372D01*
X300914Y147534D01*
X299127Y149320D01*
X298160Y151654D01*
X298160Y154181D01*
X299127Y156515D01*
X300914Y158301D01*
X301303Y158463D01*
X301364Y158500D01*
X301429Y158530D01*
X301467Y158565D01*
X301512Y158592D01*
X301558Y158648D01*
X301610Y158696D01*
X301635Y158742D01*
X301669Y158782D01*
X301694Y158849D01*
X301729Y158911D01*
X301738Y158963D01*
X301757Y159011D01*
X301760Y159083D01*
X301773Y159154D01*
X301765Y159205D01*
X301767Y159257D01*
X301747Y159326D01*
X301737Y159397D01*
X301713Y159443D01*
X301699Y159493D01*
X301658Y159552D01*
X301625Y159616D01*
X301588Y159653D01*
X301558Y159695D01*
X301501Y159738D01*
X301450Y159788D01*
X301387Y159823D01*
X301361Y159842D01*
X301339Y159849D01*
X301303Y159869D01*
X300914Y160030D01*
X299127Y161817D01*
X298160Y164151D01*
X298160Y166678D01*
X299127Y169012D01*
X301018Y170902D01*
X301073Y170979D01*
X301133Y171051D01*
X301144Y171078D01*
X301161Y171102D01*
X301189Y171192D01*
X301223Y171280D01*
X301225Y171309D01*
X301234Y171337D01*
X301231Y171431D01*
X301236Y171526D01*
X301228Y171554D01*
X301227Y171583D01*
X301195Y171672D01*
X301169Y171762D01*
X301153Y171786D01*
X301143Y171814D01*
X301084Y171888D01*
X301031Y171965D01*
X301002Y171989D01*
X300989Y172006D01*
X300961Y172024D01*
X300902Y172073D01*
X300139Y172584D01*
X299184Y173539D01*
X298433Y174662D01*
X297916Y175910D01*
X297821Y176388D01*
X308956Y176388D01*
X308976Y176391D01*
X308995Y176389D01*
X309097Y176411D01*
X309199Y176428D01*
X309216Y176437D01*
X309236Y176441D01*
X309325Y176494D01*
X309416Y176543D01*
X309430Y176557D01*
X309447Y176567D01*
X309514Y176646D01*
X309585Y176721D01*
X309594Y176739D01*
X309607Y176754D01*
X309646Y176850D01*
X309689Y176944D01*
X309691Y176964D01*
X309699Y176982D01*
X309717Y177149D01*
X309717Y178673D01*
X309714Y178693D01*
X309716Y178712D01*
X309694Y178814D01*
X309677Y178916D01*
X309668Y178933D01*
X309664Y178953D01*
X309611Y179042D01*
X309562Y179133D01*
X309548Y179147D01*
X309538Y179164D01*
X309459Y179231D01*
X309384Y179303D01*
X309366Y179311D01*
X309351Y179324D01*
X309255Y179363D01*
X309161Y179406D01*
X309141Y179408D01*
X309123Y179416D01*
X308956Y179434D01*
X297821Y179434D01*
X297904Y179851D01*
X297907Y179946D01*
X297917Y180039D01*
X297911Y180068D01*
X297912Y180097D01*
X297885Y180188D01*
X297865Y180280D01*
X297850Y180305D01*
X297842Y180333D01*
X297787Y180410D01*
X297739Y180491D01*
X297717Y180510D01*
X297700Y180534D01*
X297624Y180590D01*
X297552Y180651D01*
X297525Y180662D01*
X297501Y180679D01*
X297412Y180707D01*
X297324Y180743D01*
X297287Y180747D01*
X297267Y180753D01*
X297234Y180753D01*
X297157Y180761D01*
X185871Y180761D01*
X185778Y180746D01*
X185684Y180738D01*
X185657Y180726D01*
X185628Y180722D01*
X185545Y180677D01*
X185458Y180640D01*
X185436Y180620D01*
X185411Y180606D01*
X185346Y180538D01*
X185276Y180475D01*
X185261Y180449D01*
X185241Y180428D01*
X185201Y180343D01*
X185155Y180260D01*
X185150Y180232D01*
X185138Y180205D01*
X185127Y180111D01*
X185110Y180019D01*
X185113Y179982D01*
X185110Y179961D01*
X185117Y179929D01*
X185124Y179851D01*
X185217Y179384D01*
X174082Y179384D01*
X174062Y179380D01*
X174043Y179383D01*
X173941Y179361D01*
X173839Y179344D01*
X173822Y179335D01*
X173802Y179330D01*
X173713Y179277D01*
X173622Y179229D01*
X173608Y179214D01*
X173591Y179204D01*
X173524Y179125D01*
X173453Y179050D01*
X173444Y179032D01*
X173431Y179017D01*
X173392Y178921D01*
X173349Y178827D01*
X173347Y178808D01*
X173339Y178789D01*
X173321Y178622D01*
X173321Y177099D01*
X173324Y177079D01*
X173322Y177059D01*
X173344Y176958D01*
X173361Y176856D01*
X173370Y176838D01*
X173374Y176819D01*
X173427Y176730D01*
X173476Y176638D01*
X173490Y176625D01*
X173500Y176608D01*
X173579Y176540D01*
X173654Y176469D01*
X173672Y176461D01*
X173687Y176448D01*
X173783Y176409D01*
X173877Y176365D01*
X173897Y176363D01*
X173915Y176356D01*
X174082Y176337D01*
X185217Y176337D01*
X185122Y175860D01*
X184605Y174612D01*
X183854Y173488D01*
X182899Y172533D01*
X182136Y172023D01*
X182067Y171959D01*
X181993Y171900D01*
X181977Y171875D01*
X181956Y171855D01*
X181911Y171772D01*
X181860Y171693D01*
X181853Y171664D01*
X181839Y171639D01*
X181823Y171546D01*
X181800Y171454D01*
X181802Y171425D01*
X181797Y171396D01*
X181812Y171303D01*
X181819Y171209D01*
X181831Y171182D01*
X181835Y171153D01*
X181879Y171069D01*
X181916Y170983D01*
X181939Y170954D01*
X181948Y170935D01*
X181972Y170912D01*
X182020Y170852D01*
X183911Y168961D01*
X184878Y166627D01*
X184878Y164100D01*
X183911Y161766D01*
X182124Y159980D01*
X181735Y159819D01*
X181674Y159781D01*
X181609Y159752D01*
X181571Y159717D01*
X181526Y159689D01*
X181480Y159634D01*
X181428Y159585D01*
X181403Y159540D01*
X181369Y159500D01*
X181344Y159433D01*
X181309Y159370D01*
X181300Y159318D01*
X181281Y159270D01*
X181278Y159198D01*
X181265Y159128D01*
X181273Y159076D01*
X181271Y159024D01*
X181291Y158955D01*
X181301Y158884D01*
X181325Y158838D01*
X181339Y158788D01*
X181380Y158729D01*
X181413Y158665D01*
X181450Y158629D01*
X181480Y158586D01*
X181537Y158543D01*
X181588Y158493D01*
X181651Y158458D01*
X181677Y158439D01*
X181699Y158432D01*
X181735Y158412D01*
X182124Y158251D01*
X183911Y156464D01*
X184032Y156173D01*
X184094Y156073D01*
X184153Y155973D01*
X184158Y155969D01*
X184161Y155964D01*
X184252Y155889D01*
X184340Y155813D01*
X184346Y155811D01*
X184351Y155807D01*
X184459Y155765D01*
X184568Y155721D01*
X184576Y155720D01*
X184580Y155719D01*
X184599Y155718D01*
X184735Y155703D01*
X190011Y155703D01*
X190125Y155721D01*
X190242Y155739D01*
X190247Y155741D01*
X190253Y155742D01*
X190356Y155797D01*
X190461Y155850D01*
X190465Y155855D01*
X190471Y155858D01*
X190551Y155942D01*
X190633Y156026D01*
X190637Y156032D01*
X190640Y156036D01*
X190648Y156053D01*
X190714Y156173D01*
X190820Y156429D01*
X192821Y158430D01*
X195435Y159513D01*
X198265Y159513D01*
X200879Y158430D01*
X202880Y156429D01*
X203963Y153815D01*
X203963Y150985D01*
X202880Y148371D01*
X200879Y146370D01*
X199683Y145875D01*
X199644Y145850D01*
X199601Y145835D01*
X199540Y145786D01*
X199474Y145745D01*
X199444Y145710D01*
X199409Y145681D01*
X199367Y145616D01*
X199317Y145556D01*
X199300Y145513D01*
X199276Y145474D01*
X199257Y145399D01*
X199229Y145326D01*
X199227Y145280D01*
X199216Y145236D01*
X199222Y145158D01*
X199218Y145080D01*
X199231Y145036D01*
X199235Y144990D01*
X199265Y144919D01*
X199287Y144844D01*
X199313Y144806D01*
X199331Y144764D01*
X199416Y144657D01*
X199427Y144642D01*
X199431Y144639D01*
X199436Y144633D01*
X200340Y143729D01*
X201422Y141117D01*
X201446Y141078D01*
X201462Y141035D01*
X201510Y140974D01*
X201551Y140908D01*
X201587Y140879D01*
X201615Y140843D01*
X201681Y140801D01*
X201741Y140751D01*
X201784Y140735D01*
X201822Y140710D01*
X201898Y140691D01*
X201970Y140663D01*
X202016Y140661D01*
X202061Y140650D01*
X202138Y140656D01*
X202216Y140653D01*
X202260Y140665D01*
X202306Y140669D01*
X202378Y140699D01*
X202452Y140721D01*
X202490Y140747D01*
X202532Y140765D01*
X202639Y140851D01*
X202655Y140861D01*
X202658Y140865D01*
X202663Y140870D01*
X225116Y163323D01*
X236458Y163323D01*
X236572Y163341D01*
X236689Y163359D01*
X236694Y163361D01*
X236700Y163362D01*
X236803Y163417D01*
X236908Y163470D01*
X236912Y163475D01*
X236918Y163478D01*
X236998Y163562D01*
X237080Y163646D01*
X237084Y163652D01*
X237087Y163656D01*
X237095Y163673D01*
X237161Y163793D01*
X237267Y164049D01*
X239268Y166050D01*
X241882Y167133D01*
X244712Y167133D01*
X247326Y166050D01*
X249327Y164049D01*
X250410Y161435D01*
X250410Y158605D01*
X249327Y155991D01*
X247326Y153990D01*
X244712Y152907D01*
X241882Y152907D01*
X239268Y153990D01*
X237267Y155991D01*
X237161Y156247D01*
X237100Y156346D01*
X237039Y156447D01*
X237035Y156451D01*
X237031Y156456D01*
X236942Y156530D01*
X236853Y156607D01*
X236847Y156609D01*
X236842Y156613D01*
X236734Y156654D01*
X236624Y156699D01*
X236617Y156700D01*
X236612Y156701D01*
X236594Y156702D01*
X236458Y156717D01*
X228167Y156717D01*
X228077Y156703D01*
X227986Y156695D01*
X227957Y156683D01*
X227925Y156678D01*
X227844Y156635D01*
X227760Y156599D01*
X227728Y156573D01*
X227707Y156562D01*
X227685Y156539D01*
X227629Y156494D01*
X199150Y128015D01*
X197771Y128015D01*
X197681Y128001D01*
X197590Y127993D01*
X197561Y127981D01*
X197529Y127976D01*
X197448Y127933D01*
X197364Y127897D01*
X197332Y127871D01*
X197311Y127860D01*
X197289Y127837D01*
X197233Y127792D01*
X195296Y125855D01*
X195243Y125781D01*
X195183Y125712D01*
X195171Y125681D01*
X195152Y125655D01*
X195125Y125568D01*
X195091Y125483D01*
X195087Y125442D01*
X195080Y125420D01*
X195081Y125388D01*
X195073Y125317D01*
X195073Y96774D01*
X195076Y96754D01*
X195074Y96735D01*
X195096Y96633D01*
X195112Y96531D01*
X195122Y96514D01*
X195126Y96494D01*
X195179Y96405D01*
X195228Y96314D01*
X195242Y96300D01*
X195252Y96283D01*
X195331Y96216D01*
X195406Y96144D01*
X195424Y96136D01*
X195439Y96123D01*
X195535Y96084D01*
X195629Y96041D01*
X195649Y96039D01*
X195667Y96031D01*
X195685Y96029D01*
X198339Y94930D01*
X200340Y92929D01*
X201423Y90315D01*
X201423Y87485D01*
X200340Y84871D01*
X198339Y82870D01*
X195725Y81787D01*
X192895Y81787D01*
X190281Y82870D01*
X188280Y84871D01*
X187197Y87485D01*
X187197Y90315D01*
X188294Y92962D01*
X188297Y92967D01*
X188357Y93037D01*
X188369Y93067D01*
X188388Y93093D01*
X188415Y93180D01*
X188449Y93265D01*
X188453Y93306D01*
X188460Y93328D01*
X188459Y93360D01*
X188467Y93432D01*
X188467Y128368D01*
X191942Y131843D01*
X191969Y131880D01*
X192003Y131911D01*
X192040Y131979D01*
X192086Y132043D01*
X192099Y132086D01*
X192121Y132127D01*
X192135Y132203D01*
X192158Y132278D01*
X192157Y132323D01*
X192165Y132369D01*
X192154Y132446D01*
X192152Y132523D01*
X192136Y132567D01*
X192129Y132612D01*
X192094Y132681D01*
X192067Y132755D01*
X192038Y132790D01*
X192018Y132831D01*
X191962Y132886D01*
X191913Y132947D01*
X191875Y132971D01*
X191842Y133004D01*
X191722Y133069D01*
X191707Y133080D01*
X191702Y133081D01*
X191695Y133084D01*
X190281Y133670D01*
X188280Y135671D01*
X188174Y135927D01*
X188113Y136026D01*
X188052Y136127D01*
X188048Y136131D01*
X188044Y136136D01*
X187955Y136210D01*
X187866Y136287D01*
X187860Y136289D01*
X187855Y136293D01*
X187747Y136334D01*
X187637Y136379D01*
X187630Y136380D01*
X187625Y136381D01*
X187607Y136382D01*
X187471Y136397D01*
X183851Y136397D01*
X183761Y136383D01*
X183670Y136375D01*
X183640Y136363D01*
X183608Y136358D01*
X183527Y136315D01*
X183443Y136279D01*
X183411Y136253D01*
X183391Y136242D01*
X183368Y136219D01*
X183312Y136174D01*
X182124Y134986D01*
X181735Y134825D01*
X181674Y134787D01*
X181609Y134758D01*
X181570Y134723D01*
X181526Y134695D01*
X181481Y134640D01*
X181428Y134592D01*
X181403Y134546D01*
X181369Y134506D01*
X181344Y134439D01*
X181309Y134376D01*
X181300Y134325D01*
X181281Y134276D01*
X181278Y134205D01*
X181265Y134134D01*
X181273Y134083D01*
X181271Y134031D01*
X181291Y133962D01*
X181301Y133891D01*
X181325Y133844D01*
X181339Y133794D01*
X181380Y133736D01*
X181413Y133672D01*
X181450Y133635D01*
X181480Y133592D01*
X181537Y133550D01*
X181588Y133499D01*
X181651Y133465D01*
X181677Y133446D01*
X181699Y133438D01*
X181735Y133418D01*
X182124Y133257D01*
X183911Y131471D01*
X184878Y129137D01*
X184878Y126610D01*
X183911Y124276D01*
X182124Y122489D01*
X181735Y122328D01*
X181674Y122291D01*
X181609Y122261D01*
X181570Y122226D01*
X181526Y122199D01*
X181481Y122143D01*
X181428Y122095D01*
X181403Y122049D01*
X181369Y122009D01*
X181344Y121942D01*
X181309Y121879D01*
X181300Y121828D01*
X181281Y121780D01*
X181278Y121708D01*
X181265Y121637D01*
X181273Y121586D01*
X181271Y121534D01*
X181291Y121465D01*
X181301Y121394D01*
X181325Y121348D01*
X181339Y121298D01*
X181380Y121239D01*
X181413Y121175D01*
X181450Y121138D01*
X181480Y121096D01*
X181537Y121053D01*
X181588Y121003D01*
X181651Y120968D01*
X181677Y120949D01*
X181699Y120941D01*
X181735Y120922D01*
X182124Y120760D01*
X183911Y118974D01*
X184878Y116640D01*
X184878Y114113D01*
X183911Y111779D01*
X182124Y109993D01*
X181735Y109832D01*
X181674Y109794D01*
X181609Y109765D01*
X181570Y109729D01*
X181526Y109702D01*
X181481Y109647D01*
X181428Y109598D01*
X181403Y109552D01*
X181369Y109512D01*
X181344Y109446D01*
X181309Y109383D01*
X181300Y109331D01*
X181281Y109283D01*
X181278Y109211D01*
X181265Y109141D01*
X181273Y109089D01*
X181271Y109037D01*
X181291Y108968D01*
X181301Y108897D01*
X181325Y108851D01*
X181339Y108801D01*
X181380Y108742D01*
X181413Y108678D01*
X181450Y108642D01*
X181480Y108599D01*
X181537Y108556D01*
X181588Y108506D01*
X181651Y108471D01*
X181677Y108452D01*
X181699Y108445D01*
X181735Y108425D01*
X182124Y108264D01*
X183911Y106477D01*
X184878Y104143D01*
X184878Y101617D01*
X183911Y99282D01*
X182124Y97496D01*
X181735Y97335D01*
X181674Y97297D01*
X181609Y97268D01*
X181570Y97233D01*
X181526Y97205D01*
X181481Y97150D01*
X181428Y97101D01*
X181403Y97056D01*
X181369Y97016D01*
X181344Y96949D01*
X181309Y96886D01*
X181300Y96835D01*
X181281Y96786D01*
X181278Y96714D01*
X181265Y96644D01*
X181273Y96592D01*
X181271Y96540D01*
X181291Y96471D01*
X181301Y96400D01*
X181325Y96354D01*
X181339Y96304D01*
X181380Y96245D01*
X181413Y96181D01*
X181450Y96145D01*
X181480Y96102D01*
X181537Y96059D01*
X181588Y96009D01*
X181651Y95974D01*
X181677Y95955D01*
X181699Y95948D01*
X181735Y95928D01*
X182124Y95767D01*
X183911Y93980D01*
X184878Y91646D01*
X184878Y89120D01*
X183911Y86786D01*
X182124Y84999D01*
X181735Y84838D01*
X181674Y84800D01*
X181609Y84771D01*
X181570Y84736D01*
X181526Y84708D01*
X181481Y84653D01*
X181428Y84605D01*
X181403Y84559D01*
X181369Y84519D01*
X181344Y84452D01*
X181309Y84389D01*
X181300Y84338D01*
X181281Y84289D01*
X181278Y84218D01*
X181265Y84147D01*
X181273Y84095D01*
X181271Y84044D01*
X181291Y83975D01*
X181301Y83904D01*
X181325Y83857D01*
X181339Y83807D01*
X181380Y83748D01*
X181413Y83684D01*
X181450Y83648D01*
X181480Y83605D01*
X181537Y83562D01*
X181588Y83512D01*
X181651Y83478D01*
X181677Y83458D01*
X181699Y83451D01*
X181735Y83431D01*
X182124Y83270D01*
X183911Y81484D01*
X184878Y79149D01*
X184878Y76623D01*
X183911Y74289D01*
X182020Y72398D01*
X181965Y72322D01*
X181905Y72250D01*
X181894Y72222D01*
X181877Y72199D01*
X181849Y72108D01*
X181815Y72021D01*
X181813Y71992D01*
X181804Y71964D01*
X181807Y71869D01*
X181802Y71775D01*
X181810Y71747D01*
X181811Y71718D01*
X181843Y71629D01*
X181869Y71538D01*
X181885Y71514D01*
X181895Y71487D01*
X181954Y71413D01*
X182007Y71335D01*
X182036Y71311D01*
X182049Y71295D01*
X182077Y71277D01*
X182136Y71227D01*
X182899Y70717D01*
X183854Y69762D01*
X184605Y68638D01*
X185122Y67390D01*
X185217Y66913D01*
X174082Y66913D01*
X174062Y66909D01*
X174043Y66912D01*
X173941Y66890D01*
X173839Y66873D01*
X173822Y66864D01*
X173802Y66859D01*
X173713Y66806D01*
X173622Y66758D01*
X173608Y66743D01*
X173591Y66733D01*
X173524Y66654D01*
X173453Y66579D01*
X173444Y66561D01*
X173431Y66546D01*
X173392Y66450D01*
X173349Y66356D01*
X173347Y66337D01*
X173339Y66318D01*
X173321Y66151D01*
X173321Y64628D01*
X173324Y64608D01*
X173322Y64588D01*
X173344Y64487D01*
X173361Y64385D01*
X173370Y64367D01*
X173374Y64348D01*
X173427Y64259D01*
X173476Y64167D01*
X173490Y64154D01*
X173500Y64137D01*
X173579Y64069D01*
X173654Y63998D01*
X173672Y63990D01*
X173687Y63977D01*
X173783Y63938D01*
X173877Y63894D01*
X173897Y63892D01*
X173915Y63885D01*
X174082Y63866D01*
X185217Y63866D01*
X185122Y63389D01*
X184605Y62141D01*
X183854Y61017D01*
X182899Y60062D01*
X182136Y59552D01*
X182067Y59487D01*
X181993Y59429D01*
X181977Y59404D01*
X181956Y59384D01*
X181911Y59301D01*
X181860Y59222D01*
X181853Y59193D01*
X181839Y59168D01*
X181823Y59075D01*
X181800Y58983D01*
X181802Y58954D01*
X181797Y58925D01*
X181812Y58832D01*
X181819Y58738D01*
X181831Y58711D01*
X181835Y58682D01*
X181879Y58598D01*
X181916Y58512D01*
X181939Y58483D01*
X181948Y58464D01*
X181972Y58441D01*
X182020Y58381D01*
X183911Y56490D01*
X184878Y54156D01*
X184878Y51629D01*
X183911Y49295D01*
X182020Y47405D01*
X181965Y47328D01*
X181905Y47256D01*
X181894Y47229D01*
X181877Y47205D01*
X181849Y47115D01*
X181815Y47027D01*
X181813Y46998D01*
X181804Y46970D01*
X181807Y46876D01*
X181802Y46781D01*
X181810Y46753D01*
X181811Y46724D01*
X181843Y46635D01*
X181869Y46545D01*
X181885Y46521D01*
X181895Y46493D01*
X181954Y46419D01*
X182007Y46342D01*
X182036Y46318D01*
X182049Y46301D01*
X182077Y46283D01*
X182136Y46234D01*
X182899Y45723D01*
X183854Y44768D01*
X184605Y43645D01*
X185122Y42396D01*
X185217Y41919D01*
X174082Y41919D01*
X174062Y41916D01*
X174043Y41918D01*
X173941Y41896D01*
X173839Y41879D01*
X173822Y41870D01*
X173802Y41866D01*
X173713Y41813D01*
X173622Y41764D01*
X173608Y41750D01*
X173591Y41740D01*
X173524Y41661D01*
X173453Y41586D01*
X173444Y41568D01*
X173431Y41553D01*
X173392Y41456D01*
X173349Y41363D01*
X173347Y41343D01*
X173339Y41325D01*
X173321Y41158D01*
X173321Y40395D01*
X172558Y40395D01*
X172538Y40392D01*
X172519Y40394D01*
X172417Y40372D01*
X172315Y40355D01*
X172298Y40346D01*
X172278Y40342D01*
X172189Y40289D01*
X172098Y40240D01*
X172084Y40226D01*
X172067Y40216D01*
X172000Y40137D01*
X171929Y40062D01*
X171920Y40044D01*
X171907Y40029D01*
X171868Y39932D01*
X171825Y39839D01*
X171823Y39819D01*
X171815Y39801D01*
X171797Y39634D01*
X171797Y33537D01*
X167437Y33537D01*
X166112Y33801D01*
X164864Y34318D01*
X163741Y35068D01*
X162786Y36024D01*
X162035Y37147D01*
X161518Y38395D01*
X161487Y38552D01*
X161479Y38573D01*
X161477Y38596D01*
X161436Y38688D01*
X161400Y38782D01*
X161386Y38800D01*
X161377Y38821D01*
X161309Y38895D01*
X161245Y38973D01*
X161226Y38985D01*
X161210Y39002D01*
X161122Y39051D01*
X161037Y39104D01*
X161015Y39109D01*
X160995Y39121D01*
X160896Y39138D01*
X160798Y39162D01*
X160775Y39160D01*
X160753Y39164D01*
X160653Y39150D01*
X160553Y39141D01*
X160532Y39132D01*
X160509Y39129D01*
X160420Y39083D01*
X160328Y39043D01*
X160311Y39027D01*
X160290Y39017D01*
X160220Y38945D01*
X160145Y38878D01*
X160134Y38858D01*
X160118Y38841D01*
X160037Y38694D01*
X159700Y37881D01*
X157699Y35880D01*
X155085Y34797D01*
X152255Y34797D01*
X149641Y35880D01*
X147762Y37759D01*
X147746Y37771D01*
X147733Y37786D01*
X147646Y37842D01*
X147562Y37903D01*
X147543Y37908D01*
X147527Y37919D01*
X147426Y37944D01*
X147327Y37975D01*
X147307Y37974D01*
X147288Y37979D01*
X147185Y37971D01*
X147081Y37969D01*
X147063Y37962D01*
X147043Y37960D01*
X146948Y37920D01*
X146850Y37884D01*
X146835Y37872D01*
X146816Y37864D01*
X146686Y37759D01*
X143342Y34415D01*
X126351Y34415D01*
X126261Y34401D01*
X126170Y34393D01*
X126141Y34381D01*
X126109Y34376D01*
X126028Y34333D01*
X125944Y34297D01*
X125912Y34271D01*
X125891Y34260D01*
X125869Y34237D01*
X125813Y34192D01*
X125396Y33775D01*
X125343Y33701D01*
X125283Y33632D01*
X125271Y33601D01*
X125252Y33575D01*
X125225Y33488D01*
X125191Y33403D01*
X125187Y33362D01*
X125180Y33340D01*
X125181Y33308D01*
X125173Y33237D01*
X125173Y27348D01*
X123982Y26157D01*
X114298Y26157D01*
X113107Y27348D01*
X113107Y28126D01*
X113104Y28146D01*
X113106Y28165D01*
X113084Y28267D01*
X113068Y28369D01*
X113058Y28386D01*
X113054Y28406D01*
X113001Y28495D01*
X112952Y28586D01*
X112938Y28600D01*
X112928Y28617D01*
X112849Y28684D01*
X112774Y28756D01*
X112756Y28764D01*
X112741Y28777D01*
X112645Y28816D01*
X112551Y28859D01*
X112531Y28861D01*
X112513Y28869D01*
X112346Y28887D01*
X85717Y28887D01*
X85627Y28873D01*
X85536Y28865D01*
X85507Y28853D01*
X85475Y28848D01*
X85394Y28805D01*
X85310Y28769D01*
X85278Y28743D01*
X85257Y28732D01*
X85235Y28709D01*
X85179Y28664D01*
X84523Y28008D01*
X84455Y27913D01*
X84385Y27820D01*
X84383Y27814D01*
X84380Y27809D01*
X84345Y27698D01*
X84309Y27586D01*
X84309Y27580D01*
X84307Y27574D01*
X84310Y27457D01*
X84311Y27340D01*
X84313Y27333D01*
X84314Y27328D01*
X84320Y27310D01*
X84358Y27179D01*
X84809Y26091D01*
X84809Y22677D01*
X83502Y19523D01*
X81089Y17110D01*
X77935Y15803D01*
X74521Y15803D01*
X71367Y17110D01*
X68954Y19523D01*
X67647Y22677D01*
X67647Y26091D01*
X68954Y29245D01*
X71367Y31658D01*
X73871Y32696D01*
X73932Y32733D01*
X73998Y32762D01*
X74036Y32798D01*
X74080Y32825D01*
X74126Y32881D01*
X74179Y32929D01*
X74204Y32974D01*
X74237Y33015D01*
X74263Y33082D01*
X74298Y33144D01*
X74307Y33196D01*
X74325Y33244D01*
X74328Y33316D01*
X74341Y33386D01*
X74334Y33438D01*
X74336Y33490D01*
X74316Y33559D01*
X74305Y33630D01*
X74282Y33676D01*
X74267Y33726D01*
X74226Y33785D01*
X74194Y33849D01*
X74157Y33886D01*
X74127Y33928D01*
X74070Y33971D01*
X74018Y34021D01*
X73956Y34056D01*
X73930Y34075D01*
X73907Y34082D01*
X73871Y34102D01*
X72178Y34804D01*
X69694Y37288D01*
X68349Y40533D01*
X68349Y44047D01*
X69694Y47292D01*
X72178Y49776D01*
X75423Y51121D01*
X78937Y51121D01*
X82182Y49776D01*
X84666Y47292D01*
X86011Y44047D01*
X86011Y40533D01*
X84666Y37288D01*
X84171Y36792D01*
X84129Y36734D01*
X84080Y36682D01*
X84058Y36635D01*
X84027Y36593D01*
X84006Y36524D01*
X83976Y36459D01*
X83970Y36407D01*
X83955Y36357D01*
X83957Y36286D01*
X83949Y36215D01*
X83960Y36164D01*
X83961Y36112D01*
X83986Y36044D01*
X84001Y35974D01*
X84028Y35929D01*
X84046Y35881D01*
X84091Y35825D01*
X84127Y35763D01*
X84167Y35729D01*
X84199Y35689D01*
X84260Y35650D01*
X84314Y35603D01*
X84363Y35584D01*
X84406Y35556D01*
X84476Y35538D01*
X84542Y35511D01*
X84614Y35503D01*
X84645Y35495D01*
X84668Y35497D01*
X84709Y35493D01*
X89971Y35493D01*
X90042Y35504D01*
X90113Y35506D01*
X90162Y35524D01*
X90214Y35532D01*
X90277Y35566D01*
X90344Y35591D01*
X90385Y35623D01*
X90431Y35648D01*
X90480Y35699D01*
X90536Y35744D01*
X90565Y35788D01*
X90600Y35826D01*
X90631Y35891D01*
X90669Y35951D01*
X90682Y36002D01*
X90704Y36049D01*
X90712Y36120D01*
X90729Y36190D01*
X90725Y36242D01*
X90731Y36293D01*
X90716Y36364D01*
X90710Y36435D01*
X90690Y36483D01*
X90679Y36534D01*
X90642Y36595D01*
X90614Y36661D01*
X90569Y36717D01*
X90553Y36745D01*
X90535Y36760D01*
X90509Y36792D01*
X90014Y37288D01*
X88669Y40533D01*
X88669Y44047D01*
X90014Y47292D01*
X92498Y49776D01*
X95743Y51121D01*
X99257Y51121D01*
X102502Y49776D01*
X104986Y47292D01*
X105496Y46063D01*
X105558Y45963D01*
X105617Y45863D01*
X105622Y45859D01*
X105625Y45854D01*
X105716Y45779D01*
X105804Y45703D01*
X105810Y45701D01*
X105815Y45697D01*
X105923Y45655D01*
X106032Y45611D01*
X106040Y45610D01*
X106044Y45609D01*
X106063Y45608D01*
X106199Y45593D01*
X138397Y45593D01*
X138487Y45607D01*
X138578Y45615D01*
X138607Y45627D01*
X138639Y45632D01*
X138720Y45675D01*
X138804Y45711D01*
X138836Y45737D01*
X138857Y45748D01*
X138879Y45771D01*
X138935Y45816D01*
X146498Y53379D01*
X146567Y53475D01*
X146636Y53568D01*
X146638Y53574D01*
X146642Y53579D01*
X146676Y53691D01*
X146713Y53802D01*
X146713Y53808D01*
X146714Y53814D01*
X146711Y53931D01*
X146710Y54048D01*
X146708Y54055D01*
X146708Y54060D01*
X146702Y54077D01*
X146663Y54209D01*
X146557Y54465D01*
X146557Y57295D01*
X147640Y59909D01*
X149641Y61910D01*
X152255Y62993D01*
X155085Y62993D01*
X157699Y61910D01*
X159700Y59909D01*
X160783Y57295D01*
X160783Y55618D01*
X160798Y55522D01*
X160808Y55425D01*
X160818Y55401D01*
X160822Y55375D01*
X160868Y55289D01*
X160908Y55200D01*
X160925Y55181D01*
X160938Y55158D01*
X161008Y55091D01*
X161074Y55019D01*
X161097Y55007D01*
X161116Y54989D01*
X161204Y54948D01*
X161290Y54901D01*
X161315Y54896D01*
X161339Y54885D01*
X161436Y54874D01*
X161532Y54857D01*
X161558Y54861D01*
X161583Y54858D01*
X161679Y54879D01*
X161775Y54893D01*
X161798Y54905D01*
X161824Y54910D01*
X161907Y54960D01*
X161994Y55004D01*
X162013Y55023D01*
X162035Y55036D01*
X162098Y55110D01*
X162166Y55180D01*
X162182Y55208D01*
X162195Y55223D01*
X162207Y55254D01*
X162247Y55327D01*
X162729Y56490D01*
X164620Y58381D01*
X164675Y58457D01*
X164735Y58529D01*
X164746Y58557D01*
X164763Y58580D01*
X164791Y58671D01*
X164825Y58758D01*
X164827Y58787D01*
X164836Y58815D01*
X164833Y58910D01*
X164838Y59004D01*
X164830Y59032D01*
X164829Y59061D01*
X164797Y59150D01*
X164771Y59241D01*
X164755Y59265D01*
X164745Y59292D01*
X164686Y59366D01*
X164633Y59444D01*
X164604Y59468D01*
X164591Y59484D01*
X164563Y59502D01*
X164504Y59552D01*
X163741Y60062D01*
X162786Y61017D01*
X162035Y62141D01*
X161518Y63389D01*
X161423Y63866D01*
X172558Y63866D01*
X172578Y63869D01*
X172597Y63867D01*
X172699Y63889D01*
X172801Y63906D01*
X172818Y63915D01*
X172838Y63920D01*
X172927Y63973D01*
X173018Y64021D01*
X173032Y64036D01*
X173049Y64046D01*
X173116Y64124D01*
X173187Y64199D01*
X173196Y64217D01*
X173209Y64233D01*
X173248Y64329D01*
X173291Y64423D01*
X173293Y64442D01*
X173301Y64461D01*
X173319Y64628D01*
X173319Y66151D01*
X173316Y66171D01*
X173318Y66191D01*
X173296Y66292D01*
X173279Y66394D01*
X173270Y66412D01*
X173266Y66431D01*
X173213Y66520D01*
X173164Y66612D01*
X173150Y66625D01*
X173140Y66642D01*
X173061Y66710D01*
X172986Y66781D01*
X172968Y66789D01*
X172953Y66802D01*
X172857Y66841D01*
X172763Y66885D01*
X172743Y66887D01*
X172725Y66894D01*
X172558Y66913D01*
X161423Y66913D01*
X161518Y67390D01*
X162035Y68638D01*
X162786Y69762D01*
X163741Y70717D01*
X164504Y71227D01*
X164573Y71291D01*
X164647Y71350D01*
X164663Y71375D01*
X164684Y71395D01*
X164729Y71478D01*
X164780Y71557D01*
X164787Y71586D01*
X164801Y71611D01*
X164817Y71704D01*
X164840Y71796D01*
X164838Y71825D01*
X164843Y71854D01*
X164828Y71947D01*
X164821Y72041D01*
X164809Y72068D01*
X164805Y72097D01*
X164761Y72181D01*
X164724Y72267D01*
X164701Y72296D01*
X164692Y72315D01*
X164668Y72338D01*
X164620Y72398D01*
X162729Y74289D01*
X161762Y76623D01*
X161762Y79149D01*
X162729Y81484D01*
X164516Y83270D01*
X164905Y83431D01*
X164966Y83469D01*
X165031Y83498D01*
X165070Y83534D01*
X165114Y83561D01*
X165159Y83616D01*
X165212Y83665D01*
X165237Y83710D01*
X165271Y83750D01*
X165296Y83817D01*
X165331Y83880D01*
X165340Y83931D01*
X165359Y83980D01*
X165362Y84052D01*
X165375Y84122D01*
X165367Y84174D01*
X165369Y84226D01*
X165349Y84295D01*
X165339Y84366D01*
X165315Y84412D01*
X165301Y84462D01*
X165260Y84521D01*
X165227Y84585D01*
X165190Y84621D01*
X165160Y84664D01*
X165103Y84707D01*
X165052Y84757D01*
X164989Y84792D01*
X164963Y84811D01*
X164941Y84818D01*
X164905Y84838D01*
X164516Y84999D01*
X162729Y86786D01*
X161762Y89120D01*
X161762Y91646D01*
X162729Y93980D01*
X164516Y95767D01*
X164905Y95928D01*
X164966Y95966D01*
X165031Y95995D01*
X165070Y96030D01*
X165114Y96058D01*
X165159Y96113D01*
X165212Y96161D01*
X165237Y96207D01*
X165271Y96247D01*
X165296Y96314D01*
X165331Y96377D01*
X165340Y96428D01*
X165359Y96477D01*
X165362Y96548D01*
X165375Y96619D01*
X165367Y96671D01*
X165369Y96723D01*
X165349Y96791D01*
X165339Y96862D01*
X165315Y96909D01*
X165301Y96959D01*
X165260Y97018D01*
X165227Y97082D01*
X165190Y97118D01*
X165160Y97161D01*
X165103Y97204D01*
X165052Y97254D01*
X164989Y97288D01*
X164963Y97308D01*
X164941Y97315D01*
X164905Y97335D01*
X164516Y97496D01*
X162729Y99282D01*
X161762Y101617D01*
X161762Y104143D01*
X162729Y106477D01*
X164516Y108264D01*
X164905Y108425D01*
X164966Y108463D01*
X165031Y108492D01*
X165070Y108527D01*
X165114Y108554D01*
X165159Y108610D01*
X165212Y108658D01*
X165237Y108704D01*
X165271Y108744D01*
X165296Y108811D01*
X165331Y108874D01*
X165340Y108925D01*
X165359Y108974D01*
X165362Y109045D01*
X165375Y109116D01*
X165367Y109167D01*
X165369Y109219D01*
X165349Y109288D01*
X165339Y109359D01*
X165315Y109406D01*
X165301Y109456D01*
X165260Y109514D01*
X165227Y109578D01*
X165190Y109615D01*
X165160Y109658D01*
X165103Y109700D01*
X165052Y109751D01*
X164989Y109785D01*
X164963Y109804D01*
X164941Y109812D01*
X164905Y109832D01*
X164516Y109993D01*
X162729Y111779D01*
X161762Y114113D01*
X161762Y116640D01*
X162729Y118974D01*
X164516Y120760D01*
X164905Y120922D01*
X164966Y120959D01*
X165031Y120989D01*
X165070Y121024D01*
X165114Y121051D01*
X165159Y121106D01*
X165212Y121155D01*
X165237Y121201D01*
X165271Y121241D01*
X165296Y121308D01*
X165331Y121371D01*
X165340Y121422D01*
X165359Y121470D01*
X165362Y121542D01*
X165375Y121613D01*
X165367Y121664D01*
X165369Y121716D01*
X165349Y121785D01*
X165339Y121856D01*
X165315Y121902D01*
X165301Y121952D01*
X165260Y122011D01*
X165227Y122075D01*
X165190Y122112D01*
X165160Y122154D01*
X165103Y122197D01*
X165052Y122247D01*
X164989Y122282D01*
X164963Y122301D01*
X164941Y122308D01*
X164905Y122328D01*
X164516Y122489D01*
X162729Y124276D01*
X161762Y126610D01*
X161762Y129137D01*
X162729Y131471D01*
X164516Y133257D01*
X164905Y133418D01*
X164966Y133456D01*
X165031Y133485D01*
X165070Y133521D01*
X165114Y133548D01*
X165159Y133603D01*
X165212Y133652D01*
X165237Y133697D01*
X165271Y133738D01*
X165296Y133804D01*
X165331Y133867D01*
X165340Y133919D01*
X165359Y133967D01*
X165362Y134039D01*
X165375Y134109D01*
X165367Y134161D01*
X165369Y134213D01*
X165349Y134282D01*
X165339Y134353D01*
X165315Y134399D01*
X165301Y134449D01*
X165260Y134508D01*
X165227Y134572D01*
X165190Y134608D01*
X165160Y134651D01*
X165103Y134694D01*
X165052Y134744D01*
X164989Y134779D01*
X164963Y134798D01*
X164941Y134805D01*
X164905Y134825D01*
X164516Y134986D01*
X162729Y136773D01*
X161762Y139107D01*
X161762Y141633D01*
X162729Y143968D01*
X164516Y145754D01*
X164905Y145915D01*
X164966Y145953D01*
X165031Y145982D01*
X165070Y146017D01*
X165114Y146045D01*
X165159Y146100D01*
X165212Y146149D01*
X165237Y146194D01*
X165271Y146234D01*
X165296Y146301D01*
X165331Y146364D01*
X165340Y146415D01*
X165359Y146464D01*
X165362Y146536D01*
X165375Y146606D01*
X165367Y146658D01*
X165369Y146710D01*
X165349Y146778D01*
X165339Y146850D01*
X165315Y146896D01*
X165301Y146946D01*
X165260Y147005D01*
X165227Y147069D01*
X165190Y147105D01*
X165160Y147148D01*
X165103Y147191D01*
X165052Y147241D01*
X164989Y147276D01*
X164963Y147295D01*
X164941Y147302D01*
X164905Y147322D01*
X164516Y147483D01*
X162729Y149270D01*
X161762Y151604D01*
X161762Y154130D01*
X162729Y156464D01*
X164516Y158251D01*
X164905Y158412D01*
X164966Y158450D01*
X165031Y158479D01*
X165069Y158514D01*
X165114Y158542D01*
X165160Y158597D01*
X165212Y158645D01*
X165237Y158691D01*
X165271Y158731D01*
X165296Y158798D01*
X165331Y158861D01*
X165340Y158912D01*
X165359Y158961D01*
X165362Y159032D01*
X165375Y159103D01*
X165367Y159154D01*
X165369Y159206D01*
X165349Y159275D01*
X165339Y159346D01*
X165315Y159393D01*
X165301Y159443D01*
X165260Y159502D01*
X165227Y159566D01*
X165190Y159602D01*
X165160Y159645D01*
X165103Y159688D01*
X165052Y159738D01*
X164989Y159772D01*
X164963Y159792D01*
X164941Y159799D01*
X164905Y159819D01*
X164516Y159980D01*
X163445Y161051D01*
X163396Y161086D01*
X163353Y161129D01*
X163296Y161157D01*
X163245Y161194D01*
X163187Y161212D01*
X163133Y161239D01*
X163070Y161248D01*
X163010Y161266D01*
X162949Y161265D01*
X162889Y161273D01*
X162827Y161262D01*
X162764Y161260D01*
X162707Y161239D01*
X162648Y161228D01*
X162592Y161197D01*
X162533Y161176D01*
X162486Y161138D01*
X162433Y161108D01*
X162367Y161042D01*
X162341Y161022D01*
X162332Y161008D01*
X162314Y160990D01*
X159301Y157252D01*
X159276Y157207D01*
X159243Y157169D01*
X159216Y157101D01*
X159180Y157038D01*
X159170Y156988D01*
X159151Y156941D01*
X159138Y156822D01*
X159133Y156796D01*
X159134Y156787D01*
X159133Y156774D01*
X159133Y149978D01*
X157860Y148705D01*
X157849Y148689D01*
X157833Y148677D01*
X157777Y148589D01*
X157717Y148506D01*
X157711Y148487D01*
X157700Y148470D01*
X157675Y148369D01*
X157644Y148271D01*
X157645Y148251D01*
X157640Y148231D01*
X157648Y148128D01*
X157651Y148025D01*
X157657Y148006D01*
X157659Y147986D01*
X157699Y147891D01*
X157735Y147794D01*
X157748Y147778D01*
X157755Y147760D01*
X157860Y147629D01*
X158430Y147059D01*
X159513Y144445D01*
X159513Y141615D01*
X158430Y139001D01*
X156429Y137000D01*
X156173Y136894D01*
X156074Y136833D01*
X155973Y136772D01*
X155969Y136768D01*
X155964Y136764D01*
X155890Y136675D01*
X155813Y136586D01*
X155811Y136580D01*
X155807Y136575D01*
X155765Y136467D01*
X155721Y136357D01*
X155720Y136350D01*
X155719Y136345D01*
X155718Y136327D01*
X155703Y136191D01*
X155703Y86177D01*
X155717Y86087D01*
X155725Y85996D01*
X155737Y85967D01*
X155742Y85935D01*
X155785Y85854D01*
X155821Y85770D01*
X155847Y85738D01*
X155858Y85717D01*
X155881Y85695D01*
X155926Y85639D01*
X156863Y84702D01*
X156863Y75018D01*
X155672Y73827D01*
X145988Y73827D01*
X144797Y75018D01*
X144797Y84702D01*
X145988Y85893D01*
X148336Y85893D01*
X148356Y85896D01*
X148375Y85894D01*
X148477Y85916D01*
X148579Y85932D01*
X148596Y85942D01*
X148616Y85946D01*
X148705Y85999D01*
X148796Y86048D01*
X148810Y86062D01*
X148827Y86072D01*
X148894Y86151D01*
X148966Y86226D01*
X148974Y86244D01*
X148987Y86259D01*
X149026Y86355D01*
X149069Y86449D01*
X149071Y86469D01*
X149079Y86487D01*
X149097Y86654D01*
X149097Y100626D01*
X149086Y100697D01*
X149084Y100769D01*
X149066Y100818D01*
X149058Y100869D01*
X149024Y100932D01*
X148999Y101000D01*
X148967Y101040D01*
X148942Y101086D01*
X148890Y101136D01*
X148846Y101192D01*
X148802Y101220D01*
X148764Y101256D01*
X148699Y101286D01*
X148639Y101325D01*
X148588Y101338D01*
X148541Y101359D01*
X148470Y101367D01*
X148400Y101385D01*
X148348Y101381D01*
X148297Y101387D01*
X148226Y101371D01*
X148155Y101366D01*
X148107Y101345D01*
X148056Y101334D01*
X147995Y101297D01*
X147929Y101269D01*
X147873Y101225D01*
X147845Y101208D01*
X147830Y101190D01*
X147798Y101165D01*
X147700Y101067D01*
X147121Y100732D01*
X146474Y100559D01*
X143663Y100559D01*
X143663Y106338D01*
X143660Y106358D01*
X143662Y106377D01*
X143640Y106479D01*
X143623Y106581D01*
X143614Y106598D01*
X143610Y106618D01*
X143557Y106707D01*
X143508Y106798D01*
X143494Y106812D01*
X143484Y106829D01*
X143405Y106896D01*
X143330Y106967D01*
X143312Y106976D01*
X143297Y106989D01*
X143201Y107028D01*
X143107Y107071D01*
X143087Y107073D01*
X143069Y107081D01*
X142902Y107099D01*
X141378Y107099D01*
X141358Y107096D01*
X141339Y107098D01*
X141237Y107076D01*
X141135Y107059D01*
X141118Y107050D01*
X141098Y107046D01*
X141009Y106993D01*
X140918Y106944D01*
X140904Y106930D01*
X140887Y106920D01*
X140820Y106841D01*
X140749Y106766D01*
X140740Y106748D01*
X140727Y106733D01*
X140688Y106637D01*
X140645Y106543D01*
X140643Y106523D01*
X140635Y106505D01*
X140617Y106338D01*
X140617Y100559D01*
X137806Y100559D01*
X137159Y100732D01*
X136580Y101067D01*
X136107Y101540D01*
X135769Y102125D01*
X135729Y102214D01*
X135689Y102313D01*
X135679Y102325D01*
X135672Y102340D01*
X135599Y102418D01*
X135529Y102500D01*
X135516Y102508D01*
X135505Y102520D01*
X135410Y102571D01*
X135318Y102626D01*
X135303Y102630D01*
X135289Y102637D01*
X135182Y102656D01*
X135078Y102679D01*
X135062Y102677D01*
X135046Y102680D01*
X134940Y102664D01*
X134833Y102652D01*
X134819Y102645D01*
X134803Y102643D01*
X134708Y102593D01*
X134610Y102548D01*
X134599Y102537D01*
X134585Y102530D01*
X134510Y102453D01*
X134432Y102379D01*
X134422Y102362D01*
X134413Y102354D01*
X134400Y102326D01*
X134346Y102235D01*
X130203Y93163D01*
X121295Y82883D01*
X109852Y75529D01*
X96801Y71697D01*
X12700Y71697D01*
X12674Y71693D01*
X12625Y71694D01*
X10941Y71528D01*
X10913Y71520D01*
X10885Y71520D01*
X10724Y71473D01*
X7611Y70184D01*
X7555Y70149D01*
X7495Y70124D01*
X7430Y70072D01*
X7402Y70054D01*
X7389Y70039D01*
X7364Y70019D01*
X4981Y67636D01*
X4943Y67583D01*
X4897Y67536D01*
X4857Y67463D01*
X4838Y67436D01*
X4832Y67418D01*
X4816Y67389D01*
X3527Y64276D01*
X3520Y64249D01*
X3507Y64224D01*
X3472Y64059D01*
X3306Y62375D01*
X3308Y62348D01*
X3303Y62300D01*
X3303Y12700D01*
X3307Y12674D01*
X3306Y12625D01*
X3472Y10941D01*
X3480Y10913D01*
X3480Y10885D01*
X3527Y10724D01*
X4816Y7611D01*
X4851Y7555D01*
X4876Y7495D01*
X4928Y7430D01*
X4946Y7402D01*
X4961Y7389D01*
X4981Y7364D01*
X7364Y4981D01*
X7417Y4943D01*
X7464Y4897D01*
X7537Y4857D01*
X7564Y4838D01*
X7582Y4832D01*
X7611Y4816D01*
X10724Y3527D01*
X10751Y3520D01*
X10776Y3507D01*
X10941Y3472D01*
X12625Y3306D01*
X12652Y3308D01*
X12700Y3303D01*
X410685Y3303D01*
X410755Y3314D01*
G37*
%LPC*%
G36*
X197457Y11363D02*
X197457Y11363D01*
X195123Y12330D01*
X193336Y14116D01*
X192369Y16450D01*
X192369Y29391D01*
X193336Y31725D01*
X195123Y33511D01*
X197457Y34478D01*
X199983Y34478D01*
X202317Y33511D01*
X204104Y31725D01*
X204265Y31336D01*
X204303Y31275D01*
X204332Y31209D01*
X204367Y31171D01*
X204395Y31127D01*
X204450Y31081D01*
X204498Y31028D01*
X204544Y31003D01*
X204584Y30970D01*
X204651Y30944D01*
X204714Y30910D01*
X204765Y30900D01*
X204814Y30882D01*
X204885Y30879D01*
X204956Y30866D01*
X205008Y30873D01*
X205060Y30871D01*
X205128Y30891D01*
X205199Y30902D01*
X205246Y30925D01*
X205296Y30940D01*
X205355Y30981D01*
X205419Y31013D01*
X205455Y31050D01*
X205498Y31080D01*
X205541Y31138D01*
X205591Y31189D01*
X205625Y31252D01*
X205645Y31277D01*
X205652Y31300D01*
X205672Y31336D01*
X205833Y31725D01*
X207619Y33511D01*
X209954Y34478D01*
X212480Y34478D01*
X214814Y33511D01*
X216601Y31725D01*
X216762Y31336D01*
X216800Y31275D01*
X216829Y31209D01*
X216864Y31171D01*
X216891Y31127D01*
X216947Y31081D01*
X216995Y31028D01*
X217041Y31003D01*
X217081Y30970D01*
X217148Y30944D01*
X217211Y30910D01*
X217262Y30900D01*
X217311Y30882D01*
X217382Y30879D01*
X217453Y30866D01*
X217504Y30873D01*
X217556Y30871D01*
X217625Y30891D01*
X217696Y30902D01*
X217743Y30925D01*
X217793Y30940D01*
X217851Y30981D01*
X217915Y31013D01*
X217952Y31050D01*
X217995Y31080D01*
X218037Y31138D01*
X218088Y31189D01*
X218122Y31252D01*
X218141Y31277D01*
X218149Y31300D01*
X218168Y31336D01*
X218330Y31725D01*
X220116Y33511D01*
X222450Y34478D01*
X224977Y34478D01*
X227311Y33511D01*
X229097Y31725D01*
X229259Y31336D01*
X229296Y31275D01*
X229326Y31209D01*
X229361Y31171D01*
X229388Y31127D01*
X229443Y31081D01*
X229492Y31028D01*
X229538Y31003D01*
X229578Y30970D01*
X229645Y30944D01*
X229708Y30910D01*
X229759Y30900D01*
X229807Y30882D01*
X229879Y30879D01*
X229950Y30866D01*
X230001Y30873D01*
X230053Y30871D01*
X230122Y30891D01*
X230193Y30902D01*
X230239Y30925D01*
X230289Y30940D01*
X230348Y30981D01*
X230412Y31013D01*
X230449Y31050D01*
X230491Y31080D01*
X230534Y31138D01*
X230584Y31189D01*
X230619Y31252D01*
X230638Y31277D01*
X230645Y31300D01*
X230665Y31336D01*
X230826Y31725D01*
X232613Y33511D01*
X234947Y34478D01*
X237474Y34478D01*
X239808Y33511D01*
X241594Y31725D01*
X241755Y31336D01*
X241793Y31275D01*
X241822Y31209D01*
X241858Y31171D01*
X241885Y31127D01*
X241940Y31081D01*
X241989Y31028D01*
X242034Y31003D01*
X242075Y30970D01*
X242141Y30944D01*
X242204Y30910D01*
X242256Y30900D01*
X242304Y30882D01*
X242376Y30879D01*
X242446Y30866D01*
X242498Y30873D01*
X242550Y30871D01*
X242619Y30891D01*
X242690Y30902D01*
X242736Y30925D01*
X242786Y30940D01*
X242845Y30981D01*
X242909Y31013D01*
X242945Y31050D01*
X242988Y31080D01*
X243031Y31138D01*
X243081Y31189D01*
X243116Y31252D01*
X243135Y31277D01*
X243142Y31300D01*
X243162Y31336D01*
X243323Y31725D01*
X245110Y33511D01*
X247444Y34478D01*
X249970Y34478D01*
X252305Y33511D01*
X254091Y31725D01*
X254252Y31336D01*
X254290Y31275D01*
X254319Y31209D01*
X254354Y31171D01*
X254382Y31127D01*
X254437Y31081D01*
X254486Y31028D01*
X254531Y31003D01*
X254571Y30970D01*
X254638Y30944D01*
X254701Y30910D01*
X254752Y30900D01*
X254801Y30882D01*
X254873Y30879D01*
X254943Y30866D01*
X254995Y30873D01*
X255047Y30871D01*
X255115Y30891D01*
X255186Y30902D01*
X255233Y30925D01*
X255283Y30940D01*
X255342Y30981D01*
X255406Y31013D01*
X255442Y31050D01*
X255485Y31080D01*
X255528Y31138D01*
X255578Y31189D01*
X255612Y31252D01*
X255632Y31277D01*
X255639Y31300D01*
X255659Y31336D01*
X255820Y31725D01*
X257606Y33511D01*
X259941Y34478D01*
X262467Y34478D01*
X264801Y33511D01*
X266588Y31725D01*
X266749Y31336D01*
X266787Y31275D01*
X266816Y31209D01*
X266851Y31171D01*
X266879Y31127D01*
X266934Y31081D01*
X266982Y31028D01*
X267028Y31003D01*
X267068Y30970D01*
X267135Y30944D01*
X267198Y30910D01*
X267249Y30900D01*
X267298Y30882D01*
X267369Y30879D01*
X267440Y30866D01*
X267491Y30873D01*
X267543Y30871D01*
X267612Y30891D01*
X267683Y30902D01*
X267730Y30925D01*
X267780Y30940D01*
X267839Y30981D01*
X267903Y31013D01*
X267939Y31050D01*
X267982Y31080D01*
X268024Y31138D01*
X268075Y31189D01*
X268109Y31252D01*
X268129Y31277D01*
X268136Y31300D01*
X268156Y31336D01*
X268317Y31725D01*
X270103Y33511D01*
X272437Y34478D01*
X274964Y34478D01*
X277298Y33511D01*
X279085Y31725D01*
X279246Y31336D01*
X279283Y31275D01*
X279313Y31209D01*
X279348Y31171D01*
X279375Y31127D01*
X279431Y31081D01*
X279479Y31028D01*
X279525Y31003D01*
X279565Y30970D01*
X279632Y30944D01*
X279695Y30910D01*
X279746Y30900D01*
X279794Y30882D01*
X279866Y30879D01*
X279937Y30866D01*
X279988Y30873D01*
X280040Y30871D01*
X280109Y30891D01*
X280180Y30902D01*
X280227Y30925D01*
X280276Y30940D01*
X280335Y30981D01*
X280399Y31013D01*
X280436Y31050D01*
X280478Y31080D01*
X280521Y31138D01*
X280572Y31189D01*
X280606Y31252D01*
X280625Y31277D01*
X280633Y31300D01*
X280652Y31336D01*
X280814Y31725D01*
X282600Y33511D01*
X284934Y34478D01*
X287461Y34478D01*
X289795Y33511D01*
X291581Y31725D01*
X292548Y29391D01*
X292548Y16450D01*
X291581Y14116D01*
X289795Y12330D01*
X287461Y11363D01*
X284934Y11363D01*
X282600Y12330D01*
X280814Y14116D01*
X280652Y14505D01*
X280615Y14566D01*
X280585Y14632D01*
X280550Y14670D01*
X280523Y14714D01*
X280468Y14760D01*
X280419Y14813D01*
X280373Y14838D01*
X280333Y14871D01*
X280266Y14897D01*
X280204Y14931D01*
X280152Y14941D01*
X280104Y14959D01*
X280032Y14962D01*
X279961Y14975D01*
X279910Y14968D01*
X279858Y14970D01*
X279789Y14950D01*
X279718Y14939D01*
X279672Y14916D01*
X279622Y14901D01*
X279563Y14860D01*
X279499Y14828D01*
X279462Y14791D01*
X279420Y14761D01*
X279377Y14703D01*
X279327Y14652D01*
X279292Y14589D01*
X279273Y14564D01*
X279266Y14541D01*
X279246Y14505D01*
X279085Y14116D01*
X277298Y12330D01*
X274964Y11363D01*
X272437Y11363D01*
X270103Y12330D01*
X268317Y14116D01*
X268156Y14505D01*
X268118Y14566D01*
X268089Y14632D01*
X268053Y14670D01*
X268026Y14714D01*
X267971Y14760D01*
X267922Y14813D01*
X267877Y14838D01*
X267837Y14871D01*
X267770Y14897D01*
X267707Y14931D01*
X267655Y14941D01*
X267607Y14959D01*
X267535Y14962D01*
X267465Y14975D01*
X267413Y14968D01*
X267361Y14970D01*
X267292Y14950D01*
X267221Y14939D01*
X267175Y14916D01*
X267125Y14901D01*
X267066Y14860D01*
X267002Y14828D01*
X266966Y14791D01*
X266923Y14761D01*
X266880Y14703D01*
X266830Y14652D01*
X266795Y14589D01*
X266776Y14564D01*
X266769Y14541D01*
X266749Y14505D01*
X266588Y14116D01*
X264801Y12330D01*
X262467Y11363D01*
X259941Y11363D01*
X257606Y12330D01*
X255820Y14116D01*
X255659Y14505D01*
X255621Y14566D01*
X255592Y14632D01*
X255557Y14670D01*
X255529Y14714D01*
X255474Y14760D01*
X255425Y14813D01*
X255380Y14838D01*
X255340Y14871D01*
X255273Y14897D01*
X255210Y14931D01*
X255159Y14941D01*
X255110Y14959D01*
X255039Y14962D01*
X254968Y14975D01*
X254916Y14968D01*
X254864Y14970D01*
X254796Y14950D01*
X254725Y14939D01*
X254678Y14916D01*
X254628Y14901D01*
X254569Y14860D01*
X254505Y14828D01*
X254469Y14791D01*
X254426Y14761D01*
X254383Y14703D01*
X254333Y14652D01*
X254299Y14589D01*
X254279Y14564D01*
X254272Y14541D01*
X254252Y14505D01*
X254091Y14116D01*
X252305Y12330D01*
X249970Y11363D01*
X247444Y11363D01*
X245110Y12330D01*
X243323Y14116D01*
X243162Y14505D01*
X243124Y14566D01*
X243095Y14632D01*
X243060Y14670D01*
X243032Y14714D01*
X242977Y14760D01*
X242929Y14813D01*
X242883Y14838D01*
X242843Y14871D01*
X242776Y14897D01*
X242713Y14931D01*
X242662Y14941D01*
X242613Y14959D01*
X242542Y14962D01*
X242471Y14975D01*
X242420Y14968D01*
X242368Y14970D01*
X242299Y14950D01*
X242228Y14939D01*
X242181Y14916D01*
X242131Y14901D01*
X242073Y14860D01*
X242009Y14828D01*
X241972Y14791D01*
X241929Y14761D01*
X241887Y14703D01*
X241836Y14652D01*
X241802Y14589D01*
X241783Y14564D01*
X241775Y14541D01*
X241755Y14505D01*
X241594Y14116D01*
X239808Y12330D01*
X237474Y11363D01*
X234947Y11363D01*
X232613Y12330D01*
X230826Y14116D01*
X230665Y14505D01*
X230628Y14566D01*
X230598Y14632D01*
X230563Y14670D01*
X230536Y14714D01*
X230480Y14760D01*
X230432Y14813D01*
X230386Y14838D01*
X230346Y14871D01*
X230279Y14897D01*
X230216Y14931D01*
X230165Y14941D01*
X230117Y14959D01*
X230045Y14962D01*
X229974Y14975D01*
X229923Y14968D01*
X229871Y14970D01*
X229802Y14950D01*
X229731Y14939D01*
X229685Y14916D01*
X229635Y14901D01*
X229576Y14860D01*
X229512Y14828D01*
X229475Y14791D01*
X229433Y14761D01*
X229390Y14703D01*
X229340Y14652D01*
X229305Y14589D01*
X229286Y14564D01*
X229278Y14541D01*
X229259Y14505D01*
X229097Y14116D01*
X227311Y12330D01*
X224977Y11363D01*
X222450Y11363D01*
X220116Y12330D01*
X218330Y14116D01*
X218168Y14505D01*
X218131Y14566D01*
X218102Y14632D01*
X218066Y14670D01*
X218039Y14714D01*
X217984Y14760D01*
X217935Y14813D01*
X217889Y14838D01*
X217849Y14871D01*
X217783Y14897D01*
X217720Y14931D01*
X217668Y14941D01*
X217620Y14959D01*
X217548Y14962D01*
X217478Y14975D01*
X217426Y14968D01*
X217374Y14970D01*
X217305Y14950D01*
X217234Y14939D01*
X217188Y14916D01*
X217138Y14901D01*
X217079Y14860D01*
X217015Y14828D01*
X216978Y14791D01*
X216936Y14761D01*
X216893Y14703D01*
X216843Y14652D01*
X216808Y14589D01*
X216789Y14564D01*
X216782Y14541D01*
X216762Y14505D01*
X216601Y14116D01*
X214814Y12330D01*
X212480Y11363D01*
X209954Y11363D01*
X207619Y12330D01*
X205833Y14116D01*
X205672Y14505D01*
X205634Y14566D01*
X205605Y14632D01*
X205570Y14670D01*
X205542Y14714D01*
X205487Y14760D01*
X205438Y14813D01*
X205393Y14838D01*
X205353Y14871D01*
X205286Y14897D01*
X205223Y14931D01*
X205172Y14941D01*
X205123Y14959D01*
X205051Y14962D01*
X204981Y14975D01*
X204929Y14968D01*
X204877Y14970D01*
X204808Y14950D01*
X204737Y14939D01*
X204691Y14916D01*
X204641Y14901D01*
X204582Y14860D01*
X204518Y14828D01*
X204482Y14791D01*
X204439Y14761D01*
X204396Y14703D01*
X204346Y14652D01*
X204311Y14589D01*
X204292Y14564D01*
X204285Y14541D01*
X204265Y14505D01*
X204104Y14116D01*
X202317Y12330D01*
X199983Y11363D01*
X197457Y11363D01*
G37*
%LPD*%
G36*
X133856Y149186D02*
X133856Y149186D01*
X133908Y149187D01*
X133976Y149212D01*
X134046Y149227D01*
X134091Y149254D01*
X134139Y149271D01*
X134195Y149316D01*
X134257Y149353D01*
X134291Y149393D01*
X134331Y149425D01*
X134370Y149485D01*
X134417Y149540D01*
X134436Y149588D01*
X134464Y149632D01*
X134482Y149702D01*
X134509Y149768D01*
X134517Y149839D01*
X134525Y149871D01*
X134523Y149894D01*
X134527Y149935D01*
X134527Y159262D01*
X135718Y160453D01*
X145402Y160453D01*
X146092Y159763D01*
X146108Y159751D01*
X146120Y159736D01*
X146208Y159680D01*
X146291Y159619D01*
X146310Y159614D01*
X146327Y159603D01*
X146428Y159578D01*
X146527Y159547D01*
X146546Y159548D01*
X146566Y159543D01*
X146669Y159551D01*
X146772Y159553D01*
X146791Y159560D01*
X146811Y159562D01*
X146906Y159602D01*
X147003Y159638D01*
X147019Y159650D01*
X147037Y159658D01*
X147168Y159763D01*
X148258Y160853D01*
X153356Y160853D01*
X153364Y160854D01*
X153373Y160853D01*
X153486Y160874D01*
X153598Y160892D01*
X153606Y160897D01*
X153615Y160898D01*
X153715Y160954D01*
X153816Y161008D01*
X153822Y161014D01*
X153829Y161018D01*
X153948Y161136D01*
X154870Y162280D01*
X154886Y162307D01*
X154907Y162330D01*
X154946Y162414D01*
X154992Y162494D01*
X154998Y162525D01*
X155011Y162553D01*
X155021Y162645D01*
X155039Y162736D01*
X155034Y162767D01*
X155038Y162798D01*
X155018Y162888D01*
X155006Y162980D01*
X154992Y163007D01*
X154986Y163038D01*
X154938Y163117D01*
X154897Y163200D01*
X154875Y163222D01*
X154859Y163249D01*
X154789Y163309D01*
X154724Y163375D01*
X154696Y163389D01*
X154672Y163409D01*
X154623Y163429D01*
X154623Y168537D01*
X159784Y168537D01*
X159874Y168552D01*
X159965Y168559D01*
X159995Y168571D01*
X160027Y168577D01*
X160107Y168619D01*
X160191Y168655D01*
X160205Y168666D01*
X161379Y168666D01*
X161407Y168671D01*
X161460Y168671D01*
X162290Y168760D01*
X162339Y168774D01*
X162389Y168777D01*
X162456Y168806D01*
X162527Y168825D01*
X162569Y168854D01*
X162616Y168874D01*
X162709Y168948D01*
X162731Y168963D01*
X162736Y168970D01*
X162747Y168979D01*
X164620Y170852D01*
X164675Y170928D01*
X164735Y171000D01*
X164746Y171028D01*
X164763Y171051D01*
X164791Y171141D01*
X164825Y171229D01*
X164827Y171258D01*
X164836Y171286D01*
X164833Y171381D01*
X164838Y171475D01*
X164830Y171503D01*
X164829Y171532D01*
X164797Y171621D01*
X164771Y171712D01*
X164755Y171736D01*
X164745Y171763D01*
X164686Y171837D01*
X164633Y171915D01*
X164604Y171939D01*
X164591Y171955D01*
X164563Y171973D01*
X164504Y172023D01*
X163741Y172533D01*
X162786Y173488D01*
X162035Y174612D01*
X161518Y175860D01*
X161423Y176337D01*
X172558Y176337D01*
X172578Y176341D01*
X172597Y176338D01*
X172699Y176360D01*
X172801Y176377D01*
X172818Y176386D01*
X172838Y176391D01*
X172927Y176444D01*
X173018Y176492D01*
X173032Y176507D01*
X173049Y176517D01*
X173116Y176595D01*
X173187Y176670D01*
X173196Y176689D01*
X173209Y176704D01*
X173248Y176800D01*
X173291Y176894D01*
X173293Y176913D01*
X173301Y176932D01*
X173319Y177099D01*
X173319Y178622D01*
X173316Y178642D01*
X173318Y178662D01*
X173296Y178763D01*
X173279Y178865D01*
X173270Y178883D01*
X173266Y178902D01*
X173213Y178991D01*
X173164Y179083D01*
X173150Y179096D01*
X173140Y179113D01*
X173061Y179181D01*
X172986Y179252D01*
X172968Y179260D01*
X172953Y179273D01*
X172857Y179312D01*
X172763Y179356D01*
X172743Y179358D01*
X172725Y179365D01*
X172558Y179384D01*
X161423Y179384D01*
X161516Y179851D01*
X161519Y179946D01*
X161530Y180039D01*
X161523Y180068D01*
X161524Y180097D01*
X161497Y180188D01*
X161477Y180280D01*
X161462Y180305D01*
X161454Y180333D01*
X161400Y180410D01*
X161351Y180491D01*
X161329Y180510D01*
X161312Y180534D01*
X161236Y180590D01*
X161164Y180651D01*
X161137Y180662D01*
X161113Y180679D01*
X161024Y180707D01*
X160936Y180743D01*
X160899Y180747D01*
X160879Y180753D01*
X160846Y180753D01*
X160769Y180761D01*
X123252Y180761D01*
X123181Y180750D01*
X123109Y180748D01*
X123060Y180730D01*
X123009Y180722D01*
X122946Y180688D01*
X122878Y180663D01*
X122837Y180631D01*
X122791Y180606D01*
X122742Y180555D01*
X122686Y180510D01*
X122658Y180466D01*
X122622Y180428D01*
X122592Y180363D01*
X122553Y180303D01*
X122540Y180252D01*
X122518Y180205D01*
X122511Y180134D01*
X122493Y180064D01*
X122497Y180012D01*
X122491Y179961D01*
X122507Y179890D01*
X122512Y179819D01*
X122533Y179771D01*
X122544Y179720D01*
X122580Y179659D01*
X122608Y179593D01*
X122653Y179537D01*
X122670Y179509D01*
X122688Y179494D01*
X122713Y179462D01*
X122844Y179331D01*
X124151Y176177D01*
X124151Y172763D01*
X122844Y169609D01*
X120431Y167196D01*
X117173Y165846D01*
X117134Y165822D01*
X117091Y165806D01*
X117030Y165758D01*
X116964Y165717D01*
X116935Y165681D01*
X116899Y165653D01*
X116857Y165587D01*
X116807Y165527D01*
X116791Y165484D01*
X116766Y165446D01*
X116747Y165370D01*
X116719Y165298D01*
X116717Y165252D01*
X116706Y165207D01*
X116712Y165130D01*
X116709Y165052D01*
X116721Y165008D01*
X116725Y164962D01*
X116755Y164890D01*
X116777Y164816D01*
X116803Y164778D01*
X116821Y164736D01*
X116907Y164629D01*
X116917Y164614D01*
X116921Y164611D01*
X116926Y164605D01*
X119065Y162466D01*
X119139Y162412D01*
X119209Y162353D01*
X119239Y162341D01*
X119265Y162322D01*
X119352Y162295D01*
X119437Y162261D01*
X119478Y162256D01*
X119500Y162250D01*
X119532Y162250D01*
X119604Y162243D01*
X120382Y162243D01*
X122539Y160085D01*
X133228Y149397D01*
X133286Y149355D01*
X133338Y149305D01*
X133385Y149283D01*
X133427Y149253D01*
X133496Y149232D01*
X133561Y149202D01*
X133613Y149196D01*
X133663Y149181D01*
X133734Y149183D01*
X133805Y149175D01*
X133856Y149186D01*
G37*
G36*
X469258Y166221D02*
X469258Y166221D01*
X469287Y166218D01*
X469452Y166243D01*
X472181Y166967D01*
X472241Y166994D01*
X472304Y167012D01*
X472376Y167055D01*
X472406Y167068D01*
X472420Y167081D01*
X472448Y167098D01*
X474692Y168812D01*
X474737Y168859D01*
X474788Y168900D01*
X474838Y168967D01*
X474860Y168991D01*
X474869Y169008D01*
X474888Y169035D01*
X476305Y171477D01*
X476315Y171503D01*
X476332Y171526D01*
X476388Y171684D01*
X476677Y172912D01*
X476677Y172916D01*
X476679Y172920D01*
X476697Y173087D01*
X476697Y179871D01*
X476694Y179890D01*
X476696Y179909D01*
X476674Y180011D01*
X476658Y180114D01*
X476649Y180131D01*
X476645Y180149D01*
X476591Y180239D01*
X476542Y180332D01*
X476529Y180344D01*
X476519Y180361D01*
X476440Y180429D01*
X476364Y180501D01*
X476347Y180509D01*
X476333Y180521D01*
X476236Y180560D01*
X476141Y180605D01*
X476122Y180607D01*
X476105Y180614D01*
X475938Y180633D01*
X462374Y180671D01*
X462353Y180667D01*
X462333Y180670D01*
X462232Y180648D01*
X462131Y180632D01*
X462113Y180622D01*
X462092Y180617D01*
X462004Y180565D01*
X461914Y180517D01*
X461899Y180502D01*
X461881Y180491D01*
X461815Y180413D01*
X461744Y180339D01*
X461735Y180320D01*
X461721Y180304D01*
X461683Y180209D01*
X461639Y180116D01*
X461637Y180096D01*
X461629Y180076D01*
X461611Y179909D01*
X461611Y174846D01*
X461438Y174199D01*
X461103Y173620D01*
X460630Y173147D01*
X460051Y172812D01*
X459404Y172639D01*
X457093Y172639D01*
X457093Y179926D01*
X457091Y179940D01*
X457092Y179952D01*
X457091Y179956D01*
X457092Y179964D01*
X457070Y180066D01*
X457053Y180169D01*
X457045Y180186D01*
X457041Y180204D01*
X456987Y180294D01*
X456938Y180386D01*
X456925Y180399D01*
X456915Y180416D01*
X456836Y180484D01*
X456760Y180556D01*
X456743Y180564D01*
X456729Y180576D01*
X456632Y180615D01*
X456537Y180659D01*
X456518Y180661D01*
X456501Y180669D01*
X456334Y180688D01*
X454810Y180692D01*
X454789Y180688D01*
X454769Y180691D01*
X454668Y180669D01*
X454567Y180653D01*
X454549Y180643D01*
X454528Y180639D01*
X454440Y180586D01*
X454350Y180538D01*
X454335Y180523D01*
X454317Y180512D01*
X454251Y180435D01*
X454180Y180360D01*
X454171Y180341D01*
X454157Y180325D01*
X454119Y180230D01*
X454075Y180138D01*
X454073Y180117D01*
X454065Y180097D01*
X454047Y179931D01*
X454047Y172639D01*
X451736Y172639D01*
X451089Y172812D01*
X450510Y173147D01*
X450037Y173620D01*
X449702Y174199D01*
X449529Y174846D01*
X449529Y179947D01*
X449526Y179966D01*
X449528Y179985D01*
X449506Y180087D01*
X449490Y180190D01*
X449481Y180207D01*
X449477Y180225D01*
X449423Y180316D01*
X449374Y180408D01*
X449361Y180421D01*
X449351Y180437D01*
X449272Y180505D01*
X449196Y180577D01*
X449179Y180585D01*
X449165Y180597D01*
X449068Y180637D01*
X448973Y180681D01*
X448954Y180683D01*
X448937Y180690D01*
X448770Y180709D01*
X431866Y180756D01*
X431845Y180753D01*
X431825Y180755D01*
X431724Y180733D01*
X431623Y180717D01*
X431605Y180707D01*
X431584Y180703D01*
X431496Y180650D01*
X431406Y180603D01*
X431391Y180587D01*
X431373Y180577D01*
X431307Y180499D01*
X431236Y180425D01*
X431227Y180406D01*
X431213Y180390D01*
X431175Y180295D01*
X431131Y180202D01*
X431129Y180181D01*
X431121Y180161D01*
X431103Y179995D01*
X431103Y174338D01*
X429912Y173147D01*
X425246Y173147D01*
X425226Y173144D01*
X425207Y173146D01*
X425105Y173124D01*
X425003Y173108D01*
X424986Y173098D01*
X424966Y173094D01*
X424877Y173041D01*
X424786Y172992D01*
X424772Y172978D01*
X424755Y172968D01*
X424688Y172889D01*
X424616Y172814D01*
X424608Y172796D01*
X424595Y172781D01*
X424556Y172685D01*
X424513Y172591D01*
X424511Y172571D01*
X424503Y172553D01*
X424485Y172386D01*
X424485Y171392D01*
X421122Y168029D01*
X420695Y167602D01*
X420653Y167544D01*
X420604Y167492D01*
X420582Y167445D01*
X420551Y167403D01*
X420530Y167334D01*
X420500Y167269D01*
X420494Y167217D01*
X420479Y167167D01*
X420481Y167096D01*
X420473Y167025D01*
X420484Y166974D01*
X420485Y166922D01*
X420510Y166854D01*
X420525Y166784D01*
X420552Y166739D01*
X420570Y166691D01*
X420615Y166635D01*
X420651Y166573D01*
X420691Y166539D01*
X420723Y166499D01*
X420784Y166460D01*
X420838Y166413D01*
X420887Y166394D01*
X420930Y166366D01*
X421000Y166348D01*
X421066Y166321D01*
X421138Y166313D01*
X421169Y166305D01*
X421192Y166307D01*
X421233Y166303D01*
X465926Y166303D01*
X465966Y166309D01*
X466007Y166307D01*
X466087Y166329D01*
X466168Y166342D01*
X466204Y166362D01*
X466244Y166373D01*
X466381Y166455D01*
X467470Y166309D01*
X467502Y166310D01*
X467571Y166303D01*
X468726Y166303D01*
X468798Y166281D01*
X468870Y166249D01*
X468930Y166240D01*
X468958Y166231D01*
X468985Y166232D01*
X469035Y166224D01*
X469230Y166218D01*
X469258Y166221D01*
G37*
%LPC*%
G36*
X55471Y15803D02*
X55471Y15803D01*
X52317Y17110D01*
X49904Y19523D01*
X48597Y22677D01*
X48597Y26091D01*
X49904Y29245D01*
X52317Y31658D01*
X53523Y32158D01*
X53584Y32195D01*
X53649Y32225D01*
X53687Y32260D01*
X53732Y32287D01*
X53777Y32342D01*
X53830Y32391D01*
X53855Y32437D01*
X53888Y32477D01*
X53914Y32544D01*
X53949Y32606D01*
X53958Y32658D01*
X53977Y32706D01*
X53980Y32778D01*
X53992Y32849D01*
X53985Y32900D01*
X53987Y32952D01*
X53967Y33021D01*
X53957Y33092D01*
X53933Y33138D01*
X53919Y33188D01*
X53878Y33247D01*
X53845Y33311D01*
X53808Y33348D01*
X53778Y33390D01*
X53721Y33433D01*
X53670Y33483D01*
X53607Y33518D01*
X53581Y33537D01*
X53559Y33544D01*
X53523Y33564D01*
X52436Y34014D01*
X50907Y35036D01*
X49606Y36337D01*
X48584Y37866D01*
X47880Y39566D01*
X47641Y40767D01*
X56098Y40767D01*
X56118Y40770D01*
X56137Y40768D01*
X56239Y40790D01*
X56341Y40807D01*
X56358Y40816D01*
X56378Y40820D01*
X56467Y40873D01*
X56558Y40922D01*
X56572Y40936D01*
X56589Y40946D01*
X56656Y41025D01*
X56727Y41100D01*
X56736Y41118D01*
X56749Y41133D01*
X56787Y41229D01*
X56831Y41323D01*
X56833Y41343D01*
X56841Y41361D01*
X56859Y41528D01*
X56859Y42291D01*
X56861Y42291D01*
X56861Y41528D01*
X56864Y41508D01*
X56862Y41489D01*
X56884Y41387D01*
X56901Y41285D01*
X56910Y41268D01*
X56914Y41248D01*
X56967Y41159D01*
X57016Y41068D01*
X57030Y41054D01*
X57040Y41037D01*
X57119Y40970D01*
X57194Y40899D01*
X57212Y40890D01*
X57227Y40877D01*
X57323Y40838D01*
X57417Y40795D01*
X57437Y40793D01*
X57455Y40785D01*
X57622Y40767D01*
X66079Y40767D01*
X65840Y39566D01*
X65136Y37866D01*
X64114Y36337D01*
X62813Y35036D01*
X61284Y34014D01*
X60515Y33696D01*
X60454Y33658D01*
X60389Y33629D01*
X60363Y33605D01*
X60349Y33598D01*
X60338Y33586D01*
X60306Y33566D01*
X60261Y33511D01*
X60208Y33463D01*
X60190Y33430D01*
X60180Y33420D01*
X60174Y33406D01*
X60150Y33377D01*
X60124Y33310D01*
X60089Y33247D01*
X60082Y33209D01*
X60076Y33196D01*
X60075Y33183D01*
X60061Y33147D01*
X60058Y33076D01*
X60046Y33005D01*
X60051Y32967D01*
X60049Y32952D01*
X60052Y32938D01*
X60051Y32901D01*
X60071Y32833D01*
X60081Y32762D01*
X60098Y32729D01*
X60102Y32712D01*
X60110Y32697D01*
X60119Y32665D01*
X60160Y32606D01*
X60193Y32542D01*
X60217Y32519D01*
X60228Y32501D01*
X60243Y32488D01*
X60260Y32463D01*
X60317Y32420D01*
X60368Y32370D01*
X60401Y32352D01*
X60415Y32341D01*
X60436Y32332D01*
X60457Y32316D01*
X60479Y32309D01*
X60515Y32289D01*
X62039Y31658D01*
X64452Y29245D01*
X65759Y26091D01*
X65759Y22677D01*
X64452Y19523D01*
X62039Y17110D01*
X58885Y15803D01*
X55471Y15803D01*
G37*
%LPD*%
%LPC*%
G36*
X402263Y33009D02*
X402263Y33009D01*
X399018Y34354D01*
X396534Y36838D01*
X395189Y40083D01*
X395189Y43597D01*
X396534Y46842D01*
X399018Y49326D01*
X402263Y50671D01*
X405777Y50671D01*
X409022Y49326D01*
X411506Y46842D01*
X412851Y43597D01*
X412851Y40083D01*
X411506Y36838D01*
X409022Y34354D01*
X405777Y33009D01*
X402263Y33009D01*
G37*
%LPD*%
%LPC*%
G36*
X451203Y33329D02*
X451203Y33329D01*
X448049Y34636D01*
X445636Y37049D01*
X444329Y40203D01*
X444329Y43617D01*
X445636Y46771D01*
X448049Y49184D01*
X451203Y50491D01*
X454617Y50491D01*
X457771Y49184D01*
X460184Y46771D01*
X461491Y43617D01*
X461491Y40203D01*
X460184Y37049D01*
X457771Y34636D01*
X454617Y33329D01*
X451203Y33329D01*
G37*
%LPD*%
G36*
X322147Y165577D02*
X322147Y165577D01*
X322218Y165583D01*
X322266Y165603D01*
X322317Y165614D01*
X322378Y165651D01*
X322444Y165679D01*
X322500Y165724D01*
X322528Y165741D01*
X322543Y165758D01*
X322575Y165784D01*
X323631Y166840D01*
X326245Y167923D01*
X327991Y167923D01*
X328081Y167937D01*
X328172Y167945D01*
X328201Y167957D01*
X328233Y167962D01*
X328314Y168005D01*
X328398Y168041D01*
X328430Y168067D01*
X328451Y168078D01*
X328473Y168101D01*
X328529Y168146D01*
X339845Y179462D01*
X339887Y179520D01*
X339936Y179572D01*
X339958Y179619D01*
X339988Y179661D01*
X340009Y179730D01*
X340040Y179795D01*
X340045Y179847D01*
X340061Y179897D01*
X340059Y179968D01*
X340067Y180039D01*
X340056Y180090D01*
X340054Y180142D01*
X340030Y180210D01*
X340015Y180280D01*
X339988Y180324D01*
X339970Y180373D01*
X339925Y180429D01*
X339888Y180491D01*
X339849Y180525D01*
X339816Y180565D01*
X339756Y180604D01*
X339701Y180651D01*
X339653Y180670D01*
X339609Y180698D01*
X339540Y180716D01*
X339473Y180743D01*
X339402Y180751D01*
X339371Y180759D01*
X339348Y180757D01*
X339307Y180761D01*
X322279Y180761D01*
X322186Y180746D01*
X322092Y180738D01*
X322065Y180726D01*
X322036Y180722D01*
X321953Y180677D01*
X321866Y180640D01*
X321844Y180620D01*
X321819Y180606D01*
X321754Y180538D01*
X321684Y180475D01*
X321669Y180449D01*
X321649Y180428D01*
X321610Y180343D01*
X321563Y180260D01*
X321558Y180232D01*
X321546Y180205D01*
X321535Y180111D01*
X321518Y180019D01*
X321521Y179982D01*
X321519Y179961D01*
X321525Y179929D01*
X321532Y179851D01*
X321615Y179434D01*
X310480Y179434D01*
X310460Y179431D01*
X310441Y179433D01*
X310339Y179411D01*
X310237Y179395D01*
X310220Y179385D01*
X310200Y179381D01*
X310111Y179328D01*
X310020Y179279D01*
X310006Y179265D01*
X309989Y179255D01*
X309922Y179176D01*
X309851Y179101D01*
X309842Y179083D01*
X309829Y179068D01*
X309790Y178972D01*
X309747Y178878D01*
X309745Y178858D01*
X309737Y178840D01*
X309719Y178673D01*
X309719Y177149D01*
X309722Y177129D01*
X309720Y177110D01*
X309742Y177008D01*
X309759Y176906D01*
X309768Y176889D01*
X309772Y176869D01*
X309825Y176780D01*
X309874Y176689D01*
X309888Y176675D01*
X309898Y176658D01*
X309977Y176591D01*
X310052Y176520D01*
X310070Y176511D01*
X310085Y176498D01*
X310181Y176460D01*
X310275Y176416D01*
X310295Y176414D01*
X310313Y176406D01*
X310480Y176388D01*
X321615Y176388D01*
X321520Y175910D01*
X321003Y174662D01*
X320252Y173539D01*
X319297Y172584D01*
X318534Y172073D01*
X318465Y172009D01*
X318391Y171950D01*
X318375Y171926D01*
X318354Y171906D01*
X318309Y171823D01*
X318258Y171743D01*
X318251Y171715D01*
X318237Y171689D01*
X318221Y171596D01*
X318198Y171505D01*
X318200Y171476D01*
X318195Y171447D01*
X318210Y171353D01*
X318217Y171260D01*
X318229Y171233D01*
X318233Y171204D01*
X318277Y171120D01*
X318314Y171033D01*
X318337Y171004D01*
X318346Y170985D01*
X318370Y170963D01*
X318418Y170902D01*
X320309Y169012D01*
X321276Y166678D01*
X321276Y166322D01*
X321287Y166252D01*
X321289Y166180D01*
X321307Y166131D01*
X321315Y166080D01*
X321349Y166016D01*
X321374Y165949D01*
X321406Y165908D01*
X321431Y165862D01*
X321483Y165813D01*
X321527Y165757D01*
X321571Y165729D01*
X321609Y165693D01*
X321674Y165663D01*
X321734Y165624D01*
X321785Y165611D01*
X321832Y165589D01*
X321903Y165581D01*
X321973Y165564D01*
X322025Y165568D01*
X322076Y165562D01*
X322147Y165577D01*
G37*
%LPC*%
G36*
X365703Y23183D02*
X365703Y23183D01*
X365703Y33506D01*
X366976Y33305D01*
X368763Y32724D01*
X370437Y31871D01*
X371958Y30766D01*
X373286Y29438D01*
X374391Y27917D01*
X375244Y26243D01*
X375825Y24456D01*
X376026Y23183D01*
X365703Y23183D01*
G37*
%LPD*%
%LPC*%
G36*
X365703Y20137D02*
X365703Y20137D01*
X376026Y20137D01*
X375825Y18864D01*
X375244Y17077D01*
X374391Y15403D01*
X373286Y13882D01*
X371958Y12554D01*
X370437Y11449D01*
X368763Y10596D01*
X366976Y10015D01*
X365703Y9814D01*
X365703Y20137D01*
G37*
%LPD*%
%LPC*%
G36*
X352334Y23183D02*
X352334Y23183D01*
X352535Y24456D01*
X353116Y26243D01*
X353969Y27917D01*
X355074Y29438D01*
X356402Y30766D01*
X357923Y31871D01*
X359597Y32724D01*
X361384Y33305D01*
X362657Y33506D01*
X362657Y23183D01*
X352334Y23183D01*
G37*
%LPD*%
%LPC*%
G36*
X361384Y10015D02*
X361384Y10015D01*
X359597Y10596D01*
X357923Y11449D01*
X356402Y12554D01*
X355074Y13882D01*
X353969Y15403D01*
X353116Y17077D01*
X352535Y18864D01*
X352334Y20137D01*
X362657Y20137D01*
X362657Y9814D01*
X361384Y10015D01*
G37*
%LPD*%
G36*
X142922Y107104D02*
X142922Y107104D01*
X142941Y107102D01*
X143043Y107124D01*
X143145Y107141D01*
X143162Y107150D01*
X143182Y107154D01*
X143271Y107207D01*
X143362Y107256D01*
X143376Y107270D01*
X143393Y107280D01*
X143460Y107359D01*
X143531Y107434D01*
X143540Y107452D01*
X143553Y107467D01*
X143592Y107563D01*
X143635Y107657D01*
X143637Y107677D01*
X143645Y107695D01*
X143663Y107862D01*
X143663Y113641D01*
X146474Y113641D01*
X147121Y113468D01*
X147700Y113133D01*
X147798Y113035D01*
X147856Y112994D01*
X147908Y112944D01*
X147955Y112922D01*
X147997Y112892D01*
X148066Y112871D01*
X148131Y112841D01*
X148183Y112835D01*
X148232Y112819D01*
X148304Y112821D01*
X148375Y112813D01*
X148426Y112825D01*
X148478Y112826D01*
X148546Y112850D01*
X148616Y112866D01*
X148661Y112892D01*
X148709Y112910D01*
X148765Y112955D01*
X148827Y112992D01*
X148861Y113031D01*
X148901Y113064D01*
X148940Y113124D01*
X148987Y113179D01*
X149006Y113227D01*
X149034Y113271D01*
X149052Y113340D01*
X149079Y113407D01*
X149087Y113478D01*
X149095Y113509D01*
X149093Y113533D01*
X149097Y113574D01*
X149097Y116585D01*
X149086Y116655D01*
X149084Y116727D01*
X149066Y116776D01*
X149058Y116827D01*
X149024Y116891D01*
X148999Y116958D01*
X148967Y116999D01*
X148942Y117045D01*
X148890Y117094D01*
X148846Y117150D01*
X148802Y117178D01*
X148764Y117214D01*
X148699Y117244D01*
X148639Y117283D01*
X148588Y117296D01*
X148541Y117318D01*
X148470Y117326D01*
X148400Y117343D01*
X148348Y117339D01*
X148297Y117345D01*
X148226Y117330D01*
X148155Y117324D01*
X148107Y117304D01*
X148056Y117293D01*
X147995Y117256D01*
X147929Y117228D01*
X147873Y117183D01*
X147845Y117167D01*
X147830Y117149D01*
X147798Y117123D01*
X146982Y116307D01*
X138062Y116307D01*
X137974Y116293D01*
X137885Y116287D01*
X137853Y116273D01*
X137819Y116268D01*
X137740Y116226D01*
X137658Y116192D01*
X137632Y116169D01*
X137601Y116152D01*
X137540Y116088D01*
X137474Y116029D01*
X137456Y115999D01*
X137432Y115974D01*
X137395Y115894D01*
X137350Y115817D01*
X137339Y115773D01*
X137328Y115751D01*
X137325Y115720D01*
X137308Y115654D01*
X137144Y114510D01*
X137145Y114436D01*
X137137Y114363D01*
X137147Y114314D01*
X137148Y114264D01*
X137173Y114195D01*
X137189Y114122D01*
X137215Y114080D01*
X137231Y114033D01*
X137277Y113975D01*
X137315Y113911D01*
X137353Y113879D01*
X137384Y113840D01*
X137446Y113799D01*
X137502Y113751D01*
X137548Y113733D01*
X137590Y113705D01*
X137662Y113687D01*
X137730Y113659D01*
X137798Y113652D01*
X137828Y113644D01*
X137853Y113646D01*
X137897Y113641D01*
X140617Y113641D01*
X140617Y107862D01*
X140620Y107842D01*
X140618Y107823D01*
X140640Y107721D01*
X140657Y107619D01*
X140666Y107602D01*
X140670Y107582D01*
X140723Y107493D01*
X140772Y107402D01*
X140786Y107388D01*
X140796Y107371D01*
X140875Y107304D01*
X140950Y107233D01*
X140968Y107224D01*
X140983Y107211D01*
X141079Y107172D01*
X141173Y107129D01*
X141193Y107127D01*
X141211Y107119D01*
X141378Y107101D01*
X142902Y107101D01*
X142922Y107104D01*
G37*
%LPC*%
G36*
X174843Y33537D02*
X174843Y33537D01*
X174843Y38873D01*
X185217Y38873D01*
X185122Y38395D01*
X184605Y37147D01*
X183854Y36024D01*
X182899Y35068D01*
X181776Y34318D01*
X180528Y33801D01*
X179203Y33537D01*
X174843Y33537D01*
G37*
%LPD*%
%LPC*%
G36*
X142083Y171183D02*
X142083Y171183D01*
X142083Y176201D01*
X144894Y176201D01*
X145541Y176028D01*
X146140Y175682D01*
X146208Y175638D01*
X146291Y175578D01*
X146310Y175572D01*
X146327Y175561D01*
X146428Y175536D01*
X146526Y175506D01*
X146546Y175506D01*
X146566Y175501D01*
X146668Y175509D01*
X146772Y175512D01*
X146791Y175519D01*
X146811Y175520D01*
X146906Y175561D01*
X147003Y175596D01*
X147019Y175609D01*
X147037Y175617D01*
X147168Y175721D01*
X147540Y176093D01*
X148119Y176428D01*
X148766Y176601D01*
X151577Y176601D01*
X151577Y171583D01*
X147862Y171583D01*
X147842Y171580D01*
X147823Y171582D01*
X147721Y171560D01*
X147619Y171543D01*
X147602Y171534D01*
X147582Y171530D01*
X147493Y171477D01*
X147402Y171428D01*
X147388Y171414D01*
X147371Y171404D01*
X147304Y171325D01*
X147232Y171250D01*
X147224Y171232D01*
X147211Y171217D01*
X147198Y171183D01*
X142083Y171183D01*
G37*
%LPD*%
%LPC*%
G36*
X142083Y168137D02*
X142083Y168137D01*
X145798Y168137D01*
X145818Y168140D01*
X145837Y168138D01*
X145939Y168160D01*
X146041Y168177D01*
X146058Y168186D01*
X146078Y168190D01*
X146167Y168243D01*
X146258Y168292D01*
X146272Y168306D01*
X146289Y168316D01*
X146356Y168395D01*
X146428Y168470D01*
X146436Y168488D01*
X146449Y168503D01*
X146462Y168537D01*
X151577Y168537D01*
X151577Y163519D01*
X148766Y163519D01*
X148119Y163692D01*
X147520Y164039D01*
X147452Y164082D01*
X147369Y164142D01*
X147350Y164148D01*
X147333Y164159D01*
X147232Y164184D01*
X147133Y164214D01*
X147113Y164214D01*
X147094Y164219D01*
X146991Y164211D01*
X146888Y164208D01*
X146869Y164201D01*
X146849Y164200D01*
X146754Y164159D01*
X146657Y164124D01*
X146641Y164111D01*
X146623Y164103D01*
X146492Y163999D01*
X146120Y163627D01*
X145541Y163292D01*
X144894Y163119D01*
X142083Y163119D01*
X142083Y168137D01*
G37*
%LPD*%
%LPC*%
G36*
X422183Y32747D02*
X422183Y32747D01*
X422085Y32751D01*
X421987Y32761D01*
X421962Y32755D01*
X421937Y32756D01*
X421849Y32729D01*
X421823Y32754D01*
X421794Y32770D01*
X421780Y32783D01*
X421749Y32795D01*
X421676Y32835D01*
X419916Y33564D01*
X418387Y34586D01*
X417086Y35887D01*
X416064Y37416D01*
X415360Y39116D01*
X415121Y40317D01*
X422817Y40317D01*
X422817Y32621D01*
X422183Y32747D01*
G37*
%LPD*%
%LPC*%
G36*
X58383Y43813D02*
X58383Y43813D01*
X58383Y51509D01*
X59584Y51270D01*
X61284Y50566D01*
X62813Y49544D01*
X64114Y48243D01*
X65136Y46714D01*
X65840Y45014D01*
X66079Y43813D01*
X58383Y43813D01*
G37*
%LPD*%
%LPC*%
G36*
X425863Y43363D02*
X425863Y43363D01*
X425863Y51059D01*
X427064Y50820D01*
X428764Y50116D01*
X430293Y49094D01*
X431594Y47793D01*
X432616Y46264D01*
X433320Y44564D01*
X433559Y43363D01*
X425863Y43363D01*
G37*
%LPD*%
%LPC*%
G36*
X47641Y43813D02*
X47641Y43813D01*
X47880Y45014D01*
X48584Y46714D01*
X49606Y48243D01*
X50907Y49544D01*
X52436Y50566D01*
X54136Y51270D01*
X55337Y51509D01*
X55337Y43813D01*
X47641Y43813D01*
G37*
%LPD*%
%LPC*%
G36*
X425863Y40317D02*
X425863Y40317D01*
X433559Y40317D01*
X433320Y39116D01*
X432616Y37416D01*
X431594Y35887D01*
X430293Y34586D01*
X428764Y33564D01*
X427064Y32860D01*
X425863Y32621D01*
X425863Y40317D01*
G37*
%LPD*%
%LPC*%
G36*
X415121Y43363D02*
X415121Y43363D01*
X415360Y44564D01*
X416064Y46264D01*
X417086Y47793D01*
X418387Y49094D01*
X419916Y50116D01*
X421616Y50820D01*
X422817Y51059D01*
X422817Y43363D01*
X415121Y43363D01*
G37*
%LPD*%
%LPC*%
G36*
X418633Y26353D02*
X418633Y26353D01*
X418633Y31371D01*
X421385Y31371D01*
X421481Y31386D01*
X421578Y31396D01*
X421583Y31398D01*
X421602Y31386D01*
X421681Y31326D01*
X421710Y31315D01*
X421726Y31305D01*
X421782Y31287D01*
X421837Y31265D01*
X422091Y31198D01*
X422670Y30863D01*
X423143Y30390D01*
X423478Y29811D01*
X423651Y29164D01*
X423651Y26353D01*
X418633Y26353D01*
G37*
%LPD*%
%LPC*%
G36*
X154623Y171583D02*
X154623Y171583D01*
X154623Y176601D01*
X157434Y176601D01*
X158081Y176428D01*
X158660Y176093D01*
X159133Y175620D01*
X159468Y175041D01*
X159641Y174394D01*
X159641Y171583D01*
X154623Y171583D01*
G37*
%LPD*%
%LPC*%
G36*
X137113Y81383D02*
X137113Y81383D01*
X137113Y86401D01*
X139924Y86401D01*
X140571Y86228D01*
X141150Y85893D01*
X141623Y85420D01*
X141958Y84841D01*
X142131Y84194D01*
X142131Y81383D01*
X137113Y81383D01*
G37*
%LPD*%
%LPC*%
G36*
X120663Y18473D02*
X120663Y18473D01*
X120663Y23491D01*
X123475Y23491D01*
X124121Y23318D01*
X124700Y22983D01*
X125173Y22510D01*
X125508Y21931D01*
X125681Y21284D01*
X125681Y18473D01*
X120663Y18473D01*
G37*
%LPD*%
%LPC*%
G36*
X120663Y10409D02*
X120663Y10409D01*
X120663Y15427D01*
X125681Y15427D01*
X125681Y12615D01*
X125508Y11969D01*
X125173Y11390D01*
X124700Y10917D01*
X124121Y10582D01*
X123474Y10409D01*
X120663Y10409D01*
G37*
%LPD*%
%LPC*%
G36*
X112599Y18473D02*
X112599Y18473D01*
X112599Y21284D01*
X112772Y21931D01*
X113107Y22510D01*
X113580Y22983D01*
X114159Y23318D01*
X114806Y23491D01*
X117617Y23491D01*
X117617Y18473D01*
X112599Y18473D01*
G37*
%LPD*%
%LPC*%
G36*
X129049Y81383D02*
X129049Y81383D01*
X129049Y84194D01*
X129222Y84841D01*
X129557Y85420D01*
X130030Y85893D01*
X130609Y86228D01*
X131256Y86401D01*
X134067Y86401D01*
X134067Y81383D01*
X129049Y81383D01*
G37*
%LPD*%
%LPC*%
G36*
X418633Y18289D02*
X418633Y18289D01*
X418633Y23307D01*
X423651Y23307D01*
X423651Y20496D01*
X423478Y19849D01*
X423143Y19270D01*
X422670Y18797D01*
X422091Y18462D01*
X421444Y18289D01*
X418633Y18289D01*
G37*
%LPD*%
%LPC*%
G36*
X137113Y73319D02*
X137113Y73319D01*
X137113Y78337D01*
X142131Y78337D01*
X142131Y75526D01*
X141958Y74879D01*
X141623Y74300D01*
X141150Y73827D01*
X140571Y73492D01*
X139924Y73319D01*
X137113Y73319D01*
G37*
%LPD*%
%LPC*%
G36*
X134019Y171183D02*
X134019Y171183D01*
X134019Y173994D01*
X134192Y174641D01*
X134527Y175220D01*
X135000Y175693D01*
X135579Y176028D01*
X136226Y176201D01*
X139037Y176201D01*
X139037Y171183D01*
X134019Y171183D01*
G37*
%LPD*%
%LPC*%
G36*
X410569Y26353D02*
X410569Y26353D01*
X410569Y29164D01*
X410742Y29811D01*
X411077Y30390D01*
X411550Y30863D01*
X412129Y31198D01*
X412776Y31371D01*
X415587Y31371D01*
X415587Y26353D01*
X410569Y26353D01*
G37*
%LPD*%
%LPC*%
G36*
X131256Y73319D02*
X131256Y73319D01*
X130609Y73492D01*
X130030Y73827D01*
X129557Y74300D01*
X129222Y74879D01*
X129049Y75526D01*
X129049Y78337D01*
X134067Y78337D01*
X134067Y73319D01*
X131256Y73319D01*
G37*
%LPD*%
%LPC*%
G36*
X114806Y10409D02*
X114806Y10409D01*
X114159Y10582D01*
X113580Y10917D01*
X113107Y11390D01*
X112772Y11969D01*
X112599Y12615D01*
X112599Y15427D01*
X117617Y15427D01*
X117617Y10409D01*
X114806Y10409D01*
G37*
%LPD*%
%LPC*%
G36*
X136226Y163119D02*
X136226Y163119D01*
X135579Y163292D01*
X135000Y163627D01*
X134527Y164100D01*
X134192Y164679D01*
X134019Y165326D01*
X134019Y168137D01*
X139037Y168137D01*
X139037Y163119D01*
X136226Y163119D01*
G37*
%LPD*%
%LPC*%
G36*
X412776Y18289D02*
X412776Y18289D01*
X412129Y18462D01*
X411550Y18797D01*
X411077Y19270D01*
X410742Y19849D01*
X410569Y20496D01*
X410569Y23307D01*
X415587Y23307D01*
X415587Y18289D01*
X412776Y18289D01*
G37*
%LPD*%
%LPC*%
G36*
X424339Y41839D02*
X424339Y41839D01*
X424339Y41841D01*
X424341Y41841D01*
X424341Y41839D01*
X424339Y41839D01*
G37*
%LPD*%
%LPC*%
G36*
X364179Y21659D02*
X364179Y21659D01*
X364179Y21661D01*
X364181Y21661D01*
X364181Y21659D01*
X364179Y21659D01*
G37*
%LPD*%
%LPC*%
G36*
X135589Y79859D02*
X135589Y79859D01*
X135589Y79861D01*
X135591Y79861D01*
X135591Y79859D01*
X135589Y79859D01*
G37*
%LPD*%
%LPC*%
G36*
X417109Y24829D02*
X417109Y24829D01*
X417109Y24831D01*
X417111Y24831D01*
X417111Y24829D01*
X417109Y24829D01*
G37*
%LPD*%
%LPC*%
G36*
X119139Y16949D02*
X119139Y16949D01*
X119139Y16951D01*
X119141Y16951D01*
X119141Y16949D01*
X119139Y16949D01*
G37*
%LPD*%
%LPC*%
G36*
X140559Y169659D02*
X140559Y169659D01*
X140559Y169661D01*
X140561Y169661D01*
X140561Y169659D01*
X140559Y169659D01*
G37*
%LPD*%
%LPC*%
G36*
X153099Y170059D02*
X153099Y170059D01*
X153099Y170061D01*
X153101Y170061D01*
X153101Y170059D01*
X153099Y170059D01*
G37*
%LPD*%
D10*
X198720Y17714D02*
X198720Y28128D01*
X211217Y28128D02*
X211217Y17714D01*
X223714Y17714D02*
X223714Y28128D01*
X236210Y28128D02*
X236210Y17714D01*
X248707Y17714D02*
X248707Y28128D01*
X261204Y28128D02*
X261204Y17714D01*
X273701Y17714D02*
X273701Y28128D01*
X286197Y28128D02*
X286197Y17714D01*
X178527Y177861D02*
X168113Y177861D01*
X168113Y165364D02*
X178527Y165364D01*
X178527Y152867D02*
X168113Y152867D01*
X168113Y140370D02*
X178527Y140370D01*
X178527Y127873D02*
X168113Y127873D01*
X168113Y115377D02*
X178527Y115377D01*
X178527Y102880D02*
X168113Y102880D01*
X168113Y90383D02*
X178527Y90383D01*
X178527Y77886D02*
X168113Y77886D01*
X168113Y65389D02*
X178527Y65389D01*
X178527Y52893D02*
X168113Y52893D01*
X168113Y40396D02*
X178527Y40396D01*
X304511Y40447D02*
X314925Y40447D01*
X314925Y52943D02*
X304511Y52943D01*
X304511Y65440D02*
X314925Y65440D01*
X314925Y77937D02*
X304511Y77937D01*
X304511Y90434D02*
X314925Y90434D01*
X314925Y102930D02*
X304511Y102930D01*
X304511Y115427D02*
X314925Y115427D01*
X314925Y127924D02*
X304511Y127924D01*
X304511Y140421D02*
X314925Y140421D01*
X314925Y152918D02*
X304511Y152918D01*
X304511Y165414D02*
X314925Y165414D01*
X314925Y177911D02*
X304511Y177911D01*
X304511Y190408D02*
X314925Y190408D01*
X314925Y202905D02*
X304511Y202905D01*
D11*
X383700Y41840D03*
X404020Y41840D03*
X424340Y41840D03*
X97500Y42290D03*
X77180Y42290D03*
X56860Y42290D03*
D12*
X417110Y24830D03*
X417110Y9590D03*
X142140Y107100D03*
X142140Y122340D03*
X119140Y16950D03*
X119140Y32190D03*
X140560Y169660D03*
X140560Y154420D03*
X153100Y170060D03*
X153100Y154820D03*
D13*
X338780Y21660D03*
X364180Y21660D03*
D12*
X135590Y79860D03*
X150830Y79860D03*
D14*
X452910Y41910D03*
X452910Y22860D03*
X115570Y174470D03*
X96520Y174470D03*
X57178Y24384D03*
X76228Y24384D03*
D15*
X410570Y182680D03*
X425570Y182680D03*
X455570Y182680D03*
D16*
X396570Y210180D03*
D17*
X396570Y189180D03*
D16*
X469570Y210180D03*
D17*
X469570Y189180D03*
D18*
X161597Y165364D02*
X153100Y154820D01*
X161597Y165364D02*
X173320Y165364D01*
D19*
X152400Y143030D03*
D18*
X140960Y154820D02*
X140560Y154420D01*
X140960Y154820D02*
X153100Y154820D01*
X152400Y154120D01*
X152400Y143030D01*
X152400Y81430D01*
X150830Y79860D01*
X318081Y182788D02*
X322545Y187252D01*
X322545Y193564D01*
X314595Y182788D02*
X309718Y177911D01*
X314595Y182788D02*
X318081Y182788D01*
X322545Y193564D02*
X316230Y199879D01*
X316230Y203990D01*
X310803Y203990D01*
X309718Y202905D01*
D19*
X204056Y38956D03*
X236220Y91440D03*
X223520Y104140D03*
D20*
X449380Y182680D02*
X455570Y182680D01*
X449380Y182680D02*
X440690Y173990D01*
D19*
X440690Y173990D03*
X349250Y153670D03*
D18*
X84034Y32190D02*
X76228Y24384D01*
X84034Y32190D02*
X119140Y32190D01*
D19*
X153670Y41910D03*
D18*
X124668Y37718D02*
X119140Y32190D01*
X124668Y37718D02*
X141974Y37718D01*
X146166Y41910D02*
X153670Y41910D01*
X146166Y41910D02*
X141974Y37718D01*
D21*
X419912Y175752D02*
X425570Y182680D01*
X419912Y175752D02*
X419912Y173286D01*
X416326Y169700D01*
X350520Y169700D01*
D19*
X337820Y45212D03*
D21*
X325120Y144300D02*
X350520Y169700D01*
X325120Y57940D02*
X337820Y45212D01*
X325120Y57940D02*
X325120Y144300D01*
D19*
X140970Y135890D03*
D18*
X140970Y123510D01*
X142140Y122340D01*
X140970Y135890D02*
X130003Y146857D01*
X117966Y158940D02*
X117857Y159003D01*
X112240Y164620D01*
X111490Y164620D01*
X130003Y147951D02*
X130003Y146857D01*
X130003Y147951D02*
X119014Y158940D01*
X117966Y158940D01*
X101640Y174470D02*
X96520Y174470D01*
X101640Y174470D02*
X111490Y164620D01*
D19*
X194310Y88900D03*
D18*
X191770Y91440D01*
X191770Y127000D01*
D19*
X243297Y160020D03*
D18*
X196088Y131318D02*
X191770Y127000D01*
X196088Y131318D02*
X197782Y131318D01*
X226484Y160020D02*
X243297Y160020D01*
X226484Y160020D02*
X197782Y131318D01*
D19*
X292100Y84610D03*
X327660Y160810D03*
D21*
X292100Y84610D02*
X295621Y81089D01*
X295621Y36764D02*
X300829Y31557D01*
X295621Y36764D02*
X295621Y81089D01*
X328884Y31557D02*
X338780Y21660D01*
X328884Y31557D02*
X300829Y31557D01*
X327660Y160810D02*
X344170Y177320D01*
X406480Y177320D02*
X410570Y182680D01*
X406480Y177320D02*
X344170Y177320D01*
D19*
X196850Y152400D03*
D18*
X173787Y152400D01*
X173320Y152867D01*
D19*
X194310Y139700D03*
D18*
X173990Y139700D01*
X173320Y140370D01*
D19*
X153670Y55880D03*
D18*
X140080Y42290D01*
X97500Y42290D01*
D19*
X363220Y49530D03*
D18*
X406400Y9590D02*
X417110Y9590D01*
X442906Y9590D01*
X452910Y22860D01*
X406400Y9590D02*
X384250Y31740D01*
X379516Y31740D01*
X363220Y48036D02*
X363220Y49530D01*
X363220Y48036D02*
X379516Y31740D01*
M02*
