G04 EAGLE Gerber RS-274X export*
G75*
%MOMM*%
%FSLAX34Y34*%
%LPD*%
%IN*%
%IPPOS*%
%AMOC8*
5,1,8,0,0,1.08239X$1,22.5*%
G01*
%ADD10C,0.254000*%


D10*
X0Y12700D02*
X48Y11593D01*
X193Y10495D01*
X433Y9413D01*
X766Y8356D01*
X1190Y7333D01*
X1701Y6350D01*
X2297Y5416D01*
X2971Y4537D01*
X3720Y3720D01*
X4537Y2971D01*
X5416Y2297D01*
X6350Y1701D01*
X7333Y1190D01*
X8356Y766D01*
X9413Y433D01*
X10495Y193D01*
X11593Y48D01*
X12700Y0D01*
X467300Y0D01*
X468407Y48D01*
X469505Y193D01*
X470587Y433D01*
X471644Y766D01*
X472667Y1190D01*
X473650Y1701D01*
X474584Y2297D01*
X475463Y2971D01*
X476280Y3720D01*
X477029Y4537D01*
X477703Y5416D01*
X478299Y6350D01*
X478810Y7333D01*
X479234Y8356D01*
X479567Y9413D01*
X479807Y10495D01*
X479952Y11593D01*
X480000Y12700D01*
X480000Y62300D01*
X479952Y63407D01*
X479807Y64505D01*
X479567Y65587D01*
X479234Y66644D01*
X478810Y67667D01*
X478299Y68650D01*
X477703Y69584D01*
X477029Y70463D01*
X476280Y71280D01*
X475463Y72029D01*
X474584Y72703D01*
X473650Y73299D01*
X472667Y73810D01*
X471644Y74234D01*
X470587Y74567D01*
X469505Y74807D01*
X468407Y74952D01*
X467300Y75000D01*
X390000Y75000D01*
X386165Y75167D01*
X382359Y75668D01*
X378612Y76499D01*
X374951Y77654D01*
X371405Y79122D01*
X368000Y80895D01*
X364763Y82957D01*
X361717Y85294D01*
X358887Y87887D01*
X356294Y90717D01*
X353957Y93763D01*
X351895Y97000D01*
X350122Y100405D01*
X348654Y103951D01*
X347499Y107612D01*
X346668Y111359D01*
X346167Y115165D01*
X346000Y119000D01*
X346167Y122835D01*
X346668Y126641D01*
X347499Y130388D01*
X348654Y134049D01*
X350122Y137595D01*
X351895Y141000D01*
X353957Y144237D01*
X356294Y147283D01*
X358887Y150113D01*
X361717Y152706D01*
X364763Y155043D01*
X368000Y157105D01*
X371405Y158878D01*
X374951Y160346D01*
X378612Y161501D01*
X382359Y162332D01*
X386165Y162833D01*
X390000Y163000D01*
X467300Y163000D01*
X468282Y162912D01*
X469268Y162910D01*
X470250Y162993D01*
X471221Y163162D01*
X472174Y163415D01*
X473101Y163751D01*
X473995Y164165D01*
X474850Y164656D01*
X475659Y165220D01*
X476416Y165852D01*
X477114Y166547D01*
X477750Y167301D01*
X478317Y168107D01*
X478812Y168960D01*
X479230Y169852D01*
X479569Y170778D01*
X479827Y171730D01*
X480000Y172700D01*
X480000Y207300D01*
X479952Y208407D01*
X479807Y209505D01*
X479567Y210587D01*
X479234Y211644D01*
X478810Y212667D01*
X478299Y213650D01*
X477703Y214584D01*
X477029Y215463D01*
X476280Y216280D01*
X475463Y217029D01*
X474584Y217703D01*
X473650Y218299D01*
X472667Y218810D01*
X471644Y219234D01*
X470587Y219567D01*
X469505Y219807D01*
X468407Y219952D01*
X467300Y220000D01*
X12700Y220000D01*
X11593Y219952D01*
X10495Y219807D01*
X9413Y219567D01*
X8356Y219234D01*
X7333Y218810D01*
X6350Y218299D01*
X5416Y217703D01*
X4537Y217029D01*
X3720Y216280D01*
X2971Y215463D01*
X2297Y214584D01*
X1701Y213650D01*
X1190Y212667D01*
X766Y211644D01*
X433Y210587D01*
X193Y209505D01*
X48Y208407D01*
X0Y207300D01*
X0Y175700D01*
X48Y174593D01*
X193Y173495D01*
X433Y172413D01*
X766Y171356D01*
X1190Y170333D01*
X1701Y169350D01*
X2297Y168416D01*
X2971Y167537D01*
X3720Y166720D01*
X4537Y165971D01*
X5416Y165297D01*
X6350Y164701D01*
X7333Y164190D01*
X8356Y163766D01*
X9413Y163433D01*
X10495Y163193D01*
X11593Y163048D01*
X12700Y163000D01*
X90000Y163000D01*
X93835Y162833D01*
X97641Y162332D01*
X101388Y161501D01*
X105049Y160346D01*
X108595Y158878D01*
X112000Y157105D01*
X115237Y155043D01*
X118283Y152706D01*
X121113Y150113D01*
X123706Y147283D01*
X126043Y144237D01*
X128105Y141000D01*
X129878Y137595D01*
X131346Y134049D01*
X132501Y130388D01*
X133332Y126641D01*
X133833Y122835D01*
X134000Y119000D01*
X133833Y115165D01*
X133332Y111359D01*
X132501Y107612D01*
X131346Y103951D01*
X129878Y100405D01*
X128105Y97000D01*
X126043Y93763D01*
X123706Y90717D01*
X121113Y87887D01*
X118283Y85294D01*
X115237Y82957D01*
X112000Y80895D01*
X108595Y79122D01*
X105049Y77654D01*
X101388Y76499D01*
X97641Y75668D01*
X93835Y75167D01*
X90000Y75000D01*
X12700Y75000D01*
X11593Y74952D01*
X10495Y74807D01*
X9413Y74567D01*
X8356Y74234D01*
X7333Y73810D01*
X6350Y73299D01*
X5416Y72703D01*
X4537Y72029D01*
X3720Y71280D01*
X2971Y70463D01*
X2297Y69584D01*
X1701Y68650D01*
X1190Y67667D01*
X766Y66644D01*
X433Y65587D01*
X193Y64505D01*
X48Y63407D01*
X0Y62300D01*
X0Y12700D01*
X422570Y199885D02*
X422493Y199300D01*
X422340Y198730D01*
X422115Y198185D01*
X421820Y197675D01*
X421461Y197207D01*
X421043Y196789D01*
X420575Y196430D01*
X420065Y196135D01*
X419520Y195910D01*
X418950Y195757D01*
X418365Y195680D01*
X417775Y195680D01*
X417190Y195757D01*
X416620Y195910D01*
X416075Y196135D01*
X415565Y196430D01*
X415097Y196789D01*
X414679Y197207D01*
X414320Y197675D01*
X414025Y198185D01*
X413800Y198730D01*
X413647Y199300D01*
X413570Y199885D01*
X413570Y200475D01*
X413647Y201060D01*
X413800Y201630D01*
X414025Y202175D01*
X414320Y202685D01*
X414679Y203153D01*
X415097Y203571D01*
X415565Y203930D01*
X416075Y204225D01*
X416620Y204450D01*
X417190Y204603D01*
X417775Y204680D01*
X418365Y204680D01*
X418950Y204603D01*
X419520Y204450D01*
X420065Y204225D01*
X420575Y203930D01*
X421043Y203571D01*
X421461Y203153D01*
X421820Y202685D01*
X422115Y202175D01*
X422340Y201630D01*
X422493Y201060D01*
X422570Y200475D01*
X422570Y199885D01*
X452570Y199885D02*
X452493Y199300D01*
X452340Y198730D01*
X452115Y198185D01*
X451820Y197675D01*
X451461Y197207D01*
X451043Y196789D01*
X450575Y196430D01*
X450065Y196135D01*
X449520Y195910D01*
X448950Y195757D01*
X448365Y195680D01*
X447775Y195680D01*
X447190Y195757D01*
X446620Y195910D01*
X446075Y196135D01*
X445565Y196430D01*
X445097Y196789D01*
X444679Y197207D01*
X444320Y197675D01*
X444025Y198185D01*
X443800Y198730D01*
X443647Y199300D01*
X443570Y199885D01*
X443570Y200475D01*
X443647Y201060D01*
X443800Y201630D01*
X444025Y202175D01*
X444320Y202685D01*
X444679Y203153D01*
X445097Y203571D01*
X445565Y203930D01*
X446075Y204225D01*
X446620Y204450D01*
X447190Y204603D01*
X447775Y204680D01*
X448365Y204680D01*
X448950Y204603D01*
X449520Y204450D01*
X450065Y204225D01*
X450575Y203930D01*
X451043Y203571D01*
X451461Y203153D01*
X451820Y202685D01*
X452115Y202175D01*
X452340Y201630D01*
X452493Y201060D01*
X452570Y200475D01*
X452570Y199885D01*
M02*
