G04 EAGLE Gerber RS-274X export*
G75*
%MOMM*%
%FSLAX34Y34*%
%LPD*%
%INSilkscreen Top*%
%IPPOS*%
%AMOC8*
5,1,8,0,0,1.08239X$1,22.5*%
G01*
%ADD10C,0.127000*%
%ADD11C,0.101600*%
%ADD12C,0.050800*%
%ADD13C,0.203200*%


D10*
X191100Y22921D02*
X173320Y22921D01*
X292700Y22921D02*
X310480Y22921D01*
X310480Y208341D02*
X310480Y215961D01*
X173320Y215961D01*
X173320Y185481D01*
X173320Y33081D02*
X173320Y22921D01*
X310480Y22921D02*
X310480Y33081D01*
D11*
X189237Y205772D02*
X181448Y205772D01*
X185343Y201878D02*
X185343Y209667D01*
X194148Y173543D02*
X194148Y161859D01*
X194148Y173543D02*
X197394Y173543D01*
X197507Y173541D01*
X197620Y173535D01*
X197733Y173525D01*
X197846Y173511D01*
X197958Y173494D01*
X198069Y173472D01*
X198179Y173447D01*
X198289Y173417D01*
X198397Y173384D01*
X198504Y173347D01*
X198610Y173307D01*
X198714Y173262D01*
X198817Y173214D01*
X198918Y173163D01*
X199017Y173108D01*
X199114Y173050D01*
X199209Y172988D01*
X199302Y172923D01*
X199392Y172855D01*
X199480Y172784D01*
X199566Y172709D01*
X199649Y172632D01*
X199729Y172552D01*
X199806Y172469D01*
X199881Y172383D01*
X199952Y172295D01*
X200020Y172205D01*
X200085Y172112D01*
X200147Y172017D01*
X200205Y171920D01*
X200260Y171821D01*
X200311Y171720D01*
X200359Y171617D01*
X200404Y171513D01*
X200444Y171407D01*
X200481Y171300D01*
X200514Y171192D01*
X200544Y171082D01*
X200569Y170972D01*
X200591Y170861D01*
X200608Y170749D01*
X200622Y170636D01*
X200632Y170523D01*
X200638Y170410D01*
X200640Y170297D01*
X200639Y170297D02*
X200639Y165104D01*
X200640Y165104D02*
X200638Y164991D01*
X200632Y164878D01*
X200622Y164765D01*
X200608Y164652D01*
X200591Y164540D01*
X200569Y164429D01*
X200544Y164319D01*
X200514Y164209D01*
X200481Y164101D01*
X200444Y163994D01*
X200404Y163888D01*
X200359Y163784D01*
X200311Y163681D01*
X200260Y163580D01*
X200205Y163481D01*
X200147Y163384D01*
X200085Y163289D01*
X200020Y163196D01*
X199952Y163106D01*
X199881Y163018D01*
X199806Y162932D01*
X199729Y162849D01*
X199649Y162769D01*
X199566Y162692D01*
X199480Y162617D01*
X199392Y162546D01*
X199302Y162478D01*
X199209Y162413D01*
X199114Y162351D01*
X199017Y162293D01*
X198918Y162238D01*
X198817Y162187D01*
X198714Y162139D01*
X198610Y162094D01*
X198504Y162054D01*
X198397Y162017D01*
X198289Y161984D01*
X198179Y161954D01*
X198069Y161929D01*
X197958Y161907D01*
X197846Y161890D01*
X197733Y161876D01*
X197620Y161866D01*
X197507Y161860D01*
X197394Y161858D01*
X197394Y161859D02*
X194148Y161859D01*
X205776Y161859D02*
X205776Y169648D01*
X205451Y172893D02*
X205451Y173543D01*
X206100Y173543D01*
X206100Y172893D01*
X205451Y172893D01*
X212306Y161859D02*
X215552Y161859D01*
X212306Y161859D02*
X212219Y161861D01*
X212131Y161867D01*
X212045Y161877D01*
X211958Y161890D01*
X211873Y161908D01*
X211788Y161929D01*
X211704Y161954D01*
X211622Y161983D01*
X211541Y162016D01*
X211461Y162052D01*
X211383Y162091D01*
X211307Y162135D01*
X211233Y162181D01*
X211162Y162231D01*
X211092Y162284D01*
X211025Y162340D01*
X210961Y162399D01*
X210899Y162461D01*
X210840Y162525D01*
X210784Y162592D01*
X210731Y162662D01*
X210681Y162733D01*
X210635Y162807D01*
X210591Y162883D01*
X210552Y162961D01*
X210516Y163041D01*
X210483Y163122D01*
X210454Y163204D01*
X210429Y163288D01*
X210408Y163373D01*
X210390Y163458D01*
X210377Y163545D01*
X210367Y163631D01*
X210361Y163719D01*
X210359Y163806D01*
X210359Y167701D01*
X210361Y167788D01*
X210367Y167876D01*
X210377Y167962D01*
X210390Y168049D01*
X210408Y168134D01*
X210429Y168219D01*
X210454Y168303D01*
X210483Y168385D01*
X210516Y168466D01*
X210552Y168546D01*
X210591Y168624D01*
X210635Y168700D01*
X210681Y168774D01*
X210731Y168845D01*
X210784Y168915D01*
X210840Y168982D01*
X210899Y169046D01*
X210961Y169108D01*
X211025Y169167D01*
X211092Y169223D01*
X211162Y169276D01*
X211233Y169326D01*
X211307Y169372D01*
X211383Y169416D01*
X211461Y169455D01*
X211541Y169491D01*
X211622Y169524D01*
X211704Y169553D01*
X211788Y169578D01*
X211873Y169599D01*
X211958Y169617D01*
X212045Y169630D01*
X212131Y169640D01*
X212219Y169646D01*
X212306Y169648D01*
X215552Y169648D01*
X215552Y159911D01*
X215550Y159824D01*
X215544Y159736D01*
X215534Y159650D01*
X215521Y159563D01*
X215503Y159478D01*
X215482Y159393D01*
X215457Y159309D01*
X215428Y159227D01*
X215395Y159146D01*
X215359Y159066D01*
X215320Y158988D01*
X215276Y158912D01*
X215230Y158838D01*
X215180Y158767D01*
X215127Y158697D01*
X215071Y158630D01*
X215012Y158566D01*
X214951Y158504D01*
X214886Y158445D01*
X214819Y158389D01*
X214749Y158336D01*
X214678Y158286D01*
X214604Y158240D01*
X214528Y158196D01*
X214450Y158157D01*
X214370Y158121D01*
X214289Y158088D01*
X214207Y158059D01*
X214123Y158034D01*
X214038Y158013D01*
X213953Y157995D01*
X213866Y157982D01*
X213780Y157972D01*
X213692Y157966D01*
X213605Y157964D01*
X211008Y157964D01*
X220634Y161859D02*
X220634Y169648D01*
X220310Y172893D02*
X220310Y173543D01*
X220959Y173543D01*
X220959Y172893D01*
X220310Y172893D01*
X230837Y161859D02*
X238626Y173543D01*
X230837Y173543D02*
X238626Y161859D01*
X243243Y161859D02*
X243243Y173543D01*
X243243Y161859D02*
X246488Y161859D01*
X246575Y161861D01*
X246663Y161867D01*
X246749Y161877D01*
X246836Y161890D01*
X246921Y161908D01*
X247006Y161929D01*
X247090Y161954D01*
X247172Y161983D01*
X247253Y162016D01*
X247333Y162052D01*
X247411Y162091D01*
X247487Y162135D01*
X247561Y162181D01*
X247632Y162231D01*
X247702Y162284D01*
X247769Y162340D01*
X247833Y162399D01*
X247895Y162460D01*
X247954Y162525D01*
X248010Y162592D01*
X248063Y162662D01*
X248113Y162733D01*
X248159Y162807D01*
X248203Y162883D01*
X248242Y162961D01*
X248278Y163041D01*
X248311Y163122D01*
X248340Y163204D01*
X248365Y163288D01*
X248386Y163373D01*
X248404Y163458D01*
X248417Y163545D01*
X248427Y163631D01*
X248433Y163719D01*
X248435Y163806D01*
X248436Y163806D02*
X248436Y167701D01*
X248435Y167701D02*
X248433Y167788D01*
X248427Y167876D01*
X248417Y167962D01*
X248404Y168049D01*
X248386Y168134D01*
X248365Y168219D01*
X248340Y168303D01*
X248311Y168385D01*
X248278Y168466D01*
X248242Y168546D01*
X248203Y168624D01*
X248159Y168700D01*
X248113Y168774D01*
X248063Y168845D01*
X248010Y168915D01*
X247954Y168982D01*
X247895Y169046D01*
X247833Y169108D01*
X247769Y169167D01*
X247702Y169223D01*
X247632Y169276D01*
X247561Y169326D01*
X247487Y169372D01*
X247411Y169416D01*
X247333Y169455D01*
X247253Y169491D01*
X247172Y169524D01*
X247090Y169553D01*
X247006Y169578D01*
X246921Y169599D01*
X246836Y169617D01*
X246749Y169630D01*
X246663Y169640D01*
X246575Y169646D01*
X246488Y169648D01*
X243243Y169648D01*
X255037Y161859D02*
X258283Y161859D01*
X255037Y161859D02*
X254950Y161861D01*
X254862Y161867D01*
X254776Y161877D01*
X254689Y161890D01*
X254604Y161908D01*
X254519Y161929D01*
X254435Y161954D01*
X254353Y161983D01*
X254272Y162016D01*
X254192Y162052D01*
X254114Y162091D01*
X254038Y162135D01*
X253964Y162181D01*
X253893Y162231D01*
X253823Y162284D01*
X253756Y162340D01*
X253692Y162399D01*
X253630Y162461D01*
X253571Y162525D01*
X253515Y162592D01*
X253462Y162662D01*
X253412Y162733D01*
X253366Y162807D01*
X253322Y162883D01*
X253283Y162961D01*
X253247Y163041D01*
X253214Y163122D01*
X253185Y163204D01*
X253160Y163288D01*
X253139Y163373D01*
X253121Y163458D01*
X253108Y163545D01*
X253098Y163631D01*
X253092Y163719D01*
X253090Y163806D01*
X253090Y167051D01*
X253092Y167152D01*
X253098Y167252D01*
X253108Y167352D01*
X253121Y167452D01*
X253139Y167551D01*
X253160Y167650D01*
X253185Y167747D01*
X253214Y167844D01*
X253247Y167939D01*
X253283Y168033D01*
X253323Y168125D01*
X253366Y168216D01*
X253413Y168305D01*
X253463Y168392D01*
X253517Y168478D01*
X253574Y168561D01*
X253634Y168641D01*
X253697Y168720D01*
X253764Y168796D01*
X253833Y168869D01*
X253905Y168939D01*
X253979Y169007D01*
X254056Y169072D01*
X254136Y169133D01*
X254218Y169192D01*
X254302Y169247D01*
X254388Y169299D01*
X254476Y169348D01*
X254566Y169393D01*
X254658Y169435D01*
X254751Y169473D01*
X254846Y169507D01*
X254941Y169538D01*
X255038Y169565D01*
X255136Y169588D01*
X255235Y169608D01*
X255335Y169623D01*
X255435Y169635D01*
X255535Y169643D01*
X255636Y169647D01*
X255736Y169647D01*
X255837Y169643D01*
X255937Y169635D01*
X256037Y169623D01*
X256137Y169608D01*
X256236Y169588D01*
X256334Y169565D01*
X256431Y169538D01*
X256526Y169507D01*
X256621Y169473D01*
X256714Y169435D01*
X256806Y169393D01*
X256896Y169348D01*
X256984Y169299D01*
X257070Y169247D01*
X257154Y169192D01*
X257236Y169133D01*
X257316Y169072D01*
X257393Y169007D01*
X257467Y168939D01*
X257539Y168869D01*
X257608Y168796D01*
X257675Y168720D01*
X257738Y168641D01*
X257798Y168561D01*
X257855Y168478D01*
X257909Y168392D01*
X257959Y168305D01*
X258006Y168216D01*
X258049Y168125D01*
X258089Y168033D01*
X258125Y167939D01*
X258158Y167844D01*
X258187Y167747D01*
X258212Y167650D01*
X258233Y167551D01*
X258251Y167452D01*
X258264Y167352D01*
X258274Y167252D01*
X258280Y167152D01*
X258282Y167051D01*
X258283Y167051D02*
X258283Y165753D01*
X253090Y165753D01*
X264943Y161859D02*
X268189Y161859D01*
X264943Y161859D02*
X264856Y161861D01*
X264768Y161867D01*
X264682Y161877D01*
X264595Y161890D01*
X264510Y161908D01*
X264425Y161929D01*
X264341Y161954D01*
X264259Y161983D01*
X264178Y162016D01*
X264098Y162052D01*
X264020Y162091D01*
X263944Y162135D01*
X263870Y162181D01*
X263799Y162231D01*
X263729Y162284D01*
X263662Y162340D01*
X263598Y162399D01*
X263536Y162461D01*
X263477Y162525D01*
X263421Y162592D01*
X263368Y162662D01*
X263318Y162733D01*
X263272Y162807D01*
X263228Y162883D01*
X263189Y162961D01*
X263153Y163041D01*
X263120Y163122D01*
X263091Y163204D01*
X263066Y163288D01*
X263045Y163373D01*
X263027Y163458D01*
X263014Y163545D01*
X263004Y163631D01*
X262998Y163719D01*
X262996Y163806D01*
X262996Y167051D01*
X262998Y167152D01*
X263004Y167252D01*
X263014Y167352D01*
X263027Y167452D01*
X263045Y167551D01*
X263066Y167650D01*
X263091Y167747D01*
X263120Y167844D01*
X263153Y167939D01*
X263189Y168033D01*
X263229Y168125D01*
X263272Y168216D01*
X263319Y168305D01*
X263369Y168392D01*
X263423Y168478D01*
X263480Y168561D01*
X263540Y168641D01*
X263603Y168720D01*
X263670Y168796D01*
X263739Y168869D01*
X263811Y168939D01*
X263885Y169007D01*
X263962Y169072D01*
X264042Y169133D01*
X264124Y169192D01*
X264208Y169247D01*
X264294Y169299D01*
X264382Y169348D01*
X264472Y169393D01*
X264564Y169435D01*
X264657Y169473D01*
X264752Y169507D01*
X264847Y169538D01*
X264944Y169565D01*
X265042Y169588D01*
X265141Y169608D01*
X265241Y169623D01*
X265341Y169635D01*
X265441Y169643D01*
X265542Y169647D01*
X265642Y169647D01*
X265743Y169643D01*
X265843Y169635D01*
X265943Y169623D01*
X266043Y169608D01*
X266142Y169588D01*
X266240Y169565D01*
X266337Y169538D01*
X266432Y169507D01*
X266527Y169473D01*
X266620Y169435D01*
X266712Y169393D01*
X266802Y169348D01*
X266890Y169299D01*
X266976Y169247D01*
X267060Y169192D01*
X267142Y169133D01*
X267222Y169072D01*
X267299Y169007D01*
X267373Y168939D01*
X267445Y168869D01*
X267514Y168796D01*
X267581Y168720D01*
X267644Y168641D01*
X267704Y168561D01*
X267761Y168478D01*
X267815Y168392D01*
X267865Y168305D01*
X267912Y168216D01*
X267955Y168125D01*
X267995Y168033D01*
X268031Y167939D01*
X268064Y167844D01*
X268093Y167747D01*
X268118Y167650D01*
X268139Y167551D01*
X268157Y167452D01*
X268170Y167352D01*
X268180Y167252D01*
X268186Y167152D01*
X268188Y167051D01*
X268189Y167051D02*
X268189Y165753D01*
X262996Y165753D01*
X279111Y161859D02*
X282356Y161859D01*
X282356Y161858D02*
X282469Y161860D01*
X282582Y161866D01*
X282695Y161876D01*
X282808Y161890D01*
X282920Y161907D01*
X283031Y161929D01*
X283141Y161954D01*
X283251Y161984D01*
X283359Y162017D01*
X283466Y162054D01*
X283572Y162094D01*
X283676Y162139D01*
X283779Y162187D01*
X283880Y162238D01*
X283979Y162293D01*
X284076Y162351D01*
X284171Y162413D01*
X284264Y162478D01*
X284354Y162546D01*
X284442Y162617D01*
X284528Y162692D01*
X284611Y162769D01*
X284691Y162849D01*
X284768Y162932D01*
X284843Y163018D01*
X284914Y163106D01*
X284982Y163196D01*
X285047Y163289D01*
X285109Y163384D01*
X285167Y163481D01*
X285222Y163580D01*
X285273Y163681D01*
X285321Y163784D01*
X285366Y163888D01*
X285406Y163994D01*
X285443Y164101D01*
X285476Y164209D01*
X285506Y164319D01*
X285531Y164429D01*
X285553Y164540D01*
X285570Y164652D01*
X285584Y164765D01*
X285594Y164878D01*
X285600Y164991D01*
X285602Y165104D01*
X285600Y165217D01*
X285594Y165330D01*
X285584Y165443D01*
X285570Y165556D01*
X285553Y165668D01*
X285531Y165779D01*
X285506Y165889D01*
X285476Y165999D01*
X285443Y166107D01*
X285406Y166214D01*
X285366Y166320D01*
X285321Y166424D01*
X285273Y166527D01*
X285222Y166628D01*
X285167Y166727D01*
X285109Y166824D01*
X285047Y166919D01*
X284982Y167012D01*
X284914Y167102D01*
X284843Y167190D01*
X284768Y167276D01*
X284691Y167359D01*
X284611Y167439D01*
X284528Y167516D01*
X284442Y167591D01*
X284354Y167662D01*
X284264Y167730D01*
X284171Y167795D01*
X284076Y167857D01*
X283979Y167915D01*
X283880Y167970D01*
X283779Y168021D01*
X283676Y168069D01*
X283572Y168114D01*
X283466Y168154D01*
X283359Y168191D01*
X283251Y168224D01*
X283141Y168254D01*
X283031Y168279D01*
X282920Y168301D01*
X282808Y168318D01*
X282695Y168332D01*
X282582Y168342D01*
X282469Y168348D01*
X282356Y168350D01*
X283006Y173543D02*
X279111Y173543D01*
X283006Y173542D02*
X283107Y173540D01*
X283207Y173534D01*
X283307Y173524D01*
X283407Y173511D01*
X283506Y173493D01*
X283605Y173472D01*
X283702Y173447D01*
X283799Y173418D01*
X283894Y173385D01*
X283988Y173349D01*
X284080Y173309D01*
X284171Y173266D01*
X284260Y173219D01*
X284347Y173169D01*
X284433Y173115D01*
X284516Y173058D01*
X284596Y172998D01*
X284675Y172935D01*
X284751Y172868D01*
X284824Y172799D01*
X284894Y172727D01*
X284962Y172653D01*
X285027Y172576D01*
X285088Y172496D01*
X285147Y172414D01*
X285202Y172330D01*
X285254Y172244D01*
X285303Y172156D01*
X285348Y172066D01*
X285390Y171974D01*
X285428Y171881D01*
X285462Y171786D01*
X285493Y171691D01*
X285520Y171594D01*
X285543Y171496D01*
X285563Y171397D01*
X285578Y171297D01*
X285590Y171197D01*
X285598Y171097D01*
X285602Y170996D01*
X285602Y170896D01*
X285598Y170795D01*
X285590Y170695D01*
X285578Y170595D01*
X285563Y170495D01*
X285543Y170396D01*
X285520Y170298D01*
X285493Y170201D01*
X285462Y170106D01*
X285428Y170011D01*
X285390Y169918D01*
X285348Y169826D01*
X285303Y169736D01*
X285254Y169648D01*
X285202Y169562D01*
X285147Y169478D01*
X285088Y169396D01*
X285027Y169316D01*
X284962Y169239D01*
X284894Y169165D01*
X284824Y169093D01*
X284751Y169024D01*
X284675Y168957D01*
X284596Y168894D01*
X284516Y168834D01*
X284433Y168777D01*
X284347Y168723D01*
X284260Y168673D01*
X284171Y168626D01*
X284080Y168583D01*
X283988Y168543D01*
X283894Y168507D01*
X283799Y168474D01*
X283702Y168445D01*
X283605Y168420D01*
X283506Y168399D01*
X283407Y168381D01*
X283307Y168368D01*
X283207Y168358D01*
X283107Y168352D01*
X283006Y168350D01*
X280409Y168350D01*
X200640Y146054D02*
X200638Y146167D01*
X200632Y146280D01*
X200622Y146393D01*
X200608Y146506D01*
X200591Y146618D01*
X200569Y146729D01*
X200544Y146839D01*
X200514Y146949D01*
X200481Y147057D01*
X200444Y147164D01*
X200404Y147270D01*
X200359Y147374D01*
X200311Y147477D01*
X200260Y147578D01*
X200205Y147677D01*
X200147Y147774D01*
X200085Y147869D01*
X200020Y147962D01*
X199952Y148052D01*
X199881Y148140D01*
X199806Y148226D01*
X199729Y148309D01*
X199649Y148389D01*
X199566Y148466D01*
X199480Y148541D01*
X199392Y148612D01*
X199302Y148680D01*
X199209Y148745D01*
X199114Y148807D01*
X199017Y148865D01*
X198918Y148920D01*
X198817Y148971D01*
X198714Y149019D01*
X198610Y149064D01*
X198504Y149104D01*
X198397Y149141D01*
X198289Y149174D01*
X198179Y149204D01*
X198069Y149229D01*
X197958Y149251D01*
X197846Y149268D01*
X197733Y149282D01*
X197620Y149292D01*
X197507Y149298D01*
X197394Y149300D01*
X197281Y149298D01*
X197168Y149292D01*
X197055Y149282D01*
X196942Y149268D01*
X196830Y149251D01*
X196719Y149229D01*
X196609Y149204D01*
X196499Y149174D01*
X196391Y149141D01*
X196284Y149104D01*
X196178Y149064D01*
X196074Y149019D01*
X195971Y148971D01*
X195870Y148920D01*
X195771Y148865D01*
X195674Y148807D01*
X195579Y148745D01*
X195486Y148680D01*
X195396Y148612D01*
X195308Y148541D01*
X195222Y148466D01*
X195139Y148389D01*
X195059Y148309D01*
X194982Y148226D01*
X194907Y148140D01*
X194836Y148052D01*
X194768Y147962D01*
X194703Y147869D01*
X194641Y147774D01*
X194583Y147677D01*
X194528Y147578D01*
X194477Y147477D01*
X194429Y147374D01*
X194384Y147270D01*
X194344Y147164D01*
X194307Y147057D01*
X194274Y146949D01*
X194244Y146839D01*
X194219Y146729D01*
X194197Y146618D01*
X194180Y146506D01*
X194166Y146393D01*
X194156Y146280D01*
X194150Y146167D01*
X194148Y146054D01*
X194150Y145941D01*
X194156Y145828D01*
X194166Y145715D01*
X194180Y145602D01*
X194197Y145490D01*
X194219Y145379D01*
X194244Y145269D01*
X194274Y145159D01*
X194307Y145051D01*
X194344Y144944D01*
X194384Y144838D01*
X194429Y144734D01*
X194477Y144631D01*
X194528Y144530D01*
X194583Y144431D01*
X194641Y144334D01*
X194703Y144239D01*
X194768Y144146D01*
X194836Y144056D01*
X194907Y143968D01*
X194982Y143882D01*
X195059Y143799D01*
X195139Y143719D01*
X195222Y143642D01*
X195308Y143567D01*
X195396Y143496D01*
X195486Y143428D01*
X195579Y143363D01*
X195674Y143301D01*
X195771Y143243D01*
X195870Y143188D01*
X195971Y143137D01*
X196074Y143089D01*
X196178Y143044D01*
X196284Y143004D01*
X196391Y142967D01*
X196499Y142934D01*
X196609Y142904D01*
X196719Y142879D01*
X196830Y142857D01*
X196942Y142840D01*
X197055Y142826D01*
X197168Y142816D01*
X197281Y142810D01*
X197394Y142808D01*
X197507Y142810D01*
X197620Y142816D01*
X197733Y142826D01*
X197846Y142840D01*
X197958Y142857D01*
X198069Y142879D01*
X198179Y142904D01*
X198289Y142934D01*
X198397Y142967D01*
X198504Y143004D01*
X198610Y143044D01*
X198714Y143089D01*
X198817Y143137D01*
X198918Y143188D01*
X199017Y143243D01*
X199114Y143301D01*
X199209Y143363D01*
X199302Y143428D01*
X199392Y143496D01*
X199480Y143567D01*
X199566Y143642D01*
X199649Y143719D01*
X199729Y143799D01*
X199806Y143882D01*
X199881Y143968D01*
X199952Y144056D01*
X200020Y144146D01*
X200085Y144239D01*
X200147Y144334D01*
X200205Y144431D01*
X200260Y144530D01*
X200311Y144631D01*
X200359Y144734D01*
X200404Y144838D01*
X200444Y144944D01*
X200481Y145051D01*
X200514Y145159D01*
X200544Y145269D01*
X200569Y145379D01*
X200591Y145490D01*
X200608Y145602D01*
X200622Y145715D01*
X200632Y145828D01*
X200638Y145941D01*
X200640Y146054D01*
X199990Y151896D02*
X199988Y151997D01*
X199982Y152097D01*
X199972Y152197D01*
X199959Y152297D01*
X199941Y152396D01*
X199920Y152495D01*
X199895Y152592D01*
X199866Y152689D01*
X199833Y152784D01*
X199797Y152878D01*
X199757Y152970D01*
X199714Y153061D01*
X199667Y153150D01*
X199617Y153237D01*
X199563Y153323D01*
X199506Y153406D01*
X199446Y153486D01*
X199383Y153565D01*
X199316Y153641D01*
X199247Y153714D01*
X199175Y153784D01*
X199101Y153852D01*
X199024Y153917D01*
X198944Y153978D01*
X198862Y154037D01*
X198778Y154092D01*
X198692Y154144D01*
X198604Y154193D01*
X198514Y154238D01*
X198422Y154280D01*
X198329Y154318D01*
X198234Y154352D01*
X198139Y154383D01*
X198042Y154410D01*
X197944Y154433D01*
X197845Y154453D01*
X197745Y154468D01*
X197645Y154480D01*
X197545Y154488D01*
X197444Y154492D01*
X197344Y154492D01*
X197243Y154488D01*
X197143Y154480D01*
X197043Y154468D01*
X196943Y154453D01*
X196844Y154433D01*
X196746Y154410D01*
X196649Y154383D01*
X196554Y154352D01*
X196459Y154318D01*
X196366Y154280D01*
X196274Y154238D01*
X196184Y154193D01*
X196096Y154144D01*
X196010Y154092D01*
X195926Y154037D01*
X195844Y153978D01*
X195764Y153917D01*
X195687Y153852D01*
X195613Y153784D01*
X195541Y153714D01*
X195472Y153641D01*
X195405Y153565D01*
X195342Y153486D01*
X195282Y153406D01*
X195225Y153323D01*
X195171Y153237D01*
X195121Y153150D01*
X195074Y153061D01*
X195031Y152970D01*
X194991Y152878D01*
X194955Y152784D01*
X194922Y152689D01*
X194893Y152592D01*
X194868Y152495D01*
X194847Y152396D01*
X194829Y152297D01*
X194816Y152197D01*
X194806Y152097D01*
X194800Y151997D01*
X194798Y151896D01*
X194800Y151795D01*
X194806Y151695D01*
X194816Y151595D01*
X194829Y151495D01*
X194847Y151396D01*
X194868Y151297D01*
X194893Y151200D01*
X194922Y151103D01*
X194955Y151008D01*
X194991Y150914D01*
X195031Y150822D01*
X195074Y150731D01*
X195121Y150642D01*
X195171Y150555D01*
X195225Y150469D01*
X195282Y150386D01*
X195342Y150306D01*
X195405Y150227D01*
X195472Y150151D01*
X195541Y150078D01*
X195613Y150008D01*
X195687Y149940D01*
X195764Y149875D01*
X195844Y149814D01*
X195926Y149755D01*
X196010Y149700D01*
X196096Y149648D01*
X196184Y149599D01*
X196274Y149554D01*
X196366Y149512D01*
X196459Y149474D01*
X196554Y149440D01*
X196649Y149409D01*
X196746Y149382D01*
X196844Y149359D01*
X196943Y149339D01*
X197043Y149324D01*
X197143Y149312D01*
X197243Y149304D01*
X197344Y149300D01*
X197444Y149300D01*
X197545Y149304D01*
X197645Y149312D01*
X197745Y149324D01*
X197845Y149339D01*
X197944Y149359D01*
X198042Y149382D01*
X198139Y149409D01*
X198234Y149440D01*
X198329Y149474D01*
X198422Y149512D01*
X198514Y149554D01*
X198604Y149599D01*
X198692Y149648D01*
X198778Y149700D01*
X198862Y149755D01*
X198944Y149814D01*
X199024Y149875D01*
X199101Y149940D01*
X199175Y150008D01*
X199247Y150078D01*
X199316Y150151D01*
X199383Y150227D01*
X199446Y150306D01*
X199506Y150386D01*
X199563Y150469D01*
X199617Y150555D01*
X199667Y150642D01*
X199714Y150731D01*
X199757Y150822D01*
X199797Y150914D01*
X199833Y151008D01*
X199866Y151103D01*
X199895Y151200D01*
X199920Y151297D01*
X199941Y151396D01*
X199959Y151495D01*
X199972Y151595D01*
X199982Y151695D01*
X199988Y151795D01*
X199990Y151896D01*
X205578Y148651D02*
X205581Y148881D01*
X205589Y149111D01*
X205603Y149340D01*
X205622Y149569D01*
X205647Y149798D01*
X205677Y150025D01*
X205712Y150253D01*
X205753Y150479D01*
X205799Y150704D01*
X205851Y150928D01*
X205908Y151150D01*
X205970Y151372D01*
X206038Y151591D01*
X206111Y151809D01*
X206189Y152026D01*
X206272Y152240D01*
X206360Y152452D01*
X206453Y152662D01*
X206552Y152870D01*
X206585Y152960D01*
X206621Y153049D01*
X206661Y153137D01*
X206705Y153222D01*
X206752Y153306D01*
X206802Y153388D01*
X206856Y153468D01*
X206912Y153545D01*
X206972Y153621D01*
X207035Y153694D01*
X207100Y153764D01*
X207169Y153832D01*
X207240Y153896D01*
X207313Y153958D01*
X207389Y154017D01*
X207467Y154073D01*
X207548Y154126D01*
X207630Y154175D01*
X207714Y154221D01*
X207801Y154264D01*
X207888Y154303D01*
X207978Y154339D01*
X208068Y154371D01*
X208160Y154399D01*
X208253Y154424D01*
X208347Y154445D01*
X208441Y154462D01*
X208536Y154476D01*
X208632Y154485D01*
X208728Y154491D01*
X208824Y154493D01*
X208920Y154491D01*
X209016Y154485D01*
X209112Y154476D01*
X209207Y154462D01*
X209301Y154445D01*
X209395Y154424D01*
X209488Y154399D01*
X209580Y154371D01*
X209670Y154339D01*
X209760Y154303D01*
X209847Y154264D01*
X209934Y154221D01*
X210018Y154175D01*
X210100Y154126D01*
X210181Y154073D01*
X210259Y154017D01*
X210335Y153958D01*
X210408Y153896D01*
X210479Y153832D01*
X210548Y153764D01*
X210613Y153694D01*
X210676Y153621D01*
X210736Y153545D01*
X210792Y153468D01*
X210846Y153388D01*
X210896Y153306D01*
X210943Y153222D01*
X210987Y153137D01*
X211027Y153049D01*
X211063Y152960D01*
X211096Y152870D01*
X211195Y152663D01*
X211288Y152453D01*
X211376Y152240D01*
X211459Y152026D01*
X211537Y151810D01*
X211610Y151592D01*
X211678Y151372D01*
X211740Y151151D01*
X211797Y150928D01*
X211849Y150704D01*
X211895Y150479D01*
X211936Y150253D01*
X211971Y150026D01*
X212001Y149798D01*
X212026Y149569D01*
X212045Y149340D01*
X212059Y149111D01*
X212067Y148881D01*
X212070Y148651D01*
X205578Y148651D02*
X205581Y148421D01*
X205589Y148191D01*
X205603Y147962D01*
X205622Y147733D01*
X205647Y147504D01*
X205677Y147276D01*
X205712Y147049D01*
X205753Y146823D01*
X205799Y146598D01*
X205851Y146374D01*
X205908Y146151D01*
X205970Y145930D01*
X206038Y145710D01*
X206111Y145492D01*
X206189Y145276D01*
X206272Y145062D01*
X206360Y144850D01*
X206453Y144639D01*
X206552Y144432D01*
X206552Y144431D02*
X206585Y144341D01*
X206621Y144252D01*
X206662Y144164D01*
X206705Y144079D01*
X206752Y143995D01*
X206802Y143913D01*
X206856Y143833D01*
X206912Y143756D01*
X206972Y143680D01*
X207035Y143607D01*
X207100Y143537D01*
X207169Y143469D01*
X207240Y143405D01*
X207313Y143343D01*
X207389Y143284D01*
X207467Y143228D01*
X207548Y143175D01*
X207630Y143126D01*
X207714Y143080D01*
X207801Y143037D01*
X207888Y142998D01*
X207978Y142962D01*
X208068Y142930D01*
X208160Y142902D01*
X208253Y142877D01*
X208347Y142856D01*
X208441Y142839D01*
X208536Y142825D01*
X208632Y142816D01*
X208728Y142810D01*
X208824Y142808D01*
X211095Y144432D02*
X211194Y144639D01*
X211287Y144850D01*
X211375Y145062D01*
X211458Y145276D01*
X211536Y145492D01*
X211609Y145710D01*
X211677Y145930D01*
X211739Y146151D01*
X211796Y146374D01*
X211848Y146598D01*
X211894Y146823D01*
X211935Y147049D01*
X211970Y147276D01*
X212000Y147504D01*
X212025Y147733D01*
X212044Y147962D01*
X212058Y148191D01*
X212066Y148421D01*
X212069Y148651D01*
X211096Y144431D02*
X211063Y144341D01*
X211027Y144252D01*
X210987Y144164D01*
X210943Y144079D01*
X210896Y143995D01*
X210846Y143913D01*
X210792Y143833D01*
X210736Y143756D01*
X210676Y143680D01*
X210613Y143607D01*
X210548Y143537D01*
X210479Y143469D01*
X210408Y143405D01*
X210335Y143343D01*
X210259Y143284D01*
X210181Y143228D01*
X210100Y143175D01*
X210018Y143126D01*
X209934Y143080D01*
X209847Y143037D01*
X209760Y142998D01*
X209670Y142962D01*
X209580Y142930D01*
X209488Y142902D01*
X209395Y142877D01*
X209301Y142856D01*
X209207Y142839D01*
X209112Y142825D01*
X209016Y142816D01*
X208920Y142810D01*
X208824Y142808D01*
X206227Y145405D02*
X211420Y151896D01*
X220578Y154493D02*
X220685Y154491D01*
X220791Y154485D01*
X220897Y154475D01*
X221003Y154462D01*
X221109Y154444D01*
X221213Y154423D01*
X221317Y154398D01*
X221420Y154369D01*
X221521Y154337D01*
X221621Y154300D01*
X221720Y154260D01*
X221818Y154217D01*
X221914Y154170D01*
X222008Y154119D01*
X222100Y154065D01*
X222190Y154008D01*
X222278Y153948D01*
X222363Y153884D01*
X222446Y153817D01*
X222527Y153747D01*
X222605Y153675D01*
X222681Y153599D01*
X222753Y153521D01*
X222823Y153440D01*
X222890Y153357D01*
X222954Y153272D01*
X223014Y153184D01*
X223071Y153094D01*
X223125Y153002D01*
X223176Y152908D01*
X223223Y152812D01*
X223266Y152714D01*
X223306Y152615D01*
X223343Y152515D01*
X223375Y152414D01*
X223404Y152311D01*
X223429Y152207D01*
X223450Y152103D01*
X223468Y151997D01*
X223481Y151891D01*
X223491Y151785D01*
X223497Y151679D01*
X223499Y151572D01*
X220578Y154493D02*
X220457Y154491D01*
X220336Y154485D01*
X220216Y154475D01*
X220095Y154462D01*
X219976Y154444D01*
X219856Y154423D01*
X219738Y154398D01*
X219621Y154369D01*
X219504Y154336D01*
X219389Y154300D01*
X219275Y154259D01*
X219162Y154216D01*
X219050Y154168D01*
X218941Y154117D01*
X218833Y154062D01*
X218726Y154004D01*
X218622Y153943D01*
X218520Y153878D01*
X218420Y153810D01*
X218322Y153739D01*
X218226Y153665D01*
X218133Y153588D01*
X218043Y153507D01*
X217955Y153424D01*
X217870Y153338D01*
X217787Y153249D01*
X217708Y153158D01*
X217631Y153064D01*
X217558Y152968D01*
X217488Y152870D01*
X217421Y152769D01*
X217357Y152666D01*
X217297Y152561D01*
X217240Y152454D01*
X217186Y152346D01*
X217136Y152236D01*
X217090Y152124D01*
X217047Y152011D01*
X217008Y151896D01*
X222526Y149300D02*
X222605Y149377D01*
X222681Y149458D01*
X222754Y149541D01*
X222824Y149626D01*
X222891Y149714D01*
X222955Y149804D01*
X223015Y149896D01*
X223072Y149991D01*
X223126Y150087D01*
X223177Y150185D01*
X223224Y150285D01*
X223268Y150387D01*
X223308Y150490D01*
X223344Y150594D01*
X223376Y150700D01*
X223405Y150806D01*
X223430Y150914D01*
X223452Y151022D01*
X223469Y151132D01*
X223483Y151241D01*
X223492Y151351D01*
X223498Y151462D01*
X223500Y151572D01*
X222525Y149300D02*
X217008Y142809D01*
X223499Y142809D01*
X227930Y142809D02*
X227930Y143458D01*
X228579Y143458D01*
X228579Y142809D01*
X227930Y142809D01*
X233010Y151896D02*
X236255Y154493D01*
X236255Y142809D01*
X233010Y142809D02*
X239501Y142809D01*
X244440Y142809D02*
X248335Y142809D01*
X248434Y142811D01*
X248534Y142817D01*
X248633Y142826D01*
X248731Y142839D01*
X248829Y142856D01*
X248927Y142877D01*
X249023Y142902D01*
X249118Y142930D01*
X249212Y142962D01*
X249305Y142997D01*
X249397Y143036D01*
X249487Y143079D01*
X249575Y143124D01*
X249662Y143174D01*
X249746Y143226D01*
X249829Y143282D01*
X249909Y143340D01*
X249987Y143402D01*
X250062Y143467D01*
X250135Y143535D01*
X250205Y143605D01*
X250273Y143678D01*
X250338Y143753D01*
X250400Y143831D01*
X250458Y143911D01*
X250514Y143994D01*
X250566Y144078D01*
X250616Y144165D01*
X250661Y144253D01*
X250704Y144343D01*
X250743Y144435D01*
X250778Y144528D01*
X250810Y144622D01*
X250838Y144717D01*
X250863Y144813D01*
X250884Y144911D01*
X250901Y145009D01*
X250914Y145107D01*
X250923Y145206D01*
X250929Y145306D01*
X250931Y145405D01*
X250931Y146703D01*
X250929Y146802D01*
X250923Y146902D01*
X250914Y147001D01*
X250901Y147099D01*
X250884Y147197D01*
X250863Y147295D01*
X250838Y147391D01*
X250810Y147486D01*
X250778Y147580D01*
X250743Y147673D01*
X250704Y147765D01*
X250661Y147855D01*
X250616Y147943D01*
X250566Y148030D01*
X250514Y148114D01*
X250458Y148197D01*
X250400Y148277D01*
X250338Y148355D01*
X250273Y148430D01*
X250205Y148503D01*
X250135Y148573D01*
X250062Y148641D01*
X249987Y148706D01*
X249909Y148768D01*
X249829Y148826D01*
X249746Y148882D01*
X249662Y148934D01*
X249575Y148984D01*
X249487Y149029D01*
X249397Y149072D01*
X249305Y149111D01*
X249212Y149146D01*
X249118Y149178D01*
X249023Y149206D01*
X248927Y149231D01*
X248829Y149252D01*
X248731Y149269D01*
X248633Y149282D01*
X248534Y149291D01*
X248434Y149297D01*
X248335Y149299D01*
X248335Y149300D02*
X244440Y149300D01*
X244440Y154493D01*
X250931Y154493D01*
X255362Y143458D02*
X255362Y142809D01*
X255362Y143458D02*
X256011Y143458D01*
X256011Y142809D01*
X255362Y142809D01*
X260442Y145405D02*
X263038Y154493D01*
X260442Y145405D02*
X266933Y145405D01*
X264986Y148001D02*
X264986Y142809D01*
D12*
X408084Y49446D02*
X411979Y49446D01*
X410031Y47499D02*
X410031Y51393D01*
X432214Y49347D02*
X435939Y49347D01*
X73116Y33386D02*
X69221Y33386D01*
X71169Y31439D02*
X71169Y35333D01*
X48986Y33541D02*
X45261Y33541D01*
D13*
X414570Y17210D02*
X419650Y17210D01*
D11*
X398743Y17088D02*
X398743Y12008D01*
X398743Y17088D02*
X400154Y17088D01*
X400228Y17086D01*
X400301Y17080D01*
X400375Y17071D01*
X400447Y17057D01*
X400519Y17040D01*
X400590Y17019D01*
X400660Y16994D01*
X400728Y16966D01*
X400795Y16934D01*
X400860Y16899D01*
X400922Y16860D01*
X400983Y16819D01*
X401042Y16774D01*
X401098Y16726D01*
X401152Y16675D01*
X401203Y16621D01*
X401251Y16565D01*
X401296Y16506D01*
X401337Y16445D01*
X401376Y16383D01*
X401411Y16318D01*
X401443Y16251D01*
X401471Y16183D01*
X401496Y16113D01*
X401517Y16042D01*
X401534Y15970D01*
X401548Y15898D01*
X401557Y15824D01*
X401563Y15751D01*
X401565Y15677D01*
X401563Y15603D01*
X401557Y15530D01*
X401548Y15456D01*
X401534Y15384D01*
X401517Y15312D01*
X401496Y15241D01*
X401471Y15171D01*
X401443Y15103D01*
X401411Y15036D01*
X401376Y14972D01*
X401337Y14909D01*
X401296Y14848D01*
X401251Y14789D01*
X401203Y14733D01*
X401152Y14679D01*
X401098Y14628D01*
X401042Y14580D01*
X400983Y14535D01*
X400922Y14494D01*
X400860Y14455D01*
X400795Y14420D01*
X400728Y14388D01*
X400660Y14360D01*
X400590Y14335D01*
X400519Y14314D01*
X400447Y14297D01*
X400375Y14283D01*
X400301Y14274D01*
X400228Y14268D01*
X400154Y14266D01*
X398743Y14266D01*
X400436Y14266D02*
X401565Y12008D01*
X404175Y12008D02*
X405586Y12008D01*
X405660Y12010D01*
X405733Y12016D01*
X405807Y12025D01*
X405879Y12039D01*
X405951Y12056D01*
X406022Y12077D01*
X406092Y12102D01*
X406160Y12130D01*
X406227Y12162D01*
X406292Y12197D01*
X406354Y12236D01*
X406415Y12277D01*
X406474Y12322D01*
X406530Y12370D01*
X406584Y12421D01*
X406635Y12475D01*
X406683Y12531D01*
X406728Y12590D01*
X406769Y12651D01*
X406808Y12714D01*
X406843Y12778D01*
X406875Y12845D01*
X406903Y12913D01*
X406928Y12983D01*
X406949Y13054D01*
X406966Y13126D01*
X406980Y13198D01*
X406989Y13272D01*
X406995Y13345D01*
X406997Y13419D01*
X406995Y13493D01*
X406989Y13566D01*
X406980Y13640D01*
X406966Y13712D01*
X406949Y13784D01*
X406928Y13855D01*
X406903Y13925D01*
X406875Y13993D01*
X406843Y14060D01*
X406808Y14125D01*
X406769Y14187D01*
X406728Y14248D01*
X406683Y14307D01*
X406635Y14363D01*
X406584Y14417D01*
X406530Y14468D01*
X406474Y14516D01*
X406415Y14561D01*
X406354Y14602D01*
X406292Y14641D01*
X406227Y14676D01*
X406160Y14708D01*
X406092Y14736D01*
X406022Y14761D01*
X405951Y14782D01*
X405879Y14799D01*
X405807Y14813D01*
X405733Y14822D01*
X405660Y14828D01*
X405586Y14830D01*
X405868Y17088D02*
X404175Y17088D01*
X405868Y17088D02*
X405934Y17086D01*
X405999Y17080D01*
X406064Y17071D01*
X406128Y17058D01*
X406192Y17041D01*
X406254Y17020D01*
X406315Y16996D01*
X406375Y16968D01*
X406433Y16937D01*
X406488Y16902D01*
X406542Y16865D01*
X406594Y16824D01*
X406643Y16780D01*
X406689Y16734D01*
X406733Y16685D01*
X406774Y16633D01*
X406811Y16579D01*
X406846Y16524D01*
X406877Y16466D01*
X406905Y16406D01*
X406929Y16345D01*
X406950Y16283D01*
X406967Y16219D01*
X406980Y16155D01*
X406989Y16090D01*
X406995Y16025D01*
X406997Y15959D01*
X406995Y15893D01*
X406989Y15828D01*
X406980Y15763D01*
X406967Y15699D01*
X406950Y15635D01*
X406929Y15573D01*
X406905Y15512D01*
X406877Y15452D01*
X406846Y15395D01*
X406811Y15339D01*
X406774Y15285D01*
X406733Y15233D01*
X406689Y15184D01*
X406643Y15138D01*
X406594Y15094D01*
X406542Y15053D01*
X406488Y15016D01*
X406433Y14981D01*
X406375Y14950D01*
X406315Y14922D01*
X406254Y14898D01*
X406192Y14877D01*
X406128Y14860D01*
X406064Y14847D01*
X405999Y14838D01*
X405934Y14832D01*
X405868Y14830D01*
X404739Y14830D01*
D13*
X144680Y114720D02*
X139600Y114720D01*
D11*
X139092Y132373D02*
X134012Y132373D01*
X134012Y133784D01*
X134014Y133858D01*
X134020Y133931D01*
X134029Y134005D01*
X134043Y134077D01*
X134060Y134149D01*
X134081Y134220D01*
X134106Y134290D01*
X134134Y134358D01*
X134166Y134425D01*
X134201Y134490D01*
X134240Y134552D01*
X134281Y134613D01*
X134326Y134672D01*
X134374Y134728D01*
X134425Y134782D01*
X134479Y134833D01*
X134535Y134881D01*
X134594Y134926D01*
X134655Y134967D01*
X134718Y135006D01*
X134782Y135041D01*
X134849Y135073D01*
X134917Y135101D01*
X134987Y135126D01*
X135058Y135147D01*
X135130Y135164D01*
X135202Y135178D01*
X135276Y135187D01*
X135349Y135193D01*
X135423Y135195D01*
X135497Y135193D01*
X135570Y135187D01*
X135644Y135178D01*
X135716Y135164D01*
X135788Y135147D01*
X135859Y135126D01*
X135929Y135101D01*
X135997Y135073D01*
X136064Y135041D01*
X136129Y135006D01*
X136191Y134967D01*
X136252Y134926D01*
X136311Y134881D01*
X136367Y134833D01*
X136421Y134782D01*
X136472Y134728D01*
X136520Y134672D01*
X136565Y134613D01*
X136606Y134552D01*
X136645Y134490D01*
X136680Y134425D01*
X136712Y134358D01*
X136740Y134290D01*
X136765Y134220D01*
X136786Y134149D01*
X136803Y134077D01*
X136817Y134005D01*
X136826Y133931D01*
X136832Y133858D01*
X136834Y133784D01*
X136834Y132373D01*
X136834Y134066D02*
X139092Y135195D01*
X135141Y137805D02*
X134012Y139216D01*
X139092Y139216D01*
X139092Y137805D02*
X139092Y140627D01*
D13*
X121680Y24570D02*
X116600Y24570D01*
D11*
X128748Y20679D02*
X128748Y15599D01*
X128748Y20679D02*
X130159Y20679D01*
X130233Y20677D01*
X130306Y20671D01*
X130380Y20662D01*
X130452Y20648D01*
X130524Y20631D01*
X130595Y20610D01*
X130665Y20585D01*
X130733Y20557D01*
X130800Y20525D01*
X130864Y20490D01*
X130927Y20451D01*
X130988Y20410D01*
X131047Y20365D01*
X131103Y20317D01*
X131157Y20266D01*
X131208Y20212D01*
X131256Y20156D01*
X131301Y20097D01*
X131342Y20036D01*
X131381Y19974D01*
X131416Y19909D01*
X131448Y19842D01*
X131476Y19774D01*
X131501Y19704D01*
X131522Y19633D01*
X131539Y19561D01*
X131553Y19489D01*
X131562Y19415D01*
X131568Y19342D01*
X131570Y19268D01*
X131568Y19194D01*
X131562Y19121D01*
X131553Y19047D01*
X131539Y18975D01*
X131522Y18903D01*
X131501Y18832D01*
X131476Y18762D01*
X131448Y18694D01*
X131416Y18627D01*
X131381Y18563D01*
X131342Y18500D01*
X131301Y18439D01*
X131256Y18380D01*
X131208Y18324D01*
X131157Y18270D01*
X131103Y18219D01*
X131047Y18171D01*
X130988Y18126D01*
X130927Y18085D01*
X130865Y18046D01*
X130800Y18011D01*
X130733Y17979D01*
X130665Y17951D01*
X130595Y17926D01*
X130524Y17905D01*
X130452Y17888D01*
X130380Y17874D01*
X130306Y17865D01*
X130233Y17859D01*
X130159Y17857D01*
X128748Y17857D01*
X130441Y17857D02*
X131570Y15599D01*
X135732Y20679D02*
X135801Y20677D01*
X135869Y20672D01*
X135937Y20662D01*
X136005Y20649D01*
X136072Y20633D01*
X136138Y20613D01*
X136202Y20589D01*
X136265Y20562D01*
X136327Y20531D01*
X136387Y20497D01*
X136445Y20460D01*
X136501Y20420D01*
X136554Y20377D01*
X136605Y20331D01*
X136654Y20282D01*
X136700Y20231D01*
X136743Y20178D01*
X136783Y20122D01*
X136820Y20064D01*
X136854Y20004D01*
X136885Y19942D01*
X136912Y19879D01*
X136936Y19815D01*
X136956Y19749D01*
X136972Y19682D01*
X136985Y19614D01*
X136995Y19546D01*
X137000Y19478D01*
X137002Y19409D01*
X135732Y20679D02*
X135653Y20677D01*
X135574Y20671D01*
X135496Y20662D01*
X135418Y20649D01*
X135341Y20632D01*
X135265Y20611D01*
X135190Y20586D01*
X135116Y20558D01*
X135044Y20527D01*
X134973Y20492D01*
X134904Y20453D01*
X134837Y20412D01*
X134772Y20367D01*
X134709Y20319D01*
X134649Y20268D01*
X134591Y20214D01*
X134536Y20158D01*
X134484Y20099D01*
X134435Y20037D01*
X134388Y19973D01*
X134345Y19907D01*
X134305Y19839D01*
X134268Y19769D01*
X134235Y19697D01*
X134206Y19624D01*
X134179Y19550D01*
X136579Y18421D02*
X136627Y18470D01*
X136674Y18521D01*
X136717Y18575D01*
X136758Y18631D01*
X136796Y18688D01*
X136831Y18748D01*
X136863Y18809D01*
X136892Y18872D01*
X136917Y18936D01*
X136940Y19001D01*
X136959Y19068D01*
X136974Y19135D01*
X136986Y19203D01*
X136995Y19271D01*
X137000Y19340D01*
X137002Y19409D01*
X136579Y18421D02*
X134180Y15599D01*
X137002Y15599D01*
D13*
X138020Y162040D02*
X143100Y162040D01*
D11*
X120281Y171068D02*
X119152Y171068D01*
X119086Y171070D01*
X119021Y171076D01*
X118956Y171085D01*
X118892Y171098D01*
X118828Y171115D01*
X118766Y171136D01*
X118705Y171160D01*
X118645Y171188D01*
X118588Y171219D01*
X118532Y171254D01*
X118478Y171291D01*
X118426Y171332D01*
X118377Y171376D01*
X118331Y171422D01*
X118287Y171471D01*
X118246Y171523D01*
X118209Y171577D01*
X118174Y171633D01*
X118143Y171690D01*
X118115Y171750D01*
X118091Y171811D01*
X118070Y171873D01*
X118053Y171937D01*
X118040Y172001D01*
X118031Y172066D01*
X118025Y172131D01*
X118023Y172197D01*
X118023Y175019D01*
X118025Y175085D01*
X118031Y175150D01*
X118040Y175215D01*
X118053Y175279D01*
X118070Y175343D01*
X118091Y175405D01*
X118115Y175466D01*
X118143Y175526D01*
X118174Y175583D01*
X118209Y175639D01*
X118246Y175693D01*
X118287Y175745D01*
X118331Y175794D01*
X118377Y175840D01*
X118426Y175884D01*
X118478Y175925D01*
X118532Y175962D01*
X118587Y175997D01*
X118645Y176028D01*
X118705Y176056D01*
X118766Y176080D01*
X118828Y176101D01*
X118892Y176118D01*
X118956Y176131D01*
X119021Y176140D01*
X119086Y176146D01*
X119152Y176148D01*
X120281Y176148D01*
X124172Y176148D02*
X124241Y176146D01*
X124309Y176141D01*
X124377Y176131D01*
X124445Y176118D01*
X124512Y176102D01*
X124578Y176082D01*
X124642Y176058D01*
X124705Y176031D01*
X124767Y176000D01*
X124827Y175966D01*
X124885Y175929D01*
X124941Y175889D01*
X124994Y175846D01*
X125045Y175800D01*
X125094Y175751D01*
X125140Y175700D01*
X125183Y175647D01*
X125223Y175591D01*
X125260Y175533D01*
X125294Y175473D01*
X125325Y175411D01*
X125352Y175348D01*
X125376Y175284D01*
X125396Y175218D01*
X125412Y175151D01*
X125425Y175083D01*
X125435Y175015D01*
X125440Y174947D01*
X125442Y174878D01*
X124172Y176148D02*
X124093Y176146D01*
X124014Y176140D01*
X123936Y176131D01*
X123858Y176118D01*
X123781Y176101D01*
X123705Y176080D01*
X123630Y176055D01*
X123556Y176027D01*
X123484Y175996D01*
X123413Y175961D01*
X123344Y175922D01*
X123277Y175881D01*
X123212Y175836D01*
X123149Y175788D01*
X123089Y175737D01*
X123031Y175683D01*
X122976Y175627D01*
X122924Y175568D01*
X122875Y175506D01*
X122828Y175442D01*
X122785Y175376D01*
X122745Y175308D01*
X122708Y175238D01*
X122675Y175166D01*
X122646Y175093D01*
X122619Y175019D01*
X125019Y173890D02*
X125067Y173939D01*
X125114Y173990D01*
X125157Y174044D01*
X125198Y174100D01*
X125236Y174157D01*
X125271Y174217D01*
X125303Y174278D01*
X125332Y174341D01*
X125357Y174405D01*
X125380Y174470D01*
X125399Y174537D01*
X125414Y174604D01*
X125426Y174672D01*
X125435Y174740D01*
X125440Y174809D01*
X125442Y174878D01*
X125018Y173890D02*
X122620Y171068D01*
X125442Y171068D01*
D13*
X150560Y162440D02*
X155640Y162440D01*
D11*
X150361Y183608D02*
X149232Y183608D01*
X149166Y183610D01*
X149101Y183616D01*
X149036Y183625D01*
X148972Y183638D01*
X148908Y183655D01*
X148846Y183676D01*
X148785Y183700D01*
X148725Y183728D01*
X148668Y183759D01*
X148612Y183794D01*
X148558Y183831D01*
X148506Y183872D01*
X148457Y183916D01*
X148411Y183962D01*
X148367Y184011D01*
X148326Y184063D01*
X148289Y184117D01*
X148254Y184173D01*
X148223Y184230D01*
X148195Y184290D01*
X148171Y184351D01*
X148150Y184413D01*
X148133Y184477D01*
X148120Y184541D01*
X148111Y184606D01*
X148105Y184671D01*
X148103Y184737D01*
X148103Y187559D01*
X148105Y187625D01*
X148111Y187690D01*
X148120Y187755D01*
X148133Y187819D01*
X148150Y187883D01*
X148171Y187945D01*
X148195Y188006D01*
X148223Y188066D01*
X148254Y188123D01*
X148289Y188179D01*
X148326Y188233D01*
X148367Y188285D01*
X148411Y188334D01*
X148457Y188380D01*
X148506Y188424D01*
X148558Y188465D01*
X148612Y188502D01*
X148667Y188537D01*
X148725Y188568D01*
X148785Y188596D01*
X148846Y188620D01*
X148908Y188641D01*
X148972Y188658D01*
X149036Y188671D01*
X149101Y188680D01*
X149166Y188686D01*
X149232Y188688D01*
X150361Y188688D01*
X152700Y187559D02*
X154111Y188688D01*
X154111Y183608D01*
X152700Y183608D02*
X155522Y183608D01*
D10*
X315285Y20108D02*
X324598Y20108D01*
X319942Y24764D02*
X319942Y15451D01*
D13*
X143210Y77320D02*
X143210Y82400D01*
D11*
X135181Y66398D02*
X134052Y66398D01*
X133986Y66400D01*
X133921Y66406D01*
X133856Y66415D01*
X133792Y66428D01*
X133728Y66445D01*
X133666Y66466D01*
X133605Y66490D01*
X133545Y66518D01*
X133488Y66549D01*
X133432Y66584D01*
X133378Y66621D01*
X133326Y66662D01*
X133277Y66706D01*
X133231Y66752D01*
X133187Y66801D01*
X133146Y66853D01*
X133109Y66907D01*
X133074Y66963D01*
X133043Y67020D01*
X133015Y67080D01*
X132991Y67141D01*
X132970Y67203D01*
X132953Y67267D01*
X132940Y67331D01*
X132931Y67396D01*
X132925Y67461D01*
X132923Y67527D01*
X132923Y70349D01*
X132925Y70415D01*
X132931Y70480D01*
X132940Y70545D01*
X132953Y70609D01*
X132970Y70673D01*
X132991Y70735D01*
X133015Y70796D01*
X133043Y70856D01*
X133074Y70913D01*
X133109Y70969D01*
X133146Y71023D01*
X133187Y71075D01*
X133231Y71124D01*
X133277Y71170D01*
X133326Y71214D01*
X133378Y71255D01*
X133432Y71292D01*
X133487Y71327D01*
X133545Y71358D01*
X133605Y71386D01*
X133666Y71410D01*
X133728Y71431D01*
X133792Y71448D01*
X133856Y71461D01*
X133921Y71470D01*
X133986Y71476D01*
X134052Y71478D01*
X135181Y71478D01*
X137520Y66398D02*
X138931Y66398D01*
X139005Y66400D01*
X139078Y66406D01*
X139152Y66415D01*
X139224Y66429D01*
X139296Y66446D01*
X139367Y66467D01*
X139437Y66492D01*
X139505Y66520D01*
X139572Y66552D01*
X139637Y66587D01*
X139699Y66626D01*
X139760Y66667D01*
X139819Y66712D01*
X139875Y66760D01*
X139929Y66811D01*
X139980Y66865D01*
X140028Y66921D01*
X140073Y66980D01*
X140114Y67041D01*
X140153Y67104D01*
X140188Y67168D01*
X140220Y67235D01*
X140248Y67303D01*
X140273Y67373D01*
X140294Y67444D01*
X140311Y67516D01*
X140325Y67588D01*
X140334Y67662D01*
X140340Y67735D01*
X140342Y67809D01*
X140340Y67883D01*
X140334Y67956D01*
X140325Y68030D01*
X140311Y68102D01*
X140294Y68174D01*
X140273Y68245D01*
X140248Y68315D01*
X140220Y68383D01*
X140188Y68450D01*
X140153Y68515D01*
X140114Y68577D01*
X140073Y68638D01*
X140028Y68697D01*
X139980Y68753D01*
X139929Y68807D01*
X139875Y68858D01*
X139819Y68906D01*
X139760Y68951D01*
X139699Y68992D01*
X139636Y69031D01*
X139572Y69066D01*
X139505Y69098D01*
X139437Y69126D01*
X139367Y69151D01*
X139296Y69172D01*
X139224Y69189D01*
X139152Y69203D01*
X139078Y69212D01*
X139005Y69218D01*
X138931Y69220D01*
X139213Y71478D02*
X137520Y71478D01*
X139213Y71478D02*
X139279Y71476D01*
X139344Y71470D01*
X139409Y71461D01*
X139473Y71448D01*
X139537Y71431D01*
X139599Y71410D01*
X139660Y71386D01*
X139720Y71358D01*
X139778Y71327D01*
X139833Y71292D01*
X139887Y71255D01*
X139939Y71214D01*
X139988Y71170D01*
X140034Y71124D01*
X140078Y71075D01*
X140119Y71023D01*
X140156Y70969D01*
X140191Y70914D01*
X140222Y70856D01*
X140250Y70796D01*
X140274Y70735D01*
X140295Y70673D01*
X140312Y70609D01*
X140325Y70545D01*
X140334Y70480D01*
X140340Y70415D01*
X140342Y70349D01*
X140340Y70283D01*
X140334Y70218D01*
X140325Y70153D01*
X140312Y70089D01*
X140295Y70025D01*
X140274Y69963D01*
X140250Y69902D01*
X140222Y69842D01*
X140191Y69785D01*
X140156Y69729D01*
X140119Y69675D01*
X140078Y69623D01*
X140034Y69574D01*
X139988Y69528D01*
X139939Y69484D01*
X139887Y69443D01*
X139833Y69406D01*
X139778Y69371D01*
X139720Y69340D01*
X139660Y69312D01*
X139599Y69288D01*
X139537Y69267D01*
X139473Y69250D01*
X139409Y69237D01*
X139344Y69228D01*
X139279Y69222D01*
X139213Y69220D01*
X138084Y69220D01*
D13*
X398300Y195910D02*
X398300Y204450D01*
X467840Y204450D02*
X467840Y195910D01*
X460070Y214450D02*
X406070Y214450D01*
X431800Y185910D02*
X449340Y185910D01*
M02*
