G04 EAGLE Gerber RS-274X export*
G75*
%MOMM*%
%FSLAX34Y34*%
%LPD*%
%INSolderpaste Top*%
%IPPOS*%
%AMOC8*
5,1,8,0,0,1.08239X$1,22.5*%
G01*
%ADD10C,0.863600*%
%ADD11R,0.800000X0.800000*%
%ADD12R,0.700000X1.500000*%
%ADD13R,1.000000X0.600000*%
%ADD14R,1.000000X0.800000*%


D10*
X198720Y17714D02*
X198720Y28128D01*
X211217Y28128D02*
X211217Y17714D01*
X223714Y17714D02*
X223714Y28128D01*
X236210Y28128D02*
X236210Y17714D01*
X248707Y17714D02*
X248707Y28128D01*
X261204Y28128D02*
X261204Y17714D01*
X273701Y17714D02*
X273701Y28128D01*
X286197Y28128D02*
X286197Y17714D01*
X178527Y177861D02*
X168113Y177861D01*
X168113Y165364D02*
X178527Y165364D01*
X178527Y152867D02*
X168113Y152867D01*
X168113Y140370D02*
X178527Y140370D01*
X178527Y127873D02*
X168113Y127873D01*
X168113Y115377D02*
X178527Y115377D01*
X178527Y102880D02*
X168113Y102880D01*
X168113Y90383D02*
X178527Y90383D01*
X178527Y77886D02*
X168113Y77886D01*
X168113Y65389D02*
X178527Y65389D01*
X178527Y52893D02*
X168113Y52893D01*
X168113Y40396D02*
X178527Y40396D01*
X304511Y40447D02*
X314925Y40447D01*
X314925Y52943D02*
X304511Y52943D01*
X304511Y65440D02*
X314925Y65440D01*
X314925Y77937D02*
X304511Y77937D01*
X304511Y90434D02*
X314925Y90434D01*
X314925Y102930D02*
X304511Y102930D01*
X304511Y115427D02*
X314925Y115427D01*
X314925Y127924D02*
X304511Y127924D01*
X304511Y140421D02*
X314925Y140421D01*
X314925Y152918D02*
X304511Y152918D01*
X304511Y165414D02*
X314925Y165414D01*
X314925Y177911D02*
X304511Y177911D01*
X304511Y190408D02*
X314925Y190408D01*
X314925Y202905D02*
X304511Y202905D01*
D11*
X417110Y24830D03*
X417110Y9590D03*
X142140Y107100D03*
X142140Y122340D03*
X119140Y16950D03*
X119140Y32190D03*
X140560Y169660D03*
X140560Y154420D03*
X153100Y170060D03*
X153100Y154820D03*
X135590Y79860D03*
X150830Y79860D03*
D12*
X410570Y182680D03*
X425570Y182680D03*
X455570Y182680D03*
D13*
X396570Y210180D03*
D14*
X396570Y189180D03*
D13*
X469570Y210180D03*
D14*
X469570Y189180D03*
M02*
